<?xml version="1.0" encoding="utf-8"?>
<!-- Generator: Adobe Illustrator 28.0.0, SVG Export Plug-In . SVG Version: 6.00 Build 0)  -->
<svg version="1.1" id="Layer_1" xmlns="http://www.w3.org/2000/svg" xmlns:xlink="http://www.w3.org/1999/xlink" x="0px" y="0px"
	 viewBox="0 0 512 512" style="enable-background:new 0 0 512 512;" xml:space="preserve">
<style type="text/css">
	.st0{fill:#CD4C60;}
	.st1{fill:#A53C50;}
	.st2{fill:#E69B45;}
	.st3{fill:#E3C84C;}
	.st4{fill:#FDE05E;}
	.st5{fill:#5FC77D;}
	.st6{fill:#6DE08E;}
</style>
<g>
	<circle class="st0" cx="261.3" cy="302.9" r="51.1"/>
	<path class="st1" d="M181.6,366.9c3.9,5,3.5,12.2-1,16.7l-81.5,81.5c-5,5-13.1,5-18.1,0.1c-0.1-0.1-0.2-0.2-0.3-0.3
		c-40-44.4-62.2-102.1-62.1-161.9l76.6-12.8l63.9,12.8C159.1,326.2,167,348.7,181.6,366.9L181.6,366.9z"/>
	<path class="st2" d="M189,230.6c-19.1,19.2-29.9,45.2-29.9,72.3H18.7c-0.1-64.4,25.5-126.1,71.1-171.5l0.1,0.1l56.5,43.7L189,230.6
		z"/>
	<path class="st3" d="M261.3,60.2l12.8,76.6l-12.8,63.9c-27.1,0-53.1,10.7-72.3,29.9l-99.1-99.1l-0.1-0.1
		C135.2,85.7,197,60.1,261.3,60.2z"/>
	<path class="st4" d="M432.9,131.4l-43.8,56.6l-55.4,42.7c-14.2-14.4-32.4-24.2-52.2-28c-6.6-1.3-13.3-1.9-20.1-1.9V60.2
		c9.1,0,18.2,0.5,27.2,1.5C343.2,67.8,394.1,92.4,432.9,131.4z"/>
	<path class="st5" d="M504,302.9l-63.9,12.8l-76.6-12.8c0-6.9-0.7-13.8-2-20.6c-3.9-19.7-13.6-37.7-27.8-51.7l99.2-99.2
		C470.7,169,495,218.2,502,271.1C503.3,281.6,504,292.3,504,302.9z"/>
	<path class="st6" d="M504,302.9c0.1,59.8-22,117.5-62.1,161.9c-4.8,5.1-12.9,5.4-18.1,0.6c-0.1-0.1-0.2-0.2-0.3-0.3l-81.5-81.5
		c-4.6-4.6-5-11.8-0.9-16.9c14.5-18.1,22.4-40.7,22.4-63.9H504z"/>
	<path class="st1" d="M261.3,315.7c-1.6,0-3.1-0.3-4.6-0.8L90.7,251c-6.6-2.5-9.9-9.9-7.3-16.5c2.5-6.6,9.9-9.9,16.5-7.3l0,0
		l166,63.9c6.6,2.5,9.9,9.9,7.4,16.5C271.4,312.4,266.6,315.7,261.3,315.7z"/>
</g>
</svg>
