<?xml version="1.0" encoding="utf-8"?>
<!-- Generator: Adobe Illustrator 28.0.0, SVG Export Plug-In . SVG Version: 6.00 Build 0)  -->
<svg version="1.1" id="Layer_1" xmlns="http://www.w3.org/2000/svg" xmlns:xlink="http://www.w3.org/1999/xlink" x="0px" y="0px"
	 viewBox="0 0 512 512" style="enable-background:new 0 0 512 512;" xml:space="preserve">
<style type="text/css">
	.st0{fill-rule:evenodd;clip-rule:evenodd;fill:#DA8C36;}
	.st1{fill-rule:evenodd;clip-rule:evenodd;fill:#C97629;}
	.st2{fill-rule:evenodd;clip-rule:evenodd;fill:#FFDA2D;}
	.st3{fill-rule:evenodd;clip-rule:evenodd;fill:#FFC700;}
	.st4{fill:#FDD835;}
	.st5{opacity:0.5;fill:#FFFFFF;enable-background:new    ;}
	.st6{fill:#F39E09;}
	.st7{fill:#E88102;}
	.st8{fill:#DB6704;}
	.st9{opacity:0.25;fill:#FFFFFF;enable-background:new    ;}
</style>
<g>
	<g>
		<path class="st0" d="M341.1,116.4v33.3c84.8,79.1,159.1,193.5,86.4,288.7C398.4,476.5,357.1,497,309,497H207
			c-48,0-89.3-20.4-118.5-58.6c-72.7-95.2,1.6-209.6,86.4-288.7v-33.3c-5.2-13.8-7.8-18.9-22.2-39.4c-25-35.6-19.9-47.7,41.1-25.2
			C219.4,61.2,208.6,15,258,15c49.4,0,38.6,46.2,64.2,36.7c61-22.5,66-10.5,41.1,25.2C348.9,97.5,346.3,102.6,341.1,116.4z"/>
		<path class="st1" d="M341.1,116.4v33.3c84.8,79.1,159.1,193.5,86.4,288.7C398.4,476.5,357.1,497,309,497h-24.6
			c48,0,89.3-20.4,118.5-58.6c72.7-95.2-1.6-209.6-86.4-288.7v-33.3c5.2-13.8,7.8-18.9,22.2-39.4c12.3-17.6,17.3-29.5,11.9-34.2
			c33.4-8.2,33,5.2,12.7,34.2C348.9,97.5,346.3,102.6,341.1,116.4L341.1,116.4z M140.8,42.7c5-4.4,18.8-2.8,43.8,5.8
			c-3.6,4.1-8,6-15.4,3.3C157.9,47.6,148.5,44.6,140.8,42.7L140.8,42.7z M245.7,16.1c35.4,7,28.7,44.2,51.9,35.6
			c3.2-1.2,6.3-2.3,9.2-3.3C297.8,38.4,293.1,15,258,15C253.4,15,249.3,15.4,245.7,16.1z"/>
		<path class="st2" d="M166.5,112.5h182.9c11.3,0,20.5,9.2,20.5,20.5s-9.2,20.5-20.5,20.5H166.5c-11.3,0-20.5-9.2-20.5-20.5
			C146,121.7,155.3,112.5,166.5,112.5z"/>
		<path class="st3" d="M166.5,112.5h182.9c8.8,0,16.4,5.7,19.3,13.5c-2.2-0.8-4.6-1.2-7-1.2H178.8c-11.3,0-20.5,9.2-20.5,20.5
			c0,2.5,0.4,4.8,1.2,7c-7.9-2.9-13.5-10.5-13.5-19.3C146,121.7,155.3,112.5,166.5,112.5z"/>
		<g>
			<path class="st4" d="M253.4,421.4c59.1,0,106.9-47.9,106.9-106.9s-47.9-106.9-106.9-106.9s-106.9,47.9-106.9,106.9
				C146.6,373.5,194.4,421.4,253.4,421.4z"/>
			<path class="st5" d="M253.4,207.6c-59,0-106.9,47.9-106.9,106.9c0,59.1,47.9,106.9,106.9,106.9s106.9-47.9,106.9-106.9
				C360.4,255.4,312.6,207.6,253.4,207.6z M253.4,416.8c-56.6,0-102.3-45.7-102.3-102.3c0-56.6,45.8-102.2,102.3-102.2
				S355.8,258,355.8,314.6S310,416.8,253.4,416.8z"/>
			<path class="st5" d="M296.2,216.4L155.4,357.2c-4.8-11.1-7.6-22.8-8.6-34.9l114.4-114.4C273.6,208.8,285.4,211.8,296.2,216.4z
				 M346.7,262L201,407.6c-9.1-5.2-17.3-11.5-24.4-18.9l151.2-151C335.2,244.7,341.6,253,346.7,262z M323.4,233.6L172.5,384.4
				c-2.4-2.7-4.6-5.5-6.7-8.6l149-148.9C317.8,229,320.6,231.3,323.4,233.6z M357,287.8L226.8,418c-3.9-1-7.8-2.3-11.5-3.7l138-138
				C354.8,280.1,356.1,283.9,357,287.8z"/>
			<path class="st5" d="M340.4,319.2c0,46.2-37.6,83.8-83.8,83.8c-26,0-49.2-11.8-64.6-30.4c15.3,16.5,37.2,27,61.5,27
				c46.2,0,83.8-37.6,83.8-83.8c0-20.2-7.2-38.9-19.2-53.3C331.9,277.2,340.4,297.2,340.4,319.2z"/>
			<path class="st6" d="M253.4,399.4c46.3,0,83.8-37.5,83.8-83.8s-37.5-83.8-83.8-83.8s-83.8,37.5-83.8,83.8
				C169.7,361.9,207.2,399.4,253.4,399.4z"/>
			<path class="st7" d="M317,261c-14.7-12.6-33.8-20.2-54.6-20.2c-46.2,0-83.8,37.6-83.8,83.8c0,20.8,7.6,40,20.2,54.6
				c-17.8-15.4-29.1-38.1-29.1-63.4c0-46.2,37.6-83.8,83.8-83.8C278.9,231.8,301.6,243.1,317,261z"/>
			<path class="st8" d="M294.6,265.7v-6.6l-7.6,6.6h-69.3l-5.3,15.6v6.6h22c6.9,0.2,11.7,3,14.1,8.1h-31.7l-4.5,10.6v6.6h36.8
				c-2.3,7.2-7.3,10.8-15.1,10.9h-19.3l0.1,15.7l37.6,44.8h30.8v-6.6l-5.5-1.3l-27.7-34c8.4-2.6,14.9-6.2,19.4-11.1
				c4.6-4.8,7.5-11,8.7-18.6h11.9l4.5-17.2v-6.6l-6.3,6.7h-10c-0.7-4.8-2.3-9.2-4.7-13H290L294.6,265.7z"/>
			<path class="st4" d="M290.2,276.5h-16.6c2.4,3.9,3.9,8.2,4.7,13h16.4l-4.5,17.2h-11.9c-1.2,7.6-4.2,13.7-8.7,18.6
				c-4.6,4.8-11.1,8.5-19.4,11.1l33.1,40.7v1.2h-30.8l-37.6-44.8l-0.1-15.7h19.4c7.8-0.2,12.8-3.8,15.1-10.9h-36.8l4.5-17.2h31.6
				c-2.4-5.2-7.1-7.8-14.1-8.1h-22l5.3-22.1h76.9L290.2,276.5z"/>
			<path class="st5" d="M216.9,289.5h6.3l-8.5,8.5L216.9,289.5z M253.4,259.1l-22.1,22.1h-18.8l5.3-22.1H253.4z M290.2,276.5h-1.2
				l1.7-1.7L290.2,276.5z M294.5,289.5l-4.5,17.2H278c-1.2,7.6-4.2,13.7-8.7,18.6c-4.6,4.8-11,8.5-19.4,11.1l10.1,12.4l-17.6,17.7
				l-19.8-23.6l55.3-55.3c0.1,0.7,0.3,1.3,0.3,2L294.5,289.5z M234.1,317.6c2.4-0.1,4.5-0.5,6.4-1.1l-21.7,21.7l-3.9-4.8l-0.1-6.5
				l9.2-9.2L234.1,317.6L234.1,317.6z M294.6,259.1l-1.1,4.2l-13,13.1h-6.9c1,1.5,1.7,3,2.4,4.6l-27.4,27.4c0.3-0.6,0.5-1.1,0.7-1.7
				h-14.1l47.5-47.5L294.6,259.1L294.6,259.1z M276.3,368.7l-9.6,9.6h-14.3l-0.4-0.5l17.5-17.5L276.3,368.7z"/>
			<path class="st9" d="M323.4,269.4c-54.3,19-97.9,60.9-119,114c-1.9-1.3-3.7-2.7-5.4-4.3c-12.6-14.7-20.2-33.8-20.2-54.6
				c0-46.2,37.6-83.8,83.8-83.8c20.8,0,40,7.6,54.6,20.2C319.3,263.6,321.5,266.4,323.4,269.4z"/>
		</g>
	</g>
</g>
</svg>
