<?xml version="1.0" encoding="utf-8"?>
<!-- Generator: Adobe Illustrator 28.0.0, SVG Export Plug-In . SVG Version: 6.00 Build 0)  -->
<svg version="1.1" id="Layer_1" xmlns="http://www.w3.org/2000/svg" xmlns:xlink="http://www.w3.org/1999/xlink" x="0px" y="0px"
	 viewBox="0 0 512 512" style="enable-background:new 0 0 512 512;" xml:space="preserve">
<style type="text/css">
	.st0{fill:#E4F2F9;}
	.st1{fill:#BDE0F1;}
	.st2{fill:#77BEE2;}
	.st3{fill:#5F5F82;}
	.st4{fill:#3C3C55;}
	.st5{fill:#EA6318;}
	.st6{fill:#F77E41;}
	.st7{fill:#913C12;}
</style>
<g>
	<path class="st0" d="M391,0H166c-24.9,0-45,20.1-45,45v422c0,24.9,20.1,45,45,45h300c24.9,0,45-20.1,45-45V120L391,0z"/>
	<path class="st1" d="M391,0h-75v512h150c24.9,0,45-20.1,45-45V120L391,0z"/>
	<path class="st2" d="M391,0v105c0,8.3,6.7,15,15,15h105L391,0z"/>
	<g>
		<path class="st3" d="M426,302H206c-8.3,0-15-6.7-15-15s6.7-15,15-15h220c8.3,0,15,6.7,15,15S434.3,302,426,302z M426,212H206
			c-8.3,0-15-6.7-15-15s6.7-15,15-15h220c8.3,0,15,6.7,15,15S434.3,212,426,212z M426,392H206c-8.3,0-15-6.7-15-15s6.7-15,15-15h220
			c8.3,0,15,6.7,15,15S434.3,392,426,392z"/>
	</g>
	<path class="st4" d="M441,287c0-8.3-6.7-15-15-15H316v30h110C434.3,302,441,295.3,441,287z M441,197c0-8.3-6.7-15-15-15H316v30h110
		C434.3,212,441,205.3,441,197z M426,392c8.3,0,15-6.7,15-15s-6.7-15-15-15H316v30H426z"/>
	<path class="st5" d="M136,512C61.6,512,1,451.4,1,377s60.6-135,135-135s135,60.6,135,135S210.4,512,136,512z"/>
	<path class="st6" d="M136,242v270c74.4,0,135-60.6,135-135S210.4,242,136,242z"/>
	<path class="st7" d="M195.6,339.4c-5.9-5.9-15.4-5.9-21.2,0L115,398.8l-19.4-19.4c-5.9-5.9-15.4-5.9-21.2,0s-5.9,15.4,0,21.2l30,30
		c2.9,2.9,6.8,4.4,10.6,4.4s7.7-1.5,10.6-4.4l70-70C201.5,354.7,201.5,345.3,195.6,339.4L195.6,339.4z"/>
	<path class="st7" d="M195.6,339.4c-5.9-5.9-15.4-5.9-21.2,0L136,377.8v42.4l59.6-59.6C201.5,354.7,201.5,345.3,195.6,339.4
		L195.6,339.4z"/>
</g>
</svg>
