<?xml version="1.0" encoding="utf-8"?>
<!-- Generator: Adobe Illustrator 28.0.0, SVG Export Plug-In . SVG Version: 6.00 Build 0)  -->
<svg version="1.1" id="Layer_1" xmlns="http://www.w3.org/2000/svg" xmlns:xlink="http://www.w3.org/1999/xlink" x="0px" y="0px"
	 viewBox="0 0 512 512" style="enable-background:new 0 0 512 512;" xml:space="preserve">
<style type="text/css">
	.st0{fill:#F29C1F;}
	.st1{fill:#F3D55B;}
	.st2{fill:#A56A43;}
	.st3{fill:#805333;}
	.st4{fill:#603E26;}
	.st5{fill:#F0C419;}
	.st6{fill:#E57E25;}
	.st7{fill:#F9EAB0;}
</style>
<g>
	<g>
		<path class="st0" d="M203,149.9V61.8c0-14.7-25.7-26.5-57.4-26.5S88.3,47.1,88.3,61.8V159c-29.7,1.1-53,12.4-53,26.4v231.5
			C14.6,420.9,0,430.3,0,441.4v44.1C0,500.2,25.7,512,57.4,512s57.4-11.8,57.4-26.5v-17.7c0,14.7,25.7,26.5,57.4,26.5
			s57.4-11.8,57.4-26.5l4.4-114.8L203,149.9z"/>
		<path class="st1" d="M481.3,117.9c-0.6-1-12.9-18.5-48.6-26.5c9.1-7.5,14.5-18.6,14.8-30.4c0-20.8-17.7-39-42.1-43.2
			c-4.8-0.7-9.3,2.6-10,7.4c-0.7,4.7,2.4,9.1,7,10c15.9,2.8,27.5,13.6,27.5,25.8c0,14.5-15.7,26.3-35.3,26.5
			c-7.7,0.1-15.3-1.9-22-5.9c-4.2-2.5-9.6-1.2-12.1,3c-2.5,4.2-1.2,9.6,3,12.1c9.4,5.5,20,8.4,30.9,8.4c0.1,0,0.2,0,0.2,0
			c54.8,0,71.7,22.1,72.2,22.7c2.7,4,8.2,5.1,12.3,2.4C483,127.4,484.1,121.9,481.3,117.9L481.3,117.9L481.3,117.9z"/>
		<path class="st2" d="M398.9,459H229.5V353.1c0-14.7-25.7-26.5-57.4-26.5c-7.4,0-14.8,0.6-22.1,2v-96.1
			c12.9-30.3,30.8-58.3,53-82.6v-0.1c18.4-20.6,40.4-37.8,64.8-50.7V99c7.5,4.6,16.2,7,25.1,6.9h49.4c8.9,0.1,17.6-2.4,25.2-7
			c19.2,9.5,106,59.3,137.4,192.4C540.2,441.4,434.2,459,398.9,459z"/>
		<path class="st3" d="M406.1,10.3c0.1,19.4-3.8,61.8-34.9,86.1c-1.2,1-2.4,1.8-3.7,2.6c-7.6,4.6-16.3,7-25.2,7h-49.4
			c-8.8,0.1-17.5-2.3-25.1-6.9c-1.3-0.8-2.6-1.7-3.8-2.6c-31.1-24.3-34.9-66.6-34.9-86.1c0-4.9,4-8.8,8.9-8.8c1.1,0,2.3,0.2,3.3,0.7
			c11.3,4.8,15.1,15.4,32.2,15.4c22,0,22-17.7,44-17.7s22.1,17.7,44.1,17.7c17.1,0,20.9-10.8,32.2-15.4c4.5-1.9,9.7,0.3,11.5,4.8
			C405.8,8.1,406.1,9.2,406.1,10.3z"/>
		<path class="st4" d="M321.8,105.8c10.3-14.4,18-30.5,22.9-47.6c1.3-4.7,6.2-7.5,10.9-6.1c4.7,1.3,7.5,6.2,6.1,10.9
			c-4.8,16.2-11.8,31.6-20.7,45.9l29.5,27.5c3.6,3.3,3.7,8.9,0.4,12.5c-3.3,3.6-8.9,3.7-12.5,0.4l0,0l-31.7-29.6v29.1
			c0,4.9-4,8.8-8.8,8.8s-8.8-4-8.8-8.8v-29.1l-31.6,29.6c-3.6,3.3-9.2,3.2-12.5-0.4c-3.3-3.6-3.2-9.2,0.4-12.5l29.6-27.5
			c-9-14.3-16-29.7-20.8-45.9c-1.3-4.7,1.5-9.6,6.2-10.9c0,0,0,0,0,0c4.6-1.3,9.5,1.3,10.8,6c0,0,0,0.1,0,0.1
			c4.9,17,12.7,33.1,23.1,47.5L321.8,105.8z"/>
		<path class="st5" d="M150.1,185.4c0,14.7-25.7,26.5-57.4,26.5S35.3,200,35.3,185.4c0-13.9,23.3-25.3,53-26.4
			c1.5-0.1,2.9-0.1,4.4-0.1C124.4,158.9,150.1,170.7,150.1,185.4z"/>
		<path class="st6" d="M203,61.8v88.1c-22.2,24.4-40.1,52.3-53,82.6v-47.1c0-14.7-25.7-26.5-57.4-26.5c-1.5,0-2.9,0-4.4,0.1V61.8
			c0,14.7,25.7,26.5,57.4,26.5S203,76.4,203,61.8z"/>
		<path class="st7" d="M114.8,441.4c0,14.7-25.7,26.5-57.4,26.5S0,456,0,441.4c0-11,14.6-20.5,35.3-24.5c7.3-1.4,14.7-2.1,22.1-2
			C89.1,414.9,114.8,426.7,114.8,441.4z"/>
		<path class="st1" d="M114.8,441.4v44.1c0,14.7-25.7,26.5-57.4,26.5S0,500.2,0,485.5v-44.1c0,14.7,25.7,26.5,57.4,26.5
			S114.8,456,114.8,441.4z M229.5,353.1c0,14.7-25.7,26.5-57.4,26.5s-57.4-11.8-57.4-26.5c0-11,14.6-20.5,35.3-24.5
			c7.3-1.4,14.7-2.1,22.1-2C203.8,326.6,229.5,338.4,229.5,353.1z"/>
		<path class="st5" d="M229.5,353.1v114.8c0,14.7-25.7,26.5-57.4,26.5s-57.4-11.8-57.4-26.5V353.1c0,14.7,25.7,26.5,57.4,26.5
			S229.5,367.8,229.5,353.1z"/>
	</g>
</g>
</svg>
