<svg xmlns="http://www.w3.org/2000/svg" version="1.1" xmlns:xlink="http://www.w3.org/1999/xlink" width="512" height="512" x="0" y="0" viewBox="0 0 512 512" style="enable-background:new 0 0 512 512" xml:space="preserve" class=""><g><path d="M345.397 105.651h-16.254V89.397c0-40.329-32.81-73.143-73.143-73.143s-73.143 32.813-73.143 73.143v16.254h-16.254V89.397C166.603 40.103 206.706 0 256 0s89.397 40.103 89.397 89.397v16.254z" style="" fill="#785550" data-original="#785550"></path><path d="M20.317 276.317v203.175c0 17.953 14.554 32.508 32.508 32.508h406.349c17.954 0 32.508-14.555 32.508-32.508V276.317H20.317z" style="" fill="#694b4b" data-original="#694b4b"></path><path d="M117.841 365.714h276.317c38.849 0 73.676-17.214 97.524-44.312v-45.085H20.317v203.175c0 17.954 14.554 32.508 32.508 32.508h406.349c17.954 0 32.508-14.555 32.508-32.508h-349.46c-35.907 0-65.016-29.109-65.016-65.016v-34.643c0-10.031 8.989-17.679 18.874-15.978a128.128 128.128 0 0 0 21.761 1.859z" style="" fill="#5a4146" data-original="#5a4146" class=""></path><path d="M394.159 349.46H117.841c-62.838 0-113.778-50.94-113.778-113.778v-97.524c0-8.977 7.277-16.254 16.254-16.254h471.365c8.977 0 16.254 7.277 16.254 16.254v97.524c0 62.838-50.94 113.778-113.777 113.778z" style="" fill="#785550" data-original="#785550"></path><path d="M182.857 89.397h-16.254a8.126 8.126 0 0 0-8.127 8.127v24.381h32.508V97.524a8.126 8.126 0 0 0-8.127-8.127zM345.397 89.397h-16.254a8.126 8.126 0 0 0-8.127 8.127v24.381h32.508V97.524a8.127 8.127 0 0 0-8.127-8.127z" style="" fill="#5a4146" data-original="#5a4146" class=""></path><path d="M410.413 186.921H93.46c-26.93 0-48.762-21.831-48.762-48.762v-16.254h414.476v16.254c.001 26.93-21.831 48.762-48.761 48.762z" style="" fill="#8c5f5f" data-original="#8c5f5f"></path><path d="M365.714 390.095h-8.127a8.128 8.128 0 0 1-8.127-8.127v-81.27a8.128 8.128 0 0 1 8.127-8.127h8.127a8.128 8.128 0 0 1 8.127 8.127v81.27a8.126 8.126 0 0 1-8.127 8.127z" style="" fill="#5a4146" data-original="#5a4146" class=""></path><path d="M377.905 373.841h-32.508c-8.977 0-16.254-7.277-16.254-16.254v-12.19h65.016v12.19c0 8.977-7.277 16.254-16.254 16.254z" style="" fill="#e1a546" data-original="#e1a546"></path><path d="M381.968 357.587h-40.635c-6.733 0-12.19-5.458-12.19-12.19 0-6.733 5.458-12.19 12.19-12.19h40.635c6.733 0 12.19 5.458 12.19 12.19.001 6.732-5.457 12.19-12.19 12.19z" style="" fill="#ffc850" data-original="#ffc850"></path><path d="M154.413 390.095h-8.127a8.128 8.128 0 0 1-8.127-8.127v-81.27a8.128 8.128 0 0 1 8.127-8.127h8.127a8.128 8.128 0 0 1 8.127 8.127v81.27a8.127 8.127 0 0 1-8.127 8.127z" style="" fill="#5a4146" data-original="#5a4146" class=""></path><path d="M166.603 373.841h-32.508c-8.977 0-16.254-7.277-16.254-16.254v-12.19h65.016v12.19c0 8.977-7.276 16.254-16.254 16.254z" style="" fill="#e1a546" data-original="#e1a546"></path><path d="M170.668 357.587h-40.635c-6.733 0-12.19-5.458-12.19-12.19 0-6.733 5.458-12.19 12.19-12.19h40.635c6.733 0 12.19 5.458 12.19 12.19-.001 6.732-5.458 12.19-12.19 12.19z" style="" fill="#ffc850" data-original="#ffc850"></path></g></svg>