<svg xmlns="http://www.w3.org/2000/svg" version="1.1" xmlns:xlink="http://www.w3.org/1999/xlink" width="512" height="512" x="0" y="0" viewBox="0 0 100 100" style="enable-background:new 0 0 512 512" xml:space="preserve" class=""><g><linearGradient id="a" x1="-1.817" x2="97.805" y1="-7.727" y2="103.258" gradientUnits="userSpaceOnUse"><stop offset="0" stop-color="#97e0ff"></stop><stop offset="1" stop-color="#1075ff"></stop></linearGradient><path fill="url(#a)" fill-rule="evenodd" d="M50 2.5C23.78 2.5 2.5 23.78 2.5 50S23.78 97.5 50 97.5 97.5 76.22 97.5 50 76.22 2.5 50 2.5zM37.33 27.83c5.25 0 9.5 4.26 9.5 9.5 0 5.25-4.25 9.5-9.5 9.5-5.24 0-9.5-4.25-9.5-9.5 0-5.24 4.26-9.5 9.5-9.5zm-4.09 43.41a3.18 3.18 0 0 1-4.48 0 3.18 3.18 0 0 1 0-4.48l38-38a3.18 3.18 0 0 1 4.48 0 3.18 3.18 0 0 1 0 4.48zm29.43.93c-5.25 0-9.5-4.26-9.5-9.5 0-5.25 4.25-9.5 9.5-9.5 5.24 0 9.5 4.25 9.5 9.5 0 5.24-4.26 9.5-9.5 9.5z" clip-rule="evenodd" opacity="1" data-original="url(#a)" class=""></path></g></svg>