<?xml version="1.0" encoding="utf-8"?>
<!-- Generator: Adobe Illustrator 28.0.0, SVG Export Plug-In . SVG Version: 6.00 Build 0)  -->
<svg version="1.1" id="Layer_1" xmlns="http://www.w3.org/2000/svg" xmlns:xlink="http://www.w3.org/1999/xlink" x="0px" y="0px"
	 viewBox="0 0 512 512" style="enable-background:new 0 0 512 512;" xml:space="preserve">
<style type="text/css">
	.st0{fill:#FFFFFF;}
	.st1{fill:#AD4154;}
</style>
<g>
	<path class="st0" d="M512,256c0-49.1-2.1-93.9-10.7-119.5c-8.5-29.9-19.2-57.6-44.8-83.2c-32-29.9-59.7-38.4-102.4-46.9
		C324.3,2.1,288,0,266.7,0h-19.2c-23.5,0-57.6,2.1-89.6,6.4c-42.7,8.5-72.5,19.2-102.4,46.9c-27.7,25.6-36.3,53.3-44.8,83.2
		C2.1,162.1,0,206.9,0,256s2.1,93.9,10.7,119.5c8.5,29.9,19.2,57.6,44.8,83.2c32,29.9,59.7,38.4,102.4,46.9
		C192,512,234.7,512,256,512s64,0,100.3-6.4c40.5-8.5,70.4-17.1,102.4-46.9c25.6-23.5,36.3-51.2,44.8-83.2
		C509.9,349.9,512,305.1,512,256z"/>
	<path class="st1" d="M320,142.9c-8.5-8.5-21.3-8.5-29.9,0L192,241.1c-8.5,8.5-8.5,21.3,0,29.9l98.1,98.1c8.5,8.5,21.3,8.5,29.9,0
		s8.5-21.3,0-29.9L236.8,256l83.2-83.2C328.5,164.3,328.5,151.5,320,142.9L320,142.9z"/>
</g>
</svg>
