<?xml version="1.0" encoding="utf-8"?>
<!-- Generator: Adobe Illustrator 28.0.0, SVG Export Plug-In . SVG Version: 6.00 Build 0)  -->
<svg version="1.1" id="Layer_1" xmlns="http://www.w3.org/2000/svg" xmlns:xlink="http://www.w3.org/1999/xlink" x="0px" y="0px"
	 viewBox="0 0 512 512" style="enable-background:new 0 0 512 512;" xml:space="preserve">
<style type="text/css">
	.st0{fill-rule:evenodd;clip-rule:evenodd;fill:#DA8C36;}
	.st1{fill-rule:evenodd;clip-rule:evenodd;fill:#C97629;}
	.st2{fill-rule:evenodd;clip-rule:evenodd;fill:#FFDA2D;}
	.st3{fill-rule:evenodd;clip-rule:evenodd;fill:#FFC700;}
	.st4{fill:#FDD835;}
	.st5{opacity:0.5;fill:#FFFFFF;enable-background:new    ;}
	.st6{fill:#F39E09;}
	.st7{fill:#E88102;}
	.st8{fill:#DB6704;}
	.st9{opacity:0.25;fill:#FFFFFF;enable-background:new    ;}
	.st10{fill-rule:evenodd;clip-rule:evenodd;fill:#0593FC;}
	.st11{fill-rule:evenodd;clip-rule:evenodd;fill:#E2E7F0;}
	.st12{fill:#0593FC;}
	.st13{fill:#70DA40;}
	.st14{fill-rule:evenodd;clip-rule:evenodd;fill:#CBD0D8;}
</style>
<g>
	<g>
		<path class="st0" d="M325.7,111.5v33.3c84.8,79.1,159.1,193.5,86.4,288.7c-29.1,38.2-70.4,58.6-118.5,58.6H191.6
			c-48,0-89.3-20.4-118.5-58.6C0.4,338.3,74.7,224,159.5,144.9v-33.3c-5.2-13.8-7.8-18.9-22.2-39.4c-25-35.6-19.9-47.7,41.1-25.2
			c25.6,9.5,14.8-36.7,64.2-36.7c49.4,0,38.6,46.2,64.2,36.7c61-22.5,66-10.5,41.1,25.2C333.5,92.6,330.9,97.8,325.7,111.5z"/>
		<path class="st1" d="M325.7,111.5v33.3c84.8,79.1,159.1,193.5,86.4,288.7c-29.1,38.2-70.4,58.6-118.5,58.6h-24.6
			c48,0,89.3-20.4,118.5-58.6c72.7-95.2-1.6-209.6-86.4-288.7v-33.3c5.2-13.8,7.8-18.9,22.2-39.4c12.3-17.6,17.3-29.5,11.9-34.2
			c33.4-8.2,33,5.2,12.7,34.2C333.5,92.6,330.9,97.8,325.7,111.5L325.7,111.5z M125.4,37.9c5-4.4,18.8-2.8,43.8,5.8
			c-3.6,4.1-8,6-15.4,3.3C142.5,42.7,133.1,39.8,125.4,37.9L125.4,37.9z M230.3,11.3c35.4,7,28.7,44.2,51.9,35.6
			c3.2-1.2,6.3-2.3,9.2-3.3c-9-10.1-13.7-33.5-48.8-33.5C238,10.2,234,10.6,230.3,11.3z"/>
		<path class="st2" d="M151.1,107.7h182.9c11.3,0,20.5,9.2,20.5,20.5c0,11.3-9.2,20.5-20.5,20.5H151.1c-11.3,0-20.5-9.2-20.5-20.5
			C130.6,116.9,139.9,107.7,151.1,107.7z"/>
		<path class="st3" d="M151.1,107.7h182.9c8.8,0,16.4,5.7,19.3,13.5c-2.2-0.8-4.6-1.2-7-1.2H163.4c-11.3,0-20.5,9.2-20.5,20.5
			c0,2.5,0.4,4.8,1.2,7c-7.9-2.9-13.5-10.5-13.5-19.3C130.6,116.9,139.9,107.7,151.1,107.7z"/>
		<g>
			<path class="st4" d="M238.1,416.6c59.1,0,106.9-47.9,106.9-106.9s-47.9-106.9-106.9-106.9s-106.9,47.9-106.9,106.9
				C131.2,368.7,179,416.6,238.1,416.6z"/>
			<path class="st5" d="M238.1,202.7c-59,0-106.9,47.9-106.9,106.9c0,59.1,47.9,106.9,106.9,106.9S345,368.7,345,309.6
				C345,250.6,297.2,202.7,238.1,202.7z M238.1,412c-56.6,0-102.3-45.7-102.3-102.3c0-56.6,45.8-102.2,102.3-102.2
				s102.3,45.8,102.3,102.3S294.6,412,238.1,412z"/>
			<path class="st5" d="M280.8,211.6L140,352.3c-4.8-11.1-7.6-22.8-8.6-34.9L245.9,203C258.2,204,270,207,280.8,211.6z M331.3,257.2
				L185.6,402.8c-9.1-5.2-17.3-11.5-24.4-18.9l151.2-151C319.8,239.9,326.2,248.1,331.3,257.2z M308,228.8L157.1,379.6
				c-2.4-2.7-4.6-5.5-6.7-8.6l149-148.9C302.4,224.2,305.3,226.5,308,228.8z M341.6,283L211.4,413.2c-3.9-1-7.8-2.3-11.5-3.7
				l138-138C339.4,275.3,340.7,279.1,341.6,283z"/>
			<path class="st5" d="M325,314.3c0,46.2-37.6,83.8-83.8,83.8c-26,0-49.2-11.8-64.6-30.4c15.3,16.5,37.2,27,61.5,27
				c46.2,0,83.8-37.6,83.8-83.8c0-20.2-7.2-38.9-19.2-53.3C316.5,272.4,325,292.4,325,314.3z"/>
			<path class="st6" d="M238.1,394.6c46.3,0,83.8-37.5,83.8-83.8S284.3,227,238.1,227s-83.8,37.5-83.8,83.8
				C154.3,357.1,191.8,394.6,238.1,394.6z"/>
			<path class="st7" d="M301.6,256.2c-14.7-12.6-33.8-20.2-54.6-20.2c-46.2,0-83.8,37.6-83.8,83.8c0,20.8,7.6,40,20.2,54.6
				c-17.8-15.4-29.1-38.1-29.1-63.4c0-46.2,37.6-83.8,83.8-83.8C263.5,227,286.2,238.3,301.6,256.2z"/>
			<path class="st8" d="M279.2,260.9v-6.6l-7.6,6.6h-69.3l-5.3,15.6v6.6h22c6.9,0.2,11.7,3,14.1,8.1h-31.7l-4.5,10.6v6.6h36.8
				c-2.3,7.2-7.3,10.8-15.1,10.9h-19.3l0.1,15.7l37.6,44.8h30.8v-6.6l-5.5-1.3l-27.7-34c8.4-2.6,14.9-6.2,19.4-11.1
				c4.6-4.8,7.5-11,8.7-18.6h11.9l4.5-17.2v-6.6l-6.3,6.7h-10c-0.7-4.8-2.3-9.2-4.7-13h16.6L279.2,260.9z"/>
			<path class="st4" d="M274.8,271.6h-16.6c2.4,3.9,3.9,8.2,4.7,13h16.4l-4.5,17.2h-11.9c-1.2,7.6-4.2,13.7-8.7,18.6
				c-4.6,4.8-11.1,8.5-19.4,11.1l33.1,40.7v1.2H237l-37.6-44.8l-0.1-15.7h19.4c7.8-0.2,12.8-3.8,15.1-10.9H197l4.5-17.2h31.6
				c-2.4-5.2-7.1-7.8-14.1-8.1h-22l5.3-22.1h76.9L274.8,271.6z"/>
			<path class="st5" d="M201.5,284.6h6.3l-8.5,8.5L201.5,284.6z M238.1,254.3l-22.1,22.1h-18.8l5.3-22.1H238.1z M274.8,271.6h-1.2
				l1.7-1.7L274.8,271.6z M279.1,284.6l-4.5,17.2h-12.1c-1.2,7.6-4.2,13.7-8.7,18.6c-4.6,4.8-11,8.5-19.4,11.1l10.1,12.4l-17.6,17.7
				L207.3,338l55.3-55.3c0.1,0.7,0.3,1.3,0.3,2L279.1,284.6z M218.7,312.8c2.4-0.1,4.5-0.5,6.4-1.1l-21.7,21.7l-3.9-4.8l-0.1-6.5
				l9.2-9.2L218.7,312.8L218.7,312.8z M279.2,254.3l-1.1,4.2l-13,13.1h-6.9c1,1.5,1.7,3,2.4,4.6l-27.4,27.4c0.3-0.6,0.5-1.1,0.7-1.7
				h-14.1l47.5-47.5L279.2,254.3L279.2,254.3z M260.9,363.8l-9.6,9.6h-14.3l-0.4-0.5l17.5-17.5L260.9,363.8z"/>
			<path class="st9" d="M308,264.6c-54.3,19-97.9,60.9-119,114c-1.9-1.3-3.7-2.7-5.4-4.3c-12.6-14.7-20.2-33.8-20.2-54.6
				c0-46.2,37.6-83.8,83.8-83.8c20.8,0,40,7.6,54.6,20.2C303.9,258.7,306.1,261.6,308,264.6z"/>
		</g>
	</g>
</g>
<g>
	<path class="st10" d="M366.3,344.2c40.6,0,73.7-33.1,73.7-73.7c0-40.6-33.1-73.7-73.7-73.7s-73.7,33.1-73.7,73.7
		C292.6,311.1,325.7,344.2,366.3,344.2z"/>
	<path class="st11" d="M366.3,318.4c26.4,0,48-21.6,48-48s-21.5-47.9-48-47.9s-48,21.6-48,47.9S339.9,318.4,366.3,318.4z"/>
	<path class="st12" d="M358.1,245.2c0-4.5,3.6-8.1,8.1-8.1s8.1,3.6,8.1,8.1v17.1h17.1c4.5,0,8.1,3.6,8.1,8.1c0,4.5-3.6,8.1-8.1,8.1
		c0,0,0,0,0,0h-25.3c-4.5,0-8.1-3.6-8.1-8.1V245.2z"/>
	<path class="st13" d="M366.3,156.8c-4.5,0-8.1-3.6-8.1-8.1c0-4.5,3.6-8.1,8.1-8.1c35.8,0,68.3,14.5,91.8,38
		c23.5,23.5,38,55.9,38,91.8c0,22.3-5.6,43.4-15.6,61.7c-8.4,15.5-19.9,29.1-33.7,40.1l13.5,1.8c4.4,0.6,7.6,4.6,7,9.1
		c-0.6,4.4-4.6,7.5-9,7l-34.9-4.6c-4.4-0.6-7.5-4.6-7-9l4.6-34.9c0.5-4.4,4.6-7.5,9-7c4.4,0.5,7.5,4.6,7,9l-2.4,17.6
		c13-9.8,23.8-22.3,31.5-36.6c8.7-16.1,13.7-34.5,13.7-54.1c0-31.4-12.7-59.8-33.3-80.3C426,169.6,397.6,156.8,366.3,156.8
		L366.3,156.8z"/>
	<path class="st14" d="M350.9,310.9c-13.4-8.5-22.2-23.4-22.2-40.4c0-17.1,9-32.2,22.5-40.7c6.1-3.8,13-6.2,20.2-7
		c-1.7-0.2-3.5-0.3-5.2-0.3c-5.9,0-11.5,1.1-16.7,3c-18.2,6.8-31.2,24.4-31.2,44.9c0,20.4,12.7,37.8,30.7,44.7
		c5.5,2.1,11.4,3.2,17.3,3.2c1.8,0,3.5-0.1,5.2-0.3C364.2,317.3,357.1,314.8,350.9,310.9L350.9,310.9z"/>
</g>
</svg>
