<?xml version="1.0" encoding="utf-8"?>
<!-- Generator: Adobe Illustrator 28.0.0, SVG Export Plug-In . SVG Version: 6.00 Build 0)  -->
<svg version="1.1" id="Layer_1" xmlns="http://www.w3.org/2000/svg" xmlns:xlink="http://www.w3.org/1999/xlink" x="0px" y="0px"
	 viewBox="0 0 512 512" style="enable-background:new 0 0 512 512;" xml:space="preserve">
<style type="text/css">
	.st0{fill:#FDD835;}
	.st1{opacity:0.5;fill:#FFFFFF;enable-background:new    ;}
	.st2{fill:#F39E09;}
	.st3{fill:#E88102;}
	.st4{fill:#DB6704;}
	.st5{opacity:0.25;fill:#FFFFFF;enable-background:new    ;}
</style>
<g>
	<path class="st0" d="M255.9,507.1c138.7,0,251.1-112.4,251.1-251.1S394.6,4.9,255.9,4.9S4.9,117.4,4.9,256
		C4.9,394.7,117.3,507.1,255.9,507.1z"/>
	<path class="st1" d="M255.9,5.1C117.3,5.1,4.9,117.4,4.9,256c0,138.7,112.4,251.1,251.1,251.1S506.9,394.7,506.9,256
		C506.9,117.4,394.7,5.1,255.9,5.1z M255.9,496.3C123.1,496.3,15.6,388.9,15.6,256c0-132.8,107.6-240,240.3-240
		s240.3,107.5,240.3,240.3S388.6,496.3,255.9,496.3z"/>
	<path class="st1" d="M356.1,25.9L25.7,356.3c-11.2-26.1-17.9-53.6-20.1-81.8L274.3,5.7C303.2,8,330.9,14.9,356.1,25.9z
		 M474.8,132.8L132.7,474.7c-21.3-12.1-40.7-27-57.4-44.5L430.2,75.7C447.7,92.3,462.7,111.7,474.8,132.8z M420.1,66.3l-354.2,354
		c-5.7-6.4-10.8-13-15.7-20.1L400,50.6C406.9,55.3,413.6,60.7,420.1,66.3z M499,193.5L193.4,499.2c-9.2-2.2-18.4-5.4-27.1-8.7
		l324.1-324.1C493.9,175.3,496.8,184.3,499,193.5z"/>
	<path class="st1" d="M460.1,267.1c0,108.6-88.2,196.7-196.7,196.7c-61.1,0-115.5-27.8-151.6-71.3c35.9,38.8,87.2,63.3,144.5,63.3
		C364.8,455.7,453,367.6,453,259c0-47.5-16.8-91.3-45.1-125.1C440.1,168.6,460.1,215.5,460.1,267.1z"/>
	<path class="st2" d="M255.9,455.5c108.7,0,196.7-88,196.7-196.7S364.6,62,255.9,62s-196.7,88-196.7,196.7
		C59.1,367.5,147.3,455.5,255.9,455.5z"/>
	<path class="st3" d="M405.1,130.5C370.5,100.9,325.7,83,276.8,83C168.2,83,80.1,171.1,80.1,279.7c0,48.9,17.9,93.8,47.5,128.3
		c-41.7-36.1-68.4-89.5-68.4-149c0-108.6,88.2-196.7,196.7-196.7C315.6,62,368.9,88.5,405.1,130.5z"/>
	<path class="st4" d="M352.6,141.7v-15.5l-17.9,15.5H172l-12.4,36.6v15.5h51.6c16.3,0.4,27.4,7,33,19.1h-74.3l-10.5,24.9v15.5h86.3
		c-5.4,16.8-17.1,25.4-35.4,25.5h-45.3l0.3,37L253.5,421h72.2v-15.5l-13-3.2l-65.1-79.9c19.7-6.1,35-14.6,45.5-26.1
		c10.8-11.2,17.5-25.8,20.4-43.6h28l10.5-40.4v-15.5l-14.7,15.7h-23.6c-1.6-11.2-5.4-21.6-11.1-30.5h39.1L352.6,141.7z"/>
	<path class="st0" d="M342.1,166.8H303c5.7,9.2,9.2,19.3,11.1,30.5h38.4l-10.5,40.4h-28c-2.9,17.8-9.9,32.2-20.4,43.6
		c-10.8,11.2-26.1,20-45.5,26.1l77.6,95.5v2.9h-72.2l-88.2-105.3l-0.3-37h45.5c18.4-0.4,30-8.9,35.4-25.5h-86.5l10.5-40.4h74.2
		c-5.7-12.1-16.6-18.4-33-19.1h-51.6l12.4-52h180.5L342.1,166.8z"/>
	<path class="st1" d="M169.9,197.3h14.9l-20,20L169.9,197.3z M255.9,126.1l-52,52h-44.2l12.4-52H255.9z M342.1,166.8h-2.9l4.1-4.1
		L342.1,166.8z M352.3,197.3l-10.5,40.4h-28.3c-2.9,17.8-9.9,32.2-20.4,43.6c-10.8,11.2-25.8,20-45.5,26.1l23.8,29.2L230.1,378
		l-46.4-55.4l129.7-129.7c0.3,1.6,0.7,3.2,0.7,4.7L352.3,197.3z M210.3,263.5c5.7-0.3,10.5-1.2,15-2.6l-50.9,50.9l-9.2-11.2
		l-0.3-15.3l21.7-21.7h23.7V263.5z M352.6,126.1L350,136l-30.5,30.8h-16.3c2.2,3.4,4.1,7,5.7,10.8l-64.2,64.2
		c0.7-1.3,1.2-2.6,1.6-4.1H213l111.5-111.5h28.2V126.1z M309.6,383.2l-22.6,22.6h-33.7l-0.9-1.2l41.1-41.1L309.6,383.2z"/>
	<path class="st5" d="M420.1,150.2c-127.4,44.6-229.7,142.9-279.5,267.6c-4.5-3.2-8.7-6.4-12.8-10.1
		c-29.6-34.6-47.5-79.3-47.5-128.3c0-108.6,88.2-196.7,196.7-196.7c48.9,0,93.8,17.9,128.3,47.5
		C410.5,136.5,415.6,143.2,420.1,150.2z"/>
</g>
</svg>
