<?xml version="1.0" encoding="utf-8"?>
<!-- Generator: Adobe Illustrator 28.0.0, SVG Export Plug-In . SVG Version: 6.00 Build 0)  -->
<svg version="1.1" id="Layer_1" xmlns="http://www.w3.org/2000/svg" xmlns:xlink="http://www.w3.org/1999/xlink" x="0px" y="0px"
	 viewBox="0 0 512 512" style="enable-background:new 0 0 512 512;" xml:space="preserve">
<style type="text/css">
	.st0{fill:#D81F37;}
</style>
<path class="st0" d="M456.8,184.5L301.5,43.7C288,32,272.1,25.6,256,24.4c-16.1,1.2-32,7.6-45.5,19.2L55.2,184.5
	c-16.2,14.4-25.5,35.2-25.5,56.5v169.1c0,42.2,34.8,77.4,76.5,77.4H256h149.8c41.7,0,76.5-35.2,76.5-77.4V241.1
	C482.2,219.7,473,198.9,456.8,184.5z M445.8,394.5c0,31.9-26.1,58.1-58.1,58.1H256H124.3c-31.9,0-58.1-26.1-58.1-58.1V240.9
	c0-9.8,2.2-19.1,8.7-24.3l3.7-3.2L238.9,68.1c1.3-1.2,2.7-2.2,4.2-3.1c4.3-2.5,8.6-4.2,12.9-5.1c4.3,0.9,8.6,2.6,12.9,5.1
	c1.5,0.9,2.9,1.9,4.2,3.1l160.2,145.4l3.7,3.2c6.5,5.1,8.7,14.5,8.7,24.3V394.5z"/>
<path class="st0" d="M307.1,481.5H204.9V303c0-28.2,22.9-51.1,51.1-51.1c28.2,0,51.1,22.9,51.1,51.1V481.5z M235.9,450.5h40.3V303
	c0-11.1-9-20.1-20.1-20.1s-20.1,9-20.1,20.1V450.5z"/>
</svg>
