<?xml version="1.0" encoding="utf-8"?>
<!-- Generator: Adobe Illustrator 28.0.0, SVG Export Plug-In . SVG Version: 6.00 Build 0)  -->
<svg version="1.1" id="Layer_1" xmlns="http://www.w3.org/2000/svg" xmlns:xlink="http://www.w3.org/1999/xlink" x="0px" y="0px"
	 viewBox="0 0 512 512" style="enable-background:new 0 0 512 512;" xml:space="preserve">
<style type="text/css">
	.st0{fill:#FFA91A;}
	.st1{fill:#FFC91D;}
	.st2{fill:#F79219;}
	.st3{fill:#EF7816;}
	.st4{fill:#8C3F0A;}
	.st5{fill:#7C3108;}
	.st6{fill:#995222;}
	.st7{fill:#6D2E03;}
	.st8{fill:#76A34F;}
	.st9{fill:#648940;}
	.st10{fill:#FDD835;}
	.st11{opacity:0.5;fill:#FFFFFF;enable-background:new    ;}
	.st12{fill:#F39E09;}
	.st13{fill:#E88102;}
	.st14{fill:#DB6704;}
	.st15{opacity:0.25;fill:#FFFFFF;enable-background:new    ;}
</style>
<g>
	<path class="st0" d="M447.5,256.3H64.5v199.3c0,15.2,12.3,27.5,27.5,27.5h328.1c15.2,0,27.5-12.3,27.5-27.5L447.5,256.3
		L447.5,256.3z"/>
	<path class="st1" d="M76.5,452.7c-2.2,0-4-1.8-4-4v-81.2c0-2.2,1.8-4,4-4s4,1.8,4,4v81.2C80.5,450.9,78.7,452.7,76.5,452.7z
		 M76.5,355.5c-2.2,0-4-1.8-4-4s1.8-4,4-4c2.2,0,4,1.8,4,4C80.5,353.7,78.7,355.5,76.5,355.5z"/>
	<path class="st2" d="M427.5,256.3v179.3c0,15.2-12.3,27.5-27.5,27.5H71.9c-2.3,0-4.5-0.3-6.6-0.8c3,12,13.8,20.8,26.6,20.8h328.1
		c15.2,0,27.5-12.3,27.5-27.5V256.3L427.5,256.3z"/>
	<path class="st3" d="M437.5,256.3v189.3c0,15.2-12.3,27.5-27.5,27.5H81.9c-5,0-9.7-1.4-13.8-3.7c4.8,8.2,13.6,13.7,23.8,13.7h328.1
		c15.2,0,27.5-12.3,27.5-27.5V256.3L437.5,256.3z"/>
	<path class="st4" d="M90,331.9c-22.9,0-41.5-18.6-41.5-41.5v-34.1h83v34.1C131.5,313.3,112.9,331.9,90,331.9z"/>
	<path class="st5" d="M111.5,256.3v14.1c0,22.9-18.6,41.5-41.5,41.5c-6.3,0-12.2-1.4-17.6-3.9c6.6,14.1,20.9,23.9,37.6,23.9
		c22.9,0,41.5-18.6,41.5-41.5v-34.1H111.5z"/>
	<path class="st4" d="M173,331.9c-22.9,0-41.5-18.6-41.5-41.5v-34.1h83v34.1C214.5,313.3,195.9,331.9,173,331.9z"/>
	<path class="st5" d="M194.5,256.3v14.1c0,22.9-18.6,41.5-41.5,41.5c-6.3,0-12.2-1.4-17.6-3.9c6.6,14.1,20.9,23.9,37.6,23.9
		c22.9,0,41.5-18.6,41.5-41.5v-34.1H194.5z"/>
	<path class="st4" d="M256,331.9c-22.9,0-41.5-18.6-41.5-41.5v-34.1h83v34.1C297.5,313.3,278.9,331.9,256,331.9z"/>
	<path class="st5" d="M277.5,256.3v14.1c0,22.9-18.6,41.5-41.5,41.5c-6.3,0-12.2-1.4-17.6-3.9c6.6,14.1,20.9,23.9,37.6,23.9
		c22.9,0,41.5-18.6,41.5-41.5v-34.1H277.5z"/>
	<path class="st4" d="M339,331.9c-22.9,0-41.5-18.6-41.5-41.5v-34.1h83v34.1C380.5,313.3,361.9,331.9,339,331.9L339,331.9z"/>
	<path class="st5" d="M360.5,256.3v14.1c0,22.9-18.6,41.5-41.5,41.5c-6.3,0-12.2-1.4-17.6-3.9c6.6,14.1,20.9,23.9,37.6,23.9
		c22.9,0,41.5-18.6,41.5-41.5v-34.1H360.5z"/>
	<path class="st4" d="M422,331.9c-22.9,0-41.5-18.6-41.5-41.5v-34.1h83v34.1C463.5,313.3,444.9,331.9,422,331.9L422,331.9z"/>
	<path class="st5" d="M443.5,256.3v14.1c0,22.9-18.6,41.5-41.5,41.5c-6.3,0-12.2-1.4-17.6-3.9c6.6,14.1,20.9,23.9,37.6,23.9
		c22.9,0,41.5-18.6,41.5-41.5v-34.1H443.5z"/>
	<path class="st4" d="M442.9,172.2H72.1l-23.6,84.1h415L442.9,172.2z"/>
	<path class="st5" d="M442.9,172.2h-15.1l15.7,64.1H54.1l-5.6,20h415L442.9,172.2z"/>
	<path class="st6" d="M425,138.1H90c-9.9,0-17.9,8-17.9,17.9v16.2h370.8V156C442.9,146.1,434.9,138.1,425,138.1z"/>
	<path class="st4" d="M367.2,355.9H144.8c-9.9,0-17.9,8-17.9,17.9l0,0v109.2h258.2V373.8C385.1,363.9,377.1,355.9,367.2,355.9
		C367.2,355.9,367.2,355.9,367.2,355.9z"/>
	<path class="st7" d="M126.9,463.1h258.2v20H126.9V463.1z"/>
	<circle class="st3" cx="256" cy="129.3" r="99.8"/>
	<circle class="st1" cx="256" cy="164.9" r="64.2"/>
	<path class="st0" d="M290.3,110.6c6.5,10.3,9.9,22.1,9.9,34.3c0,35.5-28.8,64.2-64.2,64.2c-12.1,0-24-3.4-34.3-9.9
		c11.4,18,31.4,29.9,54.3,29.9c35.5,0,64.2-28.8,64.2-64.2C320.2,142.1,308.3,122,290.3,110.6z"/>
	<path class="st1" d="M256,59c-4.4,0-8,3.6-8,8v18.6c0.4,10.6,15.6,10.6,16,0V67C264,62.6,260.4,59,256,59z M331.5,90.3
		c-3.1-3.1-8.2-3.1-11.3,0l-13.1,13.1c-3.1,3-3.1,8.3,0,11.3c3.1,3.1,8.2,3.1,11.3,0l13.1-13.1C334.7,98.5,334.7,93.4,331.5,90.3z
		 M204.9,103.4l-13.1-13.1c-7.7-7.2-18.6,3.6-11.3,11.3l13.1,13.1C201.3,122,212.2,111.1,204.9,103.4z"/>
	<path class="st8" d="M256,229.1c-0.2-54.9-44.8-99.4-99.8-99.4C156.4,184.7,201,229.1,256,229.1L256,229.1z"/>
	<path class="st9" d="M216.1,149.7c12.9,17.1,19.9,38,19.9,59.4c-21.6,0-42.6-7-59.9-20c18.2,24.3,47.2,40,79.9,40
		C255.9,196.6,240.2,167.8,216.1,149.7L216.1,149.7z"/>
	<path class="st8" d="M256,229.1c55,0,99.6-44.4,99.8-99.4C300.8,129.7,256.2,174.2,256,229.1z"/>
	<path class="st9" d="M333.1,132.4c-8.7,36.7-37.6,65.6-74.4,74.1c-1.8,7.4-2.7,15-2.7,22.6c55,0,99.6-44.4,99.8-99.4
		C348.2,129.8,340.5,130.6,333.1,132.4L333.1,132.4z"/>
</g>
<g>
	<path class="st10" d="M255.2,229.9c55.5,0,100.5-45,100.5-100.5c0-55.5-45-100.5-100.5-100.5s-100.5,45-100.5,100.5
		C154.7,184.8,199.7,229.9,255.2,229.9z"/>
	<path class="st11" d="M255.2,28.8c-55.5,0-100.5,45-100.5,100.5c0,55.5,45,100.5,100.5,100.5s100.5-45,100.5-100.5
		C355.8,73.8,310.9,28.8,255.2,28.8z M255.2,225.6c-53.2,0-96.2-43-96.2-96.2c0-53.2,43.1-96.1,96.2-96.1s96.2,43,96.2,96.2
		C351.5,182.6,308.4,225.6,255.2,225.6z"/>
	<path class="st11" d="M295.4,37.1L163.1,169.5c-4.5-10.4-7.2-21.5-8.1-32.8L262.6,29C274.2,29.9,285.3,32.7,295.4,37.1z M342.9,80
		l-137,136.9c-8.5-4.9-16.3-10.8-23-17.8L325.1,57.1C332.1,63.7,338.1,71.5,342.9,80z M321,53.3L179.1,195.1
		c-2.2-2.6-4.3-5.2-6.3-8.1L312.9,47C315.7,48.9,318.4,51.1,321,53.3z M352.7,104.2L230.2,226.7c-3.7-0.9-7.4-2.2-10.9-3.5
		L349.1,93.4C350.6,97,351.8,100.6,352.7,104.2z"/>
	<path class="st11" d="M337,133.7c0,43.5-35.3,78.8-78.8,78.8c-24.4,0-46.3-11.1-60.7-28.6c14.4,15.5,35,25.3,57.9,25.3
		c43.5,0,78.8-35.3,78.8-78.8c0-19-6.7-36.6-18.1-50.1C329,94.3,337,113.1,337,133.7z"/>
	<path class="st12" d="M255.2,209.2c43.5,0,78.8-35.3,78.8-78.8c0-43.5-35.3-78.8-78.8-78.8s-78.8,35.3-78.8,78.8
		C176.4,173.9,211.7,209.2,255.2,209.2z"/>
	<path class="st13" d="M315,79c-13.8-11.9-31.8-19-51.4-19c-43.5,0-78.8,35.3-78.8,78.8c0,19.6,7.2,37.6,19,51.4
		c-16.7-14.5-27.4-35.9-27.4-59.7c0-43.5,35.3-78.8,78.8-78.8C279.1,51.6,300.5,62.2,315,79z"/>
	<path class="st14" d="M294,83.5v-6.2l-7.2,6.2h-65.1l-4.9,14.6v6.2h20.7c6.6,0.2,11,2.8,13.2,7.6h-29.7l-4.2,10v6.2h34.6
		c-2.2,6.7-6.8,10.2-14.2,10.2h-18.2l0.1,14.8l35.3,42.1h28.9v-6.2l-5.2-1.3l-26.1-32c7.9-2.4,14-5.8,18.2-10.4
		c4.3-4.5,7-10.3,8.2-17.4h11.2l4.2-16.2v-6.2l-5.9,6.2h-9.4c-0.6-4.5-2.2-8.6-4.4-12.2h15.6L294,83.5z"/>
	<path class="st10" d="M289.8,93.6h-15.6c2.2,3.7,3.7,7.7,4.4,12.2h15.4l-4.2,16.2h-11.2c-1.2,7.1-4,12.9-8.2,17.4
		c-4.3,4.5-10.4,8-18.2,10.4l31.1,38.3v1.2h-28.9l-35.3-42.1l-0.1-14.8H237c7.4-0.2,12-3.6,14.2-10.2h-34.6l4.2-16.2h29.7
		c-2.2-4.9-6.6-7.4-13.2-7.6h-20.7l4.9-20.8H294L289.8,93.6z"/>
	<path class="st11" d="M220.8,105.8h5.9l-8,8L220.8,105.8z M255.2,77.3l-20.8,20.8h-17.7l4.9-20.8H255.2z M289.8,93.6h-1.2l1.6-1.6
		L289.8,93.6z M293.9,105.8l-4.2,16.2h-11.3c-1.2,7.1-4,12.9-8.2,17.4c-4.3,4.5-10.3,8-18.2,10.4l9.5,11.7l-16.5,16.6l-18.6-22.2
		l51.9-51.9c0.1,0.6,0.3,1.3,0.3,1.9L293.9,105.8z M237,132.3c2.2-0.1,4.2-0.4,6-1.1l-20.4,20.4l-3.7-4.5l-0.1-6.1l8.7-8.7H237z
		 M294,77.3l-1.1,4l-12.2,12.3h-6.6c0.9,1.3,1.6,2.8,2.2,4.3l-25.7,25.7c0.3-0.5,0.4-1.1,0.6-1.6H238l44.7-44.7H294z M276.7,180.3
		l-9.1,9.1h-13.5l-0.4-0.4l16.4-16.4L276.7,180.3z"/>
	<path class="st15" d="M321,86.9c-51,17.9-92,57.2-112,107.2c-1.8-1.3-3.5-2.6-5.1-4c-11.9-13.8-19-31.8-19-51.4
		c0-43.5,35.3-78.8,78.8-78.8c19.6,0,37.6,7.2,51.4,19C317.2,81.4,319.2,84.1,321,86.9z"/>
</g>
</svg>
