<?xml version="1.0" encoding="utf-8"?>
<!-- Generator: Adobe Illustrator 28.0.0, SVG Export Plug-In . SVG Version: 6.00 Build 0)  -->
<svg version="1.1" id="Layer_1" xmlns="http://www.w3.org/2000/svg" xmlns:xlink="http://www.w3.org/1999/xlink" x="0px" y="0px"
	 viewBox="0 0 512 512" style="enable-background:new 0 0 512 512;" xml:space="preserve">
<style type="text/css">
	.st0{fill:#FEE27C;}
	.st1{fill:#F09867;}
	.st2{fill:#EB7E5D;}
	.st3{fill:#E34859;}
	.st4{fill:#9D333B;}
	.st5{fill:#FACE77;}
	.st6{fill:#FFFFFF;}
</style>
<g>
	<path class="st0" d="M437.5,147.5v-24.9L256,38.7l-181.5,84v24.9H437.5z"/>
	<path class="st1" d="M92,212.2h328v204.4H92V212.2z"/>
	<path class="st2" d="M92,212.2h328v9H92V212.2z"/>
	<path class="st3" d="M226.1,314.4h59.7v102.2h-59.7L226.1,314.4z"/>
	<path class="st4" d="M236.2,330.5h39.6v86.1h-39.6V330.5z"/>
	<path class="st1" d="M420,192.6v-50.3L256,66.4L92,142.3v50.3H420z"/>
	<path class="st0" d="M66.4,183.9h379.2v28.3H66.4V183.9z M66.4,416.7h379.2V445H66.4V416.7z"/>
	<path class="st5" d="M66.4,437.4h379.2v7.6H66.4V437.4z"/>
	<path class="st0" d="M50.6,445h410.8v28.3H50.6V445z M129.6,212.2v204.4H86.7V212.2H129.6z"/>
	<path class="st5" d="M114.2,212.2v204.4h-12.1V212.2H114.2z"/>
	<path class="st0" d="M216.2,212.2v204.4h-42.9V212.2L216.2,212.2z"/>
	<path class="st5" d="M200.8,212.2v204.4h-12.1V212.2L200.8,212.2z"/>
	<path class="st0" d="M338.7,212.2v204.4h-42.9V212.2L338.7,212.2z"/>
	<path class="st5" d="M323.3,212.2v204.4h-12.1V212.2L323.3,212.2z"/>
	<path class="st0" d="M425.3,212.2v204.4h-42.9V212.2L425.3,212.2z"/>
	<path class="st5" d="M409.9,212.2v204.4h-12.1V212.2L409.9,212.2z"/>
	<g>
		<path class="st2" d="M176,172v-47h11.8c3.6,0,6.1,0.1,7.7,0.4c1.6,0.3,2.9,0.8,4,1.4c1.7,1,3,2.4,3.8,4c0.9,1.7,1.3,3.6,1.3,5.9
			c0,2-0.4,3.8-1.2,5.4c-0.8,1.6-2.1,3.1-3.9,4.6c2.1,1.1,3.7,2.5,4.7,4.3c1.1,1.8,1.6,4,1.6,6.5c0,2.1-0.4,4.1-1.1,5.9
			c-0.7,1.9-1.7,3.5-3,4.8c-1.2,1.3-2.7,2.2-4.5,2.7c-1.8,0.5-4.6,0.8-8.3,0.8L176,172L176,172z M186.9,143.4h0.7
			c2.2,0,3.7-0.4,4.8-1.4c1-0.9,1.5-2.3,1.5-4.2c0-1.6-0.5-2.9-1.5-3.8c-1-0.9-2.5-1.3-4.4-1.3c-0.3,0-0.5,0-0.7,0
			c-0.2,0-0.3,0-0.4,0L186.9,143.4z M186.9,163.7h0.9c2.3,0,4-0.5,5.2-1.6c1.2-1.1,1.7-2.7,1.7-4.8c0-2-0.6-3.5-1.7-4.4
			s-2.9-1.4-5.4-1.4h-0.8L186.9,163.7L186.9,163.7z M215.1,172l10.3-47h13.1l10.1,47h-11l-1.4-9h-8.6l-1.4,9H215.1z M228.6,154.5
			h6.3l-3.1-20.5L228.6,154.5z M259,172v-47h11.4l9.1,29c-0.4-4.9-0.6-9.1-0.8-12.6s-0.3-6.5-0.3-9v-7.4h9.8v47h-11.5l-9.2-29.9
			c0.4,3.9,0.7,7.7,0.9,11.3c0.2,3.6,0.3,7.2,0.3,10.6v7.9L259,172L259,172z M302.3,172v-47h11v19.5l8.2-19.5h11.2l-10.2,20.6
			l10.4,26.4h-11.5l-5.8-17l-2.4,4.5V172L302.3,172z"/>
	</g>
	<g>
		<path class="st6" d="M179.1,172v-47h11.8c3.6,0,6.1,0.1,7.7,0.4c1.6,0.3,2.9,0.8,4,1.4c1.7,1,3,2.4,3.8,4c0.9,1.7,1.3,3.6,1.3,5.9
			c0,2-0.4,3.8-1.2,5.4c-0.8,1.6-2.1,3.1-3.9,4.6c2.1,1.1,3.7,2.5,4.7,4.3c1.1,1.8,1.6,4,1.6,6.5c0,2.1-0.4,4.1-1.1,5.9
			c-0.7,1.9-1.7,3.5-3,4.8c-1.2,1.3-2.7,2.2-4.5,2.7c-1.8,0.5-4.6,0.8-8.3,0.8L179.1,172L179.1,172z M190.1,143.4h0.7
			c2.2,0,3.7-0.4,4.8-1.4c1-0.9,1.5-2.3,1.5-4.2c0-1.6-0.5-2.9-1.5-3.8c-1-0.9-2.5-1.3-4.4-1.3c-0.3,0-0.5,0-0.7,0
			c-0.2,0-0.3,0-0.4,0L190.1,143.4z M190.1,163.7h0.9c2.3,0,4-0.5,5.2-1.6c1.2-1.1,1.7-2.7,1.7-4.8c0-2-0.6-3.5-1.7-4.4
			c-1.1-0.9-2.9-1.4-5.4-1.4h-0.8L190.1,163.7L190.1,163.7z M218.2,172l10.3-47h13.1l10.1,47h-11l-1.4-9h-8.6l-1.4,9H218.2z
			 M231.8,154.5h6.3l-3.1-20.5L231.8,154.5z M262.2,172v-47h11.4l9.1,29c-0.4-4.9-0.6-9.1-0.8-12.6c-0.2-3.5-0.3-6.5-0.3-9v-7.4h9.8
			v47H280l-9.2-29.9c0.4,3.9,0.7,7.7,0.9,11.3c0.2,3.6,0.3,7.2,0.3,10.6v7.9L262.2,172L262.2,172z M305.4,172v-47h11v19.5l8.2-19.5
			h11.2l-10.2,20.6L336,172h-11.5l-5.8-17l-2.4,4.5V172L305.4,172z"/>
	</g>
</g>
</svg>
