<?xml version="1.0" encoding="utf-8"?>
<!-- Generator: Adobe Illustrator 28.0.0, SVG Export Plug-In . SVG Version: 6.00 Build 0)  -->
<svg version="1.1" id="Layer_1" xmlns="http://www.w3.org/2000/svg" xmlns:xlink="http://www.w3.org/1999/xlink" x="0px" y="0px"
	 viewBox="0 0 512 512" style="enable-background:new 0 0 512 512;" xml:space="preserve">
<style type="text/css">
	.st0{fill:#FFC040;}
	.st1{fill:#FFD683;}
	.st2{fill:#E5AC39;}
	.st3{fill:#FFFFFF;}
	.st4{fill:#49A5D2;}
	.st5{fill:#0E4B5C;}
	.st6{fill:#1C8FC7;}
	.st7{fill:#FDD835;}
	.st8{opacity:0.5;fill:#FFFFFF;enable-background:new    ;}
	.st9{fill:#F39E09;}
	.st10{fill:#E88102;}
	.st11{fill:#DB6704;}
	.st12{opacity:0.25;fill:#FFFFFF;enable-background:new    ;}
</style>
<g>
	<path class="st0" d="M189.4,151.7c79.2,0,143.4,64.2,143.4,143.3c0,79.2-64.2,143.4-143.4,143.4c-79.2,0-143.4-64.2-143.4-143.4
		C46,215.9,110.2,151.7,189.4,151.7L189.4,151.7z"/>
	<path class="st1" d="M144.1,421.4c-0.8,0-1.6-0.2-2.4-0.4c-36.9-12.6-66.3-42.3-78.7-79.4c-1.3-3.9,0.8-8.2,4.7-9.5
		c3.9-1.3,8.2,0.8,9.5,4.7c10.9,32.7,36.7,58.8,69.2,69.9c4,1.3,6.1,5.6,4.7,9.5C150.2,419.3,147.4,421.4,144.1,421.4z"/>
	<path class="st2" d="M291.6,295c0,56.5-45.8,102.2-102.2,102.2C133,397.3,87.2,351.5,87.2,295S133,192.8,189.4,192.8
		C245.8,192.9,291.6,238.5,291.6,295z"/>
	<path class="st3" d="M216.8,316.5c0,13-9.2,24-21.4,26.8v6.7c0,3.3-2.7,6-6,6s-6-2.7-6-6v-6.7c-12.5-2.8-21.4-13.9-21.4-26.8
		c0-3.3,2.7-6,6-6c3.3,0,6,2.7,6,6l0,0c0,8.5,7,15.4,15.4,15.4c8.5,0,15.4-7,15.4-15.4c0-8.5-7-15.5-15.4-15.5
		c-15.2,0-27.5-12.3-27.5-27.4c0-12.9,8.9-24,21.4-26.8v-6.7c0-3.3,2.7-6,6-6s6,2.7,6,6v6.7c12.3,2.8,21.4,13.7,21.4,26.8
		c0,3.3-2.7,6-6,6c-3.3,0-6-2.7-6-6c0-8.5-7-15.4-15.4-15.4c-8.5,0-15.4,7-15.4,15.4c0,8.5,7,15.4,15.4,15.4
		C204.6,289,216.8,301.4,216.8,316.5z"/>
	<path class="st0" d="M46,454.3v26.3c0,8.8,7.1,15.8,15.8,15.8h255c8.8,0,15.8-7.1,15.8-15.8v-26.3c0-8.8-7.1-15.8-15.8-15.8H61.9
		C53.1,438.5,46,445.5,46,454.3z"/>
	<path class="st2" d="M283.4,438.5h18.5v58h-18.5V438.5z M231.8,438.5h18.5v58h-18.5L231.8,438.5z M180.1,438.5h18.5v58h-18.5
		L180.1,438.5z M128.5,438.5H147v58h-18.5V438.5z M77,438.5h18.5v58H77V438.5z"/>
	<path class="st0" d="M109.8,140.8c-2.9,0-5.6-1.7-6.7-4.6l-10.6-27.8c-1.4-3.6,0.5-7.8,4.1-9.2c3.6-1.4,7.8,0.5,9.2,4.1l10.6,27.7
		c1.4,3.6-0.5,7.8-4.1,9.2C111.5,140.6,110.6,140.8,109.8,140.8z M71.4,168.6c-1.6,0-3.2-0.6-4.5-1.6l-23-18.7c-3-2.5-3.5-7-1-10
		c2.5-3,7-3.5,10-1l23,18.7c3,2.5,3.5,7,1,10C75.6,167.6,73.5,168.6,71.4,168.6L71.4,168.6z M52.1,211.8c-0.4,0-0.8,0-1.2-0.1
		L21.6,207c-3.9-0.6-6.5-4.3-5.9-8.1c0.6-3.9,4.3-6.5,8.1-5.9l0,0l29.3,4.7c3.9,0.6,6.5,4.3,5.9,8.2
		C58.5,209.2,55.6,211.8,52.1,211.8z"/>
	<path class="st4" d="M206.4,86.6v4.8c0,100.1,54,206.3,141,248.9c2.4,1.2,5.4,1.2,7.8,0c87.1-42.7,141-148.8,141-248.9v-4.8
		c0-4.3-3.3-8-7.5-8.5c-14.9-1.8-28.6-8.9-38.8-19.9c-8.9-9.7-14.6-22-16.1-35.1c-0.5-4.3-4.3-7.5-8.5-7.5H277.4
		c-4.3,0-8,3.3-8.5,7.6c-1.5,12.3-6.6,23.9-14.7,33.3C244,68.4,229.6,76.1,214,78C209.6,78.6,206.4,82.2,206.4,86.6z"/>
	<path class="st5" d="M357.1,31.3c0,3.2-2.6,5.7-5.8,5.7s-5.7-2.5-5.7-5.7s2.5-5.8,5.7-5.8S357.1,28.2,357.1,31.3z M422.3,32.8
		c0,3.2-2.6,5.7-5.8,5.7s-5.7-2.5-5.7-5.7c0-3.2,2.5-5.8,5.7-5.8C419.7,27.1,422.3,29.6,422.3,32.8z M484.3,94.6
		c0,3.2-2.6,5.7-5.8,5.7c-3.2,0-5.7-2.5-5.7-5.7s2.5-5.8,5.7-5.8C481.7,88.7,484.3,91.4,484.3,94.6z M475.2,173.3
		c0,3.2-2.6,5.7-5.8,5.7s-5.7-2.5-5.7-5.7s2.5-5.8,5.7-5.8S475.2,170.1,475.2,173.3z M436,255.1c0,3.2-2.6,5.7-5.8,5.7
		s-5.7-2.5-5.7-5.7c0-3.2,2.5-5.8,5.7-5.8C433.3,249.3,436,252,436,255.1z M357.1,323c0,3.2-2.6,5.7-5.8,5.7s-5.7-2.5-5.7-5.7
		s2.5-5.8,5.7-5.8S357.1,319.8,357.1,323z M280.4,32.8c0,3.2,2.6,5.7,5.8,5.7s5.7-2.5,5.7-5.7c0-3.2-2.5-5.8-5.7-5.8
		C283,27.1,280.4,29.6,280.4,32.8z M218.5,94.6c0,3.2,2.6,5.7,5.8,5.7c3.2,0,5.7-2.5,5.7-5.7s-2.5-5.8-5.7-5.8
		C221,88.7,218.5,91.4,218.5,94.6z M227.5,173.3c0,3.2,2.6,5.7,5.8,5.7s5.7-2.5,5.7-5.7s-2.5-5.8-5.7-5.8S227.5,170.1,227.5,173.3z
		 M266.7,255.1c0,3.2,2.6,5.7,5.8,5.7s5.7-2.5,5.7-5.7c0-3.2-2.5-5.8-5.7-5.8C269.3,249.3,266.7,252,266.7,255.1z"/>
	<path class="st6" d="M347.3,305.3c-59.9-36.5-103.7-114.7-109.5-195.6c-0.2-3.3,1.9-6.4,5-7.7c12.4-5.2,23.6-13,32.8-23.1
		c7.4-8.1,13.4-17.5,17.6-27.6c1.2-2.9,4-5,7.1-5h102.3c3.2,0,5.9,2,7.1,4.9c3.7,9.1,8.9,17.6,15.5,25.3
		c9.6,11.2,21.6,19.9,34.9,25.5c3.1,1.3,5.1,4.3,4.9,7.7c-5.8,80.8-49.5,158.8-109.6,195.6C352.9,306.7,349.7,306.7,347.3,305.3z"/>
	<circle class="st4" cx="351.3" cy="157.8" r="54.1"/>
	<path class="st3" d="M378.6,149.2L351,176.8c-3.2,3.3-7.4,4.8-11.6,4.8s-8.5-1.6-11.6-4.8l-7.4-7.4c-2.8-2.9-2.8-7.5,0-10.4
		c2.9-2.9,7.6-2.9,10.4,0l7.4,7.4c0.6,0.6,1.5,0.7,2.2,0.1c0,0,0.1-0.1,0.1-0.1l27.7-27.6c2.9-2.9,7.5-2.9,10.4,0
		C381.4,141.6,381.4,146.3,378.6,149.2L378.6,149.2z"/>
</g>
<g>
	<path class="st7" d="M189.4,438.5c79.2,0,143.5-64.2,143.5-143.5c0-79.2-64.2-143.5-143.5-143.5S45.9,215.8,45.9,295
		C45.9,374.3,110.2,438.5,189.4,438.5z"/>
	<path class="st8" d="M189.4,151.5c-79.2,0-143.5,64.2-143.5,143.5c0,79.2,64.2,143.5,143.5,143.5S332.9,374.3,332.9,295
		C332.9,215.8,268.8,151.5,189.4,151.5z M189.4,432.3c-75.9,0-137.3-61.4-137.3-137.3c0-75.9,61.5-137.2,137.3-137.2
		s137.3,61.4,137.3,137.3C326.7,371.1,265.3,432.3,189.4,432.3z"/>
	<path class="st8" d="M246.7,163.5L57.8,352.3c-6.4-14.9-10.3-30.6-11.5-46.8l153.6-153.6C216.5,153.2,232.2,157.2,246.7,163.5z
		 M314.5,224.6L119,420c-12.2-6.9-23.2-15.4-32.8-25.4L289,191.9C299,201.4,307.6,212.4,314.5,224.6z M283.3,186.5L80.8,388.9
		c-3.2-3.7-6.2-7.4-9-11.5l199.9-199.8C275.7,180.3,279.5,183.3,283.3,186.5z M328.4,259.2L153.6,434c-5.3-1.3-10.5-3.1-15.5-5
		l185.3-185.3C325.4,248.9,327.1,254,328.4,259.2z"/>
	<path class="st8" d="M306.1,301.3c0,62.1-50.4,112.4-112.4,112.4c-34.9,0-66-15.9-86.7-40.8c20.5,22.2,49.9,36.2,82.6,36.2
		c62.1,0,112.4-50.4,112.4-112.4c0-27.2-9.6-52.2-25.8-71.5C294.7,245,306.1,271.8,306.1,301.3z"/>
	<path class="st9" d="M189.4,409c62.1,0,112.4-50.3,112.4-112.4c0-62.1-50.3-112.4-112.4-112.4S77,234.5,77,296.6
		C77,358.7,127.3,409,189.4,409z"/>
	<path class="st10" d="M274.7,223.2c-19.7-16.9-45.4-27.2-73.3-27.2c-62.1,0-112.4,50.4-112.4,112.4c0,28,10.3,53.6,27.2,73.3
		C92.2,361.2,77,330.7,77,296.7c0-62.1,50.4-112.4,112.4-112.4C223.5,184.1,254,199.2,274.7,223.2z"/>
	<path class="st11" d="M244.7,229.6v-8.8l-10.3,8.8h-93l-7.1,20.9v8.8h29.5c9.4,0.3,15.6,4,18.8,10.9h-42.4l-6,14.2v8.8h49.4
		c-3.1,9.6-9.7,14.5-20.3,14.6h-25.9l0.1,21.2l50.4,60.1h41.3v-8.8l-7.4-1.8L184.7,333c11.3-3.5,20-8.3,26-14.9
		c6.2-6.4,10-14.7,11.7-24.9h16l6-23.1v-8.8l-8.5,8.8h-13.5c-0.9-6.4-3.1-12.3-6.3-17.4h22.3L244.7,229.6z"/>
	<path class="st7" d="M238.6,244h-22.3c3.2,5.3,5.3,11,6.3,17.4h21.9l-6,23.1h-16c-1.7,10.1-5.6,18.5-11.7,24.9
		c-6.2,6.4-14.9,11.4-26,14.9l44.4,54.6v1.7h-41.3l-50.4-60.1l-0.1-21.2h26c10.5-0.3,17.2-5.1,20.3-14.6h-49.4l6-23.1h42.4
		c-3.2-6.9-9.5-10.5-18.8-10.9h-29.5l7.1-29.7h103.2L238.6,244z"/>
	<path class="st8" d="M140.3,261.4h8.5l-11.4,11.4L140.3,261.4z M189.4,220.8l-29.7,29.7h-25.3l7.1-29.7H189.4z M238.6,244H237
		l2.3-2.3L238.6,244z M244.5,261.4l-6,23.1h-16.2c-1.7,10.1-5.6,18.5-11.7,24.9c-6.2,6.4-14.7,11.4-26,14.9l13.6,16.7l-23.6,23.7
		L148.1,333l74.1-74.1c0.1,0.9,0.4,1.8,0.4,2.7L244.5,261.4z M163.4,299.3c3.2-0.1,6-0.6,8.6-1.5l-29.1,29.1l-5.3-6.4l-0.1-8.7
		l12.4-12.4H163.4z M244.7,220.8l-1.5,5.6L225.7,244h-9.4c1.3,1.9,2.3,4,3.2,6.2l-36.7,36.7c0.4-0.8,0.6-1.5,0.9-2.3h-19l63.7-63.7
		H244.7z M220,367.7l-12.9,13h-19.2l-0.5-0.6l23.5-23.5L220,367.7z"/>
	<path class="st12" d="M283.3,234.5c-72.8,25.5-131.3,81.7-159.8,153c-2.6-1.8-5-3.7-7.3-5.8C99.3,362,89,336.3,89,308.4
		c0-62.1,50.4-112.4,112.4-112.4c28,0,53.6,10.3,73.3,27.2C277.7,226.7,280.7,230.5,283.3,234.5z"/>
</g>
</svg>
