<?xml version="1.0" encoding="utf-8"?>
<!-- Generator: Adobe Illustrator 28.0.0, SVG Export Plug-In . SVG Version: 6.00 Build 0)  -->
<svg version="1.1" id="Layer_1" xmlns="http://www.w3.org/2000/svg" xmlns:xlink="http://www.w3.org/1999/xlink" x="0px" y="0px"
	 viewBox="0 0 512 512" style="enable-background:new 0 0 512 512;" xml:space="preserve">
<style type="text/css">
	.st0{fill:#9BA7AF;}
	.st1{fill:#B06328;}
	.st2{fill:#A35425;}
	.st3{fill:#F6B545;}
	.st4{fill:#F19920;}
	.st5{fill:#FFCB5B;}
	.st6{fill:#C97629;}
	.st7{fill:#DA8C36;}
	.st8{fill:#72818B;}
	.st9{fill:#FDD835;}
	.st10{opacity:0.5;fill:#FFFFFF;enable-background:new    ;}
	.st11{fill:#F39E09;}
	.st12{fill:#E88102;}
	.st13{fill:#DB6704;}
	.st14{opacity:0.25;fill:#FFFFFF;enable-background:new    ;}
</style>
<g>
	<path class="st0" d="M360.7,98.9h-15.1l-14-36.1C325.8,50,313,40.7,299.1,40.7h-84.9c-14,0-26.8,8.1-32.6,22.1l-14,36.1h-16.3
		c-7,0-11.6,4.7-11.6,11.6v11.6h69.8v-11.6c0-7-4.7-11.6-11.6-11.6H192L202.5,71c2.3-4.7,5.8-7,10.5-7h84.9c4.7,0,9.3,2.3,10.5,7
		l10.5,27.9h-4.7c-7,0-11.6,4.7-11.6,11.6v11.6h69.8v-11.6C372.4,103.6,367.7,98.9,360.7,98.9L360.7,98.9z"/>
	<path class="st1" d="M477.1,471.3H34.9c-12.8,0-23.3-10.5-23.3-23.3V192h488.7v256C500.4,460.8,489.9,471.3,477.1,471.3
		L477.1,471.3z"/>
	<path class="st2" d="M477.1,245.5l-174.5,37.2c-1.2-5.8-5.8-9.3-11.6-9.3h-46.5c-7,0-11.6,4.7-11.6,11.6h-11.6L18.6,242
		c-2.3,0-4.7-1.2-7-2.3v11.6c2.3,1.2,4.7,2.3,7,2.3l202.5,43.1h11.6v34.9c0,7,4.7,11.6,11.6,11.6h34.9c12.8,0,23.3-10.5,23.3-23.3
		v-2.3c0-14,9.3-25.6,23.3-29.1l116.4-24.4c18.6-3.5,34.9,10.5,34.9,27.9v143.1c0,7-4.7,11.6-11.6,11.6H34.9
		c-15.1,0-16.3,23.3-1.2,23.3h442.2c12.8,0,23.3-10.5,23.3-23.3V239.7L477.1,245.5z"/>
	<path class="st3" d="M11.6,448v-34.9h34.9c12.8,0,23.3,10.5,23.3,23.3v34.9H34.9C22.1,471.3,11.6,460.8,11.6,448z"/>
	<path class="st4" d="M34.9,448c-15.1,0-16.3,22.1-1.2,23.3h36.1V448H34.9z"/>
	<path class="st3" d="M477.1,471.3h-34.9v-34.9c0-12.8,10.5-23.3,23.3-23.3h34.9V448C500.4,460.8,489.9,471.3,477.1,471.3z"/>
	<path class="st4" d="M477.1,413.1v23.3c0,7-4.7,11.6-11.6,11.6h-23.3v23.3h34.9c12.8,0,23.3-10.5,23.3-23.3v-34.9H477.1z"/>
	<path class="st5" d="M52.4,436.4H29.1c-3.5,0-5.8-2.3-5.8-5.8s2.3-5.8,5.8-5.8h23.3c3.5,0,5.8,2.3,5.8,5.8
		C58.2,434,55.9,436.4,52.4,436.4z"/>
	<path class="st6" d="M488.7,122.2H23.3C10.5,122.2,0,132.7,0,145.5v74.5c0,10.5,8.1,20.9,18.6,23.3l202.5,41.9h69.8L493.4,242
		c10.5-2.3,18.6-11.6,18.6-23.3v-74.5C512,132.7,501.5,122.2,488.7,122.2L488.7,122.2z"/>
	<path class="st3" d="M279.3,331.6h-46.5c-7,0-11.6-4.7-11.6-11.6v-46.5c0-7,4.7-11.6,11.6-11.6h46.5c7,0,11.6,4.7,11.6,11.6V320
		C290.9,327,286.3,331.6,279.3,331.6z"/>
	<path class="st4" d="M279.3,261.8V320h-58.2c0,7,4.7,11.6,11.6,11.6h46.5c7,0,11.6-4.7,11.6-11.6v-46.5
		C290.9,266.5,286.3,261.8,279.3,261.8L279.3,261.8z"/>
	<path class="st5" d="M261.8,285.1h-23.3c-3.5,0-5.8-2.3-5.8-5.8s2.3-5.8,5.8-5.8h23.3c3.5,0,5.8,2.3,5.8,5.8
		S265.3,285.1,261.8,285.1z"/>
	<path class="st7" d="M29.1,133.8h58.2c3.5,0,5.8,2.3,5.8,5.8s-2.3,5.8-5.8,5.8H29.1c-3.5,0-5.8-2.3-5.8-5.8S25.6,133.8,29.1,133.8z
		"/>
	<path class="st6" d="M34.9,290.9v58.2c0,3.5-2.3,5.8-5.8,5.8s-5.8-2.3-5.8-5.8v-58.2c0-3.5,2.3-5.8,5.8-5.8S34.9,287.4,34.9,290.9z
		"/>
	<path class="st7" d="M110.5,133.8h116.4c3.5,0,5.8,2.3,5.8,5.8s-2.3,5.8-5.8,5.8H110.5c-3.5,0-5.8-2.3-5.8-5.8
		S107.1,133.8,110.5,133.8z"/>
	<path class="st8" d="M320,58.2l16.3,40.7h9.3l-14-36.1c-4.7-10.5-14-18.6-24.4-20.9C311.9,45.4,317.7,51.2,320,58.2z M263,52.4
		h-48.9c-9.3,0-18.6,5.8-22.1,15.1l-12.8,31.4h11.6L201.3,71c2.3-4.7,5.8-7,10.5-7h79.1C283.9,57,273.5,52.4,263,52.4z M139.6,110.5
		h69.8v11.6h-69.8L139.6,110.5z M302.5,110.5h69.8v11.6h-69.8V110.5z"/>
</g>
<path class="st9" d="M256,351.9c32.5,0,58.9-26.4,58.9-58.9c0-32.5-26.4-58.9-58.9-58.9s-58.9,26.4-58.9,58.9
	C197.1,325.5,223.5,351.9,256,351.9z"/>
<path class="st10" d="M256,234c-32.5,0-58.9,26.4-58.9,58.9c0,32.5,26.4,58.9,58.9,58.9s58.9-26.4,58.9-58.9
	C314.9,260.4,288.6,234,256,234z M256,349.4c-31.2,0-56.4-25.2-56.4-56.4c0-31.2,25.3-56.4,56.4-56.4s56.4,25.2,56.4,56.4
	C312.4,324.2,287.2,349.4,256,349.4z"/>
<path class="st10" d="M279.5,238.9L202,316.5c-2.6-6.1-4.2-12.6-4.7-19.2l63.1-63.1C267.1,234.7,273.6,236.4,279.5,238.9z
	 M307.4,264.1l-80.3,80.3c-5-2.8-9.5-6.3-13.5-10.4l83.3-83.3C301,254.5,304.6,259.1,307.4,264.1z M294.6,248.4l-83.2,83.1
	c-1.3-1.5-2.5-3.1-3.7-4.7l82.1-82.1C291.4,245.8,293,247.1,294.6,248.4z M313.1,278.3l-71.8,71.8c-2.2-0.5-4.3-1.3-6.4-2.1
	l76.1-76.1C311.9,274,312.6,276.1,313.1,278.3z"/>
<path class="st10" d="M303.9,295.6c0,25.5-20.7,46.2-46.2,46.2c-14.3,0-27.1-6.5-35.6-16.7c8.4,9.1,20.5,14.9,33.9,14.9
	c25.5,0,46.2-20.7,46.2-46.2c0-11.2-3.9-21.4-10.6-29.4C299.2,272.4,303.9,283.4,303.9,295.6z"/>
<path class="st11" d="M256,339.8c25.5,0,46.2-20.7,46.2-46.2c0-25.5-20.7-46.2-46.2-46.2s-46.2,20.7-46.2,46.2
	C209.8,319.1,230.5,339.8,256,339.8z"/>
<path class="st12" d="M291,263.5c-8.1-7-18.6-11.2-30.1-11.2c-25.5,0-46.2,20.7-46.2,46.2c0,11.5,4.2,22,11.2,30.1
	c-9.8-8.5-16.1-21-16.1-35c0-25.5,20.7-46.2,46.2-46.2C270,247.4,282.5,253.6,291,263.5z"/>
<path class="st13" d="M278.7,266.1v-3.6l-4.2,3.6h-38.2l-2.9,8.6v3.6h12.1c3.8,0.1,6.4,1.6,7.7,4.5h-17.4l-2.5,5.8v3.6h20.3
	c-1.3,3.9-4,6-8.3,6h-10.6l0.1,8.7l20.7,24.7h17v-3.6l-3.1-0.7l-15.3-18.7c4.6-1.4,8.2-3.4,10.7-6.1c2.5-2.6,4.1-6.1,4.8-10.2h6.6
	l2.5-9.5v-3.6l-3.5,3.6h-5.5c-0.4-2.6-1.3-5.1-2.6-7.2h9.2L278.7,266.1z"/>
<path class="st9" d="M276.2,272h-9.2c1.3,2.2,2.2,4.5,2.6,7.2h9l-2.5,9.5h-6.6c-0.7,4.2-2.3,7.6-4.8,10.2c-2.5,2.6-6.1,4.7-10.7,6.1
	l18.2,22.4v0.7h-17l-20.7-24.7l-0.1-8.7h10.7c4.3-0.1,7.1-2.1,8.3-6h-20.3l2.5-9.5h17.4c-1.3-2.8-3.9-4.3-7.7-4.5h-12.1l2.9-12.2
	h42.4L276.2,272z"/>
<path class="st10" d="M235.8,279.2h3.5l-4.7,4.7L235.8,279.2z M256,262.5l-12.2,12.2h-10.4l2.9-12.2H256z M276.2,272h-0.7l0.9-0.9
	L276.2,272z M278.6,279.2l-2.5,9.5h-6.6c-0.7,4.2-2.3,7.6-4.8,10.2c-2.5,2.6-6.1,4.7-10.7,6.1l5.6,6.8l-9.7,9.7l-10.9-13l30.4-30.4
	c0.1,0.4,0.2,0.7,0.2,1.1L278.6,279.2z M245.3,294.7c1.3-0.1,2.5-0.3,3.5-0.6l-12,12l-2.2-2.6l-0.1-3.6l5.1-5.1H245.3z M278.7,262.5
	l-0.6,2.3l-7.2,7.2h-3.8c0.5,0.8,0.9,1.6,1.3,2.5l-15.1,15.1c0.2-0.3,0.3-0.6,0.4-0.9h-7.8l26.2-26.2H278.7z M268.6,322.8l-5.3,5.3
	h-7.9l-0.2-0.3l9.6-9.6L268.6,322.8z"/>
<path class="st14" d="M294.6,268.1c-29.9,10.5-53.9,33.5-65.6,62.8c-1.1-0.7-2.1-1.5-3-2.4c-7-8.1-11.2-18.6-11.2-30.1
	c0-25.5,20.7-46.2,46.2-46.2c11.5,0,22,4.2,30.1,11.2C292.3,264.9,293.5,266.5,294.6,268.1z"/>
</svg>
