<svg width="38" height="38" viewBox="0 0 38 38" fill="none" xmlns="http://www.w3.org/2000/svg">
<g clip-path="url(#clip0_428_951)">
<path d="M35.4246 27.6316C36.5527 25.2641 37.1836 22.6145 37.1836 19.8164C37.1836 9.77461 29.0418 1.63281 19 1.63281C8.9582 1.63281 0.816406 9.77461 0.816406 19.8164C0.816406 20.3879 0.846094 20.952 0.898047 21.5086L35.4246 27.6316Z" fill="#B71530"/>
<path d="M32.0774 0H18.7997V1.05391C18.7997 1.55859 18.3915 1.9668 17.8868 1.9668H17.7903L17.8794 2.10039C17.8794 2.10039 16.6473 3.06523 17.8794 4.1043C17.8794 4.1043 16.4915 5.23242 17.8794 6.38281C17.8794 6.38281 15.3114 9.12148 17.8794 12.35C17.8794 12.35 16.7364 13.5152 18.1465 14.6285C18.1465 14.6285 16.9665 16.0238 18.3172 17.1297C19.668 18.2355 18.3172 20.3582 18.3172 20.3582C18.3172 20.3582 17.345 21.2266 18.3172 22.1988C19.2895 23.1711 18.3172 25.4273 18.3172 25.4273C18.3172 25.4273 17.345 26.2957 18.3172 27.268C19.2895 28.2402 18.3172 30.4965 18.3172 30.4965C18.3172 30.4965 17.293 31.3129 18.3172 32.3371C19.3415 33.3613 18.3172 35.5656 18.3172 35.5656C18.3172 35.5656 17.1001 36.6715 18.0872 37.948C18.3915 37.9629 18.6958 37.9703 19.0075 37.9703C22.7258 37.9703 26.1844 36.8496 29.0641 34.9348L32.2481 32.248C33.5321 30.8824 34.6157 29.3164 35.4321 27.602V3.34727C35.4247 1.50664 33.918 0 32.0774 0Z" fill="#2A428C"/>
<path d="M18.4583 20.373C18.4583 20.373 19.809 18.2504 18.4583 17.1371C17.1075 16.0238 18.2875 14.6359 18.2875 14.6359C16.8774 13.5301 18.0204 12.3574 18.0204 12.3574C15.4524 9.12891 18.0204 6.39023 18.0204 6.39023C16.6325 5.23984 18.0204 4.11172 18.0204 4.11172C16.7883 3.07266 18.0204 2.10781 18.0204 2.10781L17.9313 1.9668C17.9165 1.9668 17.9016 1.9668 17.8868 1.9668H9.66333C9.46294 2.39727 9.36646 2.86484 9.36646 3.33984V35.2316C11.9567 36.857 14.9922 37.8441 18.243 37.9777C17.2485 36.7012 18.4657 35.5879 18.4657 35.5879C18.4657 35.5879 19.4899 33.3762 18.4657 32.3594C17.4415 31.3426 18.4657 30.5188 18.4657 30.5188C18.4657 30.5188 19.4379 28.2551 18.4657 27.2902C17.4934 26.3254 18.4657 25.4496 18.4657 25.4496C18.4657 25.4496 19.4379 23.1859 18.4657 22.2211C17.4934 21.2563 18.4583 20.373 18.4583 20.373Z" fill="#1C2E7A"/>
<path d="M30.541 2.66443H28.9082C28.6039 2.66443 28.3516 2.41208 28.3516 2.10779C28.3516 1.80349 28.6039 1.55115 28.9082 1.55115H30.541C30.8453 1.55115 31.0977 1.80349 31.0977 2.10779C31.0977 2.41208 30.8527 2.66443 30.541 2.66443Z" fill="#6289CC"/>
<path d="M12.7062 0C11.3035 0 10.0937 0.875781 9.59644 2.10781H18.0128C18.5175 2.10781 18.9257 1.69961 18.9257 1.19492V0H12.7062Z" fill="#3C58A0"/>
<path d="M30.5929 4.11169H17.8718C17.8718 4.11169 16.4839 5.23982 17.8718 6.39021C17.8718 6.39021 15.3038 9.12888 17.8718 12.3574C17.8718 12.3574 16.7288 13.5226 18.139 14.6359H30.5929C32.248 14.6359 33.5839 13.2926 33.5839 11.6449V7.10271C33.5839 5.45505 32.248 4.11169 30.5929 4.11169Z" fill="#DEEEFF"/>
<path d="M18.0204 4.11169H14.1907C12.5356 4.11169 11.1997 5.45505 11.1997 7.10271V11.6375C11.1997 13.2926 12.5431 14.6285 14.1907 14.6285H18.2876C16.8774 13.5226 18.0204 12.35 18.0204 12.35C15.4524 9.12146 18.0204 6.38279 18.0204 6.38279C16.6325 5.23982 18.0204 4.11169 18.0204 4.11169Z" fill="#BECAF5"/>
<path d="M30.7487 6.39026H17.8718C17.8718 6.39026 15.3038 9.12893 17.8718 12.3574H30.7487C31.1124 12.3574 31.4019 12.068 31.4019 11.7043V7.04338C31.4019 6.67971 31.105 6.39026 30.7487 6.39026Z" fill="#4FABF7"/>
<path d="M14.0347 6.39026C13.671 6.39026 13.3816 6.67971 13.3816 7.04338V11.7117C13.3816 12.0754 13.671 12.3649 14.0347 12.3649H18.0203C15.4523 9.13635 18.0203 6.39768 18.0203 6.39768L14.0347 6.39026Z" fill="#218EE8"/>
<path d="M19.8387 17.1371H18.4583C17.9461 17.1371 17.5305 17.5527 17.5305 18.0648V19.4453C17.5305 19.9574 17.9461 20.373 18.4583 20.373H19.8387C20.3508 20.373 20.7665 19.9574 20.7665 19.4453V18.0648C20.759 17.5527 20.3434 17.1371 19.8387 17.1371Z" fill="#4FABF7"/>
<path d="M19.9128 17.5453H19.2226C18.9703 17.5453 18.7625 17.7531 18.7625 18.0054V18.6957C18.7625 18.948 18.9703 19.1558 19.2226 19.1558H19.9128C20.1652 19.1558 20.373 18.948 20.373 18.6957V18.0054C20.373 17.7531 20.1652 17.5453 19.9128 17.5453Z" fill="#73C3F9"/>
<path d="M32.2406 32.2778V28.2106C32.2406 27.6985 31.825 27.2828 31.3128 27.2828H29.9324C29.4203 27.2828 29.0046 27.6985 29.0046 28.2106V34.6602C29.0046 34.7641 29.0195 34.868 29.0566 34.9645C30.2144 34.1926 31.2832 33.2946 32.2406 32.2778Z" fill="#FF4155"/>
<path d="M1.20239 16.0609C7.83755 14.5469 7.05825 9.58165 6.13052 6.96173C3.69614 9.41095 1.94458 12.5504 1.20239 16.0609Z" fill="#DD3157"/>
<path d="M24.8187 17.1371H23.4382C22.9261 17.1371 22.5105 17.5527 22.5105 18.0648V19.4453C22.5105 19.9574 22.9261 20.373 23.4382 20.373H24.8187C25.3308 20.373 25.7464 19.9574 25.7464 19.4453V18.0648C25.7464 17.5527 25.3308 17.1371 24.8187 17.1371Z" fill="#4FABF7"/>
<path d="M24.8931 17.5453H24.2028C23.9505 17.5453 23.7427 17.7531 23.7427 18.0054V18.6957C23.7427 18.948 23.9505 19.1558 24.2028 19.1558H24.8931C25.1454 19.1558 25.3532 18.948 25.3532 18.6957V18.0054C25.3606 17.7531 25.1528 17.5453 24.8931 17.5453Z" fill="#73C3F9"/>
<path d="M19.8387 22.2137H18.4583C17.9461 22.2137 17.5305 22.6293 17.5305 23.1414V24.5219C17.5305 25.034 17.9461 25.4496 18.4583 25.4496H19.8387C20.3508 25.4496 20.7665 25.034 20.7665 24.5219V23.1414C20.759 22.6293 20.3434 22.2137 19.8387 22.2137Z" fill="#4FABF7"/>
<path d="M19.9128 22.6219H19.2226C18.9703 22.6219 18.7625 22.8297 18.7625 23.082V23.7723C18.7625 24.0246 18.9703 24.2324 19.2226 24.2324H19.9128C20.1652 24.2324 20.373 24.0246 20.373 23.7723V23.082C20.373 22.8297 20.1652 22.6219 19.9128 22.6219Z" fill="#73C3F9"/>
<path d="M24.8187 22.2137H23.4382C22.9261 22.2137 22.5105 22.6293 22.5105 23.1414V24.5219C22.5105 25.034 22.9261 25.4496 23.4382 25.4496H24.8187C25.3308 25.4496 25.7464 25.034 25.7464 24.5219V23.1414C25.7464 22.6293 25.3308 22.2137 24.8187 22.2137Z" fill="#4FABF7"/>
<path d="M24.8931 22.6219H24.2028C23.9505 22.6219 23.7427 22.8297 23.7427 23.082V23.7723C23.7427 24.0246 23.9505 24.2324 24.2028 24.2324H24.8931C25.1454 24.2324 25.3532 24.0246 25.3532 23.7723V23.082C25.3606 22.8297 25.1528 22.6219 24.8931 22.6219Z" fill="#73C3F9"/>
<path d="M19.8387 27.2828H18.4583C17.9461 27.2828 17.5305 27.6985 17.5305 28.2106V29.591C17.5305 30.1031 17.9461 30.5188 18.4583 30.5188H19.8387C20.3508 30.5188 20.7665 30.1031 20.7665 29.591V28.2106C20.759 27.6985 20.3434 27.2828 19.8387 27.2828Z" fill="#4FABF7"/>
<path d="M19.9128 27.691H19.2226C18.9703 27.691 18.7625 27.8989 18.7625 28.1512V28.8414C18.7625 29.0938 18.9703 29.3016 19.2226 29.3016H19.9128C20.1652 29.3016 20.373 29.0938 20.373 28.8414V28.1512C20.373 27.8989 20.1652 27.691 19.9128 27.691Z" fill="#73C3F9"/>
<path d="M24.8187 27.2828H23.4382C22.9261 27.2828 22.5105 27.6985 22.5105 28.2106V29.591C22.5105 30.1031 22.9261 30.5188 23.4382 30.5188H24.8187C25.3308 30.5188 25.7464 30.1031 25.7464 29.591V28.2106C25.7464 27.6985 25.3308 27.2828 24.8187 27.2828Z" fill="#4FABF7"/>
<path d="M24.8931 27.691H24.2028C23.9505 27.691 23.7427 27.8989 23.7427 28.1512V28.8414C23.7427 29.0938 23.9505 29.3016 24.2028 29.3016H24.8931C25.1454 29.3016 25.3532 29.0938 25.3532 28.8414V28.1512C25.3606 27.8989 25.1528 27.691 24.8931 27.691Z" fill="#73C3F9"/>
<path d="M31.3872 27.691H30.697C30.4446 27.691 30.2368 27.8989 30.2368 28.1512V30.5114C30.2368 30.7637 30.4446 30.9715 30.697 30.9715H31.3872C31.6396 30.9715 31.8474 30.7637 31.8474 30.5114V28.1512C31.8548 27.8989 31.647 27.691 31.3872 27.691Z" fill="#FF7186"/>
<path d="M19.8387 32.3594H18.4583C17.9461 32.3594 17.5305 32.775 17.5305 33.2871V34.6676C17.5305 35.1797 17.9461 35.5953 18.4583 35.5953H19.8387C20.3508 35.5953 20.7665 35.1797 20.7665 34.6676V33.2871C20.759 32.775 20.3434 32.3594 19.8387 32.3594Z" fill="#4FABF7"/>
<path d="M19.9128 32.7676H19.2226C18.9703 32.7676 18.7625 32.9754 18.7625 33.2277V33.918C18.7625 34.1703 18.9703 34.3781 19.2226 34.3781H19.9128C20.1652 34.3781 20.373 34.1703 20.373 33.918V33.2277C20.373 32.9754 20.1652 32.7676 19.9128 32.7676Z" fill="#73C3F9"/>
<path d="M24.8187 32.3594H23.4382C22.9261 32.3594 22.5105 32.775 22.5105 33.2871V34.6676C22.5105 35.1797 22.9261 35.5953 23.4382 35.5953H24.8187C25.3308 35.5953 25.7464 35.1797 25.7464 34.6676V33.2871C25.7464 32.775 25.3308 32.3594 24.8187 32.3594Z" fill="#4FABF7"/>
<path d="M24.8931 32.7676H24.2028C23.9505 32.7676 23.7427 32.9754 23.7427 33.2277V33.918C23.7427 34.1703 23.9505 34.3781 24.2028 34.3781H24.8931C25.1454 34.3781 25.3532 34.1703 25.3532 33.918V33.2277C25.3606 32.9754 25.1528 32.7676 24.8931 32.7676Z" fill="#73C3F9"/>
<path d="M31.3128 17.1371H29.9324C29.4203 17.1371 29.0046 17.5527 29.0046 18.0648V19.4453C29.0046 19.9574 29.4203 20.373 29.9324 20.373H31.3128C31.825 20.373 32.2406 19.9574 32.2406 19.4453V18.0648C32.2406 17.5527 31.825 17.1371 31.3128 17.1371Z" fill="#88CE65"/>
<path d="M31.3872 17.5453H30.697C30.4446 17.5453 30.2368 17.7531 30.2368 18.0054V18.6957C30.2368 18.948 30.4446 19.1558 30.697 19.1558H31.3872C31.6396 19.1558 31.8474 18.948 31.8474 18.6957V18.0054C31.8548 17.7531 31.647 17.5453 31.3872 17.5453Z" fill="#B4D667"/>
<path d="M31.3128 22.2137H29.9324C29.4203 22.2137 29.0046 22.6293 29.0046 23.1414V24.5219C29.0046 25.034 29.4203 25.4496 29.9324 25.4496H31.3128C31.825 25.4496 32.2406 25.034 32.2406 24.5219V23.1414C32.2406 22.6293 31.825 22.2137 31.3128 22.2137Z" fill="#FFC839"/>
<path d="M31.3872 22.6219H30.697C30.4446 22.6219 30.2368 22.8297 30.2368 23.082V23.7723C30.2368 24.0246 30.4446 24.2324 30.697 24.2324H31.3872C31.6396 24.2324 31.8474 24.0246 31.8474 23.7723V23.082C31.8548 22.8297 31.647 22.6219 31.3872 22.6219Z" fill="#FFDD40"/>
<path d="M6.38286 27.0824C9.55138 27.0824 12.12 24.5138 12.12 21.3453C12.12 18.1768 9.55138 15.6082 6.38286 15.6082C3.21434 15.6082 0.645752 18.1768 0.645752 21.3453C0.645752 24.5138 3.21434 27.0824 6.38286 27.0824Z" fill="#FDD835"/>
<path opacity="0.5" d="M6.38286 15.6008C3.21372 15.6008 0.645752 18.1687 0.645752 21.3379C0.645752 24.507 3.21372 27.075 6.38286 27.075C9.552 27.075 12.12 24.507 12.12 21.3379C12.12 18.1687 9.552 15.6008 6.38286 15.6008ZM6.38286 26.8375C3.34731 26.8375 0.890674 24.3808 0.890674 21.3453C0.890674 18.3098 3.34731 15.8531 6.38286 15.8531C9.41841 15.8531 11.875 18.3098 11.875 21.3453C11.875 24.3808 9.41841 26.8375 6.38286 26.8375Z" fill="white"/>
<path opacity="0.5" d="M8.67627 16.0832L1.1208 23.6387C0.861035 23.0449 0.705176 22.4141 0.660645 21.7684L6.80596 15.623C7.4665 15.6676 8.09736 15.8309 8.67627 16.0832ZM11.3853 18.525L3.5626 26.3477C3.08018 26.073 2.63486 25.7316 2.24893 25.3309L10.3685 17.2113C10.7692 17.5973 11.1106 18.0426 11.3853 18.525ZM10.131 16.9961L2.04111 25.0934C1.91494 24.9449 1.79619 24.7965 1.68486 24.6332L9.67822 16.6398C9.83408 16.7512 9.98994 16.8699 10.131 16.9961ZM11.9419 19.9129L4.95049 26.9043C4.74268 26.8523 4.53486 26.7855 4.33447 26.7039L11.7489 19.2895C11.8231 19.4973 11.8899 19.7051 11.9419 19.9129Z" fill="white"/>
<path opacity="0.5" d="M11.0438 21.5902C11.0438 24.0766 9.03242 26.0879 6.54609 26.0879C5.15078 26.0879 3.90391 25.4496 3.08008 24.4551C3.90391 25.3457 5.07656 25.9024 6.38281 25.9024C8.86914 25.9024 10.8805 23.891 10.8805 21.4047C10.8805 20.3137 10.4945 19.3192 9.84883 18.5399C10.591 19.3414 11.0438 20.4176 11.0438 21.5902Z" fill="white"/>
<path d="M6.38291 25.9024C8.8669 25.9024 10.8806 23.8887 10.8806 21.4047C10.8806 18.9207 8.8669 16.907 6.38291 16.907C3.89892 16.907 1.88525 18.9207 1.88525 21.4047C1.88525 23.8887 3.89892 25.9024 6.38291 25.9024Z" fill="#F39E09"/>
<path d="M9.78955 18.4731C9.00283 17.7977 7.97861 17.382 6.85791 17.382C4.37158 17.382 2.36025 19.3934 2.36025 21.8797C2.36025 23.0004 2.76846 24.0246 3.45127 24.8113C2.49385 23.9875 1.88525 22.7629 1.88525 21.4047C1.88525 18.9184 3.89658 16.907 6.38291 16.907C7.74854 16.907 8.96572 17.5156 9.78955 18.4731Z" fill="#E88102"/>
<path d="M8.59458 18.7328V18.3765L8.18638 18.7328H4.4606L4.17856 19.564V19.9203H5.35864C5.72974 19.9351 5.98208 20.0761 6.11567 20.3582H4.41606L4.17114 20.9297V21.2859H6.14536C6.01919 21.6718 5.752 21.8648 5.33638 21.8722H4.30474L4.31216 22.7183L6.33091 25.123H7.97856V24.7668L7.68169 24.6925L6.19731 22.8668C6.65005 22.7257 6.99888 22.5328 7.23638 22.273C7.4813 22.0132 7.63716 21.6867 7.70396 21.2785H8.34966L8.59458 20.3507V19.9945L8.25317 20.3507H7.71138C7.67427 20.091 7.59263 19.8609 7.45903 19.6531H8.34966L8.59458 18.7328Z" fill="#DB6704"/>
<path d="M8.34966 19.2968H7.45903C7.58521 19.5047 7.67427 19.7347 7.71138 19.9945H8.58716L8.34224 20.9222H7.69653C7.62974 21.3304 7.47388 21.6644 7.22896 21.9168C6.98403 22.1765 6.63521 22.3695 6.18989 22.5105L7.97114 24.7V24.7668H6.32349L4.30474 22.3621V21.516H5.3438C5.75942 21.5086 6.03403 21.3082 6.15278 20.9297H4.17114L4.41606 20.0019H6.11567C5.9895 19.7273 5.73716 19.5789 5.35864 19.564H4.17856L4.4606 18.3765H8.59458L8.34966 19.2968Z" fill="#FDD835"/>
<path opacity="0.5" d="M4.41597 20.002H4.75737L4.29722 20.4621L4.41597 20.002ZM6.37534 18.3766L5.18784 19.5641H4.17847L4.4605 18.3766H6.37534ZM8.34956 19.2969H8.28276L8.37183 19.2078L8.34956 19.2969ZM8.58706 20.002L8.34214 20.9297H7.69644C7.62964 21.3379 7.47378 21.6719 7.22886 21.9242C6.98394 22.184 6.63511 22.377 6.1898 22.518L6.73159 23.1859L5.78901 24.1285L4.72026 22.8594L7.68901 19.8906C7.69644 19.9277 7.70386 19.9574 7.70386 19.9945H8.58706V20.002ZM5.33628 21.516C5.46245 21.516 5.5812 21.4938 5.67769 21.4566L4.51245 22.6219L4.29722 22.3695V22.0207L4.79448 21.5234L5.33628 21.516ZM8.59448 18.3766L8.53511 18.6066L7.83745 19.3043H7.45894C7.51089 19.3859 7.548 19.4676 7.58511 19.5492L6.11558 21.0188C6.13042 20.9891 6.13784 20.9594 6.15269 20.9223H5.39565L7.94878 18.3691H8.59448V18.3766ZM7.60737 24.2473L7.09526 24.7594H6.32339L6.30112 24.7371L7.2437 23.7945L7.60737 24.2473Z" fill="white"/>
<path opacity="0.25" d="M10.1309 18.9183C7.22153 19.9426 4.88364 22.184 3.73325 25.0414C3.62935 24.9672 3.53286 24.893 3.4438 24.8113C2.76841 24.0246 2.35278 23.0004 2.35278 21.8797C2.35278 19.3933 4.36411 17.382 6.85044 17.382C7.97114 17.382 8.99536 17.7902 9.78208 18.473C9.91567 18.6141 10.027 18.7625 10.1309 18.9183Z" fill="white"/>
<path d="M12.9511 24.559C14.5046 24.559 15.764 23.2996 15.764 21.7461C15.764 20.1926 14.5046 18.9332 12.9511 18.9332C11.3976 18.9332 10.1382 20.1926 10.1382 21.7461C10.1382 23.2996 11.3976 24.559 12.9511 24.559Z" fill="#FDD835"/>
<path opacity="0.5" d="M12.9511 18.9332C11.3999 18.9332 10.1382 20.1949 10.1382 21.7461C10.1382 23.2973 11.3999 24.559 12.9511 24.559C14.5022 24.559 15.764 23.2973 15.764 21.7461C15.764 20.1949 14.5022 18.9332 12.9511 18.9332ZM12.9511 24.4403C11.4667 24.4403 10.2569 23.2379 10.2569 21.7461C10.2569 20.2543 11.4593 19.052 12.9511 19.052C14.4429 19.052 15.6452 20.2543 15.6452 21.7461C15.6452 23.2379 14.4354 24.4403 12.9511 24.4403Z" fill="white"/>
<path opacity="0.5" d="M14.0717 19.1633L10.3682 22.8668C10.242 22.5774 10.1678 22.2656 10.1455 21.9465L13.1588 18.9332C13.4779 18.9629 13.7896 19.0446 14.0717 19.1633ZM15.4002 20.3656L11.5631 24.2028C11.3256 24.0692 11.1104 23.8985 10.9174 23.7055L14.8955 19.7274C15.0959 19.9129 15.2666 20.1281 15.4002 20.3656ZM14.7842 19.616L10.8135 23.5867C10.7541 23.5125 10.6947 23.4383 10.6354 23.3641L14.5541 19.4453C14.6432 19.4973 14.7174 19.5567 14.7842 19.616ZM15.6748 21.0485L12.2459 24.4774C12.142 24.4477 12.0381 24.418 11.9416 24.3809L15.5783 20.7442C15.6154 20.8406 15.6451 20.9446 15.6748 21.0485Z" fill="white"/>
<path opacity="0.5" d="M15.2369 21.8723C15.2369 23.0895 14.2498 24.0766 13.0326 24.0766C12.3498 24.0766 11.7338 23.7648 11.333 23.275C11.7338 23.7129 12.3127 23.9801 12.951 23.9801C14.1682 23.9801 15.1553 22.993 15.1553 21.7758C15.1553 21.2414 14.9623 20.7516 14.6506 20.373C15.0143 20.7664 15.2369 21.2934 15.2369 21.8723Z" fill="white"/>
<path d="M12.9511 23.9801C14.1685 23.9801 15.1554 22.9932 15.1554 21.7758C15.1554 20.5584 14.1685 19.5715 12.9511 19.5715C11.7337 19.5715 10.7468 20.5584 10.7468 21.7758C10.7468 22.9932 11.7337 23.9801 12.9511 23.9801Z" fill="#F39E09"/>
<path d="M14.621 20.336C14.2351 20.002 13.7304 19.8016 13.1812 19.8016C11.964 19.8016 10.9769 20.7887 10.9769 22.0059C10.9769 22.5551 11.1773 23.0598 11.5113 23.4458C11.0437 23.045 10.7468 22.4438 10.7468 21.7758C10.7468 20.5586 11.7339 19.5715 12.9511 19.5715C13.6191 19.5715 14.2128 19.8684 14.621 20.336Z" fill="#E88102"/>
<path d="M14.0273 20.4621V20.2914L13.8269 20.4621H12.0011L11.8601 20.8704V21.0411H12.439C12.6246 21.0485 12.7433 21.1153 12.8101 21.2563H11.9789L11.8601 21.5383V21.709H12.825C12.7656 21.8946 12.632 21.9911 12.4242 21.9985H11.9195V22.4141L12.9066 23.5942H13.7304V23.4235L13.5894 23.3864L12.8621 22.4883C13.0847 22.4215 13.2554 22.325 13.3742 22.1989C13.4929 22.0727 13.5671 21.9094 13.6042 21.709H13.9234L14.0421 21.2563V21.0856L13.8789 21.2563H13.6117C13.5894 21.1301 13.5523 21.0188 13.4855 20.9149H13.9234L14.0273 20.4621Z" fill="#DB6704"/>
<path d="M13.916 20.7442H13.4781C13.5449 20.8481 13.582 20.9594 13.6043 21.0856H14.0348L13.916 21.5383H13.5969C13.5672 21.7387 13.4855 21.902 13.3668 22.0282C13.248 22.1543 13.0773 22.2508 12.8547 22.3176L13.7305 23.3864V23.4161H12.9215L11.9344 22.236V21.8204H12.4391C12.6469 21.8129 12.7805 21.7165 12.8398 21.5309H11.875L11.9938 21.0782H12.825C12.7582 20.9446 12.6395 20.8704 12.4539 20.8629H11.875L12.016 20.2766H14.0273L13.916 20.7442Z" fill="#FDD835"/>
<path opacity="0.5" d="M11.9863 21.0856H12.1496L11.9269 21.3082L11.9863 21.0856ZM12.9437 20.2914L12.3574 20.8778H11.8601L12.0011 20.2914H12.9437ZM13.916 20.7442H13.8789L13.9234 20.6996L13.916 20.7442ZM14.0273 21.0856L13.9085 21.5383H13.5894C13.5597 21.7387 13.4781 21.902 13.3593 22.0282C13.2406 22.1543 13.0699 22.2508 12.8472 22.3176L13.1144 22.6442L12.6468 23.1118L12.1273 22.4883L13.582 21.0336C13.582 21.0485 13.5894 21.0707 13.5894 21.0856H14.0273ZM12.439 21.8278C12.4984 21.8278 12.5578 21.8129 12.6097 21.7981L12.0382 22.3696L11.9343 22.2434V22.0727L12.1792 21.8278H12.439ZM14.0273 20.2914L13.9976 20.4028L13.6562 20.7442H13.4707C13.4929 20.7813 13.5152 20.8258 13.53 20.8629L12.8101 21.5828C12.8175 21.568 12.825 21.5532 12.825 21.5383H12.4539L13.7007 20.2914H14.0273ZM13.5449 23.1711L13.2925 23.4235H12.914L12.9066 23.4086L13.3667 22.9485L13.5449 23.1711Z" fill="white"/>
<path opacity="0.25" d="M14.7842 20.5586C13.3592 21.0633 12.2088 22.1617 11.6522 23.557C11.6002 23.5199 11.5557 23.4828 11.5112 23.4457C11.1772 23.0598 10.9768 22.5551 10.9768 22.0059C10.9768 20.7887 11.9639 19.8016 13.1811 19.8016C13.7303 19.8016 14.235 20.002 14.6209 20.336C14.6803 20.4102 14.7323 20.4844 14.7842 20.5586Z" fill="white"/>
<path d="M9.00264 35.6844C13.0483 35.6844 16.328 32.4047 16.328 28.359C16.328 24.3133 13.0483 21.0336 9.00264 21.0336C4.95694 21.0336 1.67725 24.3133 1.67725 28.359C1.67725 32.4047 4.95694 35.6844 9.00264 35.6844Z" fill="#FDD835"/>
<path opacity="0.5" d="M9.00264 21.0336C4.95772 21.0336 1.67725 24.314 1.67725 28.359C1.67725 32.4039 4.95772 35.6844 9.00264 35.6844C13.0476 35.6844 16.328 32.4039 16.328 28.359C16.328 24.314 13.0476 21.0336 9.00264 21.0336ZM9.00264 35.3726C5.12842 35.3726 1.98896 32.2332 1.98896 28.359C1.98896 24.4847 5.12842 21.3453 9.00264 21.3453C12.8769 21.3453 16.0163 24.4847 16.0163 28.359C16.0163 32.2332 12.8769 35.3726 9.00264 35.3726Z" fill="white"/>
<path opacity="0.5" d="M11.9269 21.6347L2.27847 31.2832C1.9519 30.5261 1.75151 29.7171 1.69214 28.8933L9.53706 21.0484C10.3832 21.1078 11.1847 21.3156 11.9269 21.6347ZM15.3855 24.7593L5.40308 34.7418C4.78706 34.3929 4.223 33.955 3.72573 33.4429L14.0867 23.082C14.5988 23.5793 15.0367 24.1433 15.3855 24.7593ZM13.7898 22.8074L3.45854 33.1461C3.29526 32.9605 3.14683 32.7601 3.00581 32.5597L13.2109 22.3547C13.4039 22.4957 13.6042 22.6515 13.7898 22.8074ZM16.098 26.5257L7.16948 35.4543C6.9023 35.3875 6.63511 35.2984 6.38276 35.2019L15.8457 25.739C15.9421 25.9988 16.0312 26.2586 16.098 26.5257Z" fill="white"/>
<path opacity="0.5" d="M14.955 28.6707C14.955 31.8398 12.387 34.4078 9.21787 34.4078C7.43662 34.4078 5.84834 33.5988 4.79443 32.3223C5.84092 33.4578 7.34014 34.1629 9.01006 34.1629C12.1792 34.1629 14.7472 31.5949 14.7472 28.4258C14.7472 27.0379 14.2573 25.7613 13.4335 24.7668C14.3761 25.7984 14.955 27.1715 14.955 28.6707Z" fill="white"/>
<path d="M9.00273 34.1703C12.1713 34.1703 14.7398 31.6017 14.7398 28.4332C14.7398 25.2646 12.1713 22.696 9.00273 22.696C5.83422 22.696 3.26562 25.2646 3.26562 28.4332C3.26562 31.6017 5.83422 34.1703 9.00273 34.1703Z" fill="#F39E09"/>
<path d="M13.3518 24.6852C12.3499 23.8168 11.0362 23.2973 9.60376 23.2973C6.43462 23.2973 3.86665 25.8652 3.86665 29.0344C3.86665 30.4668 4.3936 31.7731 5.25454 32.7824C4.02993 31.7285 3.25806 30.1699 3.25806 28.4332C3.25806 25.2641 5.82603 22.6961 8.99517 22.6961C10.7393 22.6887 12.2979 23.468 13.3518 24.6852Z" fill="#E88102"/>
<path d="M11.823 25.0191V24.5664L11.296 25.0191H6.54604L6.18979 26.0879V26.5406H7.69644C8.17144 26.5555 8.498 26.741 8.66128 27.0973H6.49409L6.18237 27.8246V28.2773H8.70581C8.54995 28.7672 8.20112 29.0195 7.66675 29.027H6.34565L6.35308 30.1105L8.92847 33.1832H11.0363V32.7305L10.6578 32.6414L8.75776 30.3035C9.33667 30.1254 9.77456 29.873 10.0863 29.5465C10.398 29.2199 10.5984 28.7969 10.68 28.2773H11.5039L11.8156 27.0973V26.6445L11.3851 27.0973H10.6949C10.6429 26.7633 10.539 26.4664 10.3757 26.2066H11.5113L11.823 25.0191Z" fill="#DB6704"/>
<path d="M11.5113 25.7465H10.3757C10.539 26.0137 10.6429 26.3105 10.6949 26.6371H11.8156L11.5039 27.8172H10.68C10.591 28.3367 10.398 28.7598 10.0863 29.0863C9.77456 29.4129 9.32925 29.6652 8.75776 29.8434L11.0289 32.634V32.7156H8.92104L6.34565 29.643V28.5742H7.66675C8.20112 28.5594 8.54995 28.3145 8.70581 27.8246H6.18237L6.49409 26.6445H8.66128C8.498 26.2883 8.17886 26.1027 7.69644 26.0879H6.18979L6.54604 24.5664H11.8156L11.5113 25.7465Z" fill="#FDD835"/>
<path opacity="0.5" d="M6.49399 26.6371H6.92446L6.33813 27.2234L6.49399 26.6371ZM8.99517 24.5664L7.47368 26.0879H6.1897L6.54595 24.5664H8.99517ZM11.5112 25.7465H11.4221L11.5409 25.6277L11.5112 25.7465ZM11.8155 26.6371L11.5038 27.8172H10.6799C10.5909 28.3367 10.3979 28.7598 10.0862 29.0863C9.77446 29.4129 9.32915 29.6652 8.75767 29.8434L9.4479 30.6969L8.23813 31.9066L6.87993 30.2887L10.6651 26.5035C10.6725 26.548 10.6799 26.5926 10.6874 26.6371H11.8155ZM7.66665 28.5742C7.82993 28.5668 7.97837 28.5445 8.10454 28.4926L6.62017 29.977L6.34556 29.6504V29.2051L6.98384 28.5668L7.66665 28.5742ZM11.8229 24.5664L11.7487 24.8559L10.8581 25.7465H10.3831C10.4424 25.843 10.5018 25.9543 10.5463 26.0656L8.6686 27.9434C8.68345 27.9062 8.69829 27.8617 8.71313 27.8246H7.74829L11.0065 24.5664H11.8229ZM10.5612 32.0625L9.90063 32.723H8.92095L8.89126 32.6934L10.0936 31.4984L10.5612 32.0625Z" fill="white"/>
<path opacity="0.25" d="M13.7897 25.264C10.0714 26.5703 7.08779 29.4351 5.62568 33.0793C5.49951 32.9828 5.37334 32.8863 5.25459 32.7824C4.38623 31.7804 3.8667 30.4668 3.8667 29.0344C3.8667 25.8652 6.43467 23.2972 9.60381 23.2972C11.0362 23.2972 12.3425 23.8242 13.3519 24.6851C13.5077 24.8707 13.6562 25.0636 13.7897 25.264Z" fill="white"/>
</g>
<defs>
<clipPath id="clip0_428_951">
<rect width="38" height="38" fill="white"/>
</clipPath>
</defs>
</svg>
