<?xml version="1.0" encoding="utf-8"?>
<!-- Generator: Adobe Illustrator 28.0.0, SVG Export Plug-In . SVG Version: 6.00 Build 0)  -->
<svg version="1.1" id="Layer_1" xmlns="http://www.w3.org/2000/svg" xmlns:xlink="http://www.w3.org/1999/xlink" x="0px" y="0px"
	 viewBox="0 0 512 512" style="enable-background:new 0 0 512 512;" xml:space="preserve">
<style type="text/css">
	.st0{fill-rule:evenodd;clip-rule:evenodd;fill:#FDD835;}
	.st1{fill-rule:evenodd;clip-rule:evenodd;fill:#FCD4A9;}
	.st2{fill-rule:evenodd;clip-rule:evenodd;fill:#F0B16E;}
	.st3{fill-rule:evenodd;clip-rule:evenodd;fill:#88C8FE;}
	.st4{fill:#FDD835;}
	.st5{opacity:0.5;fill:#FFFFFF;enable-background:new    ;}
	.st6{fill:#F39E09;}
	.st7{fill:#E88102;}
	.st8{fill:#DB6704;}
	.st9{opacity:0.25;fill:#FFFFFF;enable-background:new    ;}
</style>
<g>
	<g>
		<path class="st0" d="M32.4,291.8C17.7,213.7,42.6,135.3,97.5,80.4c92.3-92.4,242-92.4,334.4,0c54.3,54.3,79.4,131.8,65.5,209.7
			c-0.8,4.6-5.3,7.8-9.9,6.9s-7.8-5.3-6.9-9.9c0,0,0,0,0-0.1c24.3-134.7-78.7-258.9-215.8-258.9c-135.1,0-237.4,120.6-216.9,253.1
			c0.2,1.4,0.4,2.6,0.6,4l3.2-11l0,0c1.4-4.7,6.1-7.3,10.6-6c4.5,1.3,7.1,6,5.8,10.6l0,0L56.5,319c-1.7,5.9-9,8.5-14.2,3.8
			l-31.4-26.9c-3.6-3.2-3.9-8.5-0.7-12.1c3-3.5,8.3-3.9,11.9-0.9L32.4,291.8z"/>
		<path class="st1" d="M500.3,340.1c8.2,12.3,1.8,27.5-9.8,36.7L416,435.8c-17.3,13.8-30.3,21.9-49.8,31.6
			c-28.9,14.4-61.4,27.3-90.2,31.6c-39.9,5.9-90.5-7.9-130.7-12.4c-24.5-2.7-46.7-4.6-71.3-5.9V371.9c43.2-5.4,75.7-20.6,120.9-8.5
			h91.2c19.9,0,33.2,20.4,25.7,38.5c4.5,1.5,9.1,2.2,13.6,2.2c12.3,0,18.1-4.5,28.1-10.3l110-63.5
			C476.5,322.9,493,327.3,500.3,340.1L500.3,340.1z"/>
		<path class="st2" d="M312,402c5.5,1.7,10.8,2.4,16.3,2.1c0.2,1.5,0,3-0.5,4.4c-5.6,13.4-18.8,22.5-33.6,22.5h-91.2
			c-4.7,0-8.5-3.8-8.5-8.5s3.8-8.5,8.5-8.5h91.2C302,413.9,309,409.1,312,402L312,402z"/>
		<path class="st3" d="M38.7,353.5h34.7c8.1,0,14.8,6.6,14.8,14.8v117.8c0,8.1-6.6,14.8-14.8,14.8H38.7c-8.1,0-14.8-6.6-14.8-14.8
			V368.3C23.9,360.1,30.6,353.5,38.7,353.5L38.7,353.5z"/>
	</g>
</g>
<g>
	<path class="st4" d="M261.4,349.8c79.6,0,144.2-64.5,144.2-144.2S341,61.4,261.4,61.4S117.2,126,117.2,205.6
		S181.7,349.8,261.4,349.8z"/>
	<path class="st5" d="M261.4,61.3c-79.6,0-144.2,64.5-144.2,144.2s64.5,144.2,144.2,144.2s144.2-64.5,144.2-144.2
		C405.7,125.8,341.2,61.3,261.4,61.3z M261.4,343.6c-76.3,0-138.1-61.7-138.1-138.1S185.2,67.7,261.4,67.7s138.1,61.7,138.1,138.1
		C399.5,282,337.6,343.6,261.4,343.6z"/>
	<path class="st5" d="M319,73.2l-189.9,190c-6.4-14.9-10.3-30.9-11.7-47.1L272,61.5C288.6,62.9,304.5,66.9,319,73.2z M387.1,134.7
		L190.6,331.1c-12.2-7-23.4-15.4-33-25.5l204.1-203.7C371.7,111.3,380.3,122.5,387.1,134.7z M355.7,96.4L152.2,299.9
		c-3.2-3.8-6.2-7.5-9-11.7l201-200.9C348.2,90.1,352,93.2,355.7,96.4z M401.2,169.4L225.4,345.2c-5.4-1.3-10.6-3.2-15.7-5L396,154
		C398.3,159.1,400,164.3,401.2,169.4z"/>
	<path class="st5" d="M378.7,211.8c0,62.4-50.6,113.1-113.1,113.1c-35,0-66.4-16-87.1-41.1c20.7,22.3,50.2,36.3,83.1,36.3
		c62.4,0,113.1-50.6,113.1-113.1c0-27.2-9.6-52.5-26-71.9C367.3,155.2,378.7,182.2,378.7,211.8z"/>
	<path class="st6" d="M261.4,320.1c62.4,0,113.1-50.6,113.1-113.1S323.8,94,261.4,94S148.3,144.6,148.3,207S198.9,320.1,261.4,320.1
		z"/>
	<path class="st7" d="M347.1,133.3c-19.8-17-45.6-27.2-73.8-27.2c-62.4,0-113.1,50.6-113.1,113.1c0,28.2,10.3,53.9,27.2,73.8
		c-24-20.8-39.3-51.5-39.3-85.6c0-62.4,50.6-113.1,113.1-113.1C295.6,94,326.3,109.2,347.1,133.3z"/>
	<path class="st8" d="M317.1,139.8v-8.9l-10.3,8.9h-93.4l-7,20.9v8.9H236c9.5,0.3,15.8,4,18.9,10.9h-42.7l-6,14.4v8.9h49.6
		c-3.2,9.6-9.8,14.6-20.4,14.6h-26.2l0.1,21.2l50.6,60.4h41.5v-8.9l-7.5-1.9l-37.4-45.9c11.3-3.5,20.1-8.3,26.2-14.9
		c6.2-6.4,10.1-14.8,11.8-25h16.1l6-23.2v-8.9l-8.5,8.9h-13.4c-0.8-6.4-3.2-12.3-6.3-17.5h22.4L317.1,139.8z"/>
	<path class="st4" d="M311,154.3h-22.4c3.2,5.4,5.4,11,6.3,17.5h22.1l-6,23.2h-16.1c-1.7,10.2-5.8,18.5-11.8,25
		c-6.2,6.4-14.9,11.5-26.2,14.9l44.7,55v1.7h-41.4l-50.6-60.4l-0.1-21.2h25.8c10.6-0.3,17.2-5.1,20.4-14.6h-49.6l6-23.2h42.7
		c-3.2-7-9.5-10.6-18.9-10.9h-29.7l7-29.8h104L311,154.3z"/>
	<path class="st5" d="M212,171.7h8.5L209,183.2L212,171.7z M261.4,130.9l-29.8,29.8h-25.4l7-29.8H261.4z M311,154.3h-1.7l2.3-2.3
		L311,154.3z M316.8,171.7l-6,23.2h-16.2c-1.7,10.2-5.8,18.5-11.8,25c-6.2,6.4-14.8,11.5-26.2,14.9l13.7,16.8l-23.6,23.9l-26.7-31.8
		l74.5-74.5c0.1,0.8,0.4,1.9,0.4,2.7L316.8,171.7z M235.2,209.8c3.2-0.1,6-0.5,8.6-1.6l-29.3,29.3l-5.4-6.4l-0.1-8.7l12.5-12.5
		L235.2,209.8L235.2,209.8z M317.1,130.9l-1.6,5.8l-17.5,17.7h-9.5c1.3,1.9,2.3,4,3.2,6.2l-36.9,36.9c0.4-0.7,0.5-1.6,0.8-2.3h-18.9
		l64.1-64.1h16.3V130.9z M292.1,278.6l-13,13.1h-19.3l-0.5-0.5l23.5-23.5L292.1,278.6z"/>
	<path class="st9" d="M355.7,144.6c-73.1,25.6-132,82.1-160.7,153.8c-2.6-1.9-5-3.8-7.4-5.8c-17-19.8-27.2-45.6-27.2-73.8
		c0-62.4,50.6-113.1,113.1-113.1c28.2,0,53.9,10.3,73.8,27.2C350.3,136.7,353.2,140.6,355.7,144.6z"/>
</g>
</svg>
