<?xml version="1.0" encoding="utf-8"?>
<!-- Generator: Adobe Illustrator 28.0.0, SVG Export Plug-In . SVG Version: 6.00 Build 0)  -->
<svg version="1.1" id="Layer_1" xmlns="http://www.w3.org/2000/svg" xmlns:xlink="http://www.w3.org/1999/xlink" x="0px" y="0px"
	 viewBox="0 0 512 512" style="enable-background:new 0 0 512 512;" xml:space="preserve">
<style type="text/css">
	.st0{fill:#61AFF6;}
	.st1{fill:#55A2F0;}
	.st2{fill:#FFB125;}
	.st3{fill:#FFFFFF;}
	.st4{fill:#B6FA4D;}
	.st5{fill:#FF901D;}
	.st6{fill:#77DD00;}
	.st7{fill:#6EC102;}
	.st8{fill:#E1EFFB;}
	.st9{fill:#FDD835;}
	.st10{opacity:0.5;fill:#FFFFFF;enable-background:new    ;}
	.st11{fill:#F39E09;}
	.st12{fill:#E88102;}
	.st13{fill:#DB6704;}
	.st14{opacity:0.25;fill:#FFFFFF;enable-background:new    ;}
</style>
<g>
	<path class="st0" d="M422.2,511.7h-332L89.8,23.4h332L422.2,511.7z"/>
	<path class="st1" d="M421.8,23.4h-46.1l0.3,488.3h46.1L421.8,23.4z"/>
	<path class="st2" d="M296.9,511.7h-81.9v-154c0-2.9,2.4-5.3,5.3-5.3h71.3c2.9,0,5.3,2.4,5.3,5.3L296.9,511.7L296.9,511.7
		L296.9,511.7z"/>
	<path class="st3" d="M179.3,421.7h-50.1c-1.7,0-3-1.4-3-3c0,0,0,0,0,0v-63.2c0-1.7,1.4-3,3-3h50.1c1.7,0,3,1.4,3,3c0,0,0,0,0,0
		v63.2C182.4,420.3,181,421.7,179.3,421.7C179.3,421.7,179.3,421.7,179.3,421.7z M382.7,421.7h-50.1c-1.7,0-3-1.4-3-3v-63.2
		c0-1.7,1.4-3,3-3h50.1c1.7,0,3,1.4,3,3v63.2C385.7,420.3,384.4,421.7,382.7,421.7z"/>
	<path class="st2" d="M438.5,0h-365c-1.2,0-2.2,1-2.2,2.2V28c0,1.2,1,2.2,2.2,2.2h365c1.2,0,2.2-1,2.2-2.2V2.3
		C440.7,1,439.7,0,438.5,0C438.5,0,438.5,0,438.5,0z"/>
	<path class="st3" d="M179.3,278.7h-50.1c-1.7,0-3-1.4-3-3c0,0,0,0,0,0v-63.2c0-1.7,1.4-3,3-3h50.1c1.7,0,3,1.4,3,3c0,0,0,0,0,0
		v63.2C182.4,277.4,181,278.7,179.3,278.7C179.3,278.7,179.3,278.7,179.3,278.7z M281,278.7H231c-1.7,0-3-1.4-3-3c0,0,0,0,0,0v-63.2
		c0-1.7,1.4-3,3-3H281c1.7,0,3,1.4,3,3v63.2C284.1,277.4,282.7,278.7,281,278.7z M382.7,278.7h-50.1c-1.7,0-3-1.4-3-3v-63.2
		c0-1.7,1.4-3,3-3h50.1c1.7,0,3,1.4,3,3v63.2C385.7,277.4,384.4,278.7,382.7,278.7z M179.3,147.3h-50.1c-1.7,0-3-1.4-3-3
		c0,0,0,0,0,0V81c0-1.7,1.4-3,3-3l0,0h50.1c1.7,0,3,1.4,3,3c0,0,0,0,0,0v63.2C182.4,145.9,181,147.3,179.3,147.3L179.3,147.3z
		 M281,147.3H231c-1.7,0-3-1.4-3-3c0,0,0,0,0,0V81c0-1.7,1.4-3,3-3l0,0H281c1.7,0,3,1.4,3,3v63.2C284.1,145.9,282.7,147.3,281,147.3
		L281,147.3z M382.7,147.3h-50.1c-1.7,0-3-1.4-3-3V81c0-1.7,1.4-3,3-3c0,0,0,0,0,0h50.1c1.7,0,3,1.4,3,3v63.2
		C385.7,145.9,384.4,147.3,382.7,147.3L382.7,147.3z"/>
	<path class="st4" d="M153.5,490.3c-0.3-14.9-11.7-27.1-26.2-28.7c-6.8-10.8-18.8-18-32.5-18c-21.1,0-38.3,17.1-38.3,38.3
		c0,2.9,0.3,5.7,0.9,8.4L153.5,490.3L153.5,490.3z M358.5,490.3c0.3-14.9,11.7-27.1,26.2-28.7c6.8-10.8,18.8-18,32.5-18
		c21.1,0,38.3,17.1,38.3,38.3c0,2.9-0.3,5.7-0.9,8.4L358.5,490.3L358.5,490.3z"/>
	<path class="st5" d="M275.8,405c-4.1,0-7.5,3.4-7.5,7.5c0,0,0,0,0,0v15.5c0,4.1,3.4,7.5,7.5,7.5s7.5-3.4,7.5-7.5v-15.5
		C283.3,408.4,279.9,405,275.8,405L275.8,405z M439.6,0.3h-45v29.9h43.8c1.2,0,2.2-1,2.2-2.2V2.3C440.7,1.4,440.3,0.7,439.6,0.3z"/>
	<path class="st6" d="M474.5,486h-437c-7.2,0-13,5.8-13,13s5.8,13,13,13h437c7.2,0,13-5.8,13-13S481.7,486,474.5,486z"/>
	<path class="st7" d="M485.1,506.6c0.1-0.2,0.2-0.3,0.3-0.5c0.1-0.2,0.2-0.3,0.3-0.5c0.1-0.2,0.2-0.4,0.3-0.5
		c0.1-0.2,0.2-0.4,0.3-0.6c0.1-0.2,0.2-0.4,0.3-0.6c0.1-0.2,0.1-0.4,0.2-0.6c0.1-0.2,0.1-0.4,0.2-0.6c0.1-0.2,0.1-0.4,0.2-0.6
		c0.1-0.2,0.1-0.4,0.1-0.6c0-0.2,0.1-0.4,0.1-0.7c0-0.2,0.1-0.4,0.1-0.6c0-0.4,0.1-0.9,0.1-1.3c0-0.4,0-0.7-0.1-1v-0.3
		c0-0.1,0-0.1,0-0.2c0-0.2,0-0.3-0.1-0.5c-0.1-0.3-0.1-0.7-0.2-1c0-0.2-0.1-0.3-0.1-0.5c-0.1-0.4-0.2-0.8-0.4-1.1
		c0-0.1,0-0.1-0.1-0.2c-0.2-0.4-0.4-0.9-0.6-1.3c0,0,0-0.1-0.1-0.1l0,0c-2.2-4.1-6.5-6.8-11.4-6.8h-33.1c0,7.5-6.1,13.6-13.6,13.6
		H37.5c-4.9,0-9.3-2.8-11.5-6.8c-1.2,2.2-1.7,4.7-1.5,7.2c0.5,6.8,6.5,12,13.4,12h436.6c0.4,0,0.9,0,1.3-0.1c0.1,0,0.3,0,0.4-0.1
		c0.3,0,0.6-0.1,0.8-0.1c0.2,0,0.3-0.1,0.5-0.1c0.2-0.1,0.5-0.1,0.7-0.2c0.2-0.1,0.3-0.1,0.5-0.2c0.2-0.1,0.4-0.2,0.7-0.2
		c0.2-0.1,0.3-0.1,0.5-0.2c0.2-0.1,0.4-0.2,0.6-0.3c0.2-0.1,0.3-0.2,0.5-0.3c0.2-0.1,0.4-0.2,0.6-0.3c0.2-0.1,0.3-0.2,0.5-0.3
		c0.2-0.1,0.3-0.3,0.5-0.4c0.3-0.3,0.6-0.5,0.9-0.8c0.4-0.4,0.8-0.9,1.2-1.3C484.8,506.9,485,506.7,485.1,506.6L485.1,506.6z"/>
	<path class="st8" d="M179.3,78h-25v69.3h25c1.7,0,3-1.4,3-3c0,0,0,0,0,0V81C182.4,79.4,181,78,179.3,78L179.3,78L179.3,78z M281,78
		h-25v69.3h25c1.7,0,3-1.4,3-3c0,0,0,0,0,0V81C284.1,79.4,282.7,78,281,78C281,78,281,78,281,78z M382.7,78h-25v69.3h25
		c1.7,0,3-1.4,3-3c0,0,0,0,0,0V81C385.7,79.4,384.4,78,382.7,78z M179.3,209.5h-25v69.3h25c1.7,0,3-1.4,3-3c0,0,0,0,0,0v-63.2
		C182.4,210.8,181,209.5,179.3,209.5L179.3,209.5L179.3,209.5z M281,209.5h-25v69.3h25c1.7,0,3-1.4,3-3c0,0,0,0,0,0v-63.2
		C284.1,210.8,282.7,209.5,281,209.5C281,209.5,281,209.5,281,209.5L281,209.5z M382.7,209.5h-25v69.3h25c1.7,0,3-1.4,3-3
		c0,0,0,0,0,0v-63.2C385.7,210.8,384.4,209.5,382.7,209.5L382.7,209.5z M179.3,352.4h-25v69.3h25c1.7,0,3-1.4,3-3c0,0,0,0,0,0v-63.2
		C182.4,353.8,181,352.4,179.3,352.4L179.3,352.4z M382.7,352.4h-25v69.3h25c1.7,0,3-1.4,3-3c0,0,0,0,0,0v-63.2
		C385.7,353.8,384.4,352.4,382.7,352.4L382.7,352.4z"/>
</g>
<circle class="st3" cx="256" cy="119.6" r="68.9"/>
<g>
	<path class="st9" d="M256,177.3c31.9,0,57.7-25.8,57.7-57.7c0-31.9-25.8-57.7-57.7-57.7s-57.7,25.8-57.7,57.7
		C198.3,151.5,224.2,177.3,256,177.3z"/>
	<path class="st10" d="M256,61.9c-31.9,0-57.7,25.8-57.7,57.7c0,31.9,25.8,57.7,57.7,57.7s57.7-25.8,57.7-57.7
		C313.7,87.8,287.9,61.9,256,61.9z M256,174.8c-30.5,0-55.2-24.7-55.2-55.2c0-30.5,24.7-55.2,55.2-55.2s55.2,24.7,55.2,55.2
		C311.2,150.2,286.5,174.8,256,174.8z"/>
	<path class="st10" d="M279.1,66.7l-75.9,75.9c-2.6-6-4.1-12.3-4.6-18.8l61.8-61.8C266.9,62.6,273.2,64.2,279.1,66.7z M306.3,91.3
		l-78.6,78.6c-4.9-2.8-9.3-6.2-13.2-10.2l81.5-81.5C300.1,82,303.5,86.4,306.3,91.3z M293.8,76l-81.4,81.3c-1.3-1.5-2.5-3-3.6-4.6
		l80.4-80.3C290.7,73.5,292.3,74.7,293.8,76z M311.9,105.2l-70.3,70.3c-2.1-0.5-4.2-1.2-6.2-2L309.9,99
		C310.7,101.1,311.4,103.1,311.9,105.2z"/>
	<path class="st10" d="M302.9,122.1c0,24.9-20.3,45.2-45.2,45.2c-14,0-26.5-6.4-34.8-16.4c8.2,8.9,20.1,14.5,33.2,14.5
		c24.9,0,45.2-20.3,45.2-45.2c0-10.9-3.9-21-10.4-28.8C298.3,99.5,302.9,110.3,302.9,122.1z"/>
	<path class="st11" d="M256,165.4c25,0,45.2-20.2,45.2-45.2c0-25-20.2-45.2-45.2-45.2s-45.2,20.2-45.2,45.2
		C210.8,145.2,231.1,165.4,256,165.4z"/>
	<path class="st12" d="M290.3,90.8c-7.9-6.8-18.2-10.9-29.5-10.9c-24.9,0-45.2,20.3-45.2,45.2c0,11.2,4.1,21.5,10.9,29.5
		c-9.6-8.3-15.7-20.6-15.7-34.2c0-24.9,20.3-45.2,45.2-45.2C269.7,75,282,81.1,290.3,90.8z"/>
	<path class="st13" d="M278.2,93.3v-3.6l-4.1,3.6h-37.4l-2.8,8.4v3.6h11.9c3.8,0.1,6.3,1.6,7.6,4.4h-17.1l-2.4,5.7v3.6h19.8
		c-1.2,3.9-3.9,5.8-8.1,5.9h-10.4l0.1,8.5l20.3,24.2h16.6v-3.6l-3-0.7l-14.9-18.4c4.5-1.4,8-3.3,10.5-6c2.5-2.6,4-5.9,4.7-10h6.4
		l2.4-9.3v-3.6l-3.4,3.6h-5.4c-0.4-2.6-1.2-4.9-2.5-7h9L278.2,93.3z"/>
	<path class="st9" d="M275.8,99.1h-9c1.3,2.1,2.1,4.4,2.5,7h8.8l-2.4,9.3h-6.4c-0.7,4.1-2.3,7.4-4.7,10c-2.5,2.6-6,4.6-10.5,6
		l17.8,22v0.7h-16.6l-20.3-24.2l-0.1-8.5h10.5c4.2-0.1,6.9-2.1,8.1-5.9h-19.8l2.4-9.3h17.1c-1.3-2.8-3.8-4.2-7.6-4.4h-11.9l2.8-12
		h41.5L275.8,99.1z"/>
	<path class="st10" d="M236.3,106.1h3.4l-4.6,4.6L236.3,106.1z M256,89.8l-12,12h-10.2l2.8-12H256z M275.8,99.1h-0.7l0.9-0.9
		L275.8,99.1z M278.2,106.1l-2.4,9.3h-6.5c-0.7,4.1-2.3,7.4-4.7,10c-2.5,2.6-5.9,4.6-10.5,6l5.5,6.7l-9.5,9.5l-10.7-12.7l29.8-29.8
		c0.1,0.4,0.2,0.7,0.2,1.1L278.2,106.1z M245.6,121.3c1.3-0.1,2.4-0.3,3.5-0.6l-11.7,11.7l-2.1-2.6l-0.1-3.5l5-5H245.6z M278.2,89.8
		l-0.6,2.3l-7,7.1h-3.8c0.5,0.8,0.9,1.6,1.3,2.5l-14.7,14.7c0.2-0.3,0.3-0.6,0.4-0.9h-7.6l25.6-25.6H278.2z M268.3,148.8l-5.2,5.2
		h-7.7l-0.2-0.3l9.4-9.4L268.3,148.8z"/>
	<path class="st14" d="M293.8,95.3c-29.3,10.3-52.8,32.8-64.2,61.5c-1-0.7-2-1.5-2.9-2.3c-6.8-7.9-10.9-18.2-10.9-29.5
		c0-24.9,20.3-45.2,45.2-45.2c11.2,0,21.5,4.1,29.5,10.9C291.5,92.1,292.7,93.7,293.8,95.3z"/>
</g>
</svg>
