<svg width="28" height="28" viewBox="0 0 28 28" fill="none" xmlns="http://www.w3.org/2000/svg">
<path d="M19.8899 16.204C22.9857 16.204 25.4954 13.6943 25.4954 10.5985C25.4954 7.5027 22.9857 4.99304 19.8899 4.99304C16.7941 4.99304 14.2844 7.5027 14.2844 10.5985C14.2844 13.6943 16.7941 16.204 19.8899 16.204Z" fill="#FDD835"/>
<path opacity="0.5" d="M19.8899 4.99304C16.7946 4.99304 14.2844 7.5032 14.2844 10.5985C14.2844 13.6938 16.7946 16.204 19.8899 16.204C22.9852 16.204 25.4954 13.6938 25.4954 10.5985C25.4954 7.5032 22.9852 4.99304 19.8899 4.99304ZM19.8899 15.9634C16.9258 15.9634 14.525 13.5626 14.525 10.5985C14.525 7.63445 16.9258 5.23367 19.8899 5.23367C22.854 5.23367 25.2547 7.63445 25.2547 10.5985C25.2547 13.5626 22.854 15.9634 19.8899 15.9634Z" fill="white"/>
<path opacity="0.5" d="M22.1266 5.45784L14.7492 12.8352C14.4977 12.2555 14.3445 11.6375 14.3008 11.0086L20.3 5.0094C20.9453 5.05315 21.5578 5.21174 22.1266 5.45784ZM24.7734 7.84768L17.1391 15.4821C16.6633 15.2141 16.2312 14.8805 15.8539 14.4922L23.7781 6.56799C24.1719 6.93987 24.5055 7.3719 24.7734 7.84768ZM23.5539 6.36018L15.6461 14.2625C15.5203 14.1203 15.4055 13.9727 15.2961 13.8141L23.1 6.01018C23.2586 6.11409 23.4117 6.2344 23.5539 6.36018ZM25.3203 9.19846L18.4898 16.0289C18.282 15.9742 18.0797 15.9086 17.8828 15.8375L25.1234 8.5969C25.2 8.79377 25.2656 8.99612 25.3203 9.19846Z" fill="white"/>
<path opacity="0.5" d="M24.4453 10.8391C24.4453 13.2672 22.4765 15.2305 20.0539 15.2305C18.6921 15.2305 17.4726 14.6071 16.6687 13.6336C17.4726 14.5032 18.6156 15.0446 19.8953 15.0446C22.3234 15.0446 24.2867 13.0758 24.2867 10.6532C24.2867 9.58677 23.9093 8.6188 23.2804 7.85864C24.0023 8.64067 24.4453 9.69067 24.4453 10.8391Z" fill="white"/>
<path d="M19.8899 15.05C22.3152 15.05 24.2813 13.0839 24.2813 10.6586C24.2813 8.23331 22.3152 6.26721 19.8899 6.26721C17.4646 6.26721 15.4985 8.23331 15.4985 10.6586C15.4985 13.0839 17.4646 15.05 19.8899 15.05Z" fill="#F39E09"/>
<path d="M23.2203 7.79299C22.4492 7.13127 21.4484 6.72659 20.3547 6.72659C17.9266 6.72659 15.9633 8.69534 15.9633 11.118C15.9633 12.2117 16.3625 13.2125 17.0297 13.9836C16.0945 13.1797 15.5039 11.9875 15.5039 10.6586C15.5039 8.23049 17.4727 6.26721 19.8953 6.26721C21.2187 6.26721 22.4164 6.85784 23.2203 7.79299Z" fill="#E88102"/>
<path d="M22.0501 8.0446V7.70007L21.6454 8.0446H18.0142L17.7407 8.85945V9.20398H18.8946C19.261 9.21492 19.5071 9.3571 19.6329 9.63054H17.9759L17.7407 10.1884V10.5329H19.6712C19.5509 10.9048 19.2884 11.1016 18.8782 11.1071H17.8665L17.872 11.9329L19.8407 14.279H21.454V13.9344L21.1642 13.8634L19.6985 12.086C20.136 11.9493 20.4751 11.7579 20.7157 11.5063C20.9563 11.2548 21.104 10.9321 21.1696 10.5329H21.7985L22.0337 9.63054V9.28601L21.7056 9.63054H21.1806C21.1423 9.37898 21.0603 9.14929 20.9345 8.94695H21.804L22.0501 8.0446Z" fill="#DB6704"/>
<path d="M21.8148 8.60242H20.9453C21.071 8.80476 21.1531 9.02898 21.1914 9.28601H22.05L21.8148 10.1884H21.1859C21.1203 10.5821 20.9671 10.9102 20.732 11.1618C20.4914 11.4134 20.1523 11.6048 19.7148 11.7415L21.4484 13.8743V13.9399H19.8351L17.8664 11.5938L17.8609 10.768H18.8726C19.2828 10.7571 19.5453 10.5657 19.6656 10.1938H17.7351L17.9703 9.29148H19.6328C19.507 9.01804 19.2609 8.88132 18.8945 8.86492H17.7406L18.014 7.70007H22.05L21.8148 8.60242Z" fill="#FDD835"/>
<path opacity="0.5" d="M17.9702 9.28599H18.2983L17.8553 9.72895L17.9702 9.28599ZM19.8842 7.69458L18.7249 8.85942H17.7405L18.0139 7.69458H19.8842ZM21.8147 8.60239H21.7491L21.8366 8.51489L21.8147 8.60239ZM22.0389 9.28599L21.8038 10.1883H21.1749C21.1092 10.5821 20.9561 10.9102 20.7209 11.1618C20.4803 11.4133 20.1467 11.6047 19.7038 11.7415L20.2342 12.3922L19.31 13.3165L18.2709 12.0805L21.1694 9.18208C21.1749 9.21489 21.1803 9.25317 21.1858 9.28599H22.0389ZM18.8725 10.7625C18.9983 10.7571 19.1077 10.7407 19.2116 10.7024L18.0741 11.8399L17.8663 11.5883L17.8608 11.2493L18.3475 10.7625H18.8725ZM22.0499 7.69458L21.9897 7.9188L21.3061 8.60239H20.9397C20.9889 8.67896 21.0272 8.76099 21.0655 8.84302L19.6327 10.2813C19.6436 10.254 19.6545 10.2211 19.6655 10.1883H18.9217L21.4155 7.69458H22.0499ZM21.0874 13.4368L20.5842 13.9399H19.835L19.8131 13.9125L20.7319 12.9938L21.0874 13.4368Z" fill="white"/>
<path opacity="0.25" d="M23.5539 8.23596C20.7101 9.23674 18.4242 11.4297 17.3085 14.2133C17.2101 14.1422 17.1171 14.0656 17.0242 13.9891C16.3625 13.218 15.9578 12.2172 15.9578 11.1235C15.9578 8.69534 17.9265 6.73206 20.3492 6.73206C21.4429 6.73206 22.4437 7.13127 23.2148 7.79846C23.3406 7.92971 23.45 8.07737 23.5539 8.23596Z" fill="white"/>
<path d="M22.7116 8.44375C24.4845 8.44375 25.9218 7.00651 25.9218 5.23359C25.9218 3.46067 24.4845 2.02344 22.7116 2.02344C20.9387 2.02344 19.5015 3.46067 19.5015 5.23359C19.5015 7.00651 20.9387 8.44375 22.7116 8.44375Z" fill="#FDD835"/>
<path opacity="0.5" d="M22.7116 2.02344C20.9397 2.02344 19.5015 3.46172 19.5015 5.23359C19.5015 7.00547 20.9397 8.44375 22.7116 8.44375C24.4835 8.44375 25.9218 7.01094 25.9218 5.23359C25.9218 3.45625 24.489 2.02344 22.7116 2.02344ZM22.7116 8.30703C21.0163 8.30703 19.6382 6.93437 19.6382 5.23359C19.6382 3.53281 21.0108 2.16016 22.7116 2.16016C24.4124 2.16016 25.7851 3.53281 25.7851 5.23359C25.7851 6.93437 24.4124 8.30703 22.7116 8.30703Z" fill="white"/>
<path opacity="0.5" d="M23.9912 2.29146L19.7639 6.5188C19.6217 6.1852 19.5342 5.82974 19.5068 5.47427L22.9467 2.03442C23.3186 2.0563 23.6686 2.14927 23.9912 2.29146ZM25.5115 3.65864L21.1365 8.03364C20.8631 7.88052 20.617 7.68911 20.4037 7.46489L24.9428 2.92583C25.167 3.13911 25.3584 3.38521 25.5115 3.65864ZM24.8115 2.80552L20.2779 7.33364C20.2068 7.25161 20.1412 7.16411 20.0756 7.07661L24.5545 2.60317C24.642 2.6688 24.7295 2.73442 24.8115 2.80552ZM25.8232 4.4352L21.9131 8.34536C21.7928 8.31802 21.6779 8.27974 21.5686 8.23599L25.7193 4.0852C25.7576 4.20005 25.7904 4.31489 25.8232 4.4352Z" fill="white"/>
<path opacity="0.5" d="M25.3201 5.37581C25.3201 6.76487 24.1935 7.89143 22.8044 7.89143C22.0224 7.89143 21.3279 7.53596 20.863 6.97815C21.3224 7.47581 21.9787 7.78752 22.7115 7.78752C24.1005 7.78752 25.2271 6.66096 25.2271 5.2719C25.2271 4.6594 25.0138 4.10706 24.6529 3.66956C25.0685 4.11252 25.3201 4.71409 25.3201 5.37581Z" fill="white"/>
<path d="M22.7117 7.78198C24.101 7.78198 25.2273 6.6557 25.2273 5.26636C25.2273 3.87702 24.101 2.75073 22.7117 2.75073C21.3223 2.75073 20.196 3.87702 20.196 5.26636C20.196 6.6557 21.3223 7.78198 22.7117 7.78198Z" fill="#F39E09"/>
<path d="M24.6202 3.62583C24.1772 3.24849 23.603 3.01333 22.9795 3.01333C21.5905 3.01333 20.4639 4.13989 20.4639 5.52895C20.4639 6.15786 20.6936 6.73208 21.0764 7.16958C20.5405 6.71021 20.2014 6.02661 20.2014 5.26099C20.2014 3.87192 21.328 2.74536 22.717 2.74536C23.4717 2.75083 24.1608 3.08989 24.6202 3.62583Z" fill="#E88102"/>
<path d="M23.9475 3.77341V3.57654L23.7178 3.77341H21.6396L21.4811 4.23826V4.43513H22.1428C22.3506 4.4406 22.4928 4.52263 22.5639 4.68123H21.6123L21.4756 4.99841V5.19529H22.5803C22.5092 5.40857 22.3615 5.51794 22.1264 5.52341H21.5467V5.99919L22.6732 7.34451H23.5975V7.14763L23.4334 7.10935L22.6021 6.08669C22.8537 6.01013 23.0506 5.90076 23.1873 5.7531C23.324 5.61091 23.4115 5.42498 23.4498 5.19529H23.8107L23.9475 4.67576V4.48435L23.7561 4.68123H23.4553C23.4334 4.53904 23.3896 4.40779 23.3131 4.29294H23.8107L23.9475 3.77341Z" fill="#DB6704"/>
<path d="M23.8107 4.09058H23.3131C23.3842 4.20542 23.4334 4.33667 23.4553 4.47886H23.9475L23.8107 4.99839H23.4498C23.4115 5.22808 23.324 5.40854 23.1873 5.5562C23.0506 5.69839 22.8537 5.81323 22.6021 5.88979L23.5975 7.1148V7.15308H22.6732L21.5467 5.80776V5.33198H22.1264C22.3615 5.32651 22.5092 5.21714 22.5803 5.00386H21.4756L21.6123 4.48433H22.5639C22.4928 4.3312 22.3506 4.24917 22.1428 4.23823H21.4811L21.6396 3.57104H23.9529L23.8107 4.09058Z" fill="#FDD835"/>
<path opacity="0.5" d="M21.6125 4.48442H21.8039L21.5468 4.74146L21.6125 4.48442ZM22.7117 3.57114L22.0445 4.23833H21.4812L21.6398 3.57114H22.7117ZM23.8109 4.09067H23.7726L23.8218 4.04146L23.8109 4.09067ZM23.9421 4.48442L23.8054 5.00396H23.4445C23.4062 5.23364 23.3187 5.41411 23.182 5.56177C23.0453 5.70396 22.8539 5.8188 22.5968 5.89536L22.9031 6.26724L22.3726 6.79771L21.7765 6.08677L23.439 4.42427C23.4445 4.44067 23.4445 4.46255 23.45 4.48442H23.9421ZM22.1265 5.32661C22.1976 5.32661 22.2632 5.31567 22.3179 5.2938L21.6671 5.94458L21.5468 5.80239V5.60552L21.8257 5.32661H22.1265ZM23.9476 3.57114L23.9148 3.69692L23.5265 4.09067H23.3187C23.346 4.13442 23.3679 4.17817 23.3898 4.22739L22.5695 5.04771C22.575 5.0313 22.5804 5.01489 22.5859 4.99302H22.1593L23.5867 3.56567L23.9476 3.57114ZM23.3953 6.86333L23.1054 7.15317H22.6734L22.6625 7.13677L23.1875 6.61177L23.3953 6.86333Z" fill="white"/>
<path opacity="0.25" d="M24.8116 3.87737C23.1819 4.45159 21.8749 5.7094 21.2351 7.30081C21.1804 7.25706 21.1257 7.21877 21.071 7.16956C20.6937 6.72659 20.4585 6.15237 20.4585 5.52893C20.4585 4.13987 21.5851 3.01331 22.9741 3.01331C23.603 3.01331 24.1772 3.24299 24.6147 3.62581C24.6858 3.70784 24.7515 3.78987 24.8116 3.87737Z" fill="white"/>
<path d="M15.0227 3.67505C15.0172 3.68052 15.0117 3.68599 15.0062 3.69145C14.8477 3.58755 14.6836 3.50005 14.5086 3.42349C13.7211 2.3352 12.5562 1.76099 11.1289 1.76099C9.65234 1.76099 8.27422 2.25864 7.24609 3.15552C6.2125 4.05786 5.64375 5.26645 5.64375 6.55708C5.64375 7.51958 5.92813 8.4438 6.46953 9.23677C6.23438 9.60317 6.17969 10.0352 6.32188 10.4836C6.48594 11.0032 6.90156 11.4461 7.37734 11.6211C7.65625 12.5563 8.05 13.3274 8.52578 13.918V15.0172C8.14297 15.1813 7.60703 15.3344 6.98906 15.5149C4.48984 16.2313 0.710938 17.3196 0.710938 21V26.0204C0.710938 26.1407 0.809375 26.2391 0.929688 26.2391H15.7391C15.7445 26.6165 16.0563 26.9227 16.4391 26.9227H26.2336C26.6164 26.9227 26.9281 26.611 26.9281 26.2282V21.6454C27.1523 21.4485 27.2836 21.1696 27.2836 20.8524V18.8344C27.2836 18.4243 26.95 18.0907 26.5398 18.0907H23.4391V17.1555C23.4391 16.6141 23.0016 16.1766 22.4602 16.1766H20.2016C19.693 16.1766 19.2719 16.5704 19.2281 17.0735C17.9977 16.3024 16.5047 15.8704 15.2688 15.5149C14.6563 15.3399 14.1148 15.1813 13.7375 15.0227V13.8797H13.7102C14.2188 13.2727 14.618 12.5016 14.8859 11.6321C14.9625 11.6047 15.0391 11.5665 15.1102 11.5227M20.207 17.0516H22.4656C22.5203 17.0516 22.5695 17.1008 22.5695 17.1555V18.0907H20.1086V17.1555C20.1031 17.1008 20.1523 17.0516 20.207 17.0516Z" fill="#F6DCCD"/>
<path d="M15.7391 26.2281V21.6453C15.5203 21.4485 15.3836 21.1696 15.3836 20.8524V18.8344C15.3836 18.4242 15.7172 18.0906 16.1273 18.0906H19.2281V17.1555C19.2281 17.1281 19.2281 17.1008 19.2336 17.068C18.0031 16.2969 16.5102 15.8649 15.2742 15.5094C14.6617 15.3344 14.1203 15.1758 13.743 15.0172L11.1344 16.8547L8.52578 15.0172C8.14297 15.1813 7.60703 15.3344 6.98906 15.5149C4.48984 16.2313 0.710938 17.3196 0.710938 21V26.0203C0.710938 26.1406 0.809375 26.2391 0.929688 26.2391H15.7391C15.7391 26.2391 15.7391 26.2336 15.7391 26.2281Z" fill="#D1D1D6"/>
<path d="M10.5493 19.086L9.20947 26.2391H13.0595L11.7196 19.086C12.0696 18.9165 12.3376 18.6047 12.4415 18.2219L11.1345 16.8547L9.82744 18.2219C9.93135 18.6047 10.1993 18.9219 10.5493 19.086Z" fill="#FE646F"/>
<path d="M15.6297 9.02351C15.5477 7.53601 14.8531 6.73757 14.0492 6.08679C14.6453 7.06023 14.9133 8.67351 13.9016 11.6266C13.5789 12.6876 13.0539 13.5899 12.3867 14.2462C11.8453 14.7712 11.2273 15.1102 10.6094 15.2251C10.7789 15.2524 10.9539 15.2688 11.1289 15.2688C11.9 15.2688 12.693 14.9079 13.3711 14.2462C14.0438 13.5899 14.5633 12.6876 14.8859 11.6266C15.3891 11.4407 15.8266 10.9485 15.9688 10.3852C16.1 9.8821 15.9742 9.38992 15.6297 9.02351Z" fill="#F1CBBC"/>
<path d="M5.10791 26.2391V23.3516C5.10791 23.1109 4.91104 22.9141 4.67041 22.9141C4.42979 22.9141 4.23291 23.1109 4.23291 23.3516V26.2391H5.10791Z" fill="#B1B1B5"/>
<path d="M13.2233 18.9437C13.3054 18.9437 13.3819 18.9 13.4202 18.8234L15.1483 15.4766C14.5851 15.3125 14.0929 15.1703 13.7429 15.0172L11.1343 16.8547L13.0921 18.9C13.1304 18.9273 13.1741 18.9437 13.2233 18.9437ZM7.11475 15.4766L8.84287 18.8234C8.89756 18.9328 9.02881 18.9711 9.13818 18.9164C9.14912 18.9109 9.16006 18.9055 9.171 18.8945L11.1288 16.8492L8.52021 15.0117C8.17021 15.1703 7.67803 15.318 7.11475 15.4766Z" fill="#C6C6CC"/>
<path d="M6.56802 9.10005C6.60083 9.0563 6.65005 9.02896 6.70474 9.02349C8.76099 8.71724 9.94224 8.08286 10.6641 6.91802C10.7297 6.81411 10.861 6.7813 10.9649 6.84692C11.0305 6.88521 11.0688 6.9563 11.0688 7.02739C11.0743 7.40474 11.0196 7.79302 10.8938 8.20317C12.0969 7.73286 12.9227 7.09302 13.1141 5.76958C13.1305 5.64927 13.2399 5.56724 13.3602 5.58364C13.3985 5.58911 13.4313 5.60552 13.4586 5.62739C14.4758 6.38755 15.5258 7.16958 15.6297 9.01802C15.6571 9.04536 15.6844 9.07817 15.7063 9.11099C16.286 8.45474 16.6032 7.60708 16.6032 6.71021C16.6032 5.26646 15.7829 3.9813 14.5086 3.42349C13.7211 2.3352 12.5563 1.76099 11.129 1.76099C9.65239 1.76099 8.27427 2.25864 7.24614 3.15552C6.21255 4.05786 5.6438 5.26645 5.6438 6.55708C5.6438 7.51958 5.92817 8.4438 6.46958 9.23677C6.50239 9.18755 6.53521 9.1438 6.56802 9.10005Z" fill="#756575"/>
<path d="M14.5085 3.42349C13.721 2.3352 12.5562 1.76099 11.1288 1.76099C10.9757 1.76099 10.8226 1.76646 10.6694 1.77739C11.9054 1.8813 12.9226 2.44458 13.628 3.42349C14.9022 3.9813 15.7226 5.26646 15.7226 6.71021C15.7226 7.18599 15.6351 7.63989 15.4655 8.06646C15.5476 8.35083 15.6022 8.66802 15.6241 9.02349C15.6515 9.05083 15.6788 9.08364 15.7007 9.11646C16.2804 8.46021 16.5976 7.61255 16.5976 6.71567C16.603 5.26646 15.7827 3.9813 14.5085 3.42349Z" fill="#6B5C6B"/>
<path d="M13.3767 14.2407C12.6985 14.9024 11.9056 15.2633 11.1345 15.2633C10.1228 15.2633 9.23135 14.793 8.52588 13.918V15.0172L11.1345 16.8547L13.7431 15.0172V13.8743H13.7157C13.6063 14 13.4915 14.1258 13.3767 14.2407Z" fill="#E0B5A6"/>
<path d="M11.1344 16.8547L9.82739 18.2219C9.98599 18.8016 10.5165 19.2227 11.1344 19.2227C11.7524 19.2227 12.2829 18.8071 12.4415 18.2219L11.1344 16.8547Z" fill="#FD4755"/>
<path d="M21.8258 20.7157H20.8469C20.6008 20.7157 20.3984 20.918 20.3984 21.1641V22.7118C20.3984 23.2313 20.8195 23.6524 21.3391 23.6524C21.8586 23.6524 22.2742 23.2313 22.2742 22.7118V21.1641C22.2742 20.918 22.0719 20.7157 21.8258 20.7157Z" fill="#756575"/>
<path d="M21.8258 20.7157H21.443C21.6891 20.7157 21.8915 20.918 21.8915 21.1641V22.7118C21.8915 23.1657 21.5688 23.543 21.1477 23.6305C21.2079 23.6415 21.2735 23.6524 21.3391 23.6524C21.8586 23.6524 22.2743 23.2313 22.2743 22.7118V21.1641C22.2743 20.918 22.0719 20.7157 21.8258 20.7157Z" fill="#6B5C6B"/>
<path d="M26.5453 18.0907H16.1273C15.7171 18.0907 15.3835 18.4243 15.3835 18.8344V20.8524C15.3835 21.3501 15.7226 21.7712 16.2093 21.8805C17.4781 22.1594 18.9218 22.3344 20.3984 22.3837V21.1641C20.3984 20.918 20.6007 20.7157 20.8468 20.7157H21.8257C22.0718 20.7157 22.2742 20.918 22.2742 21.1641V22.3837C23.7617 22.3344 25.1726 22.1649 26.4632 21.8805C26.95 21.7712 27.289 21.3501 27.289 20.8524V18.8344C27.289 18.4243 26.9554 18.0907 26.5453 18.0907Z" fill="#C48958"/>
<path d="M20.103 18.0907V17.1555C20.103 17.1009 20.1522 17.0516 20.2069 17.0516H22.4655C22.5202 17.0516 22.5694 17.1009 22.5694 17.1555V18.0907H23.4444V17.1555C23.4444 16.6141 23.0069 16.1766 22.4655 16.1766H20.2069C19.6655 16.1766 19.228 16.6141 19.228 17.1555V18.0907H20.103Z" fill="#756575"/>
<path d="M26.4632 21.8805C25.1726 22.1649 23.7617 22.3344 22.2742 22.3837V22.7118C22.2742 23.2313 21.8531 23.6524 21.339 23.6524C20.825 23.6524 20.3984 23.2313 20.3984 22.7118V22.3837C18.9273 22.3344 17.4835 22.1594 16.2093 21.8805C16.0343 21.8423 15.8757 21.7602 15.739 21.6454V26.2282C15.739 26.611 16.0507 26.9227 16.439 26.9227H26.2335C26.6164 26.9227 26.9281 26.611 26.9281 26.2282V21.6454C26.7968 21.7602 26.6382 21.8423 26.4632 21.8805Z" fill="#E3A76F"/>
<path d="M26.5454 18.0907H25.9985C26.4087 18.0907 26.7423 18.4243 26.7423 18.8344V21.2407C26.7423 21.4649 26.6712 21.6837 26.5399 21.8587C26.9829 21.7219 27.2892 21.3227 27.2892 20.8524V18.8344C27.2892 18.4243 26.9556 18.0907 26.5454 18.0907Z" fill="#AB7448"/>
<path d="M26.4633 21.8805C26.436 21.886 26.4086 21.8915 26.3813 21.8969V26.2282C26.3813 26.611 26.0696 26.9227 25.6868 26.9227H26.2336C26.6165 26.9227 26.9282 26.611 26.9282 26.2282V21.6454C26.7969 21.7602 26.6383 21.8423 26.4633 21.8805Z" fill="#D89B68"/>
</svg>
