<?xml version="1.0" encoding="utf-8"?>
<!-- Generator: Adobe Illustrator 28.0.0, SVG Export Plug-In . SVG Version: 6.00 Build 0)  -->
<svg version="1.1" id="Layer_1" xmlns="http://www.w3.org/2000/svg" xmlns:xlink="http://www.w3.org/1999/xlink" x="0px" y="0px"
	 viewBox="0 0 512 512" style="enable-background:new 0 0 512 512;" xml:space="preserve">
<style type="text/css">
	.st0{fill-rule:evenodd;clip-rule:evenodd;fill:#909CD1;}
	.st1{fill-rule:evenodd;clip-rule:evenodd;fill:#7986BF;}
	.st2{fill-rule:evenodd;clip-rule:evenodd;fill:#AEAED6;}
	.st3{fill-rule:evenodd;clip-rule:evenodd;fill:#D1D1F0;}
	.st4{fill-rule:evenodd;clip-rule:evenodd;fill:#F3F3FF;}
	.st5{fill:#E6B17C;}
	.st6{fill:#D19458;}
	.st7{fill-rule:evenodd;clip-rule:evenodd;fill:#3D4A75;}
	.st8{fill:#FFFFFF;}
	.st9{fill:#FDD835;}
	.st10{opacity:0.5;fill:#FFFFFF;enable-background:new    ;}
	.st11{fill:#F39E09;}
	.st12{fill:#E88102;}
	.st13{fill:#DB6704;}
	.st14{opacity:0.25;fill:#FFFFFF;enable-background:new    ;}
</style>
<g>
	<g>
		<path class="st0" d="M242.8,501V159.1l-71-30.4L53.1,179.5V501H242.8z"/>
		<path class="st1" d="M171.8,501h71V159.1l-71-30.4L171.8,501z"/>
		<path class="st2" d="M458.9,501H230.8V59.8L344.9,11l114.1,48.8V501z"/>
		<path class="st3" d="M344.9,501H230.8V59.8L344.9,11V501z"/>
		<path class="st4" d="M424.4,87.8c0-3.3,2.7-6,6-6s6,2.7,6,6V445c0,3.3-2.7,6-6,6s-6-2.7-6-6V87.8z M367.4,63.4c0-3.3,2.7-6,6-6
			s6,2.7,6,6V445c0,3.3-2.7,6-6,6s-6-2.7-6-6V63.4z M395.9,75.6c0-3.3,2.7-6,6-6s6,2.7,6,6V445c0,3.3-2.7,6-6,6s-6-2.7-6-6V75.6z
			 M134.8,501H90.1V392l44.6-4.2V501z"/>
		<path class="st2" d="M290.3,323.2v-43.9l24.3-3.8v45.3L290.3,323.2z M290.3,254.1v-43.8l24.3-6v45.2L290.3,254.1z M290.3,185
			v-43.9l24.3-8.2v45.3L290.3,185z M290.3,115.9l0-41.1l24.3-10.4v42.4L290.3,115.9L290.3,115.9z M246.9,327.3v-41.2l21.6-3.3v42.5
			L246.9,327.3z M246.9,262.3v-41.3l21.6-5.3v42.6L246.9,262.3z M246.9,197.2v-41.3l21.6-7.3v42.6L246.9,197.2L246.9,197.2z
			 M246.9,132.1V93.5l21.6-9.2l0,39.8L246.9,132.1L246.9,132.1z"/>
		<path class="st4" d="M297.4,322.5v-44.3l24.3-3.8v45.7L297.4,322.5z M297.4,252.7v-44.2l24.3-6v45.7L297.4,252.7L297.4,252.7z
			 M297.4,183v-44.3l24.3-8.2v45.7L297.4,183z M297.4,113.3l0-41.5l24.3-10.4v42.8L297.4,113.3z M254,326.6V285l21.6-3.3v42.9
			L254,326.6z M254,260.9v-41.8l21.6-5.3v43L254,260.9z M254,195.2v-41.8l21.6-7.3v43L254,195.2L254,195.2z M254,129.4v-39l21.6-9.2
			l0,40.3L254,129.4L254,129.4z"/>
		<path class="st2" d="M256.5,501V373.9l9-0.9v128H256.5z"/>
		<path class="st4" d="M310.1,501h-44.6V373l44.6-4.2L310.1,501z"/>
		<path class="st2" d="M251.9,380.3c-3.3,0.4-6.2-2-6.6-5.3c-0.4-3.3,2-6.2,5.3-6.6c0.1,0,0.1,0,0.2,0l67.4-6.4
			c3.3-0.4,6.2,2,6.6,5.3c0.4,3.3-2,6.2-5.3,6.6c-0.1,0-0.1,0-0.2,0L251.9,380.3z"/>
		<path class="st1" d="M107.4,335.1v-35.7l20.2-4.2v37.1L107.4,335.1z M107.4,278.7V243l20.2-6.4v37.1L107.4,278.7z M107.4,222.4
			V189l20.2-8.6v34.8L107.4,222.4L107.4,222.4z M71.9,339.9v-33.3l17.5-3.6v34.5L71.9,339.9z M71.9,287.5v-33.3l17.5-5.5v34.5
			L71.9,287.5L71.9,287.5z M71.9,235v-31.1l17.6-7.4l0,32.3L71.9,235L71.9,235z"/>
		<path class="st4" d="M113.9,334.2V298l20.2-4.2v37.6L113.9,334.2z M113.9,277.1v-36.2l20.2-6.4v37.6L113.9,277.1z M113.9,220.1
			v-33.9l20.2-8.6v35.3L113.9,220.1z M78.4,339v-33.8l17.5-3.6v35L78.4,339L78.4,339z M78.4,285.9v-33.8l17.5-5.5v35L78.4,285.9
			L78.4,285.9z M78.4,232.7v-31.6l17.6-7.4l0,32.7L78.4,232.7L78.4,232.7z"/>
		<path class="st1" d="M90.1,501h-7.5V392.7l7.5-0.7V501z"/>
	</g>
	<path class="st5" d="M11.6,476h488.9v25H11.6V476z"/>
	<path class="st6" d="M11.6,488.5h488.9V501H11.6V488.5z"/>
	<path class="st7" d="M82.1,398.8c-3.3,0.4-6.2-2-6.6-5.3s2-6.2,5.3-6.6c0.1,0,0.1,0,0.2,0l61.8-5.9c3.3-0.4,6.2,2,6.6,5.3
		c0.4,3.3-2,6.2-5.3,6.6c-0.1,0-0.1,0-0.2,0L82.1,398.8z"/>
</g>
<circle class="st8" cx="224.1" cy="282.7" r="89"/>
<g>
	<path class="st9" d="M223.7,357.1c41.1,0,74.4-33.3,74.4-74.4c0-41.1-33.3-74.4-74.4-74.4s-74.4,33.3-74.4,74.4
		C149.3,323.8,182.6,357.1,223.7,357.1z"/>
	<path class="st10" d="M223.7,208.3c-41.1,0-74.4,33.3-74.4,74.4c0,41.1,33.3,74.4,74.4,74.4s74.4-33.3,74.4-74.4
		C298,241.6,264.8,208.3,223.7,208.3z M223.7,353.9c-39.4,0-71.2-31.8-71.2-71.2c0-39.4,31.9-71.1,71.2-71.1s71.2,31.8,71.2,71.2
		C294.9,322.2,263,353.9,223.7,353.9z"/>
	<path class="st10" d="M253.4,214.5l-97.9,97.9c-3.3-7.7-5.3-15.9-6-24.3l79.6-79.6C237.7,209.2,245.9,211.3,253.4,214.5z
		 M288.5,246.2L187.2,347.6c-6.3-3.6-12-8-17-13.2l105.2-105.1C280.5,234.2,284.9,239.9,288.5,246.2z M272.3,226.5l-105,104.9
		c-1.7-1.9-3.2-3.9-4.7-6l103.6-103.6C268.4,223.2,270.4,224.8,272.3,226.5z M295.7,264.2l-90.6,90.6c-2.7-0.7-5.5-1.6-8-2.6
		l96.1-96.1C294.2,258.8,295.1,261.5,295.7,264.2z"/>
	<path class="st10" d="M284.2,286c0,32.2-26.1,58.3-58.3,58.3c-18.1,0-34.2-8.2-44.9-21.1c10.6,11.5,25.9,18.7,42.8,18.7
		c32.2,0,58.3-26.1,58.3-58.3c0-14.1-5-27.1-13.4-37.1C278.2,256.8,284.2,270.7,284.2,286z"/>
	<path class="st11" d="M223.7,341.8c32.2,0,58.3-26.1,58.3-58.3c0-32.2-26.1-58.3-58.3-58.3s-58.3,26.1-58.3,58.3
		C165.3,315.7,191.4,341.8,223.7,341.8z"/>
	<path class="st12" d="M267.9,245.5c-10.2-8.8-23.5-14.1-38-14.1c-32.2,0-58.3,26.1-58.3,58.3c0,14.5,5.3,27.8,14.1,38
		c-12.4-10.7-20.3-26.5-20.3-44.1c0-32.2,26.1-58.3,58.3-58.3C241.3,225.2,257.2,233.1,267.9,245.5z"/>
	<path class="st13" d="M252.3,248.8v-4.6l-5.3,4.6h-48.2l-3.7,10.8v4.6h15.3c4.9,0.1,8.1,2.1,9.8,5.7h-22l-3.1,7.4v4.6h25.6
		c-1.6,5-5.1,7.5-10.5,7.6h-13.4l0.1,11l26.1,31.2h21.4V327l-3.9-0.9l-19.3-23.7c5.9-1.8,10.4-4.3,13.5-7.7
		c3.2-3.3,5.2-7.6,6.1-12.9h8.3l3.1-12v-4.6l-4.4,4.6h-7c-0.5-3.3-1.6-6.4-3.3-9h11.6L252.3,248.8z"/>
	<path class="st9" d="M249.2,256.3h-11.6c1.7,2.7,2.7,5.7,3.3,9h11.4l-3.1,12h-8.3c-0.9,5.3-2.9,9.6-6.1,12.9
		c-3.2,3.3-7.7,5.9-13.5,7.7l23,28.3v0.9h-21.4l-26.1-31.2l-0.1-11h13.5c5.5-0.1,8.9-2.7,10.5-7.6h-25.6l3.1-12h22
		c-1.7-3.6-4.9-5.5-9.8-5.7h-15.3l3.7-15.4h53.5L249.2,256.3z"/>
	<path class="st10" d="M198.2,265.3h4.4l-5.9,5.9L198.2,265.3z M223.7,244.2l-15.4,15.4h-13.1l3.7-15.4H223.7z M249.2,256.3h-0.9
		l1.2-1.2L249.2,256.3z M252.2,265.3l-3.1,12h-8.4c-0.9,5.3-2.9,9.6-6.1,12.9c-3.2,3.3-7.6,5.9-13.5,7.7l7,8.6L216,318.8l-13.8-16.4
		l38.4-38.4c0.1,0.5,0.2,0.9,0.2,1.4L252.2,265.3z M210.2,284.9c1.7-0.1,3.1-0.3,4.5-0.8l-15.1,15.1l-2.7-3.3l-0.1-4.5l6.4-6.4
		H210.2z M252.3,244.2l-0.8,2.9l-9,9.1h-4.9c0.7,1,1.2,2.1,1.7,3.2l-19,19c0.2-0.4,0.3-0.8,0.5-1.2h-9.8l33-33H252.3z M239.5,320.4
		l-6.7,6.7h-10l-0.3-0.3l12.2-12.2L239.5,320.4z"/>
	<path class="st14" d="M272.3,251.3c-37.8,13.2-68.1,42.3-82.8,79.3c-1.3-0.9-2.6-1.9-3.8-3c-8.8-10.2-14.1-23.5-14.1-38
		c0-32.2,26.1-58.3,58.3-58.3c14.5,0,27.8,5.3,38,14.1C269.5,247.3,271,249.3,272.3,251.3z"/>
</g>
</svg>
