<?xml version="1.0" encoding="utf-8"?>
<!-- Generator: Adobe Illustrator 28.0.0, SVG Export Plug-In . SVG Version: 6.00 Build 0)  -->
<svg version="1.1" id="Layer_1" xmlns="http://www.w3.org/2000/svg" xmlns:xlink="http://www.w3.org/1999/xlink" x="0px" y="0px"
	 viewBox="0 0 512 512" style="enable-background:new 0 0 512 512;" xml:space="preserve">
<style type="text/css">
	.st0{fill:url(#SVGID_1_);}
	.st1{fill:url(#SVGID_00000090987284097126064090000015928650235100172162_);}
	.st2{fill:url(#SVGID_00000106855617931295414070000014947680761399472032_);}
	.st3{fill:url(#SVGID_00000153667389662392308200000005733685812184925334_);}
	.st4{fill:url(#SVGID_00000063624711924069320330000004543440495725653891_);}
	.st5{fill:url(#SVGID_00000179612218820703265160000007782410586188388534_);}
	.st6{fill:url(#SVGID_00000060026672983123923000000006033933610335522470_);}
	.st7{fill:url(#SVGID_00000120554843992194097610000007891272791523564203_);}
	.st8{fill:url(#SVGID_00000121961550574562738510000005729796080047876022_);}
	.st9{fill:url(#SVGID_00000047019734848091463380000013748241676204827304_);}
</style>
<g>
	
		<linearGradient id="SVGID_1_" gradientUnits="userSpaceOnUse" x1="282.1084" y1="571.4116" x2="474.2987" y2="763.6021" gradientTransform="matrix(1.0039 0 0 1.0039 0.7965 -308.0956)">
		<stop  offset="0" style="stop-color:#FF4C54"/>
		<stop  offset="1" style="stop-color:#BE3F45"/>
	</linearGradient>
	<circle class="st0" cx="256" cy="237.5" r="231"/>
	
		<linearGradient id="SVGID_00000095322762471924064760000016008359139886201217_" gradientUnits="userSpaceOnUse" x1="453.8611" y1="662.4568" x2="251.1692" y2="459.7649" gradientTransform="matrix(1.0039 0 0 1.0039 0.7965 -308.0956)">
		<stop  offset="0" style="stop-color:#BE3F45;stop-opacity:0"/>
		<stop  offset="1" style="stop-color:#BE3F45"/>
	</linearGradient>
	<path style="fill:url(#SVGID_00000095322762471924064760000016008359139886201217_);" d="M485.9,259.8
		c-4.5,47.5-23.4,90.8-52.3,125.5c-11.4,13.7-24.4,26.1-38.6,36.8L235.4,262.6l-40.1-40.1c-17.8-16.4-28.9-39.9-28.9-65.9
		c0-49.5,40.1-89.6,89.6-89.6c26.1,0,49.6,11.2,65.9,28.9L485.9,259.8L485.9,259.8z"/>
	
		<linearGradient id="SVGID_00000096058096398168054490000002615719926915442878_" gradientUnits="userSpaceOnUse" x1="321.6456" y1="767.2127" x2="259.8953" y2="636.0203" gradientTransform="matrix(1.0039 0 0 1.0039 0.7965 -308.0956)">
		<stop  offset="0" style="stop-color:#BE3F45;stop-opacity:0"/>
		<stop  offset="1" style="stop-color:#BE3F45"/>
	</linearGradient>
	<path style="fill:url(#SVGID_00000096058096398168054490000002615719926915442878_);" d="M433.6,385.3
		c-11.4,13.7-24.4,26.1-38.6,36.8c-38.7,29.2-86.8,46.5-138.9,46.5c-6.5,0-13-0.3-19.4-0.8L130.4,361.6c11.3-51.1,53-90.7,105.1-99
		c6.8-1.1,13.7-1.6,20.6-1.6c35.5,0,67.7,14.4,91,37.7L433.6,385.3L433.6,385.3z"/>
	
		<linearGradient id="SVGID_00000036947769519435515000000016819999393406602896_" gradientUnits="userSpaceOnUse" x1="254.2121" y1="421.665" x2="254.2121" y2="576.5473" gradientTransform="matrix(1.0039 0 0 1.0039 0.7965 -308.0956)">
		<stop  offset="0" style="stop-color:#FFFFFF"/>
		<stop  offset="1" style="stop-color:#E2EDF2"/>
	</linearGradient>
	<circle style="fill:url(#SVGID_00000036947769519435515000000016819999393406602896_);" cx="256" cy="156.5" r="89.6"/>
	
		<linearGradient id="SVGID_00000160904288929969420120000010754547305475558028_" gradientUnits="userSpaceOnUse" x1="392.9002" y1="824.1971" x2="316.2728" y2="747.5696" gradientTransform="matrix(1.0039 0 0 1.0039 0.7965 -308.0956)">
		<stop  offset="0" style="stop-color:#BE3F45;stop-opacity:0"/>
		<stop  offset="1" style="stop-color:#BE3F45"/>
	</linearGradient>
	<path style="fill:url(#SVGID_00000160904288929969420120000010754547305475558028_);" d="M171,452.4c26.3,10.4,55,16.1,85,16.1
		c67.5,0,128.2-29,170.5-75.1l-50.2-50.2c-4.1-4.8-9.9-8.3-17-9.4l-22.7-3.3L276.9,271c-12.3-14.5-36.6-12.6-45.7,5.8L213.4,313
		c-4,8.1-11.8,13.8-20.8,15.1l-39.9,5.8c-22.6,3.3-31.6,31.1-15.3,47l2.1,2c0.4,0.4,0.7,0.8,1.1,1.2l2.1,2c0.4,0.4,0.7,0.8,1.1,1.2
		l2.1,2c0.4,0.4,0.7,0.8,1.1,1.2l2.1,2c0.4,0.4,0.7,0.8,1.1,1.2l2.1,2c0.4,0.4,0.7,0.8,1.1,1.2l2.1,2c0.4,0.4,0.7,0.8,1.1,1.2l2.1,2
		c0.4,0.4,0.7,0.8,1.1,1.2l2.1,2c0.4,0.4,0.7,0.8,1.1,1.2l2.1,2c0.4,0.4,0.7,0.8,1.1,1.2l2.1,2c0.4,0.4,0.7,0.8,1.1,1.2l0.5,0.5
		c4,5.9,5.5,13.1,4.3,20.1L171,452.4L171,452.4z"/>
	
		<linearGradient id="SVGID_00000014620716058910003540000015739442347085453728_" gradientUnits="userSpaceOnUse" x1="254.212" y1="607.9598" x2="254.212" y2="740.3497" gradientTransform="matrix(1.0039 0 0 1.0039 0.7965 -308.0956)">
		<stop  offset="0" style="stop-color:#FFFFFF"/>
		<stop  offset="1" style="stop-color:#E2EDF2"/>
	</linearGradient>
	<path style="fill:url(#SVGID_00000014620716058910003540000015739442347085453728_);" d="M381.6,361.6
		c-32,32.4-76.5,52.5-125.6,52.5s-93.6-20.1-125.6-52.5C143.1,304,194.5,260.9,256,260.9c35.5,0,67.7,14.4,91,37.7
		C364,315.6,376.3,337.3,381.6,361.6z"/>
	
		<linearGradient id="SVGID_00000179604733020549701480000011515976981807780798_" gradientUnits="userSpaceOnUse" x1="317.7428" y1="724.0986" x2="129.6824" y2="536.0535" gradientTransform="matrix(1.0039 0 0 1.0039 0.7965 -308.0956)">
		<stop  offset="0" style="stop-color:#F2F2F2"/>
		<stop  offset="1" style="stop-color:#C3C3C3"/>
	</linearGradient>
	<path style="fill:url(#SVGID_00000179604733020549701480000011515976981807780798_);" d="M359.2,333.9l-22.7-3.3l-59.6-59.5
		c-12.3-14.5-36.6-12.6-45.7,5.8L213.4,313c-4,8.1-11.8,13.8-20.8,15.1l-39.9,5.8c-6.9,1-12.6,4.3-16.6,8.9
		c-2.4,6.1-4.3,12.4-5.8,18.9c32,32.4,76.5,52.5,125.6,52.5s93.6-20.1,125.6-52.5c-1.4-6.4-3.3-12.7-5.7-18.8
		C371.9,338.2,366.2,334.9,359.2,333.9L359.2,333.9z"/>
	
		<linearGradient id="SVGID_00000109013201353466636150000008529069073009456538_" gradientUnits="userSpaceOnUse" x1="220.5227" y1="672.1462" x2="275.579" y2="727.2025" gradientTransform="matrix(1.0039 0 0 1.0039 0.7965 -308.0956)">
		<stop  offset="0" style="stop-color:#FFF465"/>
		<stop  offset="1" style="stop-color:#FFE600"/>
	</linearGradient>
	<path style="fill:url(#SVGID_00000109013201353466636150000008529069073009456538_);" d="M280.7,276.8l17.9,36.2
		c4,8.1,11.8,13.8,20.8,15.1l39.9,5.8c22.6,3.3,31.6,31.1,15.3,47L345.6,409c-6.5,6.3-9.5,15.5-7.9,24.4l6.8,39.8
		c3.9,22.5-19.8,39.7-40,29.1l-35.7-18.8c-8-4.2-17.6-4.2-25.7,0l-35.7,18.8c-20.2,10.6-43.9-6.5-40-29.1l6.8-39.8
		c1.5-8.9-1.4-18.1-7.9-24.4l-28.9-28.2c-16.4-15.9-7.3-43.7,15.3-47l39.9-5.8c9-1.3,16.7-6.9,20.8-15.1l17.9-36.2
		C241.4,256.3,270.6,256.3,280.7,276.8L280.7,276.8z"/>
	
		<linearGradient id="SVGID_00000057129064826445502200000012928154600426963338_" gradientUnits="userSpaceOnUse" x1="331.5307" y1="777.235" x2="191.6945" y2="637.3834" gradientTransform="matrix(1.0039 0 0 1.0039 0.7965 -308.0956)">
		<stop  offset="0" style="stop-color:#FFF465"/>
		<stop  offset="1" style="stop-color:#FFE600"/>
	</linearGradient>
	<path style="fill:url(#SVGID_00000057129064826445502200000012928154600426963338_);" d="M272.1,314l11.6,23.5
		c2.6,5.3,7.7,9,13.5,9.8l26,3.8c14.7,2.1,20.6,20.2,9.9,30.6l-18.8,18.3c-4.2,4.1-6.2,10.1-5.2,15.9l4.4,25.9
		c2.5,14.7-12.9,25.8-26,18.9l-23.2-12.2c-5.2-2.7-11.5-2.7-16.7,0l-23.2,12.2c-13.2,6.9-28.5-4.3-26-18.9l4.4-25.9
		c1-5.8-0.9-11.8-5.2-15.9l-18.8-18.3c-10.6-10.4-4.8-28.5,9.9-30.6l26-3.8c5.8-0.8,10.9-4.5,13.5-9.8l11.6-23.5
		C246.5,300.7,265.5,300.7,272.1,314L272.1,314z"/>
	
		<linearGradient id="SVGID_00000182520415439747323670000010812092003093667212_" gradientUnits="userSpaceOnUse" x1="236.0004" y1="679.084" x2="294.8797" y2="737.9633" gradientTransform="matrix(1.0039 0 0 1.0039 0.7965 -308.0956)">
		<stop  offset="0" style="stop-color:#FFF465"/>
		<stop  offset="1" style="stop-color:#FFE600"/>
	</linearGradient>
	<path style="fill:url(#SVGID_00000182520415439747323670000010812092003093667212_);" d="M268.3,330.5l8.9,18c2,4,5.9,6.8,10.3,7.5
		l19.8,2.9c11.2,1.6,15.7,15.4,7.6,23.4l-14.4,14c-3.2,3.1-4.7,7.7-3.9,12.1L300,428c1.9,11.2-9.8,19.7-19.9,14.4l-17.7-9.3
		c-4-2.1-8.8-2.1-12.7,0l-17.7,9.3c-10,5.3-21.8-3.2-19.9-14.4l3.4-19.8c0.8-4.4-0.7-9-3.9-12.1l-14.4-14
		c-8.1-7.9-3.6-21.7,7.6-23.4l19.8-2.9c4.5-0.6,8.3-3.5,10.3-7.5l8.9-18C248.7,320.3,263.3,320.3,268.3,330.5z"/>
</g>
</svg>
