<?xml version="1.0" encoding="utf-8"?>
<!-- Generator: Adobe Illustrator 28.0.0, SVG Export Plug-In . SVG Version: 6.00 Build 0)  -->
<svg version="1.1" id="Layer_1" xmlns="http://www.w3.org/2000/svg" xmlns:xlink="http://www.w3.org/1999/xlink" x="0px" y="0px"
	 viewBox="0 0 512 512" style="enable-background:new 0 0 512 512;" xml:space="preserve">
<style type="text/css">
	.st0{fill:#FDD835;}
	.st1{opacity:0.5;fill:#FFFFFF;enable-background:new    ;}
	.st2{fill:#F39E09;}
	.st3{fill:#E88102;}
	.st4{fill:#DB6704;}
	.st5{opacity:0.25;fill:#FFFFFF;enable-background:new    ;}
	.st6{fill-rule:evenodd;clip-rule:evenodd;fill:#B4D2D7;}
</style>
<g>
	<g>
		<path class="st0" d="M258.7,463.7c104.8,0,189.7-84.9,189.7-189.7c0-104.8-84.9-189.7-189.7-189.7S69,169.2,69,274
			C69,378.8,154,463.7,258.7,463.7z"/>
		<path class="st1" d="M258.7,84.3C154,84.3,69,169.2,69,274c0,104.8,84.9,189.7,189.7,189.7S448.4,378.8,448.4,274
			C448.4,169.2,363.6,84.3,258.7,84.3z M258.7,455.6c-100.4,0-181.5-81.2-181.5-181.6c0-100.4,81.4-181.4,181.5-181.4
			s181.6,81.2,181.6,181.5C440.3,374.5,359.1,455.6,258.7,455.6z"/>
		<path class="st1" d="M334.5,100.1L84.8,349.8c-8.5-19.7-13.6-40.5-15.3-61.9L272.6,84.8C294.5,86.5,315.3,91.8,334.5,100.1z
			 M424.2,180.9L165.7,439.3c-16.1-9.2-30.7-20.3-43.4-33.6l268.2-268C403.6,150.3,415,164.8,424.2,180.9z M382.8,130.6L115.1,398.1
			c-4.2-4.9-8.1-9.8-11.9-15.3l264.3-264.1C372.8,122.3,377.9,126.4,382.8,130.6z M442.5,226.7l-231,231c-7-1.7-13.9-4.1-20.5-6.6
			l244.9-244.9C438.6,213,440.8,219.8,442.5,226.7z"/>
		<path class="st1" d="M413,282.3c0,82-66.6,148.7-148.7,148.7c-46.1,0-87.3-21-114.6-53.9c27.1,29.3,65.9,47.8,109.2,47.8
			c82,0,148.7-66.6,148.7-148.7c0-35.9-12.7-69-34.1-94.6C397.9,207.9,413,243.3,413,282.3z"/>
		<path class="st2" d="M258.7,424.7c82.1,0,148.7-66.6,148.7-148.7c0-82.1-66.6-148.7-148.7-148.7S110,193.9,110,276
			C110,358.1,176.6,424.7,258.7,424.7z"/>
		<path class="st3" d="M371.4,179.1c-26.1-22.4-60-35.9-97-35.9c-82,0-148.7,66.6-148.7,148.7c0,37,13.6,70.9,35.9,97
			c-31.5-27.3-51.7-67.6-51.7-112.6c0-82,66.6-148.7,148.7-148.7C303.8,127.4,344.1,147.4,371.4,179.1z"/>
		<path class="st4" d="M331.8,187.6v-11.7l-13.6,11.7H195.3l-9.3,27.6v11.7h39c12.4,0.3,20.7,5.3,24.9,14.4h-56.1l-8,18.8v11.7h65.3
			c-4.1,12.7-12.9,19.2-26.8,19.3h-34.2l0.2,28l66.6,79.5h54.6v-11.7l-9.8-2.4l-49.2-60.3c14.9-4.6,26.4-11,34.4-19.7
			c8.1-8.5,13.2-19.5,15.4-32.9h21.2l8-30.5v-11.7l-11.2,11.7h-17.8c-1.2-8.5-4.1-16.3-8.3-23.1h29.5L331.8,187.6z"/>
		<path class="st0" d="M323.8,206.5h-29.5c4.2,7,7,14.6,8.3,23.1h29l-8,30.5h-21.2c-2.2,13.4-7.5,24.4-15.4,32.9
			c-8.1,8.5-19.7,15.1-34.4,19.7l58.7,72.2v2.2h-54.6l-66.6-79.5l-0.2-28h34.4c13.9-0.3,22.7-6.8,26.8-19.3h-65.3l8-30.5h56.1
			c-4.2-9.2-12.5-13.9-24.9-14.4h-39l9.3-39.3h136.5L323.8,206.5z"/>
		<path class="st1" d="M193.8,229.6H205l-15.1,15.1L193.8,229.6z M258.7,175.9l-39.3,39.3H186l9.3-39.3H258.7z M323.8,206.5h-2.2
			l3.1-3.1L323.8,206.5z M331.6,229.6l-8,30.5h-21.4c-2.2,13.4-7.5,24.4-15.4,32.9c-8.1,8.5-19.5,15.1-34.4,19.7l18,22l-31.2,31.4
			l-35.1-41.9l98-98c0.2,1.2,0.5,2.4,0.5,3.6L331.6,229.6z M224.3,279.6c4.2-0.2,8-0.8,11.4-2L197.2,316l-7-8.5l-0.2-11.5l16.4-16.4
			H224.3z M331.8,175.9l-2,7.5l-23.1,23.2h-12.4c1.7,2.5,3.1,5.3,4.2,8.1l-48.5,48.5c0.5-1,0.8-2,1.2-3.1h-25.1l84.2-84.2H331.8z
			 M299.2,370.1l-17.1,17.1h-25.4l-0.7-0.8l31-31L299.2,370.1z"/>
		<path class="st5" d="M382.8,194c-96.3,33.7-173.6,108-211.2,202.2c-3.4-2.4-6.6-4.9-9.7-7.6c-22.4-26.1-35.9-60-35.9-97
			c0-82,66.6-148.7,148.7-148.7c37,0,70.9,13.6,97,35.9C375.5,183.7,379.4,188.7,382.8,194z"/>
	</g>
	<path class="st6" d="M451.3,202.5c30.2-47.8,39.3-89,20.1-112c-19.2-23-61.1-21.6-113.5-0.8c-40.5,16.1-88.3,44-136.8,80.9l0.7-3
		c1.6-6.8-2.6-13.5-9.4-15.1c-6.8-1.6-13.5,2.6-15.1,9.4l-9,38.2l0,0c-0.1,0.5-0.2,1.1-0.3,1.6c-0.7,6.9,4.3,13.1,11.2,13.8
		l39.1,3.8c6.9,0.7,13.1-4.3,13.8-11.2c0.7-6.9-4.3-13.1-11.2-13.8l-8.4-0.8c47.9-36.9,95.1-64.6,134.7-80.4
		c41.9-16.7,73.4-20.2,84.8-6.5c11.4,13.7,2.2,44.2-22,82.4c-0.6,1-0.4,0.6-1,1.6c2.7,5.8,10.4,25.4,11.1,28.1"/>
	<path class="st6" d="M170.3,441.5c-8.8-4.5-17.2-9.7-25.1-15.5c0,0,0,0,0,0c-42,16.8-73.6,20.3-85.1,6.6c-9-10.8-4.7-32.9,9.8-61.2
		c16.8-32.7,46.8-71.7,86.5-111.2c4.9-4.9,5-12.8,0.1-17.7c-4.9-4.9-12.8-5-17.7-0.1c-41.6,41.4-73.3,82.7-91.2,117.6
		c-19.3,37.7-23,69.4-6.8,88.8c19.2,23.1,61.3,21.6,113.8,0.6"/>
</g>
</svg>
