<svg width="28" height="28" viewBox="0 0 28 28" fill="none" xmlns="http://www.w3.org/2000/svg">
<path d="M17.8499 0.251562C17.7734 0.13125 17.6421 0.0546875 17.4999 0.0546875H10.4562C10.232 0.0546875 10.046 0.235156 10.046 0.464844C10.046 0.530469 10.0624 0.596094 10.0898 0.650781L11.5663 3.53828C11.6374 3.675 11.7796 3.7625 11.9327 3.7625H16.0234C16.1765 3.7625 16.3187 3.675 16.3898 3.53828L17.8663 0.650781C17.9265 0.525 17.921 0.377344 17.8499 0.251562Z" fill="#8ACC19"/>
<path d="M17.85 0.251562C17.7734 0.13125 17.6421 0.0546875 17.5 0.0546875H15.6023C15.8265 0.0546875 16.0125 0.235156 16.0125 0.464844C16.0125 0.530469 15.996 0.596094 15.9687 0.650781L14.4921 3.53828C14.421 3.675 14.2789 3.7625 14.1257 3.7625H16.0234C16.1765 3.7625 16.3187 3.675 16.3898 3.53828L17.8664 0.650781C17.9265 0.525 17.921 0.377344 17.85 0.251562Z" fill="#78AA17"/>
<path d="M19.2281 7.57432C18.5062 6.43135 17.5163 5.38682 16.439 4.6376C16.3679 4.58838 16.2859 4.56104 16.2038 4.56104H11.7468C11.6648 4.56104 11.5827 4.58838 11.5116 4.6376C10.4343 5.39229 9.44446 6.43682 8.72258 7.57432C7.94055 8.81572 7.5304 10.0735 7.5304 11.211C7.5304 12.7368 8.27961 13.9673 9.69055 14.7712C10.8116 15.4056 12.332 15.7556 13.9726 15.7556C15.6132 15.7556 17.139 15.4056 18.2546 14.7712C19.6656 13.9673 20.4148 12.7368 20.4148 11.211C20.4202 10.0681 20.0101 8.81025 19.2281 7.57432Z" fill="#8ACC19"/>
<path d="M19.2281 7.57432C18.5062 6.43135 17.5163 5.38682 16.439 4.6376C16.3679 4.58838 16.2859 4.56104 16.2038 4.56104H14.3062C14.3882 4.56104 14.4702 4.58838 14.5413 4.6376C15.6187 5.39229 16.6085 6.43682 17.3304 7.57432C18.1124 8.81572 18.5226 10.0735 18.5226 11.211C18.5226 12.7368 17.7734 13.9673 16.3624 14.7712C15.4601 15.2853 14.3007 15.6079 13.0265 15.7173C13.3437 15.7446 13.6609 15.7556 13.9726 15.7556C15.6132 15.7556 17.139 15.4056 18.2546 14.7712C19.6656 13.9673 20.4148 12.7368 20.4148 11.211C20.4202 10.0681 20.0101 8.81025 19.2281 7.57432Z" fill="#78AA17"/>
<path d="M18.8726 17.6968L20.2288 13.5296C20.4038 12.9828 20.9452 12.6546 21.5085 12.7476C22.1374 12.8515 22.564 13.4421 22.4601 14.071C22.4491 14.1257 22.4382 14.175 22.4218 14.2242L21.9734 15.6734C21.9515 15.739 21.9187 15.7992 21.8695 15.8429L19.5452 18.1125C19.4687 18.189 19.3648 18.2273 19.2609 18.2273C19.0366 18.2273 18.8507 18.0414 18.8507 17.8171C18.8562 17.7789 18.8616 17.7351 18.8726 17.6968Z" fill="#DB9975"/>
<path d="M19.2664 18.2328C19.0421 18.2328 18.8562 18.0469 18.8562 17.8227C18.8562 17.7789 18.8617 17.7352 18.8781 17.6969L20.2343 13.5297C20.3765 13.0867 20.7648 12.7859 21.2078 12.7422L19.7367 17.932L19.5453 18.118C19.4742 18.1891 19.3703 18.2328 19.2664 18.2328Z" fill="#F7B081"/>
<path d="M21.1968 15.4329L22.0992 12.529C22.2742 11.9548 22.8703 11.6266 23.45 11.7743C23.7507 11.8509 24.0023 12.0477 24.15 12.3212C24.2976 12.5946 24.3304 12.9118 24.232 13.2071L23.5757 15.2305C23.5046 15.4438 23.275 15.5641 23.0617 15.493C22.996 15.4712 22.9414 15.4384 22.8976 15.3891C22.8265 15.3126 22.7281 15.2743 22.6242 15.2743C22.5203 15.2743 22.4218 15.3126 22.3507 15.3837L21.875 15.8485C21.7984 15.9251 21.6945 15.9634 21.5906 15.9634C21.3664 15.9634 21.1804 15.7774 21.1804 15.5532C21.1804 15.5094 21.1859 15.4712 21.1968 15.4329Z" fill="#DB9975"/>
<path d="M19.8132 19.8188L22.9249 15.9031C23.0453 15.75 23.0343 15.5313 22.8976 15.3891C22.7937 15.2797 22.7554 15.1211 22.7992 14.9789L23.9749 11.3367C24.1499 10.8008 24.6968 10.4727 25.2492 10.5711C25.5664 10.6258 25.8453 10.8172 26.0148 11.0906C26.1843 11.3641 26.2281 11.6977 26.1351 12.0039L25.5007 14.1203C24.9046 16.1164 23.7179 17.8391 22.0664 19.1023L20.382 20.393C20.3109 20.4477 20.2234 20.475 20.1359 20.475C20.0265 20.475 19.9226 20.4313 19.846 20.3547C19.6984 20.2125 19.6874 19.9774 19.8132 19.8188Z" fill="#DB9975"/>
<path d="M21.1968 15.4328L22.0991 12.5289C22.2359 12.0968 22.6077 11.8015 23.0343 11.7468L21.8257 15.8867C21.7546 15.9359 21.6726 15.9632 21.5851 15.9632C21.3609 15.9632 21.1749 15.7773 21.1749 15.5531C21.1804 15.5093 21.1859 15.471 21.1968 15.4328Z" fill="#F7B081"/>
<path d="M20.196 20.475C20.1741 20.4805 20.1577 20.4805 20.1359 20.4805C19.9116 20.4805 19.7257 20.3 19.7257 20.0703C19.7257 19.9773 19.7585 19.8898 19.8132 19.8133L22.9249 15.8977C23.0452 15.7445 23.0343 15.5258 22.8976 15.3836C22.7937 15.2742 22.7554 15.1156 22.7991 14.9734L23.9749 11.3312C24.1226 10.8773 24.5327 10.5766 24.9921 10.5547L22.9741 16.9969L20.196 20.475Z" fill="#F7B081"/>
<path d="M15.0117 23.2422C15.0172 23.1601 15.2195 21.2242 16.3187 19.6547C17.3031 18.2601 18.6758 17.6203 19.0313 17.4726L21.7766 14.7929C22.2523 14.3281 23.018 14.339 23.4828 14.8148C23.4992 14.8312 23.5156 14.8476 23.5266 14.864C23.882 15.2742 23.8711 15.8867 23.532 16.3023L20.1305 20.4804L23.0344 17.6039C23.5211 17.1226 23.8766 16.532 24.0844 15.8812L24.5602 14.3718C24.6203 14.2133 24.6695 14.0492 24.7188 13.8851L25.5828 10.9976C25.7633 10.4179 26.343 10.0515 26.9445 10.1445C27.3 10.1992 27.6172 10.407 27.8086 10.7078C28 11.014 28.0492 11.3859 27.9453 11.7304L26.6547 15.925C26.5891 16.1383 26.5234 16.357 26.4578 16.5812C25.8617 18.5664 25.1891 20.814 23.5594 22.1429L20.5461 24.6039V27.5351C20.5461 27.7593 20.3656 27.9453 20.1359 27.9453H15.4219C15.1977 27.9453 15.0117 27.7648 15.0117 27.5351V23.2804C15.0117 23.2695 15.0117 23.2531 15.0117 23.2422Z" fill="#FFC89F"/>
<path d="M23.5374 16.3022C23.882 15.8812 23.8874 15.2687 23.532 14.864C23.4663 14.7874 23.3898 14.7218 23.3077 14.6616L20.0374 18.796C19.7312 19.1788 19.7749 20.1468 20.1359 20.4804L23.5374 16.3022Z" fill="#FFB98A"/>
<path d="M27.8085 10.7133C27.639 10.4398 27.3656 10.2484 27.0539 10.1719L25.4187 15.4711C24.7679 17.5766 24.1609 19.9336 22.4546 21.3281L19.1296 23.9094V27.9508H20.1304C20.3546 27.9508 20.5406 27.7703 20.5406 27.5406V24.6094L23.5539 22.1484C25.1835 20.8195 25.8562 18.5719 26.4523 16.5867C26.5179 16.368 26.5835 16.1492 26.6492 15.9305L27.9398 11.7359C28.0492 11.3859 28 11.0141 27.8085 10.7133Z" fill="#FFB98A"/>
<path d="M9.12736 17.6968L7.76564 13.5296C7.59064 12.9828 7.04923 12.6546 6.48595 12.7476C5.85704 12.8515 5.43048 13.4421 5.53439 14.071C5.54532 14.1257 5.55626 14.175 5.57267 14.2242L6.02111 15.6734C6.04298 15.739 6.07579 15.7992 6.12501 15.8429L8.44923 18.1125C8.58595 18.2437 8.79376 18.2656 8.95236 18.1671C9.11095 18.0687 9.18204 17.8773 9.12736 17.6968Z" fill="#DB9975"/>
<path d="M8.73352 18.2328C8.95774 18.2328 9.14368 18.0523 9.14368 17.8227C9.14368 17.7789 9.13821 17.7352 9.1218 17.6969L7.76555 13.5297C7.62336 13.0867 7.23508 12.7859 6.79211 12.7422L8.26321 17.932L8.45461 18.118C8.52571 18.1891 8.62961 18.2328 8.73352 18.2328Z" fill="#F7B081"/>
<path d="M6.80309 15.4329L5.90075 12.529C5.72575 11.9548 5.12966 11.6266 4.54997 11.7743C4.24919 11.8509 3.99763 12.0477 3.84997 12.3212C3.70231 12.5946 3.6695 12.9118 3.76794 13.2071L4.42419 15.2305C4.49528 15.4438 4.72497 15.5641 4.93825 15.493C5.00388 15.4712 5.05856 15.4384 5.10231 15.3891C5.17341 15.3126 5.27184 15.2743 5.37575 15.2743C5.47966 15.2743 5.57809 15.3126 5.64919 15.3837L6.12497 15.8485C6.20153 15.9251 6.30544 15.9634 6.40934 15.9634C6.63356 15.9634 6.8195 15.7829 6.8195 15.5532C6.8195 15.5094 6.81403 15.4712 6.80309 15.4329Z" fill="#DB9975"/>
<path d="M8.18674 19.8188L5.07503 15.9031C4.95471 15.75 4.96565 15.5313 5.10237 15.3891C5.20628 15.2797 5.24456 15.1211 5.20081 14.9789L4.02503 11.3367C3.85003 10.8008 3.30315 10.4727 2.75081 10.5711C2.43362 10.6258 2.15471 10.8172 1.98518 11.0906C1.81565 11.3641 1.7719 11.6977 1.86487 12.0039L2.49924 14.1203C3.09534 16.1164 4.28206 17.8391 5.93362 19.1023L7.61799 20.393C7.68909 20.4477 7.77659 20.475 7.86409 20.475C7.97346 20.475 8.07737 20.4313 8.15393 20.3547C8.30159 20.2125 8.31253 19.9774 8.18674 19.8188Z" fill="#DB9975"/>
<path d="M6.80308 15.4328L5.90073 12.5289C5.76401 12.0968 5.39214 11.8015 4.96558 11.7468L6.17417 15.8867C6.24526 15.9359 6.32729 15.9632 6.41479 15.9632C6.63901 15.9632 6.82495 15.7773 6.82495 15.5531C6.81948 15.5093 6.81401 15.471 6.80308 15.4328Z" fill="#F7B081"/>
<path d="M7.80391 20.475C7.82578 20.4805 7.84219 20.4805 7.86406 20.4805C8.08828 20.4805 8.27422 20.3 8.27422 20.0703C8.27422 19.9773 8.24141 19.8898 8.18672 19.8133L5.075 15.8977C4.95469 15.7445 4.96563 15.5258 5.10234 15.3836C5.20625 15.2742 5.24453 15.1156 5.20078 14.9734L4.025 11.3312C3.87734 10.8773 3.46719 10.5766 3.00781 10.5547L5.02578 16.9969L7.80391 20.475Z" fill="#F7B081"/>
<path d="M12.9883 23.2422C12.9828 23.1601 12.7804 21.2242 11.6812 19.6547C10.6968 18.2601 9.32419 17.6203 8.96872 17.4726L6.22341 14.7929C5.74763 14.3281 4.982 14.339 4.51716 14.8148C4.50075 14.8312 4.48435 14.8476 4.47341 14.864C4.11794 15.2742 4.12888 15.8867 4.46794 16.3023L7.8695 20.4804L4.9656 17.6039C4.47888 17.1226 4.12341 16.532 3.9156 15.8812L3.43982 14.3718C3.37966 14.2133 3.33044 14.0492 3.28122 13.8851L2.41716 10.9976C2.23669 10.4179 1.657 10.0515 1.05544 10.1445C0.699971 10.1992 0.382784 10.407 0.191378 10.7078C-2.87221e-05 11.014 -0.0492475 11.3859 0.0546588 11.7304L1.34528 15.925C1.41091 16.1383 1.47653 16.357 1.54216 16.5812C2.13825 18.5664 2.81091 20.814 4.4406 22.1429L7.45388 24.6039V27.5351C7.45388 27.7593 7.63435 27.9453 7.86403 27.9453H12.5781C12.8023 27.9453 12.9883 27.7648 12.9883 27.5351V23.2804C12.9883 23.2695 12.9883 23.2531 12.9883 23.2422Z" fill="#FFC89F"/>
<path d="M11.6757 19.6548C10.6913 18.2603 9.31868 17.6204 8.96321 17.4728L6.2179 14.7931C5.74211 14.3282 4.97649 14.3392 4.51165 14.815C4.49524 14.8314 4.47883 14.8478 4.4679 14.8642L7.76555 18.2603C7.76555 18.2603 9.31868 18.829 10.3741 20.3275C11.4296 21.8259 11.6101 23.7181 11.6101 23.7181V27.9454H12.5781C12.8023 27.9454 12.9882 27.765 12.9882 27.5353V23.2806C12.9882 23.2696 12.9882 23.2532 12.9882 23.2423C12.9773 23.1603 12.7804 21.2243 11.6757 19.6548Z" fill="#FFB98A"/>
<path d="M16.1164 2.94214H11.8344C11.1617 2.94214 10.6149 3.48901 10.6149 4.16167C10.6149 4.83433 11.1617 5.3812 11.8344 5.3812H16.1164C16.7891 5.3812 17.336 4.83433 17.336 4.16167C17.336 3.48901 16.7891 2.94214 16.1164 2.94214Z" fill="#FFDB56"/>
<path d="M16.1164 2.94214H14.2188C14.8914 2.94214 15.4383 3.48901 15.4383 4.16167C15.4383 4.83433 14.8914 5.3812 14.2188 5.3812H16.1164C16.7891 5.3812 17.3359 4.83433 17.3359 4.16167C17.3359 3.48901 16.7891 2.94214 16.1164 2.94214Z" fill="#F2B711"/>
</svg>
