<?xml version="1.0" encoding="utf-8"?>
<!-- Generator: Adobe Illustrator 28.0.0, SVG Export Plug-In . SVG Version: 6.00 Build 0)  -->
<svg version="1.1" id="Layer_1" xmlns="http://www.w3.org/2000/svg" xmlns:xlink="http://www.w3.org/1999/xlink" x="0px" y="0px"
	 viewBox="0 0 512 512" style="enable-background:new 0 0 512 512;" xml:space="preserve">
<style type="text/css">
	.st0{fill:#0062D9;}
	.st1{fill:#2A92FA;}
	.st2{fill:#0E82F5;}
	.st3{fill-rule:evenodd;clip-rule:evenodd;fill:#2A92FA;}
	.st4{fill-rule:evenodd;clip-rule:evenodd;fill:#0E82F5;}
	.st5{fill:#FDC72E;}
	.st6{fill-rule:evenodd;clip-rule:evenodd;fill:#70C1F9;}
	.st7{fill-rule:evenodd;clip-rule:evenodd;fill:#4EB1FC;}
	.st8{fill:#004CBD;}
	.st9{fill:#F0F0FF;}
	.st10{fill-rule:evenodd;clip-rule:evenodd;fill:#F0F0FF;}
	.st11{fill-rule:evenodd;clip-rule:evenodd;fill:#F9AC00;}
	.st12{fill-rule:evenodd;clip-rule:evenodd;fill:#FDC72E;}
	.st13{fill:#FDD835;}
	.st14{opacity:0.5;fill:#FFFFFF;enable-background:new    ;}
	.st15{fill:#F39E09;}
	.st16{fill:#E88102;}
	.st17{fill:#DB6704;}
	.st18{opacity:0.25;fill:#FFFFFF;enable-background:new    ;}
</style>
<g>
	<path class="st0" d="M60.7,98.4H131v19.1H60.7V98.4z"/>
	<path class="st1" d="M39.9,115.2h123v316.2h-123V115.2z"/>
	<path class="st2" d="M95.8,115.2h55.9v316.2H95.8V115.2z"/>
	<path class="st0" d="M308.9,98.4h70.3v19.1h-70.3V98.4z"/>
	<path class="st3" d="M276.9,115.2h123v188.5c-36.1,35.7-77.6,65.6-123,88.4V115.2z"/>
	<path class="st4" d="M288.1,115.2H344v236c-17.8,12.9-36.5,24.7-55.9,35.1V115.2z"/>
	<path class="st5" d="M211.2,38.7h17.4v28.7h-17.4V38.7z"/>
	<path class="st6" d="M151.8,98.4h136.4v287.8c-37.8,20.3-78.1,35.5-119.9,45.1h-16.5L151.8,98.4z"/>
	<path class="st7" d="M151.8,98.4h68.2v317.9c-16.9,6-34.2,11-51.7,15h-16.5V98.4z"/>
	<path class="st8" d="M169.2,60.6h101.4v21.5H169.2V60.6z"/>
	<path class="st9" d="M181.4,120h77.1v19.1h-77.1V120z"/>
	<path class="st0" d="M146.6,78.1h146.7v20.3H146.6V78.1z"/>
	<path class="st10" d="M181.4,183h33.3v28h-33.3V183z M224.7,183H258v28h-33.3V183z M258,220.9v23h-33.3v-23H258z M258,253.8v23
		h-33.3v-23H258z M258,286.7v28h-33.3v-28H258z M214.7,314.7h-33.3v-28h33.3V314.7z M181.4,276.8v-23h33.3v23H181.4z M181.4,243.8
		v-23h33.3v23H181.4z M331.6,160.8c2.8,0,5,2.2,5,5s-2.2,5-5,5h-14.4v14.4c0,2.8-2.2,5-5,5s-5-2.2-5-5v-19.4c0-2.8,2.2-5,5-5H331.6z
		 M375.7,160.8c2.8,0,5,2.2,5,5s-2.2,5-5,5h-14.4v14.4c0,2.8-2.2,5-5,5s-5-2.2-5-5v-19.4c0-2.8,2.2-5,5-5H375.7z M331.6,209.6
		c2.8,0,5,2.2,5,5s-2.2,5-5,5h-14.4V234c0,2.8-2.2,5-5,5s-5-2.2-5-5v-19.4c0-2.8,2.2-5,5-5H331.6z M375.7,209.6c2.8,0,5,2.2,5,5
		s-2.2,5-5,5h-14.4V234c0,2.8-2.2,5-5,5s-5-2.2-5-5v-19.4c0-2.8,2.2-5,5-5H375.7z M331.6,258.5c2.8,0,5,2.2,5,5c0,2.8-2.2,5-5,5
		h-14.4v14.4c0,2.8-2.2,5-5,5s-5-2.2-5-5v-19.4c0-2.8,2.2-5,5-5H331.6z M375.7,258.5c2.8,0,5,2.2,5,5c0,2.8-2.2,5-5,5h-14.4v14.4
		c0,2.8-2.2,5-5,5s-5-2.2-5-5v-19.4c0-2.8,2.2-5,5-5H375.7z M331.6,307.4c2.8,0,5,2.2,5,5s-2.2,5-5,5h-14.4v14.4c0,2.8-2.2,5-5,5
		s-5-2.2-5-5v-19.4c0-2.8,2.2-5,5-5H331.6z"/>
	<g>
		<path class="st11" d="M89,430.5c147.9-9.2,283.3-85.6,367.8-206.9l-14.5-9.6l50.6-22.3l-1.8,54.7l-14.5-9.6
			C388.1,364.3,245.9,444.6,90.5,454.3c-16.9,1.1-33.6,0.7-50.5,0.7v-23.8C56.4,431.2,72.6,431.5,89,430.5L89,430.5z"/>
		<path class="st12" d="M492.8,196.2l-1.6,50.2l-14.5-9.6C388.1,364.3,245.9,444.6,90.5,454.3c-9.1,0.6-18.1,0.7-27.1,0.8
			c-4.4,0-19,0-23.4,0v-17c4,0,18,0,22,0c12.4,0,24.7,0,37.2-0.8C247.1,428,382.4,344.9,467,223.6l-14.5-9.6L492.8,196.2z"/>
		<path class="st10" d="M127.6,356.2c2.8,0,5,2.2,5,5s-2.2,5-5,5h-14.4v14.4c0,2.8-2.2,5-5,5s-5-2.2-5-5v-19.4c0-2.8,2.2-5,5-5
			H127.6z M83.5,160.8c2.8,0,5,2.2,5,5s-2.2,5-5,5H69.1v14.4c0,2.8-2.2,5-5,5c-2.8,0-5-2.2-5-5v-19.4c0-2.8,2.2-5,5-5H83.5z
			 M127.6,160.8c2.8,0,5,2.2,5,5s-2.2,5-5,5h-14.4v14.4c0,2.8-2.2,5-5,5s-5-2.2-5-5v-19.4c0-2.8,2.2-5,5-5H127.6z M83.5,209.6
			c2.8,0,5,2.2,5,5s-2.2,5-5,5H69.1V234c0,2.8-2.2,5-5,5c-2.8,0-5-2.2-5-5v-19.4c0-2.8,2.2-5,5-5H83.5z M127.6,209.6
			c2.8,0,5,2.2,5,5s-2.2,5-5,5h-14.4V234c0,2.8-2.2,5-5,5s-5-2.2-5-5v-19.4c0-2.8,2.2-5,5-5H127.6z M83.5,356.2c2.8,0,5,2.2,5,5
			s-2.2,5-5,5H69.1v14.4c0,2.8-2.2,5-5,5c-2.8,0-5-2.2-5-5v-19.4c0-2.8,2.2-5,5-5H83.5z M83.5,258.5c2.8,0,5,2.2,5,5
			c0,2.8-2.2,5-5,5H69.1v14.4c0,2.8-2.2,5-5,5c-2.8,0-5-2.2-5-5v-19.4c0-2.8,2.2-5,5-5H83.5z M127.6,258.5c2.8,0,5,2.2,5,5
			c0,2.8-2.2,5-5,5h-14.4v14.4c0,2.8-2.2,5-5,5s-5-2.2-5-5v-19.4c0-2.8,2.2-5,5-5H127.6z M83.5,307.4c2.8,0,5,2.2,5,5s-2.2,5-5,5
			H69.1v14.4c0,2.8-2.2,5-5,5c-2.8,0-5-2.2-5-5v-19.4c0-2.8,2.2-5,5-5H83.5z M127.6,307.4c2.8,0,5,2.2,5,5s-2.2,5-5,5h-14.4v14.4
			c0,2.8-2.2,5-5,5s-5-2.2-5-5v-19.4c0-2.8,2.2-5,5-5H127.6z"/>
	</g>
</g>
<g>
	<path class="st13" d="M334,459.7c55.5,0,100.5-45,100.5-100.5c0-55.5-45-100.5-100.5-100.5s-100.5,45-100.5,100.5
		C233.5,414.7,278.5,459.7,334,459.7z"/>
	<path class="st14" d="M334,258.6c-55.5,0-100.5,45-100.5,100.5c0,55.5,45,100.5,100.5,100.5s100.5-45,100.5-100.5
		C434.6,303.6,389.6,258.6,334,258.6z M334,455.4c-53.2,0-96.2-43-96.2-96.2c0-53.2,43.1-96.1,96.2-96.1s96.2,43,96.2,96.2
		C430.3,412.4,387.2,455.4,334,455.4z"/>
	<path class="st14" d="M374.2,267L241.8,399.3c-4.5-10.4-7.2-21.5-8.1-32.8l107.6-107.6C353,259.8,364,262.6,374.2,267z
		 M421.7,309.8l-137,136.9c-8.5-4.9-16.3-10.8-23-17.8l142.1-142.1C410.8,293.6,416.9,301.3,421.7,309.8z M399.8,283.1L257.9,424.9
		c-2.2-2.6-4.3-5.2-6.3-8.1l140.1-140C394.5,278.7,397.2,280.9,399.8,283.1z M431.4,334.1L309,456.6c-3.7-0.9-7.4-2.2-10.9-3.5
		l129.8-129.8C429.4,326.8,430.5,330.4,431.4,334.1z"/>
	<path class="st14" d="M415.8,363.6c0,43.5-35.3,78.8-78.8,78.8c-24.4,0-46.3-11.1-60.7-28.6c14.4,15.5,35,25.3,57.9,25.3
		c43.5,0,78.8-35.3,78.8-78.8c0-19-6.7-36.6-18.1-50.1C407.8,324.1,415.8,342.9,415.8,363.6z"/>
	<path class="st15" d="M334,439c43.5,0,78.8-35.3,78.8-78.8c0-43.5-35.3-78.8-78.8-78.8s-78.8,35.3-78.8,78.8
		C255.2,403.8,290.5,439,334,439z"/>
	<path class="st16" d="M393.8,308.8c-13.8-11.9-31.8-19-51.4-19c-43.5,0-78.8,35.3-78.8,78.8c0,19.6,7.2,37.6,19,51.4
		c-16.7-14.5-27.4-35.9-27.4-59.7c0-43.5,35.3-78.8,78.8-78.8C357.9,281.4,379.3,292,393.8,308.8z"/>
	<path class="st17" d="M372.7,313.3v-6.2l-7.2,6.2h-65.1l-4.9,14.6v6.2h20.7c6.6,0.2,11,2.8,13.2,7.6h-29.7l-4.2,10v6.2H330
		c-2.2,6.7-6.8,10.2-14.2,10.2h-18.2l0.1,14.8l35.3,42.1H362V419l-5.2-1.3l-26.1-32c7.9-2.4,14-5.8,18.2-10.4
		c4.3-4.5,7-10.3,8.2-17.4h11.2l4.2-16.2v-6.2l-5.9,6.2h-9.4c-0.6-4.5-2.2-8.6-4.4-12.2h15.6L372.7,313.3z"/>
	<path class="st13" d="M368.5,323.4h-15.6c2.2,3.7,3.7,7.7,4.4,12.2h15.4l-4.2,16.2h-11.2c-1.2,7.1-4,12.9-8.2,17.4
		c-4.3,4.5-10.4,8-18.2,10.4l31.1,38.3v1.2h-28.9l-35.3-42.1l-0.1-14.8h18.2c7.4-0.2,12-3.6,14.2-10.2h-34.6l4.2-16.2h29.7
		c-2.2-4.9-6.6-7.4-13.2-7.6h-20.7l4.9-20.8h72.3L368.5,323.4z"/>
	<path class="st14" d="M299.6,335.6h5.9l-8,8L299.6,335.6z M334,307.1L313.2,328h-17.7l4.9-20.8H334z M368.5,323.4h-1.2l1.6-1.6
		L368.5,323.4z M372.7,335.6l-4.2,16.2h-11.3c-1.2,7.1-4,12.9-8.2,17.4c-4.3,4.5-10.3,8-18.2,10.4l9.5,11.7l-16.5,16.6l-18.6-22.2
		l51.9-51.9c0.1,0.6,0.3,1.3,0.3,1.9L372.7,335.6z M315.8,362.1c2.2-0.1,4.2-0.4,6-1.1l-20.4,20.4l-3.7-4.5l-0.1-6.1l8.7-8.7H315.8z
		 M372.7,307.1l-1.1,4l-12.2,12.3h-6.6c0.9,1.3,1.6,2.8,2.2,4.3l-25.7,25.7c0.3-0.5,0.4-1.1,0.6-1.6h-13.3l44.7-44.7H372.7z
		 M355.5,410.1l-9.1,9.1h-13.5l-0.4-0.4l16.4-16.4L355.5,410.1z"/>
	<path class="st18" d="M399.8,316.7c-51,17.9-92,57.2-112,107.2c-1.8-1.3-3.5-2.6-5.1-4c-11.9-13.8-19-31.8-19-51.4
		c0-43.5,35.3-78.8,78.8-78.8c19.6,0,37.6,7.2,51.4,19C395.9,311.3,398,314,399.8,316.7z"/>
</g>
</svg>
