<?xml version="1.0" encoding="utf-8"?>
<!-- Generator: Adobe Illustrator 28.0.0, SVG Export Plug-In . SVG Version: 6.00 Build 0)  -->
<svg version="1.1" id="Layer_1" xmlns="http://www.w3.org/2000/svg" xmlns:xlink="http://www.w3.org/1999/xlink" x="0px" y="0px"
	 viewBox="0 0 512 512" style="enable-background:new 0 0 512 512;" xml:space="preserve">
<style type="text/css">
	.st0{fill-rule:evenodd;clip-rule:evenodd;fill:#D1D1D6;}
	.st1{fill-rule:evenodd;clip-rule:evenodd;fill:#A79BA7;}
	.st2{fill-rule:evenodd;clip-rule:evenodd;fill:#ECEFF1;}
	.st3{fill:#FDD835;}
	.st4{opacity:0.5;fill:#FFFFFF;enable-background:new    ;}
	.st5{fill:#F39E09;}
	.st6{fill:#E88102;}
	.st7{fill:#DB6704;}
	.st8{opacity:0.25;fill:#FFFFFF;enable-background:new    ;}
</style>
<g>
	<g>
		<path class="st0" d="M83.7,8h273.5c2.5,0,4.6,0.9,6.3,2.6l50.1,50.1c1.7,1.7,2.6,3.9,2.6,6.3v374.5c0,4.9-4,8.9-8.9,8.9H83.7
			c-4.9,0-8.9-4-8.9-8.9V16.9C74.8,12,78.8,8,83.7,8z"/>
		<path class="st1" d="M360.9,8.8c1,0.5,1.9,1.1,2.6,1.8l50.1,50.1c0.8,0.8,1.4,1.6,1.8,2.6h-50.1c-2.5,0-4.5-2-4.5-4.5V8.8z"/>
		<path class="st2" d="M30.2,61.5h273.5c2.5,0,4.6,0.9,6.3,2.6l50.1,50.1c1.7,1.7,2.6,3.9,2.6,6.3v374.5c0,4.9-4,8.9-8.9,8.9H30.2
			c-4.9,0-8.9-4-8.9-8.9V70.4C21.3,65.5,25.3,61.5,30.2,61.5z"/>
		<path class="st0" d="M30.2,61.5h20.9V504H30.2c-4.9,0-8.9-4-8.9-8.9V70.4C21.3,65.5,25.3,61.5,30.2,61.5z"/>
		<g>
			<path class="st1" d="M307.3,62.3c1,0.5,1.9,1.1,2.6,1.8l50.1,50.1c0.8,0.8,1.4,1.6,1.8,2.6h-50.1c-2.5,0-4.5-2-4.5-4.5V62.3z
				 M90.9,205.6c-3.9,0-7.1-3.2-7.1-7.1c0-3.9,3.2-7.1,7.1-7.1H293c3.9,0,7.1,3.3,7.1,7.2c0,3.9-3.2,7-7.1,7.1H90.9z M90.9,146
				c-3.9,0-7.1-3.2-7.1-7.1c0-3.9,3.2-7.1,7.1-7.1l0,0h145c3.9,0,7.1,3.2,7.1,7.1c0,3.9-3.2,7.1-7.1,7.1H90.9z M90.9,443.8
				c-3.9,0-7.1-3.2-7.1-7.1c0-3.9,3.2-7.1,7.1-7.1H293c3.9,0,7.1,3.2,7.1,7.1c0,3.9-3.2,7.1-7.1,7.1H90.9z M90.9,384.2
				c-3.9,0-7.1-3.2-7.1-7.1s3.2-7.1,7.1-7.1H293c3.9,0,7.2,3.1,7.2,7.1c0,3.9-3.1,7.2-7.1,7.2c-0.1,0-0.1,0-0.2,0H90.9z M90.9,324.7
				c-3.9,0-7.1-3.2-7.1-7.1c0-3.9,3.2-7.1,7.1-7.1H293c3.9,0,7.1,3.2,7.1,7.1c0,3.9-3.2,7.1-7.1,7.1H90.9z M90.9,265.1
				c-3.9,0-7.1-3.2-7.1-7.1s3.2-7.1,7.1-7.1H293c3.9,0,7.2,3.1,7.2,7.1c0,3.9-3.1,7.2-7.1,7.2c-0.1,0-0.1,0-0.2,0H90.9z"/>
		</g>
	</g>
</g>
<g>
	<path class="st3" d="M362.7,432.8c79.6,0,144.2-64.5,144.2-144.2s-64.5-144.3-144.2-144.3s-144.2,64.6-144.2,144.2
		S283,432.8,362.7,432.8z"/>
	<path class="st4" d="M362.7,144.2c-79.6,0-144.2,64.5-144.2,144.2S283,432.6,362.7,432.6S506.8,368,506.8,288.4
		C507,208.7,442.5,144.2,362.7,144.2z M362.7,426.6c-76.3,0-138.1-61.7-138.1-138.1s61.9-137.9,138.1-137.9s138.1,61.7,138.1,138.1
		C500.8,364.9,438.9,426.6,362.7,426.6z"/>
	<path class="st4" d="M420.3,156.1l-189.9,190c-6.4-14.9-10.3-30.9-11.7-47.1l154.5-154.6C389.9,145.8,405.8,149.8,420.3,156.1z
		 M488.4,217.7L291.9,414.1c-12.2-7-23.4-15.4-33-25.5L463,184.8C473,194.2,481.6,205.5,488.4,217.7z M457,179.3L253.5,382.9
		c-3.2-3.8-6.2-7.5-9-11.7l201-200.9C449.4,173,453.3,176.2,457,179.3z M502.5,252.3L326.7,428.1c-5.4-1.3-10.6-3.2-15.7-5
		l186.2-186.2C499.6,242,501.3,247.2,502.5,252.3z"/>
	<path class="st4" d="M480,294.7c0,62.4-50.6,113.1-113.1,113.1c-35,0-66.4-16-87.1-41.1c20.7,22.3,50.2,36.3,83.1,36.3
		c62.4,0,113.1-50.6,113.1-113.1c0-27.2-9.6-52.5-26-71.9C468.6,238.2,480,265.2,480,294.7z"/>
	<path class="st5" d="M362.7,403c62.4,0,113.1-50.6,113.1-113.1s-50.6-113.1-113.1-113.1S249.6,227.5,249.6,290S300.2,403,362.7,403
		z"/>
	<path class="st6" d="M448.4,216.2c-19.8-17-45.6-27.2-73.8-27.2c-62.4,0-113.1,50.6-113.1,113.1c0,28.2,10.3,53.9,27.2,73.8
		c-24-20.8-39.3-51.5-39.3-85.6c0-62.4,50.6-113.1,113.1-113.1C396.9,176.9,427.6,192.1,448.4,216.2z"/>
	<path class="st7" d="M418.3,222.7v-8.9l-10.3,8.9h-93.4l-7,20.9v8.9h29.7c9.5,0.3,15.8,4,18.9,10.9h-42.7l-6,14.4v8.9h49.6
		c-3.2,9.6-9.8,14.6-20.4,14.6h-26.2l0.1,21.2l50.6,60.4h41.5v-8.9l-7.5-1.9L358,326.3c11.3-3.5,20.1-8.3,26.2-14.9
		c6.2-6.4,10.1-14.8,11.8-25H412l6-23.2v-8.9l-8.5,8.9h-13.4c-0.8-6.4-3.2-12.3-6.3-17.5h22.4L418.3,222.7z"/>
	<path class="st3" d="M412.3,237.2h-22.4c3.2,5.4,5.4,11,6.3,17.5h22.1l-6,23.2h-16.1c-1.7,10.2-5.8,18.5-11.8,25
		c-6.2,6.4-14.9,11.5-26.2,14.9l44.7,55v1.7h-41.4l-50.6-60.4l-0.1-21.2h25.8c10.6-0.3,17.2-5.1,20.4-14.6h-49.6l6-23.2H356
		c-3.2-7-9.5-10.6-18.9-10.9h-29.7l7-29.8h104L412.3,237.2z"/>
	<path class="st4" d="M313.3,254.7h8.5l-11.5,11.5L313.3,254.7z M362.7,213.8l-29.8,29.8h-25.4l7-29.8H362.7z M412.3,237.2h-1.7
		l2.3-2.3L412.3,237.2z M418.1,254.7l-6,23.2H396c-1.7,10.2-5.8,18.5-11.8,25c-6.2,6.4-14.8,11.5-26.2,14.9l13.7,16.8L348,358.5
		l-26.7-31.8l74.5-74.5c0.1,0.8,0.4,1.9,0.4,2.7L418.1,254.7z M336.5,292.7c3.2-0.1,6-0.5,8.6-1.6l-29.3,29.3l-5.4-6.4l-0.1-8.7
		l12.5-12.5L336.5,292.7L336.5,292.7z M418.3,213.8l-1.6,5.8l-17.5,17.7h-9.5c1.3,1.9,2.3,4,3.2,6.2L356,280.3
		c0.4-0.7,0.5-1.6,0.8-2.3H338l64.1-64.1h16.3V213.8z M393.4,361.5l-13,13.1h-19.3l-0.5-0.5l23.5-23.5L393.4,361.5z"/>
	<path class="st8" d="M457,227.5c-73.1,25.6-132,82.1-160.7,153.8c-2.6-1.9-5-3.8-7.4-5.8c-17-19.8-27.2-45.6-27.2-73.8
		c0-62.4,50.6-113.1,113.1-113.1c28.2,0,53.9,10.3,73.8,27.2C451.6,219.7,454.5,223.6,457,227.5z"/>
</g>
</svg>
