<?xml version="1.0" encoding="utf-8"?>
<!-- Generator: Adobe Illustrator 28.0.0, SVG Export Plug-In . SVG Version: 6.00 Build 0)  -->
<svg version="1.1" id="Layer_1" xmlns="http://www.w3.org/2000/svg" xmlns:xlink="http://www.w3.org/1999/xlink" x="0px" y="0px"
	 viewBox="0 0 512 512" style="enable-background:new 0 0 512 512;" xml:space="preserve">
<style type="text/css">
	.st0{fill:#D67B42;}
	.st1{fill:#B46432;}
	.st2{fill:#E4E3EF;}
	.st3{fill:#C9C8DB;}
	.st4{fill:#F6BF89;}
	.st5{fill:#F0A06D;}
	.st6{fill:#ED3E43;}
	.st7{fill:#D03539;}
	.st8{fill:#FDD835;}
	.st9{opacity:0.5;fill:#FFFFFF;enable-background:new    ;}
	.st10{fill:#F39E09;}
	.st11{fill:#E88102;}
	.st12{fill:#DB6704;}
	.st13{opacity:0.25;fill:#FFFFFF;enable-background:new    ;}
</style>
<g>
	<path class="st0" d="M213.4,427.3c-107.3-0.2-192.3-42.4-174.5-149c9.4-56.6,47.5-106.1,99.9-131.3c1-0.4,2.1-1,3.1-1.3
		c42.4-20,93.7-23.6,138.6-0.6c1,0.5,1.9,1,3,1.5c47.5,24.9,86,74.1,97.8,131.7C396.9,354.2,347.8,427.6,213.4,427.3L213.4,427.3z"
		/>
	<path class="st1" d="M383.6,316.1c-5.7,63.2-62,111.5-170.2,111.2c-81.5-0.2-143.7-24-167.1-74.1c7.6,0.6,13.4,2.7,14.2,3.1
		c0.9,0.3,48,21.6,74.5,34c0.2-0.2,0.2-0.5,0.2-0.6c3.4-20.7,22.4-28.5,32.9-30l63.8-0.2c70.8-43.7,109.5-43.7,137.9-43.7
		C376.6,315.9,377.4,315.5,383.6,316.1z M280.5,145c-4.2,3.4-9.4,5.4-15,5.4H156.2c-5.4,0-10.3-1.8-14.3-4.8
		C184.3,125.6,235.6,122,280.5,145z"/>
	<path class="st2" d="M279.9,184.4c0,12.5-14.7,19.7-24.5,11.6c-42.4-34.7-34.8-81.9-34.8-81.9l32.2-26.9c0,0-21.7,46.6,22.1,86
		C278.1,176.1,279.9,180.2,279.9,184.4L279.9,184.4z"/>
	<path class="st2" d="M224.1,111.2c0.3,14.5-2.9,48.3-35.2,74.8c-6.4,5.3-15.8,4.4-21.1-2c-0.4-0.5-0.8-1.1-1.2-1.7
		c-4.1-7.3-2.1-14.6,2.7-19c24-21.7,32.6-49,24.6-79.6h5.4l24.4,20.4C223.7,104.2,224,106.9,224.1,111.2z"/>
	<path class="st0" d="M296.1,37.3c-5.7,8.1-19,5.2-32.7,16.8c-20.6,16.4-17,39.1-17.4,40.7l-35.7,1.6l-34.9-1.6c0,0,0.3-2.9,0-7.5
		c-0.3-4.9-1.4-9.8-3.3-14.4c-3.1-7.3-7.9-13.8-14-18.8c-14.1-11.4-27.3-8.8-32.9-16.8c-7.5-10-1.1-21.7,9.4-26
		c12.4-4.9,30.5-6.4,52.8,0.6c18.2,5.9,20.2,11.3,30,6.7c21.5-10.1,47.3-16,69.4-7.3C297.2,15.6,303.6,27.3,296.1,37.3L296.1,37.3z"
		/>
	<path class="st1" d="M249.2,72.9c-1.9,4.9-2.8,9.2-3.2,14.4h-70.7c-0.3-4.9-1.4-9.8-3.3-14.4H249.2z"/>
	<path class="st2" d="M270.6,123.1v3.3c-0.1,6.7-5.5,12.1-12.2,12.1h-92c-6.7,0-12.2-5.4-12.2-12.1v-3.3c0.2-6.6,5.6-11.9,12.2-11.9
		h92C265,111.2,270.4,116.5,270.6,123.1L270.6,123.1z"/>
	<path class="st3" d="M269.6,118.5c-8.6,5.4-9.6,2.1-103.2,3.1c-4,0-7.9-1-11.2-3.1c2-4.4,6.3-7.3,11.2-7.3h92
		C263.2,111.2,267.6,114.1,269.6,118.5L269.6,118.5z"/>
	<path class="st2" d="M270.5,96.8v1.3c0,7.2-5.9,13.1-13.1,13.1h-90.3c-17.2,0-17.3-27.4,0-27.4h90.3
		C264.6,83.7,270.6,89.6,270.5,96.8L270.5,96.8z"/>
	<path class="st4" d="M425.5,399.6c0,21.5-1.7,38.7-4.5,51.7c-0.7,3.6-1.5,6.9-2.4,10c-0.5,1.4-0.9,2.9-1.2,4.3
		c-0.2,0.2-0.3,0.4-0.3,0.7v0.2c-7.7-0.2-15.4-0.3-23.1-0.3h-0.7c-0.9,0-1.5-0.2-2.4-0.2c-0.2,0-0.5,0.2-1,0.5
		c-0.5,0.3-1.6,0.9-2.8,1.6c-13.8,7.1-60.8,21.3-87.3,31.2c-35.5,13.1-48.9,24.9-121-11.2c-74.2-37.5-132.9-62.2-149.6-73.2
		c-14.5-9.8-12.1-33.5-1.9-42.4c10.5-8.9,27.9-2.2,27.9-2.2s53.9,24.5,78.9,36.2c6.5,3.1,11,5.3,12.2,6c1.2,0.7,2.4,1.2,3.8,1.4
		c1.5,0.3,3.1,0.5,4.5,0.3c2.9,4.3,6.9,7.2,11,7.9c9.3,1.4,95,0.7,123.1,5.3c13.7-12.8,94.5-87.8,89.4-83l12.4-11.5l0.5-0.3v-0.2
		c2.8,0,22.7,0,25.5,0.2c0.5,1.2,1,2.8,1.5,4.5c0.9,2.8,1.7,6.2,2.7,10.2C423.3,360,425.4,377.6,425.5,399.6L425.5,399.6z"/>
	<path class="st4" d="M154.5,414.1c3,4.4,6.9,7.3,11,7.9c9.3,1.5,95,0.7,123,5.3l101.9-94.5l0.4-0.4v0c-7.2-1.2-9.4-1.7-12.7-1.6
		c-29,0.5-65.2-4.5-142.1,43.8h-66c0,0-17.7,2.3-20.2,17.4C148.6,400.5,150.7,408.5,154.5,414.1L154.5,414.1z"/>
	<path class="st5" d="M425.5,399.6c0,21.5-1.7,38.7-4.5,51.7c-0.7,3.6-1.5,6.9-2.4,10c-0.5,1.4-0.9,2.9-1.2,4.3
		c-0.2,0.2-0.3,0.4-0.3,0.7v0.2c-7.7-0.2-15.4-0.3-23.1-0.3V332.3c2.4,0,19.8,0,22.4,0.2c0.5,1.2,1,2.8,1.5,4.5
		c0.9,2.8,1.7,6.2,2.7,10.2C423.3,360,425.4,377.6,425.5,399.6L425.5,399.6z"/>
	<path class="st6" d="M477.8,478.4h-53.6c-8.4,0-15.2-6.8-15.2-15.2c0,0,0,0,0,0V332.5c0-8.4,6.8-15.2,15.2-15.2h53.6
		c8.4,0,15.2,6.8,15.2,15.2v130.8C493,471.6,486.2,478.4,477.8,478.4L477.8,478.4z"/>
	<path class="st5" d="M258.4,438.6l-97.8-10.3c-4.4-0.5-7.5-4.4-7.1-8.8c0,0,0,0,0,0c0.4-4.3,4.2-7.5,8.5-7.1c0.1,0,0.2,0,0.3,0
		l97.7,10.3c4.4,0.5,7.6,4.4,7.1,8.8C266.7,435.9,262.7,439,258.4,438.6L258.4,438.6z"/>
	<path class="st7" d="M459.5,443c-4.4,0-8-3.6-8-8c0,0,0,0,0,0v-74.3c0-4.4,3.6-8,8-8c4.4,0,8,3.6,8,8V435
		C467.4,439.4,463.9,443,459.5,443L459.5,443z"/>
	<path class="st1" d="M209.3,54.6c-4.3-0.7-7.3-4.8-6.6-9.1c1.1-6.7,1.1-13.3,0-19.6c-0.8-4.3,2.1-8.5,6.5-9.2c0,0,0,0,0,0
		c4.3-0.7,8.4,2.2,9.2,6.5c1.4,8,1.4,16.4,0,24.9C217.7,52.4,213.6,55.4,209.3,54.6L209.3,54.6z"/>
</g>
<g>
	<path class="st8" d="M217.8,343.1c40.9,0,74.1-33.1,74.1-74.1S258.7,195,217.8,195s-74.1,33.2-74.1,74.1S176.9,343.1,217.8,343.1z"
		/>
	<path class="st9" d="M217.8,194.9c-40.9,0-74.1,33.1-74.1,74.1s33.1,74.1,74.1,74.1s74.1-33.1,74.1-74.1
		C291.9,228.1,258.8,194.9,217.8,194.9z M217.8,340c-39.2,0-70.9-31.7-70.9-70.9s31.8-70.8,70.9-70.8s70.9,31.7,70.9,70.9
		C288.8,308.3,257,340,217.8,340z"/>
	<path class="st9" d="M247.4,201l-97.5,97.6c-3.3-7.7-5.3-15.9-6-24.2l79.3-79.4C231.8,195.7,240,197.8,247.4,201z M282.4,232.7
		L181.5,333.5c-6.3-3.6-12-7.9-16.9-13.1l104.8-104.7C274.5,220.6,278.9,226.4,282.4,232.7z M266.2,213L161.7,317.5
		c-1.6-1.9-3.2-3.8-4.6-6l103.3-103.2C262.4,209.7,264.4,211.3,266.2,213z M289.6,250.5l-90.3,90.3c-2.8-0.6-5.5-1.6-8-2.6
		l95.6-95.6C288.1,245.2,289,247.8,289.6,250.5z"/>
	<path class="st9" d="M278.1,272.2c0,32.1-26,58.1-58.1,58.1c-18,0-34.1-8.2-44.7-21.1c10.6,11.4,25.8,18.6,42.7,18.6
		c32.1,0,58.1-26,58.1-58.1c0-14-4.9-27-13.3-36.9C272.2,243.2,278.1,257,278.1,272.2z"/>
	<path class="st10" d="M217.8,327.9c32.1,0,58.1-26,58.1-58.1s-26-58.1-58.1-58.1s-58.1,26-58.1,58.1S185.7,327.9,217.8,327.9z"/>
	<path class="st11" d="M261.8,231.9c-10.1-8.7-23.4-14-37.9-14c-32.1,0-58.1,26-58.1,58.1c0,14.5,5.3,27.7,14,37.9
		c-12.3-10.7-20.2-26.4-20.2-44c0-32.1,26-58.1,58.1-58.1C235.4,211.7,251.1,219.5,261.8,231.9z"/>
	<path class="st12" d="M246.4,235.2v-4.6l-5.3,4.6h-48l-3.6,10.7v4.6h15.3c4.9,0.2,8.1,2.1,9.7,5.6h-21.9l-3.1,7.4v4.6H215
		c-1.6,4.9-5,7.5-10.5,7.5h-13.4l0.1,10.9l26,31h21.3V313l-3.8-1l-19.2-23.6c5.8-1.8,10.3-4.3,13.4-7.7c3.2-3.3,5.2-7.6,6-12.8h8.3
		l3.1-11.9v-4.6l-4.4,4.6h-6.9c-0.4-3.3-1.6-6.3-3.2-9h11.5L246.4,235.2z"/>
	<path class="st8" d="M243.3,242.7h-11.5c1.6,2.8,2.8,5.7,3.2,9h11.3l-3.1,11.9H235c-0.9,5.2-3,9.5-6,12.8
		c-3.2,3.3-7.7,5.9-13.4,7.7l22.9,28.2v0.9h-21.3l-26-31l-0.1-10.9h13.3c5.5-0.2,8.9-2.6,10.5-7.5h-25.5l3.1-11.9h21.9
		c-1.6-3.6-4.9-5.5-9.7-5.6h-15.3l3.6-15.3h53.4L243.3,242.7z"/>
	<path class="st9" d="M192.4,251.7h4.4l-5.9,5.9L192.4,251.7z M217.8,230.7L202.5,246h-13.1l3.6-15.3H217.8z M243.3,242.7h-0.9
		l1.2-1.2L243.3,242.7z M246.3,251.7l-3.1,11.9h-8.3c-0.9,5.2-3,9.5-6,12.8c-3.2,3.3-7.6,5.9-13.4,7.7l7,8.6L210.3,305l-13.7-16.4
		l38.3-38.3c0.1,0.4,0.2,1,0.2,1.4L246.3,251.7z M204.3,271.2c1.6-0.1,3.1-0.3,4.4-0.8l-15.1,15.1l-2.8-3.3l-0.1-4.5l6.4-6.4
		L204.3,271.2L204.3,271.2z M246.4,230.7l-0.8,3l-9,9.1h-4.9c0.6,1,1.2,2.1,1.6,3.2l-18.9,18.9c0.2-0.4,0.3-0.8,0.4-1.2h-9.7
		l32.9-32.9L246.4,230.7L246.4,230.7z M233.6,306.5l-6.7,6.7H217l-0.3-0.3l12.1-12.1L233.6,306.5z"/>
	<path class="st13" d="M266.2,237.7c-37.6,13.2-67.8,42.2-82.5,79c-1.3-1-2.6-1.9-3.8-3c-8.7-10.1-14-23.4-14-37.9
		c0-32.1,26-58.1,58.1-58.1c14.5,0,27.7,5.3,37.9,14C263.4,233.7,265,235.7,266.2,237.7z"/>
</g>
</svg>
