<?xml version="1.0" encoding="utf-8"?>
<!-- Generator: Adobe Illustrator 28.0.0, SVG Export Plug-In . SVG Version: 6.00 Build 0)  -->
<svg version="1.1" id="Layer_1" xmlns="http://www.w3.org/2000/svg" xmlns:xlink="http://www.w3.org/1999/xlink" x="0px" y="0px"
	 viewBox="0 0 512 512" style="enable-background:new 0 0 512 512;" xml:space="preserve">
<style type="text/css">
	.st0{fill-rule:evenodd;clip-rule:evenodd;fill:#231915;}
	.st1{fill-rule:evenodd;clip-rule:evenodd;fill:#E2AA73;}
	.st2{fill-rule:evenodd;clip-rule:evenodd;fill:#E2E7F0;}
	.st3{fill-rule:evenodd;clip-rule:evenodd;fill:#FBBD80;}
	.st4{fill-rule:evenodd;clip-rule:evenodd;fill:#2F5274;}
	.st5{fill-rule:evenodd;clip-rule:evenodd;fill:#223C55;}
	.st6{fill-rule:evenodd;clip-rule:evenodd;fill:#CBD0D8;}
	.st7{fill:#A5A8AF;}
	.st8{fill-rule:evenodd;clip-rule:evenodd;fill:#C4F0F6;}
	.st9{fill:#FEA832;}
	.st10{fill-rule:evenodd;clip-rule:evenodd;fill:#CCCCCC;}
	.st11{fill-rule:evenodd;clip-rule:evenodd;fill:#FFD400;}
	.st12{fill-rule:evenodd;clip-rule:evenodd;fill:#FEA832;}
	.st13{fill-rule:evenodd;clip-rule:evenodd;fill:#2A4A68;}
	.st14{fill-rule:evenodd;clip-rule:evenodd;fill:#1F364D;}
	.st15{fill-rule:evenodd;clip-rule:evenodd;fill:#B0D8DD;}
	.st16{fill:#FDD835;}
	.st17{opacity:0.5;fill:#FFFFFF;enable-background:new    ;}
	.st18{fill:#F39E09;}
	.st19{fill:#E88102;}
	.st20{fill:#DB6704;}
	.st21{opacity:0.25;fill:#FFFFFF;enable-background:new    ;}
</style>
<g>
	<g>
		<path class="st0" d="M65.4,214.4H246c0-43.9,6.9-76.4-41.3-80.6c-2.3-0.2-4.2-1.5-5.2-3.6c-1-2.1-0.8-4.4,0.6-6.3l8.1-11.4
			c1.4-2,1.6-4.4,0.4-6.6c-1.1-2.2-3.2-3.4-5.6-3.4h-58.1c-41.1,0-79.4,26.2-79.4,70.3L65.4,214.4L65.4,214.4z"/>
		<path class="st1" d="M81.3,198.6h149c8.7,0,15.9,7.1,15.9,15.9v20.2c0,8.7-7.1,15.9-15.9,15.9h-149c-8.7,0-15.8-7.1-15.8-15.9
			v-20.2C65.4,205.7,72.5,198.6,81.3,198.6z"/>
		<path class="st2" d="M120.2,276.4h71.4v27.8c0,13.7,7.5,25.4,19.9,31.1C245,351,292,354.7,292,398.1v107.6c0,3.5-2.8,6.3-6.3,6.3
			l0,0H26.2c-3.5,0-6.4-2.8-6.4-6.3V398.1c0-43.4,47.1-47,80.5-62.6c12.4-5.8,19.8-17.5,19.8-31.1L120.2,276.4L120.2,276.4z"/>
		<path class="st3" d="M120.2,276.4h71.4v27.8c0,4.9,1,9.6,2.8,13.8v36.7h-77v-36.7c1.8-4.2,2.8-8.9,2.8-13.8V276.4z"/>
		<path class="st1" d="M120.2,276.4h71.4v27.8c0,2.1,0.2,4.2,0.5,6.1c-10.8,5.7-22.8,8.6-34.9,8.6h-3c-12.4,0-24.2-3-34.6-8.4
			c0.4-2.1,0.5-4.2,0.5-6.4L120.2,276.4L120.2,276.4z"/>
		<path class="st3" d="M170.8,171.2l8.8,5.9c4.6,3.1,9.5,4.6,15.1,4.6h5.1c10.8,0,19.6,8.8,19.6,19.6v42.6
			c0,34.2-27.9,62.1-62.1,62.1h-3c-34.2,0-62.1-28-62.1-62.1v-42.6c0-10.8,8.8-19.6,19.6-19.6h5.2c5.6,0,10.4-1.4,15.1-4.6l8.8-5.9
			C150,164.9,161.5,164.9,170.8,171.2z"/>
		<path class="st4" d="M155.9,382.6l-16.2,22l-18.7,87l2.5,20.4h64.7l2.5-20.4l-18.6-87L155.9,382.6z"/>
		<path class="st5" d="M193.3,352.3l-21.1,52.4h-32.4l-21.1-52.4h37.3H193.3z"/>
		<path class="st4" d="M101.7,334.8c7.2-3.7,12.7-9.6,15.7-16.7l33.1,34.2l-41.8,39.2L101.7,334.8z M210.1,334.8
			c-7.3-3.7-12.7-9.6-15.7-16.7l-33.1,34.2l41.8,39.2L210.1,334.8z"/>
		<path class="st6" d="M36,512V386.1c0-12.8,4-22.1,10.7-29.3c-15.5,8.3-26.8,20-26.8,41.2v107.6c0,3.5,2.9,6.3,6.4,6.3L36,512
			L36,512z"/>
	</g>
	<path class="st7" d="M71,512v-53.5c0-4.6,3.7-8.2,8.2-8.2s8.3,3.7,8.3,8.2V512H71z M224.4,512v-53.5c0-4.6,3.7-8.2,8.2-8.2
		c4.6,0,8.3,3.7,8.3,8.2V512H224.4z"/>
	<path class="st8" d="M295,77.4h135.7c10.6,0,19.2,8.7,19.2,19.2v83.6c0,10.5-8.6,19.2-19.2,19.2h-52.9c-1.5,0-2.7,0.5-3.8,1.4
		L332.1,238c-1.8,1.5-4.1,1.9-6.2,0.9c-2.1-0.9-3.4-2.9-3.4-5.2v-28.5c0-3.2-2.6-5.8-5.8-5.8H295c-10.5,0-19.2-8.6-19.2-19.2V96.6
		C275.8,86,284.5,77.4,295,77.4L295,77.4z"/>
	<path class="st9" d="M419.3,378.1v-58.3c0-1.2-0.5-2.2-1.3-3c-0.8-0.8-1.8-1.2-3-1.2h-66.7c-1.2,0-2.2,0.5-3,1.2
		c-0.8,0.8-1.2,1.9-1.2,3v58.3h-23.8v-58.3c0-7.7,3.1-14.8,8.2-19.8c5.1-5.1,12.1-8.2,19.8-8.2H415c7.7,0,14.7,3.1,19.8,8.2
		c5.1,5.1,8.2,12.1,8.2,19.8v58.3H419.3z"/>
	<path class="st4" d="M278.4,400.2h206.6v99.3c0,6.9-5.8,12.4-13,12.4H291.3c-7.1,0-13-5.6-13-12.4L278.4,400.2L278.4,400.2z"/>
	<path class="st5" d="M282,413.6l98.1,12.2c1,0.1,2,0.1,3.1,0l98-12.2c6.3-0.8,10.9-6.1,10.9-12.4v-45.4c0-6.9-5.6-12.5-12.5-12.5
		H283.6c-6.9,0-12.5,5.6-12.5,12.5v45.4C271.1,407.5,275.8,412.8,282,413.6z"/>
	<path class="st10" d="M336.6,138.9h52.5v18.3c0,6.5-5.3,11.9-11.8,11.9h-28.8c-6.5,0-11.8-5.3-11.8-11.9V138.9z"/>
	<path class="st11" d="M362.9,0c31.8,0,57.6,25.8,57.6,57.6c0,24.3-11.2,33-22.6,46.3c-5.9,6.9-8.8,14.7-8.8,23.8h-52.5
		c0-9.1-2.9-16.9-8.8-23.8c-11.4-13.3-22.6-22.1-22.6-46.3C305.2,25.8,331,0,362.9,0z"/>
	<path class="st9" d="M375.1,45.2c3.2-3.2,8.5-3.2,11.7,0c3.2,3.2,3.2,8.4,0,11.7c0,0,0,0,0,0l-15.7,15.7v59c0,4.6-3.7,8.2-8.2,8.2
		s-8.3-3.7-8.3-8.2v-59l-15.7-15.7c-3.2-3.2-3.2-8.5,0-11.7s8.5-3.2,11.7,0l12.3,12.3L375.1,45.2z"/>
	<path class="st12" d="M375.1,400.2h13c3.1,0,5.7,2.5,5.7,5.7v33.3c0,3.1-2.5,5.7-5.7,5.7h-13c-3.1,0-5.7-2.5-5.7-5.7v-33.3
		C369.5,402.8,372,400.2,375.1,400.2L375.1,400.2z"/>
	<path class="st4" d="M334.9,145.4h55.8c6,0,10.9-4.9,10.9-10.8s-4.9-10.8-10.9-10.8h-55.8c-6,0-10.8,4.9-10.8,10.8
		C324.1,140.5,329,145.4,334.9,145.4z"/>
	<path class="st13" d="M289.8,499.5v-85l-7.8-1c-1.3-0.2-2.5-0.5-3.7-1v87c0,5.8,4.1,10.6,9.6,12c1.1,0.3,2.2,0.4,3.3,0.4h11.5
		c-4.5,0-8.5-2.2-10.8-5.6C290.6,504.5,289.8,502.1,289.8,499.5L289.8,499.5z"/>
	<path class="st14" d="M278.4,412.5c1.1,0.5,2.4,0.9,3.7,1l2.4,0.3c-1.2-2.1-1.8-4.5-1.8-7.2v-49.8c0-7.5,5.6-13.6,12.5-13.6h-11.5
		c-6.9,0-12.5,5.6-12.5,12.5v45.4C271.1,406.2,274,410.5,278.4,412.5L278.4,412.5z"/>
	<path class="st15" d="M295,77.4h11.1c-10.5,0-19.2,8.7-19.2,19.2v83.6c0,10.5,8.6,19.2,19.2,19.2H295c-10.5,0-19.2-8.6-19.2-19.2
		V96.6C275.8,86,284.4,77.4,295,77.4z M334.2,236.1l-2,1.8c-1.8,1.5-4.1,1.9-6.2,0.9c-2.1-0.9-3.4-2.9-3.4-5.2v-28.5
		c0-3.2-2.6-5.8-5.8-5.8h11.1c3.2,0,5.8,2.6,5.8,5.8v28.5C333.6,234.5,333.8,235.4,334.2,236.1L334.2,236.1z"/>
</g>
<g>
	<path class="st16" d="M101.7,571.6c52.2,0,94.4-42.3,94.4-94.4s-42.3-94.5-94.4-94.5S7.3,425,7.3,477.1S49.6,571.6,101.7,571.6z"/>
	<path class="st17" d="M101.7,382.6c-52.2,0-94.4,42.3-94.4,94.4s42.3,94.4,94.4,94.4s94.4-42.3,94.4-94.4
		C196.3,424.9,154,382.6,101.7,382.6z M101.7,567.6c-50,0-90.4-40.4-90.4-90.4s40.5-90.3,90.4-90.3s90.4,40.4,90.4,90.4
		C192.2,527.2,151.7,567.6,101.7,567.6z"/>
	<path class="st17" d="M139.5,390.4L15.1,514.9c-4.2-9.8-6.7-20.2-7.6-30.8l101.2-101.2C119.5,383.7,130,386.3,139.5,390.4z
		 M184.1,430.8L55.4,559.4c-8-4.6-15.3-10.1-21.6-16.7l133.7-133.4C174,415.4,179.6,422.8,184.1,430.8z M163.5,405.6L30.2,538.9
		c-2.1-2.5-4.1-4.9-5.9-7.6L156,399.7C158.6,401.5,161.1,403.6,163.5,405.6z M193.3,453.5L78.2,568.6c-3.5-0.8-7-2.1-10.3-3.3
		l122-122C191.4,446.7,192.5,450.1,193.3,453.5z"/>
	<path class="st17" d="M178.6,481.2c0,40.9-33.2,74.1-74.1,74.1c-22.9,0-43.5-10.5-57.1-26.9c13.6,14.6,32.9,23.7,54.4,23.7
		c40.9,0,74.1-33.2,74.1-74.1c0-17.8-6.3-34.4-17-47.1C171.1,444.2,178.6,461.9,178.6,481.2z"/>
	<path class="st18" d="M101.7,552.2c40.9,0,74.1-33.2,74.1-74.1s-33.2-74.1-74.1-74.1s-74.1,33.2-74.1,74.1S60.8,552.2,101.7,552.2z
		"/>
	<path class="st19" d="M157.9,429.8C144.9,418.6,128,412,109.6,412c-40.9,0-74.1,33.2-74.1,74.1c0,18.4,6.7,35.3,17.8,48.3
		c-15.7-13.6-25.7-33.7-25.7-56.1c0-40.9,33.2-74.1,74.1-74.1C124.2,404.1,144.3,414,157.9,429.8z"/>
	<path class="st20" d="M138.2,434.1v-5.8l-6.7,5.8H70.3l-4.6,13.7v5.8h19.5c6.2,0.2,10.3,2.6,12.4,7.2H69.6l-3.9,9.4v5.8h32.5
		c-2.1,6.3-6.4,9.6-13.4,9.6H67.7l0.1,13.9l33.2,39.6h27.2v-5.8l-4.9-1.2l-24.5-30.1c7.4-2.3,13.1-5.4,17.1-9.8
		c4.1-4.2,6.6-9.7,7.7-16.4h10.5l3.9-15.2v-5.8l-5.6,5.8h-8.8c-0.6-4.2-2.1-8.1-4.1-11.5h14.7L138.2,434.1z"/>
	<path class="st16" d="M134.2,443.6h-14.7c2.1,3.5,3.5,7.2,4.1,11.5h14.5l-3.9,15.2h-10.5c-1.1,6.7-3.8,12.1-7.7,16.4
		c-4.1,4.2-9.8,7.5-17.1,9.8l29.2,36v1.1H101l-33.2-39.6L67.7,480h16.9c7-0.2,11.3-3.4,13.4-9.6H65.5l3.9-15.2h27.9
		c-2.1-4.6-6.2-7-12.4-7.2H65.5l4.6-19.5h68.1L134.2,443.6z"/>
	<path class="st17" d="M69.4,455h5.6l-7.5,7.5L69.4,455z M101.7,428.2l-19.5,19.5H65.5l4.6-19.5H101.7z M134.2,443.6h-1.1l1.5-1.5
		L134.2,443.6z M138.1,455l-3.9,15.2h-10.6c-1.1,6.7-3.8,12.1-7.7,16.4c-4.1,4.2-9.7,7.5-17.1,9.8l8.9,11L92.2,523l-17.5-20.9
		l48.8-48.8c0.1,0.6,0.3,1.2,0.3,1.8L138.1,455z M84.6,479.9c2.1-0.1,3.9-0.3,5.6-1L71,498.1l-3.5-4.2l-0.1-5.7l8.2-8.2L84.6,479.9
		L84.6,479.9z M138.2,428.2l-1,3.8l-11.5,11.6h-6.2c0.8,1.2,1.5,2.6,2.1,4.1l-24.2,24.2c0.3-0.5,0.3-1,0.6-1.5H85.5l42-42
		L138.2,428.2L138.2,428.2z M121.9,525l-8.5,8.6h-12.7l-0.3-0.3l15.4-15.4L121.9,525z"/>
	<path class="st21" d="M163.5,437.2C115.6,454,77.1,491,58.3,538c-1.7-1.2-3.3-2.5-4.8-3.8c-11.1-12.9-17.8-29.9-17.8-48.3
		c0-40.9,33.2-74.1,74.1-74.1c18.4,0,35.3,6.7,48.3,17.8C159.9,432.1,161.9,434.6,163.5,437.2z"/>
</g>
</svg>
