<svg width="28" height="28" viewBox="0 0 28 28" fill="none" xmlns="http://www.w3.org/2000/svg">
<path d="M21.0592 13.283V24.6769C21.0592 25.7045 20.2878 26.6052 19.2629 26.6755C18.9868 26.6958 18.7095 26.6563 18.45 26.5596C18.1905 26.463 17.955 26.3115 17.7594 26.1155C17.5793 25.9358 17.4367 25.7222 17.3397 25.4871C17.2426 25.252 17.1932 25 17.1941 24.7456V12.2491H20.0258C20.5964 12.2491 21.0592 12.7119 21.0592 13.283Z" fill="#FD982E"/>
<path d="M18.5434 2.11744V21.3091C18.5434 21.7491 18.1868 22.1052 17.7472 22.1052H3.27125C3.0601 22.1052 2.85759 22.0213 2.70828 21.872C2.55898 21.7227 2.4751 21.5202 2.4751 21.3091V2.11744C2.4751 1.67789 2.83117 1.32129 3.27125 1.32129H17.7472C18.1868 1.32129 18.5434 1.67789 18.5434 2.11744Z" fill="#DEDDFF"/>
<path d="M4.08764 22.1036H3.26877C2.83028 22.1036 2.47632 21.7496 2.47632 21.3111V2.11793C2.47632 1.67944 2.83028 1.32019 3.26877 1.32019H4.08764C3.64915 1.32019 3.2899 1.67944 3.2899 2.11793V21.3111C3.2899 21.7496 3.64915 22.1036 4.08764 22.1036Z" fill="#C6C6F7"/>
<path d="M10.9434 13.6819C10.9434 13.5942 10.9085 13.5101 10.8465 13.4481C10.7845 13.386 10.7004 13.3512 10.6127 13.3512H5.77237C5.68466 13.3512 5.60054 13.386 5.53851 13.4481C5.47649 13.5101 5.44165 13.5942 5.44165 13.6819C5.44165 13.7696 5.47649 13.8537 5.53851 13.9158C5.60054 13.9778 5.68466 14.0126 5.77237 14.0126H10.6127C10.7955 14.0126 10.9434 13.8647 10.9434 13.6819Z" fill="#46CC6B"/>
<path d="M9.5276 14.0143H5.77348C5.68528 14.0143 5.60069 13.9792 5.53832 13.9168C5.47596 13.8545 5.44092 13.7699 5.44092 13.6817C5.44092 13.5935 5.47596 13.5089 5.53832 13.4465C5.60069 13.3842 5.68528 13.3491 5.77348 13.3491H9.5276C9.44169 13.3525 9.36044 13.3891 9.30087 13.4511C9.2413 13.5131 9.20802 13.5957 9.20802 13.6817C9.20802 13.7677 9.2413 13.8503 9.30087 13.9123C9.36044 13.9743 9.44169 14.0108 9.5276 14.0143Z" fill="#179C5F"/>
<path d="M19.1246 26.6798H3.24491C2.99099 26.6799 2.73953 26.63 2.50495 26.5327C2.27038 26.4355 2.05729 26.293 1.87791 26.1132C1.69853 25.9335 1.55638 25.7201 1.45961 25.4854C1.36284 25.2506 1.31335 24.9991 1.31397 24.7451V13.8415C1.31397 13.4025 1.67057 13.0459 2.11012 13.0459H7.78197C8.02499 13.0459 8.25374 13.1568 8.40537 13.346L9.43556 14.6403C9.58665 14.8305 9.81593 14.9409 10.0584 14.9409H16.398C16.8381 14.9409 17.1947 15.297 17.1947 15.7371V24.7457C17.1947 25.283 17.4097 25.7653 17.76 26.115C17.939 26.2946 18.1518 26.437 18.3861 26.5341C18.6204 26.6311 18.8716 26.6808 19.1251 26.6803L19.1246 26.6798Z" fill="#FCB73E"/>
<path d="M5.16416 26.6798H3.24642C2.99248 26.6802 2.74096 26.6305 2.50629 26.5334C2.27163 26.4364 2.05845 26.2939 1.87898 26.1143C1.69952 25.9346 1.55731 25.7213 1.46051 25.4865C1.36372 25.2517 1.31425 25.0001 1.31495 24.7462V13.842C1.31495 13.4025 1.67155 13.0459 2.1111 13.0459H4.02884C3.58982 13.0459 3.23321 13.4025 3.23321 13.842V24.7462C3.23321 25.2814 3.4477 25.7648 3.79691 26.114C3.97616 26.2938 4.18929 26.4364 4.42396 26.5334C4.65864 26.6305 4.91021 26.6806 5.16416 26.6798Z" fill="#FD982E"/>
<path d="M15.5771 10.3457C15.5771 10.3023 15.5686 10.2593 15.5519 10.2192C15.5353 10.179 15.511 10.1426 15.4803 10.1119C15.4495 10.0812 15.4131 10.0568 15.373 10.0402C15.3328 10.0236 15.2898 10.015 15.2464 10.015H5.77237C5.68466 10.015 5.60054 10.0499 5.53851 10.1119C5.47649 10.1739 5.44165 10.258 5.44165 10.3457C5.44165 10.4334 5.47649 10.5176 5.53851 10.5796C5.60054 10.6416 5.68466 10.6764 5.77237 10.6764H15.2464C15.4292 10.6764 15.5771 10.5285 15.5771 10.3457Z" fill="#E83D62"/>
<path d="M7.7238 10.678H5.77331C5.68842 10.6732 5.60858 10.6361 5.55018 10.5744C5.49177 10.5126 5.45923 10.4308 5.45923 10.3457C5.45923 10.2607 5.49177 10.1789 5.55018 10.1171C5.60858 10.0553 5.68842 10.0182 5.77331 10.0134H7.7238C7.63567 10.0134 7.55115 10.0484 7.48883 10.1108C7.42651 10.1731 7.3915 10.2576 7.3915 10.3457C7.3915 10.4339 7.42651 10.5184 7.48883 10.5807C7.55115 10.643 7.63567 10.678 7.7238 10.678Z" fill="#CE2955"/>
<path d="M10.9434 11.8603C10.9432 11.7727 10.9083 11.6887 10.8463 11.6268C10.7843 11.5649 10.7003 11.5302 10.6127 11.5302H5.77237C5.68466 11.5302 5.60054 11.565 5.53851 11.627C5.47649 11.689 5.44165 11.7732 5.44165 11.8609C5.44165 11.9486 5.47649 12.0327 5.53851 12.0947C5.60054 12.1567 5.68466 12.1916 5.77237 12.1916H10.6127C10.7955 12.1916 10.9434 12.0431 10.9434 11.8603Z" fill="#65B9FF"/>
<path d="M7.93881 12.1911H5.77331C5.72988 12.1911 5.68687 12.1826 5.64674 12.166C5.60662 12.1494 5.57017 12.125 5.53948 12.0943C5.5088 12.0636 5.48449 12.0271 5.46796 11.9869C5.45142 11.9468 5.44298 11.9038 5.44312 11.8603C5.44312 11.6775 5.58998 11.5302 5.77331 11.5302H7.93934C7.85185 11.5306 7.76805 11.5655 7.70614 11.6273C7.64422 11.6891 7.60918 11.7728 7.60863 11.8603C7.60863 12.0437 7.75972 12.1911 7.93881 12.1911Z" fill="#3E7FFF"/>
<path d="M13.916 13.6819C13.916 13.6385 13.9074 13.5955 13.8908 13.5554C13.8742 13.5152 13.8498 13.4788 13.8191 13.4481C13.7884 13.4174 13.7519 13.393 13.7118 13.3764C13.6717 13.3598 13.6287 13.3512 13.5853 13.3512H11.9301C11.8424 13.3512 11.7583 13.386 11.6962 13.4481C11.6342 13.5101 11.5994 13.5942 11.5994 13.6819C11.5994 13.7696 11.6342 13.8537 11.6962 13.9158C11.7583 13.9778 11.8424 14.0126 11.9301 14.0126H13.5853C13.768 14.0126 13.916 13.8647 13.916 13.6819Z" fill="#E83D62"/>
<path d="M12.8499 14.0126H11.9291C11.8459 14.006 11.7684 13.9683 11.7118 13.907C11.6552 13.8457 11.6238 13.7653 11.6238 13.6819C11.6238 13.5985 11.6552 13.5182 11.7118 13.4569C11.7684 13.3956 11.8459 13.3578 11.9291 13.3512H12.8494C12.7663 13.3578 12.6887 13.3956 12.6321 13.4569C12.5755 13.5182 12.5441 13.5985 12.5441 13.6819C12.5441 13.7653 12.5755 13.8457 12.6321 13.907C12.6887 13.9683 12.7668 14.006 12.8499 14.0126Z" fill="#CE2955"/>
<path d="M17.0166 13.6819C17.0166 13.6384 17.008 13.5954 16.9914 13.5552C16.9747 13.5151 16.9503 13.4786 16.9195 13.4479C16.8888 13.4172 16.8523 13.3928 16.8121 13.3762C16.7719 13.3596 16.7288 13.3511 16.6853 13.3512H15.0302C14.9425 13.3512 14.8583 13.386 14.7963 13.4481C14.7343 13.5101 14.6995 13.5942 14.6995 13.6819C14.6995 13.7696 14.7343 13.8537 14.7963 13.9158C14.8583 13.9778 14.9425 14.0126 15.0302 14.0126H16.6853C16.8681 14.0126 17.0166 13.8647 17.0166 13.6819Z" fill="#65B9FF"/>
<path d="M15.9521 14.0126H15.0292C14.946 14.006 14.8685 13.9683 14.8119 13.907C14.7553 13.8457 14.7239 13.7653 14.7239 13.6819C14.7239 13.5985 14.7553 13.5182 14.8119 13.4569C14.8685 13.3956 14.946 13.3579 15.0292 13.3512H15.9521C15.9086 13.351 15.8655 13.3594 15.8252 13.3759C15.785 13.3925 15.7484 13.4168 15.7176 13.4476C15.6868 13.4783 15.6624 13.5148 15.6458 13.5551C15.6292 13.5953 15.6208 13.6384 15.6209 13.6819C15.6209 13.8652 15.7688 14.0126 15.9521 14.0126Z" fill="#3E7FFF"/>
<path d="M7.16494 2.59651V8.46278C7.16494 8.48852 7.15987 8.514 7.15002 8.53778C7.14017 8.56156 7.12573 8.58317 7.10753 8.60137C7.08933 8.61957 7.06772 8.63401 7.04394 8.64386C7.02016 8.65371 6.99468 8.65878 6.96894 8.65878H5.51558C5.4636 8.65878 5.41374 8.63813 5.37699 8.60137C5.34023 8.56461 5.31958 8.51476 5.31958 8.46278V2.59651C5.31958 2.48821 5.40728 2.40051 5.51505 2.40051H6.96894C7.07724 2.40051 7.16494 2.48874 7.16494 2.59651Z" fill="#46CC6B"/>
<path d="M5.952 8.65878H5.51615C5.49028 8.65892 5.46463 8.65393 5.4407 8.64411C5.41676 8.63429 5.395 8.61983 5.37669 8.60156C5.35837 8.58329 5.34385 8.56157 5.33396 8.53766C5.32408 8.51375 5.31902 8.48812 5.31909 8.46225V2.59704C5.31909 2.48768 5.40679 2.40051 5.51615 2.40051H5.952C5.92624 2.40051 5.90073 2.4056 5.87695 2.41549C5.85316 2.42538 5.83157 2.43987 5.8134 2.45814C5.79524 2.4764 5.78086 2.49807 5.7711 2.52191C5.76134 2.54575 5.75639 2.57128 5.75653 2.59704V8.46225C5.75639 8.48801 5.76134 8.51354 5.7711 8.53738C5.78086 8.56122 5.79524 8.58289 5.8134 8.60115C5.83157 8.61942 5.85316 8.63391 5.87695 8.6438C5.90073 8.65369 5.92624 8.65878 5.952 8.65878Z" fill="#179C5F"/>
<path d="M10.0097 5.25337V8.46281C10.0097 8.51479 9.98906 8.56464 9.9523 8.6014C9.91554 8.63816 9.86569 8.65881 9.81371 8.65881H8.35982C8.30784 8.65881 8.25798 8.63816 8.22123 8.6014C8.18447 8.56464 8.16382 8.51479 8.16382 8.46281V5.25337C8.16382 5.14507 8.25152 5.05737 8.35982 5.05737H9.81371C9.92201 5.05737 10.0097 5.14507 10.0097 5.25337Z" fill="#E83D62"/>
<path d="M8.7962 8.65885H8.36088C8.335 8.65899 8.30936 8.654 8.28542 8.64418C8.26149 8.63436 8.23973 8.6199 8.22141 8.60163C8.20309 8.58336 8.18857 8.56164 8.17869 8.53773C8.1688 8.51382 8.16375 8.48819 8.16382 8.46232V5.25341C8.16382 5.14564 8.25152 5.05688 8.36088 5.05688H8.79672C8.74464 5.05716 8.69476 5.07794 8.65788 5.11472C8.621 5.1515 8.60008 5.20133 8.59967 5.25341V8.46232C8.59967 8.57168 8.68842 8.65885 8.7962 8.65885Z" fill="#CE2955"/>
<path d="M12.8547 4.25598V8.46284C12.8547 8.48863 12.8496 8.51416 12.8397 8.53797C12.8298 8.56179 12.8153 8.58342 12.7971 8.60162C12.7788 8.61983 12.7572 8.63426 12.7333 8.64408C12.7095 8.6539 12.6839 8.65891 12.6581 8.65884H11.2053C11.1795 8.65891 11.154 8.6539 11.1301 8.64408C11.1063 8.63426 11.0846 8.61983 11.0664 8.60162C11.0481 8.58342 11.0336 8.56179 11.0238 8.53797C11.0139 8.51416 11.0088 8.48863 11.0088 8.46284V4.25598C11.0088 4.14715 11.0965 4.05945 11.2048 4.05945H12.6581C12.7664 4.05945 12.8547 4.14715 12.8547 4.25598Z" fill="#65B9FF"/>
<path d="M11.6417 8.65885H11.2043C11.1785 8.65885 11.153 8.65376 11.1292 8.64387C11.1054 8.63398 11.0838 8.61949 11.0657 8.60123C11.0475 8.58296 11.0331 8.56129 11.0234 8.53745C11.0136 8.51361 11.0087 8.48808 11.0088 8.46232V4.25493C11.0088 4.20308 11.0294 4.15336 11.066 4.11671C11.1027 4.08005 11.1524 4.05945 11.2043 4.05945H11.6417C11.6159 4.05925 11.5903 4.06415 11.5664 4.07388C11.5425 4.08361 11.5208 4.09797 11.5025 4.11614C11.4841 4.13432 11.4696 4.15594 11.4597 4.17975C11.4497 4.20357 11.4446 4.22912 11.4446 4.25493V8.46232C11.4446 8.57168 11.5323 8.65885 11.6417 8.65885Z" fill="#3E7FFF"/>
<path d="M15.6996 6.24349V8.46235C15.6997 8.48814 15.6947 8.51368 15.6848 8.53752C15.675 8.56136 15.6606 8.58303 15.6424 8.60129C15.6242 8.61954 15.6025 8.63403 15.5787 8.64391C15.5549 8.65379 15.5294 8.65888 15.5036 8.65888H14.0497C13.9978 8.65874 13.9481 8.63803 13.9115 8.60129C13.8748 8.56455 13.8542 8.51477 13.8542 8.46288V6.24401C13.8542 6.13518 13.9414 6.04749 14.0497 6.04749H15.5036C15.6119 6.04749 15.6996 6.13518 15.6996 6.24349Z" fill="#FCB73E"/>
<path d="M14.4861 8.65888H14.0503C14.0245 8.65895 13.9989 8.65392 13.975 8.64406C13.9511 8.63421 13.9294 8.61974 13.9112 8.60148C13.8929 8.58321 13.8784 8.56152 13.8686 8.53764C13.8587 8.51377 13.8537 8.48818 13.8538 8.46235V6.24454C13.8538 6.13518 13.9409 6.04749 14.0503 6.04749H14.4861C14.4603 6.04748 14.4348 6.05259 14.411 6.06252C14.3871 6.07244 14.3655 6.08698 14.3474 6.1053C14.3292 6.12362 14.3148 6.14535 14.3051 6.16925C14.2954 6.19315 14.2905 6.21874 14.2907 6.24454V8.46235C14.2905 8.48811 14.2955 8.51364 14.3052 8.53748C14.315 8.56132 14.3294 8.58299 14.3475 8.60126C14.3657 8.61952 14.3873 8.63401 14.4111 8.6439C14.4349 8.65379 14.4604 8.65888 14.4861 8.65888Z" fill="#E87F21"/>
<path d="M26.6863 12.2291V25.4187C26.6863 25.5843 26.6537 25.7484 26.5903 25.9014C26.5268 26.0544 26.4339 26.1935 26.3168 26.3106C26.1996 26.4277 26.0605 26.5206 25.9075 26.5839C25.7544 26.6473 25.5904 26.6798 25.4247 26.6798H15.8255C15.4911 26.6796 15.1705 26.5467 14.9341 26.3102C14.6977 26.0737 14.5649 25.7531 14.5649 25.4187V12.2291C14.5649 12.0635 14.5974 11.8994 14.6608 11.7464C14.7241 11.5933 14.817 11.4542 14.9341 11.3371C15.0512 11.2199 15.1903 11.127 15.3433 11.0636C15.4963 11.0002 15.6603 10.9675 15.826 10.9675H25.4252C25.5909 10.9675 25.7549 11.0002 25.908 11.0636C26.061 11.127 26.2 11.2199 26.3171 11.3371C26.4342 11.4542 26.5271 11.5933 26.5905 11.7464C26.6538 11.8994 26.6864 12.0635 26.6863 12.2291Z" fill="#5B5E8B"/>
<path d="M17.6307 26.6792H15.826C15.6604 26.6793 15.4964 26.6467 15.3433 26.5834C15.1903 26.52 15.0513 26.4271 14.9341 26.31C14.817 26.1929 14.7241 26.0539 14.6608 25.9008C14.5974 25.7478 14.5649 25.5838 14.5649 25.4182V12.2291C14.5649 12.0635 14.5974 11.8994 14.6608 11.7464C14.7241 11.5933 14.817 11.4542 14.9341 11.3371C15.0512 11.2199 15.1903 11.127 15.3433 11.0636C15.4963 11.0002 15.6603 10.9675 15.826 10.9675H17.6307C17.465 10.9675 17.301 11 17.1479 11.0634C16.9948 11.1268 16.8558 11.2197 16.7386 11.3369C16.6215 11.4541 16.5286 11.5932 16.4653 11.7463C16.402 11.8994 16.3695 12.0634 16.3696 12.2291V25.4182C16.3694 25.5838 16.4019 25.7479 16.4652 25.901C16.5285 26.0541 16.6214 26.1932 16.7385 26.3103C16.8557 26.4275 16.9948 26.5204 17.1478 26.5837C17.3009 26.647 17.465 26.6794 17.6307 26.6792Z" fill="#312E4B"/>
<path d="M25.3317 12.8393V15.7292C25.3317 15.9109 25.1838 16.0588 25.0015 16.0588H16.2491C16.1616 16.0588 16.0776 16.024 16.0157 15.9621C15.9537 15.9002 15.9189 15.8162 15.9189 15.7286V12.8388C15.9189 12.6571 16.0669 12.5092 16.2491 12.5092H25.0015C25.1838 12.5092 25.3317 12.6571 25.3317 12.8393Z" fill="#65B9FF"/>
<path d="M16.9496 16.0588H16.2491C16.2058 16.0588 16.1629 16.0503 16.123 16.0337C16.083 16.0171 16.0467 15.9928 16.0161 15.9622C15.9856 15.9316 15.9613 15.8953 15.9448 15.8553C15.9283 15.8153 15.9199 15.7724 15.9199 15.7292V12.8383C15.9199 12.6566 16.0668 12.5092 16.2491 12.5092H16.9496C16.8623 12.5092 16.7786 12.5438 16.7169 12.6056C16.6551 12.6673 16.6204 12.751 16.6204 12.8383V15.7292C16.6204 15.9114 16.7673 16.0588 16.9496 16.0588Z" fill="#3E7FFF"/>
<path d="M17.0807 19.3174C17.7223 19.3174 18.2424 18.7972 18.2424 18.1556C18.2424 17.514 17.7223 16.9939 17.0807 16.9939C16.4391 16.9939 15.9189 17.514 15.9189 18.1556C15.9189 18.7972 16.4391 19.3174 17.0807 19.3174Z" fill="#DEDDFF"/>
<path d="M20.6256 19.3174C21.2672 19.3174 21.7873 18.7972 21.7873 18.1556C21.7873 17.514 21.2672 16.9939 20.6256 16.9939C19.984 16.9939 19.4639 17.514 19.4639 18.1556C19.4639 18.7972 19.984 19.3174 20.6256 19.3174Z" fill="#DEDDFF"/>
<path d="M24.1698 19.3174C24.8114 19.3174 25.3315 18.7972 25.3315 18.1556C25.3315 17.514 24.8114 16.9939 24.1698 16.9939C23.5282 16.9939 23.0081 17.514 23.0081 18.1556C23.0081 18.7972 23.5282 19.3174 24.1698 19.3174Z" fill="#DEDDFF"/>
<path d="M24.1698 22.5764C24.8114 22.5764 25.3315 22.0563 25.3315 21.4147C25.3315 20.7731 24.8114 20.2529 24.1698 20.2529C23.5282 20.2529 23.0081 20.7731 23.0081 21.4147C23.0081 22.0563 23.5282 22.5764 24.1698 22.5764Z" fill="#DEDDFF"/>
<path d="M20.6256 22.5764C21.2672 22.5764 21.7873 22.0563 21.7873 21.4147C21.7873 20.7731 21.2672 20.2529 20.6256 20.2529C19.984 20.2529 19.4639 20.7731 19.4639 21.4147C19.4639 22.0563 19.984 22.5764 20.6256 22.5764Z" fill="#DEDDFF"/>
<path d="M17.0807 22.5764C17.7223 22.5764 18.2424 22.0563 18.2424 21.4147C18.2424 20.7731 17.7223 20.2529 17.0807 20.2529C16.4391 20.2529 15.9189 20.7731 15.9189 21.4147C15.9189 22.0563 16.4391 22.5764 17.0807 22.5764Z" fill="#DEDDFF"/>
<path d="M24.1698 25.8349C24.8114 25.8349 25.3315 25.3148 25.3315 24.6732C25.3315 24.0316 24.8114 23.5115 24.1698 23.5115C23.5282 23.5115 23.0081 24.0316 23.0081 24.6732C23.0081 25.3148 23.5282 25.8349 24.1698 25.8349Z" fill="#DEDDFF"/>
<path d="M25.2371 25.1292C25.1476 25.3383 24.9988 25.5165 24.809 25.6419C24.6193 25.7672 24.3969 25.8342 24.1694 25.8345C23.9019 25.8339 23.6427 25.741 23.4356 25.5716C23.2286 25.4021 23.0863 25.1663 23.033 24.9041C22.9796 24.6419 23.0183 24.3693 23.1425 24.1324C23.2668 23.8954 23.469 23.7086 23.7151 23.6034C23.3072 24.5528 24.2661 25.537 25.2371 25.1292ZM25.2371 21.8717C25.1476 22.0807 24.9987 22.2588 24.8089 22.3841C24.6191 22.5093 24.3968 22.5762 24.1694 22.5764C23.9019 22.5759 23.6427 22.483 23.4356 22.3135C23.2286 22.144 23.0863 21.9083 23.033 21.6461C22.9796 21.3839 23.0183 21.1113 23.1425 20.8743C23.2668 20.6374 23.469 20.4506 23.7151 20.3454C23.3083 21.2926 24.2629 22.2806 25.2366 21.8711L25.2371 21.8717ZM21.6933 21.8717C21.6037 22.0807 21.4548 22.2588 21.2651 22.3841C21.0753 22.5093 20.853 22.5762 20.6256 22.5764C20.358 22.5759 20.0988 22.483 19.8918 22.3135C19.6847 22.144 19.5425 21.9083 19.4891 21.6461C19.4357 21.3839 19.4744 21.1113 19.5987 20.8743C19.723 20.6374 19.9252 20.4506 20.1712 20.3454C19.7645 21.2926 20.7186 22.2806 21.6928 21.8711L21.6933 21.8717ZM18.1494 21.8717C18.0598 22.0807 17.9109 22.259 17.721 22.3842C17.5311 22.5095 17.3087 22.5763 17.0812 22.5764C16.8137 22.5757 16.5546 22.4828 16.3476 22.3133C16.1407 22.1437 15.9985 21.908 15.9452 21.6458C15.8919 21.3837 15.9306 21.1111 16.0549 20.8742C16.1792 20.6373 16.3814 20.4505 16.6274 20.3454C16.2201 21.2926 17.1747 22.2806 18.1489 21.8711L18.1494 21.8717ZM25.2371 18.6126C25.1476 18.8216 24.9987 18.9997 24.8089 19.125C24.6191 19.2502 24.3968 19.3171 24.1694 19.3173C23.9019 19.3168 23.6427 19.2239 23.4356 19.0544C23.2286 18.8849 23.0863 18.6492 23.033 18.387C22.9796 18.1248 23.0183 17.8522 23.1425 17.6152C23.2668 17.3783 23.469 17.1915 23.7151 17.0863C23.3083 18.0341 24.2635 19.022 25.2371 18.6126ZM21.6933 18.6126C21.6037 18.8216 21.4548 18.9997 21.2651 19.125C21.0753 19.2502 20.853 19.3171 20.6256 19.3173C20.358 19.3168 20.0988 19.2239 19.8918 19.0544C19.6847 18.8849 19.5425 18.6492 19.4891 18.387C19.4357 18.1248 19.4744 17.8522 19.5987 17.6152C19.723 17.3783 19.9252 17.1915 20.1712 17.0863C19.7645 18.0341 20.7191 19.022 21.6933 18.6126ZM18.1494 18.6126C18.0598 18.8216 17.9109 18.9999 17.721 19.1251C17.5311 19.2504 17.3087 19.3172 17.0812 19.3173C16.8137 19.3166 16.5546 19.2237 16.3476 19.0542C16.1407 18.8846 15.9985 18.6489 15.9452 18.3867C15.8919 18.1246 15.9306 17.852 16.0549 17.6151C16.1792 17.3782 16.3814 17.1914 16.6274 17.0863C16.2201 18.0341 17.1752 19.022 18.1494 18.6126Z" fill="#C6C6F7"/>
<path d="M21.7873 24.6727C21.7869 24.9737 21.6698 25.2628 21.4606 25.4792C21.2514 25.6955 20.9665 25.8223 20.6657 25.8329V25.8345H17.0812C16.7731 25.8345 16.4776 25.7121 16.2597 25.4942C16.0418 25.2763 15.9194 24.9808 15.9194 24.6727C15.9194 24.3646 16.0418 24.0691 16.2597 23.8513C16.4776 23.6334 16.7731 23.511 17.0812 23.511H20.6657V23.512C20.9666 23.5225 21.2516 23.6493 21.4608 23.8658C21.6699 24.0824 21.7868 24.3717 21.7868 24.6727H21.7873Z" fill="#E83D62"/>
<path d="M17.9111 25.8339H17.0816C16.7736 25.8339 16.4782 25.7116 16.2604 25.4937C16.0425 25.2759 15.9202 24.9805 15.9202 24.6725C15.9202 24.3644 16.0425 24.069 16.2604 23.8512C16.4782 23.6334 16.7736 23.511 17.0816 23.511H17.9111C17.603 23.511 17.3075 23.6334 17.0896 23.8513C16.8717 24.0691 16.7493 24.3646 16.7493 24.6727C16.7493 24.9808 16.8717 25.2763 17.0896 25.4942C17.3075 25.7121 17.603 25.8339 17.9111 25.8339Z" fill="#CE2955"/>
</svg>
