<svg width="30" height="30" viewBox="0 0 30 30" fill="none" xmlns="http://www.w3.org/2000/svg">
<path d="M19.2188 7.96875L20.5371 4.99805C20.9004 4.17773 21.0938 3.28711 21.0938 2.38477C21.0938 1.58203 20.4434 0.9375 19.6465 0.9375C19.0957 0.9375 18.5977 1.24805 18.3516 1.74023L18.0937 2.25586C17.9238 2.5957 17.5781 2.8125 17.1973 2.8125C16.7344 2.8125 16.3359 2.49609 16.2246 2.05078L16.1719 1.8457C16.0312 1.3125 15.5508 0.9375 15 0.9375C14.4492 0.9375 13.9688 1.3125 13.834 1.8457L13.7812 2.05078C13.6699 2.49609 13.2656 2.8125 12.8086 2.8125C12.4277 2.8125 12.082 2.5957 11.9121 2.25586L11.6543 1.74023C11.4082 1.24805 10.9102 0.9375 10.3594 0.9375C9.55664 0.9375 8.90625 1.58789 8.90625 2.38477C8.90625 3.28125 9.09375 4.17188 9.46289 4.99805L10.7812 7.96875" fill="#F0AE42"/>
<path d="M14.5313 3.28125H15.4688V8.4375H14.5313V3.28125ZM16.2246 8.2207L18.334 4.00195L19.1719 4.41797L17.0625 8.63672L16.2246 8.2207ZM10.8223 4.42969L11.6602 4.00781L13.7227 8.12695L12.8848 8.54883L10.8223 4.42969Z" fill="#F9D266"/>
<path d="M18.75 9.84375L21.832 13.4355C23.4727 15.3516 24.375 17.7949 24.375 20.3145C24.375 22.9277 23.4082 25.4473 21.6621 27.3867C20.7012 28.4531 19.3359 29.0625 17.9062 29.0625H12.0937C10.6641 29.0625 9.29883 28.4531 8.33789 27.3926C6.5918 25.4473 5.625 22.9277 5.625 20.3203C5.625 17.7949 6.52734 15.3574 8.16797 13.4414L11.25 9.84375" fill="#F3A748"/>
<path d="M10.7812 7.96875H19.2188C19.7344 7.96875 20.1562 8.39062 20.1562 8.90625C20.1562 9.42188 19.7344 9.84375 19.2188 9.84375H10.7812C10.2656 9.84375 9.84375 9.42188 9.84375 8.90625C9.84375 8.39062 10.2656 7.96875 10.7812 7.96875Z" fill="#D5883E"/>
<path d="M14.8594 25.1426C17.5809 25.1426 19.7871 22.9364 19.7871 20.2148C19.7871 17.4933 17.5809 15.2871 14.8594 15.2871C12.1379 15.2871 9.93164 17.4933 9.93164 20.2148C9.93164 22.9364 12.1379 25.1426 14.8594 25.1426Z" fill="#FDD835"/>
<path opacity="0.5" d="M14.8594 15.2871C12.1406 15.2871 9.93164 17.4961 9.93164 20.2148C9.93164 22.9336 12.1406 25.1426 14.8594 25.1426C17.5781 25.1426 19.7871 22.9336 19.7871 20.2148C19.7871 17.4961 17.5898 15.2871 14.8594 15.2871ZM14.8594 24.9375C12.252 24.9375 10.1426 22.8223 10.1426 20.2207C10.1426 17.6191 12.2578 15.5039 14.8594 15.5039C17.4609 15.5039 19.5762 17.6191 19.5762 20.2207C19.5762 22.8223 17.4668 24.9375 14.8594 24.9375Z" fill="white"/>
<path opacity="0.5" d="M16.8281 15.6973L10.3359 22.1895C10.1133 21.6797 9.97852 21.1406 9.9375 20.5781L15.2168 15.2988C15.791 15.3398 16.3301 15.4746 16.8281 15.6973ZM19.1543 17.8008L12.4453 24.5098C12.0293 24.2754 11.6484 23.9766 11.3145 23.6367L18.2871 16.6699C18.627 16.998 18.9199 17.3789 19.1543 17.8008ZM18.0879 16.4883L11.1328 23.4316C11.0273 23.3027 10.9219 23.1738 10.8223 23.0391L17.6895 16.1719C17.8242 16.2715 17.959 16.377 18.0879 16.4883ZM19.6348 18.9844L13.6289 24.9902C13.4473 24.9434 13.2715 24.8906 13.0957 24.8203L19.4648 18.4512C19.5352 18.627 19.5879 18.8027 19.6348 18.9844Z" fill="white"/>
<path opacity="0.5" d="M18.8672 20.4316C18.8672 22.5645 17.1387 24.2988 15 24.2988C13.7988 24.2988 12.7324 23.7539 12.0234 22.8984C12.7324 23.6602 13.7402 24.1348 14.8594 24.1348C16.9922 24.1348 18.7266 22.4062 18.7266 20.2676C18.7266 19.3301 18.3984 18.4746 17.8418 17.8125C18.4746 18.498 18.8672 19.4121 18.8672 20.4316Z" fill="white"/>
<path d="M14.8594 24.1348C16.9952 24.1348 18.7266 22.4034 18.7266 20.2676C18.7266 18.1318 16.9952 16.4004 14.8594 16.4004C12.7236 16.4004 10.9922 18.1318 10.9922 20.2676C10.9922 22.4034 12.7236 24.1348 14.8594 24.1348Z" fill="#F39E09"/>
<path d="M17.7891 17.7422C17.1152 17.1562 16.2363 16.8047 15.2695 16.8047C13.1367 16.8047 11.4023 18.5332 11.4023 20.6719C11.4023 21.6328 11.7539 22.5176 12.3398 23.1914C11.5195 22.4824 10.998 21.4336 10.998 20.2617C10.998 18.1289 12.7266 16.3945 14.8652 16.3945C16.0312 16.4062 17.0801 16.9219 17.7891 17.7422Z" fill="#E88102"/>
<path d="M16.7578 17.9648V17.6602L16.4062 17.9648H13.2129L12.9727 18.6797V18.9844H13.9922C14.3145 18.9902 14.5312 19.1191 14.6367 19.3535H13.1777L12.9668 19.8457V20.1504H14.666C14.5605 20.4785 14.332 20.6484 13.9629 20.6543H13.0723L13.0781 21.3809L14.8066 23.4492H16.2305V23.1445L15.9727 23.0859L14.6953 21.5156C15.0762 21.3926 15.3809 21.2285 15.5918 21.0059C15.8027 20.7832 15.9375 20.502 15.9961 20.1504H16.5469L16.7578 19.3535V19.0488L16.4707 19.3535H15.9961C15.9609 19.1309 15.8965 18.9316 15.7793 18.7559H16.5469L16.7578 17.9648Z" fill="#DB6704"/>
<path d="M16.5527 18.457H15.7852C15.8906 18.6328 15.9668 18.832 16.002 19.0547H16.7578L16.5469 19.8516H15.9961C15.9375 20.2031 15.8086 20.4844 15.5918 20.707C15.3809 20.9297 15.0879 21.0996 14.6953 21.2168L16.2246 23.0977V23.1504H14.8125L13.084 21.082L13.0781 20.3555H13.9688C14.3262 20.3496 14.5605 20.1797 14.6719 19.8516H12.9727L13.1836 19.0547H14.6426C14.5371 18.8203 14.3145 18.6914 13.998 18.6855H12.9785L13.2188 17.6602H16.7578L16.5527 18.457Z" fill="#FDD835"/>
<path opacity="0.5" d="M13.1719 19.0547H13.459L13.0664 19.4473L13.1719 19.0547ZM14.8594 17.666L13.834 18.6914H12.9668L13.207 17.666H14.8594ZM16.5527 18.457H16.4941L16.5762 18.375L16.5527 18.457ZM16.752 19.0547L16.541 19.8516H15.9902C15.9316 20.2031 15.8027 20.4844 15.5859 20.707C15.375 20.9297 15.082 21.0996 14.6895 21.2168L15.1523 21.791L14.3379 22.6055L13.4355 21.5156L15.9785 18.9727C15.9844 19.002 15.9902 19.0312 15.9902 19.0664L16.752 19.0547ZM13.9629 20.3555C14.0684 20.3555 14.1738 20.3379 14.2617 20.3027L13.2656 21.2988L13.084 21.082V20.7832L13.5176 20.3496H13.9629V20.3555ZM16.7578 17.666L16.7051 17.8594L16.1074 18.457H15.7852C15.8262 18.5215 15.8672 18.5977 15.8906 18.6738L14.6309 19.9336C14.6426 19.9043 14.6484 19.8809 14.6602 19.8516H14.0039L16.1895 17.666H16.7578ZM15.9141 22.7109L15.4687 23.1563H14.8066L14.7891 23.1387L15.5977 22.3301L15.9141 22.7109Z" fill="white"/>
<path opacity="0.25" d="M18.0879 18.1348C15.5918 19.0078 13.5762 20.9414 12.5918 23.3906C12.5039 23.332 12.4219 23.2617 12.3398 23.1973C11.7539 22.5234 11.4023 21.6445 11.4023 20.6777C11.4023 18.5449 13.1309 16.8105 15.2695 16.8105C16.2305 16.8105 17.1152 17.1621 17.7891 17.748C17.8945 17.8711 17.9941 18 18.0879 18.1348Z" fill="white"/>
<path d="M6.16992 19.4766C8.00476 19.4766 9.49219 17.9891 9.49219 16.1543C9.49219 14.3195 8.00476 12.832 6.16992 12.832C4.33509 12.832 2.84766 14.3195 2.84766 16.1543C2.84766 17.9891 4.33509 19.4766 6.16992 19.4766Z" fill="#FDD835"/>
<path opacity="0.5" d="M6.16992 12.832C4.33594 12.832 2.84766 14.3203 2.84766 16.1543C2.84766 17.9883 4.33594 19.4766 6.16992 19.4766C8.00391 19.4766 9.49219 17.9883 9.49219 16.1543C9.49219 14.3203 8.00391 12.832 6.16992 12.832ZM6.16992 19.3418C4.41211 19.3418 2.98828 17.918 2.98828 16.1602C2.98828 14.4023 4.41211 12.9785 6.16992 12.9785C7.92773 12.9785 9.35156 14.4023 9.35156 16.1602C9.35156 17.9121 7.92773 19.3418 6.16992 19.3418Z" fill="white"/>
<path opacity="0.5" d="M7.49414 13.1069L3.11719 17.4839C2.96484 17.1382 2.87695 16.7749 2.84766 16.3999L6.41016 12.8374C6.79102 12.8667 7.16016 12.9604 7.49414 13.1069ZM9.06445 14.5249L4.53516 19.0542C4.25391 18.896 4.00195 18.6968 3.77344 18.4624L8.47852 13.7632C8.70703 13.9858 8.90625 14.2437 9.06445 14.5249ZM8.34375 13.6401L3.65039 18.3276C3.58008 18.2397 3.50977 18.1577 3.43945 18.064L8.07422 13.4292C8.16797 13.4937 8.25586 13.564 8.34375 13.6401ZM9.38672 15.3218L5.33203 19.3765C5.20898 19.3472 5.0918 19.3062 4.97461 19.2651L9.26953 14.9702C9.32227 15.0815 9.35742 15.2046 9.38672 15.3218Z" fill="white"/>
<path opacity="0.5" d="M8.87109 16.3008C8.87109 17.7422 7.70508 18.9082 6.26367 18.9082C5.45508 18.9082 4.73438 18.5391 4.25391 17.9648C4.72852 18.4805 5.41406 18.8027 6.16406 18.8027C7.60547 18.8027 8.77148 17.6367 8.77148 16.1953C8.77148 15.5625 8.54883 14.9883 8.17383 14.5371C8.60742 15 8.87109 15.6152 8.87109 16.3008Z" fill="white"/>
<path d="M6.16992 18.8027C7.60996 18.8027 8.77734 17.6354 8.77734 16.1953C8.77734 14.7553 7.60996 13.5879 6.16992 13.5879C4.72988 13.5879 3.5625 14.7553 3.5625 16.1953C3.5625 17.6354 4.72988 18.8027 6.16992 18.8027Z" fill="#F39E09"/>
<path d="M8.14453 14.4902C7.6875 14.0977 7.0957 13.8574 6.44531 13.8574C5.00391 13.8574 3.83789 15.0234 3.83789 16.4648C3.83789 17.1152 4.07227 17.707 4.4707 18.1641C3.91406 17.6895 3.56836 16.9805 3.56836 16.1895C3.56836 14.748 4.73438 13.582 6.17578 13.582C6.95508 13.5879 7.66406 13.9336 8.14453 14.4902Z" fill="#E88102"/>
<path d="M7.44727 14.6367V14.4316L7.21289 14.6367H5.05664L4.89258 15.1172V15.3223H5.57812C5.79492 15.3281 5.94141 15.416 6.01172 15.5742H5.0332L4.89258 15.9082V16.1133H6.03516C5.96484 16.3359 5.80664 16.4473 5.56055 16.4531H4.96289L4.96875 16.9453L6.13477 18.3398H7.08984V18.1348L6.91992 18.0937L6.05859 17.0332C6.31641 16.9512 6.52148 16.8398 6.66211 16.6875C6.80273 16.5352 6.89648 16.3477 6.9375 16.1133H7.3125L7.45312 15.5801V15.375L7.25977 15.5801H6.94922C6.92578 15.4277 6.87891 15.293 6.80273 15.1758H7.31836L7.44727 14.6367Z" fill="#DB6704"/>
<path d="M7.30664 14.9707H6.79102C6.86133 15.0879 6.91406 15.2227 6.9375 15.375H7.44727L7.30664 15.9082H6.93164C6.89063 16.1426 6.80273 16.3359 6.65625 16.4824C6.51562 16.6348 6.31641 16.7461 6.05273 16.8281L7.08398 18.0937V18.1289H6.12891L4.96289 16.7344L4.95703 16.2422H5.55469C5.79492 16.2363 5.95313 16.125 6.0293 15.9023H4.88672L5.02734 15.3691H6.01172C5.94141 15.2109 5.78906 15.123 5.57812 15.1172H4.89258L5.05664 14.4258H7.45312L7.30664 14.9707Z" fill="#FDD835"/>
<path opacity="0.5" d="M5.02734 15.375H5.2207L4.95703 15.6387L5.02734 15.375ZM6.16992 14.4375L5.47852 15.1289H4.89258L5.05664 14.4375H6.16992ZM7.30664 14.9707H7.26562L7.31836 14.918L7.30664 14.9707ZM7.44141 15.375L7.30078 15.9082H6.92578C6.88477 16.1426 6.79687 16.3359 6.65039 16.4824C6.50977 16.6348 6.31055 16.7461 6.04687 16.8281L6.35742 17.2148L5.80664 17.7656L5.19727 17.0273L6.91406 15.3105C6.91992 15.3281 6.92578 15.3516 6.92578 15.375H7.44141ZM5.56055 16.2539C5.63086 16.2539 5.70117 16.2422 5.75977 16.2187L5.08594 16.8926L4.96289 16.7461V16.5469L5.25586 16.2539H5.56055ZM7.44727 14.4375L7.41211 14.5664L7.00781 14.9707H6.79102C6.82031 15.0176 6.84375 15.0645 6.86133 15.1172L6.01172 15.9668C6.02344 15.9492 6.02344 15.9316 6.0293 15.9141H5.58984L7.06641 14.4375H7.44727ZM6.87305 17.8418L6.57422 18.1406H6.12891L6.11719 18.1289L6.66211 17.584L6.87305 17.8418Z" fill="white"/>
<path opacity="0.25" d="M8.34375 14.7539C6.65625 15.3457 5.30273 16.6465 4.63477 18.2988C4.57617 18.2578 4.52344 18.2109 4.46484 18.1699C4.07227 17.7129 3.83203 17.1211 3.83203 16.4707C3.83203 15.0293 4.99805 13.8633 6.43945 13.8633C7.08984 13.8633 7.68164 14.0977 8.13867 14.4961C8.21484 14.5781 8.2793 14.6602 8.34375 14.7539Z" fill="white"/>
<path d="M23.2266 19.7812C25.0711 19.7812 26.5664 18.286 26.5664 16.4414C26.5664 14.5969 25.0711 13.1016 23.2266 13.1016C21.382 13.1016 19.8867 14.5969 19.8867 16.4414C19.8867 18.286 21.382 19.7812 23.2266 19.7812Z" fill="#FDD835"/>
<path opacity="0.5" d="M23.2266 13.1016C21.3867 13.1016 19.8867 14.5957 19.8867 16.4414C19.8867 18.2871 21.3809 19.7812 23.2266 19.7812C25.0723 19.7812 26.5664 18.2871 26.5664 16.4414C26.5664 14.5957 25.0723 13.1016 23.2266 13.1016ZM23.2266 19.6406C21.4629 19.6406 20.0273 18.2109 20.0273 16.4414C20.0273 14.6719 21.457 13.2422 23.2266 13.2422C24.9961 13.2422 26.4258 14.6719 26.4258 16.4414C26.4258 18.2109 24.9902 19.6406 23.2266 19.6406Z" fill="white"/>
<path opacity="0.5" d="M24.5566 13.3828L20.1621 17.7773C20.0098 17.4316 19.9219 17.0684 19.8926 16.6875L23.4668 13.1133C23.8535 13.1367 24.2227 13.2305 24.5566 13.3828ZM26.1387 14.8066L21.5918 19.3535C21.3105 19.1953 21.0527 18.9961 20.8242 18.7617L25.5469 14.0391C25.7754 14.2617 25.9746 14.5195 26.1387 14.8066ZM25.4121 13.916L20.7012 18.6211C20.6309 18.5332 20.5605 18.4453 20.4902 18.3574L25.1426 13.7051C25.2363 13.7695 25.3242 13.8398 25.4121 13.916ZM26.4609 15.6094L22.3945 19.6758C22.2715 19.6465 22.1543 19.6055 22.0371 19.5645L26.3496 15.252C26.3906 15.3633 26.4258 15.4863 26.4609 15.6094Z" fill="white"/>
<path opacity="0.5" d="M25.9395 16.5879C25.9395 18.0352 24.7676 19.207 23.3203 19.207C22.5059 19.207 21.7852 18.8379 21.3047 18.2578C21.7852 18.7734 22.4648 19.0957 23.2266 19.0957C24.6738 19.0957 25.8457 17.9238 25.8457 16.4766C25.8457 15.8438 25.623 15.2637 25.248 14.8125C25.6758 15.2812 25.9395 15.8965 25.9395 16.5879Z" fill="white"/>
<path d="M23.2266 19.0957C24.6731 19.0957 25.8457 17.9231 25.8457 16.4766C25.8457 15.0301 24.6731 13.8574 23.2266 13.8574C21.78 13.8574 20.6074 15.0301 20.6074 16.4766C20.6074 17.9231 21.78 19.0957 23.2266 19.0957Z" fill="#F39E09"/>
<path d="M25.2129 14.7656C24.7559 14.3672 24.1582 14.1328 23.5078 14.1328C22.0605 14.1328 20.8887 15.3047 20.8887 16.752C20.8887 17.4023 21.123 18 21.5215 18.457C20.9648 17.9766 20.6133 17.2676 20.6133 16.4707C20.6133 15.0234 21.7852 13.8516 23.2324 13.8516C24.0234 13.8574 24.7324 14.209 25.2129 14.7656Z" fill="#E88102"/>
<path d="M24.5156 14.918V14.7129L24.2812 14.918H22.1191L21.9551 15.4043V15.6094H22.6465C22.8633 15.6152 23.0098 15.7031 23.0859 15.8613H22.0898L21.9492 16.1953V16.4004H23.0977C23.0273 16.623 22.8691 16.7402 22.623 16.7402H22.0195L22.0254 17.2324L23.1973 18.6328H24.1523V18.4277L23.9766 18.3867L23.1094 17.3262C23.3672 17.2441 23.5723 17.1328 23.7187 16.9805C23.8594 16.8281 23.9531 16.6406 23.9941 16.4004H24.3691L24.5098 15.8613V15.6563L24.3164 15.8613H24C23.9766 15.709 23.9297 15.5742 23.8535 15.457H24.375L24.5156 14.918Z" fill="#DB6704"/>
<path d="M24.3691 15.252H23.8477C23.918 15.3691 23.9707 15.5098 23.9941 15.6563H24.5039L24.3633 16.1953H23.9883C23.9473 16.4297 23.8594 16.623 23.7129 16.7754C23.5723 16.9277 23.373 17.0391 23.1035 17.1211L24.1406 18.3926V18.4277H23.1855L22.0137 17.0273L22.0078 16.5352H22.6172C22.8574 16.5293 23.0156 16.418 23.0918 16.1953H21.9434L22.084 15.6563H23.0742C23.0039 15.498 22.8516 15.4102 22.6348 15.4043H21.9434L22.1074 14.7129H24.5098L24.3691 15.252Z" fill="#FDD835"/>
<path opacity="0.5" d="M22.084 15.6563H22.2773L22.0137 15.9199L22.084 15.6563ZM23.2266 14.7129L22.5352 15.4043H21.9492L22.1133 14.7129H23.2266ZM24.3691 15.252H24.3281L24.3809 15.1992L24.3691 15.252ZM24.5098 15.6563L24.3691 16.1953H23.9941C23.9531 16.4297 23.8652 16.623 23.7187 16.7754C23.5781 16.9277 23.3789 17.0391 23.1094 17.1211L23.4258 17.5078L22.875 18.0586L22.2656 17.3203L23.9883 15.5977C23.9941 15.6152 24 15.6387 24 15.6621L24.5098 15.6563ZM22.623 16.5352C22.6934 16.5352 22.7637 16.5234 22.8223 16.5L22.1484 17.1738L22.0254 17.0273V16.8281L22.3184 16.5352H22.623ZM24.5156 14.7129L24.4805 14.8477L24.0762 15.252H23.8594C23.8887 15.2988 23.9121 15.3457 23.9297 15.3984L23.0742 16.2539C23.0859 16.2363 23.0859 16.2187 23.0918 16.2012H22.6523L24.1348 14.7187H24.5156V14.7129ZM23.9414 18.1348L23.6426 18.4336H23.1973L23.1855 18.4219L23.7305 17.877L23.9414 18.1348Z" fill="white"/>
<path opacity="0.25" d="M25.4121 15.0293C23.7188 15.6211 22.3594 16.9336 21.6914 18.5918C21.6328 18.5508 21.5801 18.5039 21.5215 18.457C21.123 18 20.8887 17.4023 20.8887 16.752C20.8887 15.3047 22.0605 14.1328 23.5078 14.1328C24.1582 14.1328 24.7559 14.3672 25.2129 14.7656C25.2832 14.8535 25.3477 14.9414 25.4121 15.0293Z" fill="white"/>
</svg>
