<?xml version="1.0" encoding="utf-8"?>
<!-- Generator: Adobe Illustrator 28.0.0, SVG Export Plug-In . SVG Version: 6.00 Build 0)  -->
<svg version="1.1" id="Layer_1" xmlns="http://www.w3.org/2000/svg" xmlns:xlink="http://www.w3.org/1999/xlink" x="0px" y="0px"
	 viewBox="0 0 512 512" style="enable-background:new 0 0 512 512;" xml:space="preserve">
<style type="text/css">
	.st0{fill:url(#SVGID_1_);}
	.st1{fill:url(#SVGID_00000121961641309297255300000011736605588399984001_);}
	.st2{fill:#FDD835;}
	.st3{opacity:0.5;fill:#FFFFFF;enable-background:new    ;}
	.st4{fill:#F39E09;}
	.st5{fill:#E88102;}
	.st6{fill:#DB6704;}
	.st7{opacity:0.25;fill:#FFFFFF;enable-background:new    ;}
</style>
<g>
	
		<linearGradient id="SVGID_1_" gradientUnits="userSpaceOnUse" x1="233.5" y1="-1.3071" x2="233.5" y2="510.6932" gradientTransform="matrix(1 0 0 -1 0 510.6929)">
		<stop  offset="0" style="stop-color:#5558FF"/>
		<stop  offset="1" style="stop-color:#00C0FF"/>
	</linearGradient>
	<path class="st0" d="M376,392V45c0-3.9-1.5-7.8-4.5-10.5l-30-30c-5.7-6-15.3-6-21,0L301,23.7L281.5,4.5c-5.7-6-15.3-6-21,0
		L241,23.7L221.5,4.5c-5.7-6-15.3-6-21,0L181,23.7L161.5,4.5c-5.7-6-15.3-6-21,0L121,23.7L101.5,4.5c-5.7-6-15.3-6-21,0l-30,30
		c-3,2.7-4.5,6.6-4.5,10.5v407c0,33,27,60,60,60h315L376,392z"/>
	
		<linearGradient id="SVGID_00000156579282285759339030000001925767509055593132_" gradientUnits="userSpaceOnUse" x1="286" y1="-1.3071" x2="286" y2="388.6932" gradientTransform="matrix(1 0 0 -1 0 510.6929)">
		<stop  offset="0" style="stop-color:#ADDCFF"/>
		<stop  offset="0.503" style="stop-color:#EAF6FF"/>
		<stop  offset="1" style="stop-color:#EAF6FF"/>
	</linearGradient>
	<path style="fill:url(#SVGID_00000156579282285759339030000001925767509055593132_);" d="M451,392h-75v75c0,24.9,20.1,45,45,45
		c24.3,0,45-19.6,45-45v-60C466,398.6,459.4,392,451,392z M301,272H121c-8.3,0-15,6.7-15,15s6.7,15,15,15h180c8.3,0,15-6.7,15-15
		S309.3,272,301,272z M301,332H121c-8.3,0-15,6.7-15,15s6.7,15,15,15h180c8.3,0,15-6.7,15-15S309.3,332,301,332z M301,392H121
		c-8.3,0-15,6.7-15,15s6.7,15,15,15h180c8.3,0,15-6.7,15-15S309.3,392,301,392z M176.6,237.6l90-90c5.9-5.9,5.9-15.4,0-21.2
		s-15.4-5.9-21.2,0l-90,90c-5.9,5.9-5.9,15.4,0,21.2S170.7,243.5,176.6,237.6L176.6,237.6z M166,152c8.3,0,15-6.7,15-15
		s-6.7-15-15-15s-15,6.7-15,15S157.7,152,166,152z M241,227c0,8.3,6.7,15,15,15s15-6.7,15-15s-6.7-15-15-15S241,218.7,241,227z"/>
</g>
<g>
	<path class="st2" d="M365,274c47.5,0,86-38.5,86-86c0-47.5-38.5-86-86-86s-86,38.5-86,86C279.1,235.5,317.6,274,365,274z"/>
	<path class="st3" d="M365,102.1c-47.5,0-86,38.5-86,86c0,47.5,38.5,86,86,86s86-38.5,86-86C451,140.6,412.6,102.1,365,102.1z
		 M365,270.3c-45.5,0-82.3-36.8-82.3-82.3c0-45.5,36.9-82.2,82.3-82.2s82.3,36.8,82.3,82.3C447.3,233.6,410.5,270.3,365,270.3z"/>
	<path class="st3" d="M399.4,109.2L286.2,222.4c-3.8-8.9-6.1-18.4-6.9-28l92-92C381.2,103.1,390.7,105.5,399.4,109.2z M440,145.9
		L322.9,262.9c-7.3-4.1-13.9-9.2-19.7-15.2l121.5-121.5C430.7,132,435.9,138.6,440,145.9z M421.3,123L300,244.3
		c-1.9-2.2-3.7-4.5-5.4-6.9l119.8-119.7C416.7,119.3,419,121.1,421.3,123z M448.3,166.6L343.6,271.3c-3.2-0.8-6.3-1.8-9.3-3l111-111
		C446.5,160.4,447.5,163.5,448.3,166.6z"/>
	<path class="st3" d="M434.9,191.8c0,37.2-30.2,67.4-67.4,67.4c-20.9,0-39.6-9.5-51.9-24.4c12.3,13.3,29.9,21.7,49.5,21.7
		c37.2,0,67.4-30.2,67.4-67.4c0-16.3-5.8-31.3-15.4-42.9C428.1,158.1,434.9,174.1,434.9,191.8z"/>
	<path class="st4" d="M365,256.3c37.2,0,67.4-30.2,67.4-67.4c0-37.2-30.2-67.4-67.4-67.4s-67.4,30.2-67.4,67.4
		C297.7,226.2,327.8,256.3,365,256.3z"/>
	<path class="st5" d="M416.1,145c-11.8-10.1-27.2-16.3-43.9-16.3c-37.2,0-67.4,30.2-67.4,67.4c0,16.7,6.1,32.1,16.3,43.9
		c-14.3-12.4-23.4-30.7-23.4-51c0-37.2,30.2-67.4,67.4-67.4C385.5,121.6,403.8,130.7,416.1,145z"/>
	<path class="st6" d="M398.1,148.9v-5.3l-6.1,5.3h-55.7l-4.2,12.5v5.3h17.7c5.6,0.2,9.4,2.4,11.3,6.5h-25.4l-3.6,8.5v5.3h29.6
		c-1.8,5.8-5.8,8.7-12.1,8.8h-15.5l0.1,12.7l30.2,36h24.7v-5.3l-4.5-1.1l-22.3-27.3c6.8-2.1,12-5,15.6-8.9c3.7-3.8,6-8.8,7-14.9h9.6
		l3.6-13.8v-5.3l-5.1,5.3h-8.1c-0.5-3.8-1.8-7.4-3.8-10.4h13.4L398.1,148.9z"/>
	<path class="st2" d="M394.5,157.5h-13.4c1.9,3.1,3.2,6.6,3.8,10.4h13.1l-3.6,13.8h-9.6c-1,6.1-3.4,11.1-7,14.9
		c-3.7,3.8-8.9,6.8-15.6,8.9l26.6,32.7v1h-24.7l-30.2-36l-0.1-12.7h15.6c6.3-0.2,10.3-3.1,12.1-8.8H332l3.6-13.8H361
		c-1.9-4.1-5.7-6.3-11.3-6.5h-17.7l4.2-17.8h61.8L394.5,157.5z"/>
	<path class="st3" d="M335.6,167.9h5.1l-6.8,6.8L335.6,167.9z M365,143.6l-17.8,17.8h-15.1l4.2-17.8H365z M394.5,157.5h-1l1.4-1.4
		L394.5,157.5z M398.1,167.9l-3.6,13.8h-9.7c-1,6.1-3.4,11.1-7,14.9c-3.7,3.8-8.8,6.8-15.6,8.9l8.1,10l-14.1,14.2l-15.9-19
		l44.4-44.4c0.1,0.5,0.2,1.1,0.2,1.6L398.1,167.9z M349.4,190.6c1.9-0.1,3.6-0.4,5.1-0.9l-17.4,17.4l-3.2-3.8l-0.1-5.2l7.5-7.5
		H349.4z M398.1,143.6l-0.9,3.4l-10.4,10.5h-5.6c0.8,1.2,1.4,2.4,1.9,3.7l-22,22c0.2-0.5,0.4-0.9,0.5-1.4h-11.4l38.2-38.2H398.1z
		 M383.4,231.6l-7.8,7.8h-11.5l-0.3-0.4l14.1-14.1L383.4,231.6z"/>
	<path class="st7" d="M421.3,151.8c-43.6,15.3-78.7,48.9-95.7,91.6c-1.5-1.1-3-2.2-4.4-3.5c-10.1-11.8-16.3-27.2-16.3-43.9
		c0-37.2,30.2-67.4,67.4-67.4c16.7,0,32.1,6.1,43.9,16.3C418,147.1,419.7,149.4,421.3,151.8z"/>
</g>
</svg>
