<?xml version="1.0" encoding="utf-8"?>
<!-- Generator: Adobe Illustrator 28.0.0, SVG Export Plug-In . SVG Version: 6.00 Build 0)  -->
<svg version="1.1" id="Layer_1" xmlns="http://www.w3.org/2000/svg" xmlns:xlink="http://www.w3.org/1999/xlink" x="0px" y="0px"
	 viewBox="0 0 512 512" style="enable-background:new 0 0 512 512;" xml:space="preserve">
<style type="text/css">
	.st0{fill-rule:evenodd;clip-rule:evenodd;fill:#F0F0F0;}
	.st1{fill-rule:evenodd;clip-rule:evenodd;fill:#E0DFE1;}
	.st2{fill-rule:evenodd;clip-rule:evenodd;fill:#C8C9CD;}
	.st3{fill-rule:evenodd;clip-rule:evenodd;fill:#43A2FF;}
	.st4{fill-rule:evenodd;clip-rule:evenodd;fill:#6CE75A;}
	.st5{fill-rule:evenodd;clip-rule:evenodd;fill:#8F8B81;}
	.st6{fill-rule:evenodd;clip-rule:evenodd;fill:#FFD54F;}
	.st7{fill-rule:evenodd;clip-rule:evenodd;fill:#FFC328;}
	.st8{fill-rule:evenodd;clip-rule:evenodd;fill:#FFB700;}
	.st9{fill:#FDD835;}
	.st10{opacity:0.5;fill:#FFFFFF;enable-background:new    ;}
	.st11{fill:#F39E09;}
	.st12{fill:#E88102;}
	.st13{fill:#DB6704;}
	.st14{opacity:0.25;fill:#FFFFFF;enable-background:new    ;}
</style>
<g>
	<g>
		<path class="st0" d="M383.7,455.6H30.3V93.8l85.3-85.3h268V455.6z"/>
		<path class="st1" d="M30.3,93.8l85.3-85.3v85.3H30.3z"/>
		<path class="st2" d="M336.3,124.9c4.1,0,7.5,3.4,7.5,7.5s-3.4,7.5-7.5,7.5H179.9c-4.1,0-7.5-3.4-7.5-7.5s3.4-7.5,7.5-7.5H336.3z
			 M336.3,378c4.1,0,7.5,3.4,7.5,7.5c0,4.1-3.4,7.5-7.5,7.5H179.9c-4.1,0-7.5-3.4-7.5-7.5s3.4-7.5,7.5-7.5H336.3z M336.3,340
			c4.1,0,7.5,3.4,7.5,7.5c0,4.1-3.4,7.5-7.5,7.5H179.9c-4.1,0-7.5-3.4-7.5-7.5s3.4-7.5,7.5-7.5H336.3z M336.3,270.5
			c4.1,0,7.5,3.4,7.5,7.5c0,4.1-3.4,7.5-7.5,7.5H179.9c-4.1,0-7.5-3.4-7.5-7.5s3.4-7.5,7.5-7.5H336.3z M336.3,232.4
			c4.1,0,7.5,3.4,7.5,7.5s-3.4,7.5-7.5,7.5H179.9c-4.1,0-7.5-3.4-7.5-7.5s3.4-7.5,7.5-7.5H336.3z M336.3,162.9
			c4.1,0,7.5,3.4,7.5,7.5s-3.4,7.5-7.5,7.5H179.9c-4.1,0-7.5-3.4-7.5-7.5s3.4-7.5,7.5-7.5H336.3z"/>
		<path class="st3" d="M72.2,154.7c-2.8-3.1-2.6-7.8,0.5-10.6c3.1-2.8,7.8-2.6,10.6,0.5c0,0,0.1,0.1,0.1,0.1l16,17.8l32.8-38.3
			c2.7-3.1,7.4-3.5,10.5-0.8c3.1,2.7,3.5,7.4,0.8,10.5l-38.1,44.5c-2.5,3.3-7.2,3.9-10.5,1.3c-0.4-0.3-0.7-0.6-1-0.9L72.2,154.7z
			 M72.2,369.8c-2.8-3.1-2.6-7.8,0.5-10.6c3.1-2.8,7.8-2.6,10.6,0.5c0,0,0.1,0.1,0.1,0.1l16,17.8l32.8-38.3
			c2.7-3.1,7.4-3.5,10.5-0.8s3.5,7.4,0.8,10.5l-38.1,44.5c-2.5,3.3-7.2,3.9-10.5,1.3c-0.4-0.3-0.7-0.6-1-0.9L72.2,369.8z
			 M72.2,262.2c-2.8-3.1-2.6-7.8,0.5-10.6c3.1-2.8,7.8-2.6,10.6,0.5c0,0,0.1,0.1,0.1,0.1l16,17.8l32.8-38.3
			c2.7-3.1,7.4-3.5,10.5-0.8c3.1,2.7,3.5,7.4,0.8,10.5l-38.1,44.5c-2.5,3.3-7.2,3.9-10.5,1.3c-0.4-0.3-0.7-0.6-1-0.9L72.2,262.2z"/>
		<path class="st4" d="M183.4,310.8H437c10.3,0,18.8,8.5,18.8,18.8v155.1c0,10.3-8.5,18.8-18.8,18.8H183.4
			c-10.3,0-18.8-8.5-18.8-18.8V329.6C164.5,319.2,173,310.8,183.4,310.8z"/>
		<path class="st5" d="M164.5,371.8h291.3v-23.6H164.5V371.8z"/>
		<path class="st6" d="M198.9,422.8h61.3c1.6,0,2.9,1.3,2.9,2.9v38.6c0,1.6-1.3,2.9-2.9,2.9h-61.3c-1.6,0-2.9-1.3-2.9-2.9v-38.6
			C196,424.1,197.3,422.8,198.9,422.8z"/>
		<path class="st7" d="M198.9,422.8h61.3c1.6,0,2.9,1.3,2.9,2.9V445H196v-19.3C196,424.1,197.3,422.8,198.9,422.8L198.9,422.8z"/>
		<path class="st8" d="M229.6,422.8h30.7c1.6,0,2.9,1.3,2.9,2.9V445h-33.6V422.8z"/>
		<path class="st0" d="M348.6,441.1h71c1.9,0,3.4,1.5,3.4,3.4v19.4c0,1.9-1.5,3.4-3.4,3.4h-71c-1.9,0-3.4-1.5-3.4-3.4v-19.4
			C345.2,442.6,346.7,441.1,348.6,441.1z"/>
	</g>
</g>
<g>
	<path class="st9" d="M382,198.8c42.7,0,77.3-34.6,77.3-77.3c0-42.7-34.6-77.3-77.3-77.3s-77.3,34.6-77.3,77.3
		C304.7,164.2,339.3,198.8,382,198.8z"/>
	<path class="st10" d="M382,44.3c-42.7,0-77.3,34.6-77.3,77.3c0,42.7,34.6,77.3,77.3,77.3s77.3-34.6,77.3-77.3
		C459.2,78.9,424.7,44.3,382,44.3z M382,195.5c-40.9,0-74-33.1-74-74c0-40.9,33.2-73.9,74-73.9s74,33.1,74,74
		C455.9,162.5,422.8,195.5,382,195.5z"/>
	<path class="st10" d="M412.8,50.7L311.1,152.4c-3.5-8-5.5-16.5-6.2-25.2l82.7-82.7C396.5,45.1,405,47.3,412.8,50.7z M449.4,83.6
		L344,188.9c-6.6-3.7-12.5-8.3-17.7-13.7L435.6,66C441,71.1,445.6,77.1,449.4,83.6z M432.5,63.1l-109.1,109c-1.7-2-3.3-4-4.8-6.2
		L426.3,58.3C428.4,59.7,430.5,61.4,432.5,63.1z M456.8,102.3l-94.1,94.1c-2.8-0.7-5.7-1.7-8.4-2.7l99.8-99.8
		C455.2,96.7,456.1,99.4,456.8,102.3z"/>
	<path class="st10" d="M444.8,124.9c0,33.4-27.1,60.6-60.6,60.6c-18.8,0-35.6-8.6-46.7-22c11.1,11.9,26.9,19.5,44.5,19.5
		c33.4,0,60.6-27.1,60.6-60.6c0-14.6-5.2-28.1-13.9-38.5C438.7,94.6,444.8,109,444.8,124.9z"/>
	<path class="st11" d="M382,182.9c33.5,0,60.6-27.1,60.6-60.6c0-33.5-27.1-60.6-60.6-60.6s-60.6,27.1-60.6,60.6
		C321.4,155.8,348.5,182.9,382,182.9z"/>
	<path class="st12" d="M427.9,82.9c-10.6-9.1-24.5-14.6-39.5-14.6c-33.4,0-60.6,27.1-60.6,60.6c0,15.1,5.5,28.9,14.6,39.5
		c-12.8-11.1-21.1-27.6-21.1-45.9c0-33.4,27.1-60.6,60.6-60.6C400.3,61.8,416.8,69.9,427.9,82.9z"/>
	<path class="st13" d="M411.7,86.3v-4.8l-5.5,4.8h-50.1l-3.8,11.3v4.8h15.9c5,0.1,8.4,2.1,10.2,5.9h-22.9l-3.2,7.7v4.8h26.6
		c-1.7,5.2-5.2,7.8-10.9,7.9h-14l0.1,11.4l27.1,32.4h22.2v-4.8l-4-1l-20-24.6c6.1-1.9,10.8-4.5,14-8c3.3-3.5,5.4-7.9,6.3-13.4h8.6
		l3.2-12.4v-4.8l-4.6,4.8h-7.3c-0.5-3.5-1.7-6.6-3.4-9.4h12L411.7,86.3z"/>
	<path class="st9" d="M408.5,94h-12c1.7,2.8,2.8,5.9,3.4,9.4h11.8l-3.2,12.4h-8.6c-0.9,5.5-3,9.9-6.3,13.4c-3.3,3.5-8,6.1-14,8
		l23.9,29.4v0.9h-22.2L354,135.2l-0.1-11.4h14c5.7-0.1,9.3-2.8,10.9-7.9h-26.6l3.2-12.4h22.9c-1.7-3.7-5.1-5.7-10.2-5.9h-15.9
		l3.8-16h55.6L408.5,94z"/>
	<path class="st10" d="M355.5,103.4h4.6l-6.1,6.1L355.5,103.4z M382,81.5l-16,16h-13.6l3.8-16H382z M408.5,94h-0.9l1.2-1.2L408.5,94
		z M411.7,103.4l-3.2,12.4h-8.7c-0.9,5.5-3,9.9-6.3,13.4c-3.3,3.5-7.9,6.1-14,8l7.3,9L374,159L359.7,142l39.9-39.9
		c0.1,0.5,0.2,1,0.2,1.5L411.7,103.4z M367.9,123.8c1.7-0.1,3.2-0.3,4.6-0.8l-15.7,15.7l-2.8-3.5l-0.1-4.7l6.7-6.7H367.9z
		 M411.7,81.5l-0.8,3l-9.4,9.5h-5c0.7,1,1.2,2.1,1.7,3.3l-19.8,19.8c0.2-0.4,0.3-0.8,0.5-1.2h-10.2L403,81.5H411.7z M398.5,160.7
		l-7,7h-10.4l-0.3-0.3l12.6-12.6L398.5,160.7z"/>
	<path class="st14" d="M432.5,88.9c-39.2,13.7-70.7,44-86.1,82.4c-1.4-1-2.7-2-3.9-3.1c-9.1-10.6-14.6-24.5-14.6-39.5
		c0-33.4,27.1-60.6,60.6-60.6c15.1,0,28.9,5.5,39.5,14.6C429.5,84.7,431.1,86.8,432.5,88.9z"/>
</g>
</svg>
