<svg xmlns="http://www.w3.org/2000/svg" version="1.1" xmlns:xlink="http://www.w3.org/1999/xlink" width="512" height="512" x="0" y="0" viewBox="0 0 58 58" style="enable-background:new 0 0 512 512" xml:space="preserve" class=""><g><g fill="none" fill-rule="nonzero"><path fill="#e4c05c" d="M6 52v3a2.977 2.977 0 0 0 3 3h33a3 3 0 0 0 3-3V35z" opacity="1" data-original="#e4c05c"></path><path fill="#f5efca" d="M39 45.26V49a3 3 0 0 1-3 3H3a3 3 0 0 1-3-3V3a3 3 0 0 1 3-3h33a3 3 0 0 1 3 3z" opacity="1" data-original="#f5efca" class=""></path><path fill="#a56a43" d="M8 14H5V6a1 1 0 1 0-2 0v9a1 1 0 0 0 1 1h4a1 1 0 0 0 0-2zM14 5c-2.243 0-4 2.416-4 5.5s1.757 5.5 4 5.5 4-2.416 4-5.5S16.243 5 14 5zm0 9c-.946 0-2-1.437-2-3.5S13.054 7 14 7s2 1.438 2 3.5-1.054 3.5-2 3.5zM23.949 5.684a1 1 0 0 0-1.9 0l-3 9a1.001 1.001 0 0 0 1.9.632L21.388 14h3.224l.439 1.316a1.001 1.001 0 1 0 1.9-.632zM22.054 12 23 9.162 23.946 12zM35 5a1 1 0 0 0-1 1v5.141l-3.126-5.627A1 1 0 0 0 29 6v9a1 1 0 0 0 2 0V9.859l3.126 5.627A1 1 0 0 0 36 15V6a1 1 0 0 0-1-1z" opacity="1" data-original="#a56a43"></path><g fill="#cbb292"><path d="M17 23H4a1 1 0 0 1 0-2h13a1 1 0 0 1 0 2zM17 28H4a1 1 0 0 1 0-2h13a1 1 0 0 1 0 2zM17 33H4a1 1 0 0 1 0-2h13a1 1 0 0 1 0 2zM31.34 23H22a1 1 0 0 1 0-2h9.34a1 1 0 0 1 0 2zM25.88 28H22a1 1 0 0 1 0-2h3.88a1 1 0 0 1 0 2zM26.07 33H22a1 1 0 0 1 0-2h4.07a1 1 0 0 1 0 2zM17 38H4a1 1 0 0 1 0-2h13a1 1 0 0 1 0 2zM27.87 38H22a1 1 0 0 1 0-2h5.87a1 1 0 0 1 0 2zM13.526 47.1c-.128 0-.255-.01-.381-.03a2.374 2.374 0 0 1-1.939-1.714l-.177-.617a.382.382 0 0 0-.35-.29.377.377 0 0 0-.4.221A2.39 2.39 0 0 1 8.133 46H5a1 1 0 0 1 0-2h3.133a.4.4 0 0 0 .361-.223 2.4 2.4 0 0 1 4.458.415l.176.617a.4.4 0 0 0 .722.113L15 43.2a2.4 2.4 0 0 1 4 0l.417.625a.4.4 0 0 0 .333.175H23a1 1 0 0 1 0 2h-3.25a2.4 2.4 0 0 1-2-1.069l-.416-.626a.4.4 0 0 0-.67 0l-1.151 1.726a2.373 2.373 0 0 1-1.987 1.069zM32.53 46H27a1 1 0 0 1 0-2h5.53a1 1 0 0 1 0 2z" fill="#cbb292" opacity="1" data-original="#cbb292"></path></g><path fill="#4482c3" d="M57.325 10.486 50.18 23.9 44 23l-4.41-4.74 8.419-15.8a2 2 0 0 1 3.222-.431l5.785 6.146a2 2 0 0 1 .309 2.311z" opacity="1" data-original="#4482c3"></path><path fill="#f3d55b" d="M50.18 23.9c-2.31 4.34-3 11.9-3.11 14.2a.725.725 0 0 1-.73.68c-5.4.11-9.99 3.13-12.67 5.45-.23.2-.45.39-.65.58a.735.735 0 0 1-1.22-.65c.04-.29.09-.59.13-.91.42-3.53.36-8.99-2.55-13.51a.72.72 0 0 1 .16-.98c1.85-1.38 7.74-6.16 10.05-10.5z" opacity="1" data-original="#f3d55b"></path><path fill="#b19046" d="M42 32a3 3 0 0 1-3 3 2.607 2.607 0 0 1-.48-.05.549.549 0 0 1-.05.17l-4.8 9.11c-.23.2-.45.39-.65.58a.735.735 0 0 1-1.22-.65c.04-.29.09-.59.13-.91l4.78-9.07a.449.449 0 0 1 .11-.13A3 3 0 1 1 42 32z" opacity="1" data-original="#b19046"></path></g></g></svg>