<?xml version="1.0" encoding="utf-8"?>
<!-- Generator: Adobe Illustrator 28.0.0, SVG Export Plug-In . SVG Version: 6.00 Build 0)  -->
<svg version="1.1" id="Layer_1" xmlns="http://www.w3.org/2000/svg" xmlns:xlink="http://www.w3.org/1999/xlink" x="0px" y="0px"
	 viewBox="0 0 512 512" style="enable-background:new 0 0 512 512;" xml:space="preserve">
<style type="text/css">
	.st0{fill:#566FF8;}
	.st1{fill:#6C95F8;}
	.st2{fill:#8FB6F8;}
	.st3{fill:#FE9C39;}
	.st4{fill:#FED154;}
	.st5{fill:#EAF7FF;}
	.st6{fill:#FDD835;}
	.st7{opacity:0.5;fill:#FFFFFF;enable-background:new    ;}
	.st8{fill:#F39E09;}
	.st9{fill:#E88102;}
	.st10{fill:#DB6704;}
	.st11{opacity:0.25;fill:#FFFFFF;enable-background:new    ;}
</style>
<g>
	<path class="st0" d="M457.3,77.1v357.9c0,12.3-10,22.3-22.4,22.4H151.6c-12.3,0-22.3-10-22.4-22.4V149.5c0-5.2,1.8-10.2,5.1-14.2
		l17.4-21.3l41.8-51.1c4.2-5.2,10.6-8.2,17.3-8.2h224C447.3,54.7,457.3,64.7,457.3,77.1z"/>
	<path class="st1" d="M457.3,77.1v266.7c-33.7,11.1-68.9,16.7-104.4,16.6c-82.5,0.1-162.2-30.3-223.7-85.4V149.5
		c0-5.2,1.8-10.2,5.1-14.2l17.4-21.3l41.8-51.1c4.2-5.2,10.6-8.2,17.3-8.2h224C447.3,54.7,457.3,64.7,457.3,77.1z"/>
	<path class="st2" d="M457.3,77.1v179.3c-18.1,3.5-36.6,5.3-55,5.3c-104.2,0-200.1-56.5-250.5-147.7l41.8-51.1
		c4.2-5.2,10.6-8.2,17.3-8.2h224C447.3,54.7,457.3,64.7,457.3,77.1z"/>
	<path class="st3" d="M77.1,233.6h283.3c12.4,0,22.4,10,22.4,22.4v178.9c0,12.4-10,22.4-22.4,22.4H77.1c-12.4,0-22.4-10-22.4-22.4
		V256C54.7,243.6,64.7,233.6,77.1,233.6z"/>
	<path class="st4" d="M382.7,256v134.2c0,12.3-10,22.3-22.4,22.4H77.1c-12.3,0-22.3-10-22.4-22.4V256c0-12.4,10-22.4,22.4-22.4
		h283.3C372.7,233.7,382.7,243.7,382.7,256z"/>
	<path class="st4" d="M211.3,54.7v89.5c0,4.1-3.3,7.5-7.5,7.5h-74.6v-2.2c0-5.2,1.8-10.2,5.1-14.2l59.3-72.4
		c4.2-5.2,10.6-8.2,17.3-8.2H211.3z"/>
	<g>
		<path class="st5" d="M390.2,136.7H256c-4.1,0-7.5-3.3-7.5-7.5s3.3-7.5,7.5-7.5h134.2c4.1,0,7.5,3.3,7.5,7.5
			S394.3,136.7,390.2,136.7z M390.2,181.4H256c-4.1,0-7.5-3.3-7.5-7.5c0-4.1,3.3-7.5,7.5-7.5h134.2c4.1,0,7.5,3.3,7.5,7.5
			C397.7,178.1,394.3,181.4,390.2,181.4z"/>
	</g>
</g>
<circle class="st3" cx="219.2" cy="322.8" r="68.4"/>
<g>
	<path class="st6" d="M219.6,378.8c31.5,0,57.1-25.6,57.1-57.1c0-31.5-25.6-57.1-57.1-57.1s-57.1,25.6-57.1,57.1
		C162.5,353.2,188.1,378.8,219.6,378.8z"/>
	<path class="st7" d="M218.8,266.9c-31.5,0-57.1,25.6-57.1,57.1c0,31.5,25.6,57.1,57.1,57.1s57.1-25.6,57.1-57.1
		C275.9,292.4,250.4,266.9,218.8,266.9z M218.8,378.6c-30.2,0-54.7-24.4-54.7-54.7c0-30.2,24.5-54.6,54.7-54.6s54.7,24.4,54.7,54.7
		C273.5,354.2,249,378.6,218.8,378.6z"/>
	<path class="st7" d="M242.4,269.4l-75.2,75.2c-2.6-5.9-4.1-12.2-4.6-18.6l61.1-61.1C230.4,265.3,236.7,266.9,242.4,269.4z
		 M269.4,293.7l-77.8,77.8c-4.8-2.8-9.2-6.1-13.1-10.1l80.7-80.7C263.3,284.5,266.7,288.8,269.4,293.7z M257,278.5l-80.6,80.5
		c-1.3-1.5-2.4-3-3.6-4.6l79.6-79.5C254,276,255.5,277.3,257,278.5z M274.9,307.5L205.4,377c-2.1-0.5-4.2-1.2-6.2-2l73.7-73.7
		C273.8,303.3,274.4,305.4,274.9,307.5z"/>
	<path class="st7" d="M266.1,324.2c0,24.7-20.1,44.8-44.8,44.8c-13.9,0-26.3-6.3-34.5-16.2c8.2,8.8,19.8,14.4,32.9,14.4
		c24.7,0,44.8-20.1,44.8-44.8c0-10.8-3.8-20.8-10.3-28.5C261.5,301.8,266.1,312.5,266.1,324.2z"/>
	<path class="st8" d="M219.6,367.1c24.7,0,44.8-20,44.8-44.8c0-24.7-20-44.8-44.8-44.8s-44.8,20-44.8,44.8
		C174.9,347,194.9,367.1,219.6,367.1z"/>
	<path class="st9" d="M253.6,293.1c-7.9-6.7-18.1-10.8-29.2-10.8c-24.7,0-44.8,20.1-44.8,44.8c0,11.1,4.1,21.3,10.8,29.2
		c-9.5-8.2-15.6-20.4-15.6-33.9c0-24.7,20.1-44.8,44.8-44.8C233.2,277.6,245.4,283.6,253.6,293.1z"/>
	<path class="st10" d="M241.6,295.7v-3.5l-4.1,3.5h-37l-2.8,8.3v3.5h11.7c3.7,0.1,6.2,1.6,7.5,4.3h-16.9l-2.4,5.7v3.5h19.6
		c-1.2,3.8-3.9,5.8-8.1,5.8H199l0.1,8.4l20.1,23.9h16.4v-3.5l-3-0.7l-14.8-18.2c4.5-1.4,8-3.3,10.4-5.9c2.4-2.6,4-5.9,4.6-9.9h6.4
		l2.4-9.2v-3.5l-3.4,3.5h-5.4c-0.4-2.6-1.2-4.9-2.5-6.9h8.9L241.6,295.7z"/>
	<path class="st6" d="M239.2,301.4h-8.9c1.3,2.1,2.1,4.4,2.5,6.9h8.7l-2.4,9.2h-6.4c-0.7,4-2.2,7.3-4.6,9.9
		c-2.4,2.6-5.9,4.5-10.4,5.9l17.7,21.7v0.7H219L199,331.8l-0.1-8.4h10.4c4.2-0.1,6.8-2,8.1-5.8h-19.6l2.4-9.2H217
		c-1.3-2.8-3.8-4.2-7.5-4.3h-11.7l2.8-11.8h41.1L239.2,301.4z"/>
	<path class="st7" d="M200.1,308.3h3.4l-4.5,4.5L200.1,308.3z M219.6,292.2L207.8,304h-10.1l2.8-11.8H219.6z M239.2,301.4h-0.7
		l0.9-0.9L239.2,301.4z M241.6,308.3l-2.4,9.2h-6.4c-0.7,4-2.2,7.3-4.6,9.9c-2.4,2.6-5.9,4.5-10.4,5.9l5.4,6.6l-9.4,9.4l-10.6-12.6
		l29.5-29.5c0.1,0.4,0.2,0.7,0.2,1.1L241.6,308.3z M209.3,323.4c1.3-0.1,2.4-0.3,3.4-0.6l-11.6,11.6l-2.1-2.6l-0.1-3.5l4.9-4.9
		H209.3z M241.6,292.2l-0.6,2.2l-6.9,7h-3.7c0.5,0.8,0.9,1.6,1.3,2.4L217,318.4c0.2-0.3,0.3-0.6,0.4-0.9h-7.6l25.4-25.4H241.6z
		 M231.8,350.6l-5.2,5.2H219l-0.2-0.3l9.3-9.3L231.8,350.6z"/>
	<path class="st11" d="M257,297.6c-29,10.2-52.3,32.5-63.6,60.9c-1-0.7-2-1.5-2.9-2.3c-6.7-7.9-10.8-18.1-10.8-29.2
		c0-24.7,20.1-44.8,44.8-44.8c11.1,0,21.3,4.1,29.2,10.8C254.8,294.5,256,296,257,297.6z"/>
</g>
</svg>
