<svg xmlns="http://www.w3.org/2000/svg" version="1.1" xmlns:xlink="http://www.w3.org/1999/xlink" width="512" height="512" x="0" y="0" viewBox="0 0 512 512" style="enable-background:new 0 0 512 512" xml:space="preserve" class=""><g><g fill-rule="evenodd" clip-rule="evenodd"><path fill="#da8c36" d="M28.856 35.683h324.469c10.932 0 19.876 8.944 19.876 19.876v275.193c0 10.932-8.944 19.876-19.876 19.876H28.856c-10.932 0-19.876-8.944-19.876-19.876V55.559c.001-10.932 8.944-19.876 19.876-19.876z" opacity="1" data-original="#da8c36"></path><path fill="#c97629" d="M348.85 35.683h4.476c10.932 0 19.875 8.944 19.875 19.875v275.193c0 10.932-8.943 19.876-19.875 19.876H28.856c-10.932 0-19.876-8.944-19.876-19.876v-6.303h319.995c10.932 0 19.875-8.944 19.875-19.875z" opacity="1" data-original="#c97629"></path><path fill="#eff4f7" d="M148.213 290.997H76.47c-4.324 0-7.86-3.537-7.86-7.86V249.37c0-4.324 3.536-7.86 7.86-7.86h71.743c4.324 0 7.86 3.536 7.86 7.86v33.767c0 4.323-3.536 7.86-7.86 7.86z" opacity="1" data-original="#eff4f7"></path><path fill="#e2e3e3" d="M148.213 290.997H76.47c-4.324 0-7.86-3.537-7.86-7.86v-4.326h67.416c4.324 0 7.86-3.537 7.86-7.86V241.51h4.326c4.324 0 7.86 3.536 7.86 7.86v33.767c.001 4.323-3.535 7.86-7.859 7.86z" opacity="1" data-original="#e2e3e3"></path><path fill="#fc685b" d="M132.202 35.683h117.776v77.997c0 7.427-8.61 11.501-14.353 6.793l-38.966-31.946c-3.271-2.682-7.867-2.682-11.138 0l-38.966 31.946c-5.743 4.709-14.353.634-14.353-6.793z" opacity="1" data-original="#fc685b"></path><path fill="#f35244" d="M237.349 35.683h12.629v77.997c0 7.427-8.61 11.501-14.353 6.793l-12.616-10.343c5.743 4.691 14.34.618 14.34-6.803zM196.638 88.51c-3.27-2.665-7.853-2.659-11.117.017l-38.966 31.946c-5.743 4.708-14.353.634-14.353-6.793v-2.443a9.137 9.137 0 0 0 1.725-1.118l38.966-31.946c3.272-2.682 7.867-2.682 11.138 0z" opacity="1" data-original="#f35244"></path><path fill="#b4d2d7" d="m401.873 393.627 17.844-19.068-36.06-36.062-19.122 17.792z" opacity="1" data-original="#b4d2d7"></path><path fill="#9bb9c3" d="m401.873 393.627 17.844-19.068-.193-.194-9.985 10.669-36.581-36.581-8.423 7.836z" opacity="1" data-original="#9bb9c3"></path><path fill="#465759" d="M418.034 361.667 388.37 391.33a2.113 2.113 0 0 0-.001 2.981l75.273 75.273c8.977 8.977 23.667 8.978 32.645 0 8.977-8.977 8.977-23.668 0-32.644l-75.273-75.273a2.112 2.112 0 0 0-2.98 0z" opacity="1" data-original="#465759"></path><path fill="#3a484a" d="m396.712 382.989-8.342 8.342a2.113 2.113 0 0 0-.001 2.981l75.273 75.273c8.977 8.977 23.666 8.978 32.644 0a22.92 22.92 0 0 0 3.626-4.716c-8.829 5.119-20.392 3.911-27.929-3.626L396.71 385.97a2.115 2.115 0 0 1 .002-2.981z" opacity="1" data-original="#3a484a"></path><path fill="#3a484a" d="M388.37 391.33a2.113 2.113 0 0 0-.001 2.981l19.533 19.533 32.645-32.645-19.533-19.533c-.82-.82-2.16-.82-2.981.001L388.37 391.33z" opacity="1" data-original="#3a484a"></path><path fill="#313d40" d="M388.37 391.33a2.113 2.113 0 0 0-.001 2.981l19.533 19.533 8.342-8.341-19.533-19.533c-.82-.82-.82-2.16.001-2.981z" opacity="1" data-original="#313d40"></path><circle cx="304.806" cy="278.136" r="109.312" fill="#ffda2d" transform="rotate(-4.44 305.118 277.549)" opacity="1" data-original="#ffda2d"></circle><path fill="#ffc700" d="M261.101 378.332c30.707 13.365 67.132 12.501 98.361-5.529 52.283-30.186 70.197-97.04 40.011-149.323-15.418-26.705-40.405-44.437-68.129-51.379 20.703 9.01 38.807 24.486 50.962 45.54 30.186 52.283 12.273 119.137-40.011 149.323-25.577 14.768-54.641 18.017-81.194 11.368z" opacity="1" data-original="#ffc700"></path><circle cx="304.806" cy="278.136" r="80.61" fill="#fdb800" transform="rotate(-45 304.778 278.214)" opacity="1" data-original="#fdb800"></circle><path fill="#f4a40e" d="M234.996 318.441c12.441 21.548 33.328 35.175 56.066 39.122-17.099-6.275-32.182-18.346-42.001-35.354-22.26-38.556-9.05-87.856 29.506-110.116 17.007-9.819 36.105-12.733 54.05-9.617-21.665-7.95-46.567-6.592-68.115 5.848-38.556 22.261-51.767 71.562-29.506 110.117z" opacity="1" data-original="#f4a40e"></path><path fill="#f4a40e" d="M338.759 256.086a7.989 7.989 0 0 1-12.937 9.375c-.891-1.232-2.029-2.228-3.318-2.889-1.228-.63-2.659-.987-4.212-.987h-5.435c-2.54 0-4.854 1.045-6.538 2.728-1.683 1.683-2.728 3.998-2.728 6.538s1.045 4.855 2.728 6.538 3.998 2.728 6.538 2.728h3.86c6.957 0 13.275 2.84 17.85 7.415s7.415 10.894 7.415 17.85-2.84 13.275-7.415 17.85a25.297 25.297 0 0 1-11.78 6.675v4.051a8 8 0 0 1-16 0v-3.724a25.39 25.39 0 0 1-6.968-2.386 25.457 25.457 0 0 1-9.005-7.702 7.989 7.989 0 0 1 12.937-9.375c.891 1.232 2.029 2.228 3.318 2.889 1.228.63 2.658.987 4.212.987h5.435c2.54 0 4.855-1.045 6.538-2.728s2.728-3.998 2.728-6.538-1.045-4.855-2.728-6.538-3.998-2.728-6.538-2.728h-3.86c-6.956 0-13.275-2.84-17.85-7.416-4.576-4.575-7.415-10.894-7.415-17.85s2.84-13.275 7.415-17.85c3.2-3.2 7.253-5.551 11.78-6.675v-4.051a8 8 0 0 1 16 0v3.724a25.358 25.358 0 0 1 6.968 2.387 25.474 25.474 0 0 1 9.005 7.702z" opacity="1" data-original="#f4a40e"></path><path fill="#ffda2d" d="M328.759 246.086a7.988 7.988 0 0 1-12.937 9.375c-.891-1.232-2.029-2.228-3.318-2.889-1.228-.63-2.659-.987-4.212-.987h-5.436c-2.539 0-4.854 1.045-6.538 2.728-1.683 1.683-2.728 3.998-2.728 6.538 0 2.539 1.045 4.855 2.728 6.538s3.998 2.728 6.538 2.728h3.86c6.957 0 13.275 2.84 17.85 7.415s7.415 10.894 7.415 17.85-2.84 13.275-7.415 17.85a25.297 25.297 0 0 1-11.78 6.675v4.051a8 8 0 0 1-16 0v-3.724a25.34 25.34 0 0 1-6.967-2.387 25.457 25.457 0 0 1-9.005-7.702 7.988 7.988 0 0 1 12.937-9.375c.891 1.232 2.029 2.228 3.318 2.889 1.228.63 2.658.987 4.212.987h5.435c2.539 0 4.855-1.045 6.538-2.728s2.728-3.998 2.728-6.538c0-2.539-1.045-4.855-2.728-6.538s-3.998-2.728-6.538-2.728h-3.86c-6.956 0-13.275-2.84-17.85-7.416-4.575-4.575-7.415-10.894-7.415-17.85s2.84-13.275 7.415-17.85c3.2-3.2 7.253-5.551 11.78-6.675v-4.051a8 8 0 0 1 16 0v3.724a25.358 25.358 0 0 1 6.968 2.387 25.487 25.487 0 0 1 9.005 7.703z" opacity="1" data-original="#ffda2d"></path></g></g></svg>