<?xml version="1.0" encoding="utf-8"?>
<!-- Generator: Adobe Illustrator 28.0.0, SVG Export Plug-In . SVG Version: 6.00 Build 0)  -->
<svg version="1.1" id="Layer_1" xmlns="http://www.w3.org/2000/svg" xmlns:xlink="http://www.w3.org/1999/xlink" x="0px" y="0px"
	 viewBox="0 0 512 512" style="enable-background:new 0 0 512 512;" xml:space="preserve">
<style type="text/css">
	.st0{fill:#FFCD05;}
	.st1{fill:#555A6E;}
	.st2{fill:#FAA019;}
	.st3{fill:#463C4B;}
	.st4{fill:#A5C3DC;}
	.st5{fill:#D7E6F0;}
	.st6{fill:#2387C3;}
	.st7{fill:#5AD7FF;}
	.st8{fill:#FDD835;}
	.st9{opacity:0.5;fill:#FFFFFF;enable-background:new    ;}
	.st10{fill:#F39E09;}
	.st11{fill:#E88102;}
	.st12{fill:#DB6704;}
	.st13{opacity:0.25;fill:#FFFFFF;enable-background:new    ;}
</style>
<g>
	<path class="st0" d="M392,292.2V200h-16v92.2c-7.8,3.2-13.3,10.8-13.3,19.8c0,11.8,9.6,21.3,21.3,21.3s21.3-9.6,21.3-21.3
		C405.3,303,399.8,295.4,392,292.2z"/>
	<path class="st1" d="M136,272l-48-48l160-160l48,48L136,272z"/>
	<path class="st2" d="M280,288l-72-72c0-35.3-28.7-64-64-64h-32c-35.3,0-64,28.7-64,64s28.7,64,64,64h32l72,72L280,288z"/>
	<path class="st3" d="M368,120h32v24h-32V120z"/>
	<path class="st4" d="M400,200h-32c-4.4,0-8-3.6-8-8v-40c0-4.4,3.6-8,8-8h32c4.4,0,8,3.6,8,8v40C408,196.4,404.4,200,400,200z"/>
	<path class="st5" d="M384,200h-16c-4.4,0-8-3.6-8-8v-40c0-4.4,3.6-8,8-8h16V200z"/>
	<path class="st0" d="M176,216c0-35.3-28.7-64-64-64s-64,28.7-64,64s28.7,64,64,64l88,88l64-64L176,216z"/>
	<path class="st3" d="M280,280h-48c-30.9,0-56,25.1-56,56v40h160v-40C336,305.1,310.9,280,280,280z"/>
	<path class="st1" d="M232,280c-30.9,0-56,25.1-56,56v40h112v-40C288,305.1,262.9,280,232,280z"/>
	<circle class="st0" cx="232" cy="336" r="24"/>
	<circle class="st1" cx="112" cy="216" r="32"/>
	<path class="st2" d="M272,136h-32c-26.5,0-48-21.5-48-48s21.5-48,48-48h32c26.5,0,48,21.5,48,48S298.5,136,272,136z"/>
	<path class="st0" d="M368,64h-86.4c-8.3-14.3-23.8-24-41.6-24c-26.5,0-48,21.5-48,48s21.5,48,48,48c17.8,0,33.3-9.7,41.6-24H368V64
		z"/>
	<circle class="st1" cx="240" cy="88" r="24"/>
	<path class="st3" d="M392,128h-24c-22.1,0-40-17.9-40-40s17.9-40,40-40h24c22.1,0,40,17.9,40,40S414.1,128,392,128z"/>
	<circle class="st1" cx="368" cy="88" r="40"/>
	<circle class="st0" cx="368" cy="88" r="16"/>
	<path class="st5" d="M448,472H64c-26.5,0-48-21.5-48-48s21.5-48,48-48h384c26.5,0,48,21.5,48,48S474.5,472,448,472z"/>
	<path class="st5" d="M483.8,392H28.2c0.6-0.7,1.2-1.3,1.8-1.9C38.7,381.4,50.7,376,64,376h384C462.2,376,475,382.2,483.8,392z
		 M483.8,456c-0.6,0.7-1.2,1.3-1.8,1.9c-8.7,8.7-20.7,14.1-33.9,14.1H64c-14.2,0-27-6.2-35.8-16H483.8z M496,424
		c0,2.7-0.2,5.4-0.7,8H16.7c-0.4-2.6-0.7-5.3-0.7-8s0.2-5.4,0.7-8h478.7C495.8,418.6,496,421.3,496,424L496,424z"/>
	<path class="st4" d="M483.8,392H28.2c0.6-0.7,1.2-1.3,1.8-1.9C38.7,381.4,50.7,376,64,376h384C462.2,376,475,382.2,483.8,392z
		 M496,424c0,2.7-0.2,5.4-0.7,8H16.7c-0.4-2.6-0.7-5.3-0.7-8s0.2-5.4,0.7-8h478.7C495.8,418.6,496,421.3,496,424L496,424z
		 M483.8,456c-0.6,0.7-1.2,1.3-1.8,1.9c-8.7,8.7-20.7,14.1-33.9,14.1H64c-14.2,0-27-6.2-35.8-16H483.8z"/>
	<path class="st4" d="M448,472H256c-26.5,0-48-21.5-48-48s21.5-48,48-48h192c26.5,0,48,21.5,48,48S474.5,472,448,472z"/>
	<path class="st3" d="M256,456c-17.6,0-32-14.4-32-32s14.4-32,32-32h192c17.6,0,32,14.4,32,32s-14.4,32-32,32H256z"/>
	<circle class="st4" cx="256" cy="424" r="16"/>
	<circle class="st4" cx="320" cy="424" r="16"/>
	<circle class="st4" cx="384" cy="424" r="16"/>
	<circle class="st4" cx="448" cy="424" r="16"/>
	<path class="st6" d="M432,376h-96c-8.8,0-16-7.2-16-16v-32c0-8.8,7.2-16,16-16h96c8.8,0,16,7.2,16,16v32
		C448,368.8,440.8,376,432,376z"/>
	<path class="st7" d="M368,376h-32c-8.8,0-16-7.2-16-16v-32c0-8.8,7.2-16,16-16h32c8.8,0,16,7.2,16,16v32
		C384,368.8,376.8,376,368,376z"/>
	<path class="st0" d="M408,292c-2.2,0-4-1.8-4-4c0-1.1,0.4-2.1,1.2-2.8l16-16c1.6-1.6,4.1-1.6,5.7,0s1.6,4.1,0,5.7l-16,16
		C410.1,291.6,409.1,292,408,292z M440,260c-2.2,0-4-1.8-4-4c0-1.1,0.4-2.1,1.2-2.8l8-8c1.6-1.6,4.1-1.6,5.7,0
		c1.6,1.6,1.6,4.1,0,5.7l-8,8C442.1,259.6,441.1,260,440,260z M360,292c-1.1,0-2.1-0.4-2.8-1.2l-16-16c-1.6-1.6-1.6-4.1,0-5.7
		s4.1-1.6,5.7,0l16,16c1.6,1.6,1.6,4.1,0,5.7C362.1,291.6,361.1,292,360,292z M328,260c-1.1,0-2.1-0.4-2.8-1.2l-8-8
		c-1.6-1.6-1.6-4.1,0-5.7c1.6-1.6,4.1-1.6,5.7,0l8,8c1.6,1.6,1.6,4.1,0,5.7C330.1,259.6,329.1,260,328,260z"/>
</g>
<g>
	<path class="st8" d="M112,280c35.3,0,64-28.7,64-64c0-35.3-28.7-64-64-64s-64,28.7-64,64C48,251.3,76.7,280,112,280z"/>
	<path class="st9" d="M112,152c-35.3,0-64,28.7-64,64c0,35.3,28.7,64,64,64s64-28.7,64-64C176,180.7,147.4,152,112,152z M112,277.3
		c-33.9,0-61.3-27.4-61.3-61.3c0-33.9,27.5-61.2,61.3-61.2s61.3,27.4,61.3,61.3C173.3,249.9,145.9,277.3,112,277.3z"/>
	<path class="st9" d="M137.6,157.3l-84.2,84.2c-2.9-6.6-4.6-13.7-5.1-20.9l68.5-68.5C124.1,152.7,131.1,154.5,137.6,157.3z
		 M167.8,184.6l-87.2,87.2c-5.4-3.1-10.4-6.9-14.6-11.3l90.5-90.4C160.9,174.2,164.7,179.2,167.8,184.6z M153.9,167.6l-90.3,90.3
		c-1.4-1.7-2.7-3.3-4-5.1l89.2-89.1C150.5,164.8,152.2,166.2,153.9,167.6z M174,200l-78,78c-2.3-0.6-4.7-1.4-6.9-2.2l82.6-82.6
		C172.7,195.4,173.4,197.7,174,200z"/>
	<path class="st9" d="M164,218.8c0,27.7-22.5,50.2-50.2,50.2c-15.6,0-29.5-7.1-38.7-18.2c9.2,9.9,22.2,16.1,36.8,16.1
		c27.7,0,50.2-22.5,50.2-50.2c0-12.1-4.3-23.3-11.5-31.9C159,193.7,164,205.6,164,218.8z"/>
	<path class="st10" d="M112,266.8c27.7,0,50.2-22.5,50.2-50.2c0-27.7-22.5-50.2-50.2-50.2S61.8,189,61.8,216.7
		C61.8,244.4,84.3,266.8,112,266.8z"/>
	<path class="st11" d="M150,184c-8.8-7.5-20.2-12.1-32.7-12.1c-27.7,0-50.2,22.5-50.2,50.2c0,12.5,4.6,23.9,12.1,32.7
		c-10.6-9.2-17.4-22.8-17.4-38c0-27.7,22.5-50.2,50.2-50.2C127.2,166.5,140.8,173.3,150,184z"/>
	<path class="st12" d="M136.6,186.8v-3.9l-4.6,3.9H90.6l-3.1,9.3v3.9h13.2c4.2,0.1,7,1.8,8.4,4.9H90.1l-2.7,6.3v3.9h22
		c-1.4,4.3-4.3,6.5-9,6.5H88.8l0.1,9.4l22.5,26.8h18.4v-3.9l-3.3-0.8l-16.6-20.4c5-1.5,8.9-3.7,11.6-6.6c2.7-2.9,4.5-6.6,5.2-11.1
		h7.1l2.7-10.3V201l-3.8,3.9h-6c-0.4-2.9-1.4-5.5-2.8-7.8h10L136.6,186.8z"/>
	<path class="st8" d="M134,193.2h-10c1.4,2.3,2.3,4.9,2.8,7.8h9.8l-2.7,10.3h-7.1c-0.7,4.5-2.5,8.2-5.2,11.1
		c-2.7,2.9-6.6,5.1-11.6,6.6l19.8,24.4v0.7h-18.4l-22.5-26.8l-0.1-9.4h11.6c4.7-0.1,7.7-2.3,9-6.5h-22l2.7-10.3H109
		c-1.4-3.1-4.2-4.7-8.4-4.9H87.5l3.1-13.3h46L134,193.2z"/>
	<path class="st9" d="M90.1,201h3.8l-5.1,5.1L90.1,201z M112,182.9l-13.3,13.3H87.5l3.1-13.3H112z M134,193.2h-0.7l1-1L134,193.2z
		 M136.6,201l-2.7,10.3h-7.2c-0.7,4.5-2.5,8.2-5.2,11.1c-2.7,2.9-6.6,5.1-11.6,6.6l6.1,7.4l-10.5,10.6l-11.8-14.1l33.1-33.1
		c0.1,0.4,0.2,0.8,0.2,1.2L136.6,201z M100.4,217.9c1.4-0.1,2.7-0.3,3.8-0.7l-13,13l-2.3-2.9l-0.1-3.9l5.5-5.5H100.4z M136.7,182.9
		l-0.7,2.5l-7.8,7.8H124c0.6,0.9,1,1.8,1.4,2.7l-16.4,16.4c0.2-0.3,0.3-0.7,0.4-1H101l28.4-28.4H136.7z M125.7,248.4l-5.8,5.8h-8.6
		l-0.2-0.3l10.5-10.5L125.7,248.4z"/>
	<path class="st13" d="M153.9,189c-32.5,11.4-58.6,36.4-71.3,68.2c-1.1-0.8-2.2-1.7-3.3-2.6c-7.5-8.8-12.1-20.2-12.1-32.7
		c0-27.7,22.5-50.2,50.2-50.2c12.5,0,23.9,4.6,32.7,12.1C151.4,185.5,152.7,187.2,153.9,189z"/>
</g>
<g>
	<path class="st8" d="M240,136c26.5,0,48-21.5,48-48c0-26.5-21.5-48-48-48s-48,21.5-48,48C192,114.5,213.5,136,240,136z"/>
	<path class="st9" d="M240,40c-26.5,0-48,21.5-48,48c0,26.5,21.5,48,48,48s48-21.5,48-48C288,61.5,266.6,40,240,40z M240,133.9
		c-25.4,0-45.9-20.5-45.9-45.9c0-25.4,20.6-45.9,45.9-45.9s45.9,20.5,45.9,45.9C285.9,113.4,265.4,133.9,240,133.9z"/>
	<path class="st9" d="M259.2,44L196,107.2c-2.1-5-3.4-10.3-3.9-15.7l51.4-51.4C249.1,40.6,254.3,41.9,259.2,44z M281.9,64.5
		l-65.4,65.4c-4.1-2.3-7.8-5.1-11-8.5l67.9-67.8C276.7,56.7,279.6,60.4,281.9,64.5z M271.4,51.7l-67.7,67.7c-1.1-1.2-2.1-2.5-3-3.9
		l66.9-66.8C268.9,49.6,270.2,50.6,271.4,51.7z M286.5,76L228,134.5c-1.8-0.4-3.5-1-5.2-1.7l62-62C285.5,72.6,286.1,74.3,286.5,76z"
		/>
	<path class="st9" d="M279,90.1c0,20.8-16.9,37.6-37.6,37.6c-11.7,0-22.1-5.3-29-13.6c6.9,7.4,16.7,12.1,27.6,12.1
		c20.8,0,37.6-16.9,37.6-37.6c0-9.1-3.2-17.5-8.6-23.9C275.2,71.3,279,80.2,279,90.1z"/>
	<path class="st10" d="M240,126.1c20.8,0,37.6-16.8,37.6-37.6c0-20.8-16.8-37.6-37.6-37.6s-37.6,16.8-37.6,37.6
		C202.4,109.3,219.2,126.1,240,126.1z"/>
	<path class="st11" d="M268.5,64c-6.6-5.7-15.2-9.1-24.5-9.1c-20.8,0-37.6,16.9-37.6,37.6c0,9.4,3.4,17.9,9.1,24.5
		c-8-6.9-13.1-17.1-13.1-28.5c0-20.8,16.9-37.6,37.6-37.6C251.4,50.9,261.6,56,268.5,64z"/>
	<path class="st12" d="M258.5,66.1v-3l-3.4,3H224l-2.4,7v3h9.9c3.1,0.1,5.2,1.3,6.3,3.6h-14.2l-2,4.8v3h16.5c-1,3.2-3.3,4.8-6.8,4.9
		h-8.7l0,7.1l16.9,20.1h13.8v-3l-2.5-0.6l-12.4-15.3c3.8-1.2,6.7-2.8,8.7-5c2.1-2.1,3.3-4.9,3.9-8.3h5.4l2-7.7v-3l-2.8,3h-4.5
		c-0.3-2.1-1-4.1-2.1-5.8h7.5L258.5,66.1z"/>
	<path class="st8" d="M256.5,70.9H249c1.1,1.8,1.8,3.7,2.1,5.8h7.3l-2,7.7h-5.4c-0.6,3.4-1.9,6.2-3.9,8.3c-2.1,2.1-5,3.8-8.7,5
		l14.8,18.3v0.6h-13.8l-16.9-20.1l0-7.1h8.7c3.5-0.1,5.7-1.7,6.8-4.9h-16.5l2-7.7h14.2c-1.1-2.3-3.2-3.5-6.3-3.6h-9.9l2.4-10h34.5
		L256.5,70.9z"/>
	<path class="st9" d="M223.6,76.8h2.8l-3.8,3.8L223.6,76.8z M240,63.2l-10,10h-8.5l2.4-10H240z M256.5,70.9h-0.6l0.8-0.8L256.5,70.9
		z M258.4,76.8l-2,7.7H251c-0.6,3.4-1.9,6.2-3.9,8.3c-2.1,2.1-4.9,3.8-8.7,5l4.5,5.6l-7.9,7.9l-8.9-10.6L251,75.9
		c0,0.3,0.1,0.6,0.1,0.9L258.4,76.8z M231.3,89.4c1.1,0,2-0.2,2.9-0.5l-9.7,9.7l-1.8-2.1l0-2.9l4.2-4.2H231.3z M258.5,63.2l-0.5,1.9
		l-5.8,5.9H249c0.4,0.6,0.8,1.3,1.1,2.1l-12.3,12.3c0.1-0.3,0.2-0.5,0.3-0.8h-6.3l21.3-21.3H258.5z M250.3,112.3l-4.3,4.3h-6.4
		l-0.2-0.2l7.8-7.8L250.3,112.3z"/>
	<path class="st13" d="M271.4,67.8c-24.4,8.5-43.9,27.3-53.4,51.2c-0.9-0.6-1.7-1.2-2.4-1.9c-5.7-6.6-9.1-15.2-9.1-24.5
		c0-20.8,16.9-37.6,37.6-37.6c9.4,0,17.9,3.4,24.5,9.1C269.6,65.1,270.5,66.4,271.4,67.8z"/>
</g>
<g>
	<path class="st8" d="M367.1,129.2c22.6,0,40.9-18.3,40.9-40.9c0-22.6-18.3-40.9-40.9-40.9s-40.9,18.3-40.9,40.9
		C326.2,110.9,344.5,129.2,367.1,129.2z"/>
	<path class="st9" d="M367.1,47.4c-22.6,0-40.9,18.3-40.9,40.9c0,22.6,18.3,40.9,40.9,40.9S408,110.9,408,88.3
		C408,65.7,389.7,47.4,367.1,47.4z M367.1,127.4c-21.6,0-39.2-17.5-39.2-39.2c0-21.6,17.5-39.1,39.2-39.1
		c21.6,0,39.2,17.5,39.2,39.2C406.2,109.9,388.7,127.4,367.1,127.4z"/>
	<path class="st9" d="M383.4,50.8l-53.9,53.9c-1.8-4.2-2.9-8.7-3.3-13.3l43.8-43.8C374.8,47.8,379.3,49,383.4,50.8z M402.8,68.2
		L347,123.9c-3.5-2-6.6-4.4-9.4-7.2l57.8-57.8C398.3,61.6,400.8,64.7,402.8,68.2z M393.9,57.3L336.1,115c-0.9-1.1-1.8-2.1-2.6-3.3
		l57-57C391.7,55.5,392.8,56.4,393.9,57.3z M406.7,78.1l-49.8,49.8c-1.5-0.4-3-0.9-4.4-1.4l52.8-52.8
		C405.9,75.1,406.4,76.6,406.7,78.1z"/>
	<path class="st9" d="M400.4,90.1c0,17.7-14.4,32.1-32.1,32.1c-9.9,0-18.8-4.5-24.7-11.6c5.8,6.3,14.2,10.3,23.5,10.3
		c17.7,0,32.1-14.4,32.1-32.1c0-7.8-2.7-14.9-7.3-20.4C397.1,74,400.4,81.7,400.4,90.1z"/>
	<path class="st10" d="M367.1,120.8c17.7,0,32.1-14.4,32.1-32.1c0-17.7-14.4-32.1-32.1-32.1C349.4,56.6,335,71,335,88.7
		C335,106.4,349.4,120.8,367.1,120.8z"/>
	<path class="st11" d="M391.4,67.8c-5.6-4.8-12.9-7.8-20.9-7.8c-17.7,0-32.1,14.4-32.1,32.1c0,8,2.9,15.3,7.8,20.9
		c-6.8-5.9-11.2-14.6-11.2-24.3c0-17.7,14.4-32.1,32.1-32.1C376.8,56.6,385.5,61,391.4,67.8z"/>
	<path class="st12" d="M382.8,69.6v-2.5l-2.9,2.5h-26.5l-2,6v2.5h8.4c2.7,0.1,4.5,1.1,5.4,3.1h-12.1l-1.7,4.1v2.5h14.1
		c-0.9,2.7-2.8,4.1-5.8,4.2h-7.4l0,6l14.4,17.1h11.8v-2.5l-2.1-0.5l-10.6-13c3.2-1,5.7-2.4,7.4-4.2c1.8-1.8,2.9-4.2,3.3-7.1h4.6
		l1.7-6.6v-2.5l-2.4,2.5h-3.8c-0.3-1.8-0.9-3.5-1.8-5h6.4L382.8,69.6z"/>
	<path class="st8" d="M381.1,73.7h-6.4c0.9,1.5,1.5,3.1,1.8,5h6.3l-1.7,6.6h-4.6c-0.5,2.9-1.6,5.3-3.3,7.1c-1.8,1.8-4.2,3.3-7.4,4.2
		l12.6,15.6v0.5h-11.8l-14.4-17.1l0-6h7.4c3-0.1,4.9-1.5,5.8-4.2h-14.1l1.7-6.6h12.1c-0.9-2-2.7-3-5.4-3.1h-8.4l2-8.5h29.4
		L381.1,73.7z"/>
	<path class="st9" d="M353.1,78.7h2.4l-3.3,3.3L353.1,78.7z M367.1,67.1l-8.5,8.5h-7.2l2-8.5H367.1z M381.1,73.7h-0.5l0.7-0.7
		L381.1,73.7z M382.8,78.7l-1.7,6.6h-4.6c-0.5,2.9-1.6,5.3-3.3,7.1c-1.8,1.8-4.2,3.3-7.4,4.2l3.9,4.8l-6.7,6.8l-7.6-9L376.4,78
		c0,0.3,0.1,0.5,0.1,0.8L382.8,78.7z M359.7,89.5c0.9,0,1.7-0.2,2.4-0.4l-8.3,8.3l-1.5-1.8l0-2.5l3.5-3.5H359.7z M382.8,67.1
		l-0.4,1.6l-5,5h-2.7c0.4,0.5,0.7,1.1,0.9,1.8l-10.5,10.5c0.1-0.2,0.2-0.4,0.3-0.7h-5.4l18.2-18.2H382.8z M375.8,109l-3.7,3.7h-5.5
		l-0.1-0.2l6.7-6.7L375.8,109z"/>
	<path class="st13" d="M393.9,71c-20.8,7.3-37.4,23.3-45.6,43.6c-0.7-0.5-1.4-1.1-2.1-1.6c-4.8-5.6-7.8-12.9-7.8-20.9
		c0-17.7,14.4-32.1,32.1-32.1c8,0,15.3,2.9,20.9,7.8C392.3,68.8,393.1,69.9,393.9,71z"/>
</g>
<g>
	<path class="st8" d="M232,360.8c13.7,0,24.7-11.1,24.7-24.7c0-13.7-11.1-24.7-24.7-24.7s-24.7,11.1-24.7,24.7
		C207.3,349.7,218.3,360.8,232,360.8z"/>
	<path class="st9" d="M232,311.3c-13.7,0-24.7,11.1-24.7,24.7c0,13.7,11.1,24.7,24.7,24.7s24.7-11.1,24.7-24.7
		C256.7,322.4,245.7,311.3,232,311.3z M232,359.7c-13.1,0-23.7-10.6-23.7-23.7c0-13.1,10.6-23.6,23.7-23.6s23.7,10.6,23.7,23.7
		C255.7,349.1,245.1,359.7,232,359.7z"/>
	<path class="st9" d="M241.9,313.3l-32.6,32.6c-1.1-2.6-1.8-5.3-2-8.1l26.5-26.5C236.7,311.6,239.4,312.3,241.9,313.3z M253.6,323.9
		l-33.7,33.7c-2.1-1.2-4-2.7-5.7-4.4l35-34.9C250.9,319.9,252.4,321.8,253.6,323.9z M248.2,317.3l-34.9,34.9c-0.6-0.6-1.1-1.3-1.5-2
		l34.5-34.4C246.9,316.2,247.5,316.8,248.2,317.3z M256,329.9L225.8,360c-0.9-0.2-1.8-0.5-2.7-0.9l31.9-31.9
		C255.5,328.1,255.7,329,256,329.9z"/>
	<path class="st9" d="M252.1,337.1c0,10.7-8.7,19.4-19.4,19.4c-6,0-11.4-2.7-14.9-7c3.5,3.8,8.6,6.2,14.2,6.2
		c10.7,0,19.4-8.7,19.4-19.4c0-4.7-1.7-9-4.4-12.3C250.1,327.4,252.1,332,252.1,337.1z"/>
	<path class="st10" d="M232,355.7c10.7,0,19.4-8.7,19.4-19.4c0-10.7-8.7-19.4-19.4-19.4s-19.4,8.7-19.4,19.4
		C212.6,347,221.3,355.7,232,355.7z"/>
	<path class="st11" d="M246.7,323.6c-3.4-2.9-7.8-4.7-12.6-4.7c-10.7,0-19.4,8.7-19.4,19.4c0,4.8,1.8,9.2,4.7,12.6
		c-4.1-3.6-6.7-8.8-6.7-14.7c0-10.7,8.7-19.4,19.4-19.4C237.9,316.9,243.1,319.5,246.7,323.6z"/>
	<path class="st12" d="M241.5,324.8v-1.5l-1.8,1.5h-16l-1.2,3.6v1.5h5.1c1.6,0,2.7,0.7,3.2,1.9h-7.3l-1,2.5v1.5h8.5
		c-0.5,1.7-1.7,2.5-3.5,2.5H223l0,3.6l8.7,10.4h7.1v-1.5l-1.3-0.3l-6.4-7.9c1.9-0.6,3.4-1.4,4.5-2.6c1.1-1.1,1.7-2.5,2-4.3h2.8l1-4
		v-1.5l-1.5,1.5h-2.3c-0.2-1.1-0.5-2.1-1.1-3h3.8L241.5,324.8z"/>
	<path class="st8" d="M240.5,327.2h-3.8c0.6,0.9,0.9,1.9,1.1,3h3.8l-1,4h-2.8c-0.3,1.7-1,3.2-2,4.3c-1.1,1.1-2.6,2-4.5,2.6l7.6,9.4
		v0.3h-7.1l-8.7-10.4l0-3.6h4.5c1.8,0,3-0.9,3.5-2.5h-8.5l1-4h7.3c-0.6-1.2-1.6-1.8-3.2-1.9h-5.1l1.2-5.1h17.8L240.5,327.2z"/>
	<path class="st9" d="M223.5,330.2h1.5l-2,2L223.5,330.2z M232,323.2l-5.1,5.1h-4.4l1.2-5.1H232z M240.5,327.2h-0.3l0.4-0.4
		L240.5,327.2z M241.5,330.2l-1,4h-2.8c-0.3,1.7-1,3.2-2,4.3c-1.1,1.1-2.5,2-4.5,2.6l2.3,2.9l-4.1,4.1l-4.6-5.5l12.8-12.8
		c0,0.2,0.1,0.3,0.1,0.5L241.5,330.2z M227.5,336.8c0.6,0,1-0.1,1.5-0.3l-5,5l-0.9-1.1l0-1.5l2.1-2.1H227.5z M241.5,323.2l-0.3,1
		l-3,3h-1.6c0.2,0.3,0.4,0.7,0.6,1.1l-6.3,6.3c0.1-0.1,0.1-0.3,0.2-0.4h-3.3l11-11H241.5z M237.3,348.6l-2.2,2.2h-3.3l-0.1-0.1l4-4
		L237.3,348.6z"/>
	<path class="st13" d="M248.2,325.6c-12.6,4.4-22.6,14.1-27.5,26.4c-0.4-0.3-0.9-0.6-1.3-1c-2.9-3.4-4.7-7.8-4.7-12.6
		c0-10.7,8.7-19.4,19.4-19.4c4.8,0,9.2,1.8,12.6,4.7C247.2,324.2,247.7,324.9,248.2,325.6z"/>
</g>
</svg>
