<svg width="30" height="30" viewBox="0 0 30 30" fill="none" xmlns="http://www.w3.org/2000/svg">
<g clip-path="url(#clip0_428_135)">
<path d="M10.5819 2.26172L9.21671 2.52539C8.25577 2.71289 7.73429 3.66211 8.1503 4.47656L10.9394 8.77148L14.9999 5.49023L10.5819 2.26172ZM19.4179 2.26172L20.7831 2.52539C21.7441 2.71289 22.2655 3.66211 21.8495 4.47656L19.0605 8.77148L14.9999 5.49023L19.4179 2.26172Z" fill="#5EA570"/>
<path d="M9.57422 2.46094L11.4961 8.32031L15 5.49023L10.582 2.26758L9.57422 2.46094ZM15 5.49023L18.5039 8.32031L20.4258 2.46094L19.418 2.26758L15 5.49023Z" fill="#528E61"/>
<path d="M17.4025 8.77734H12.5978L10.3712 1.99805C10.0489 1.01367 10.7814 0 11.8185 0H18.1818C19.2189 0 19.9513 1.01367 19.629 1.99805L17.4025 8.77734Z" fill="#8BC852"/>
<path d="M18.1816 0H16.9219C17.959 0 18.6914 1.01367 18.3691 1.99805L16.1426 8.77734H17.4023L19.6289 1.99805C19.9512 1.01367 19.2187 0 18.1816 0Z" fill="#7DBE3B"/>
<path d="M26.3379 27.1934L26.0742 26.9297C25.8633 26.7187 25.8164 26.3965 25.9512 26.127C26.3262 25.3711 26.5371 24.4746 26.5371 23.4141C26.5371 17.7656 20.6426 7.06641 14.9941 7.06641C9.3457 7.06641 3.45703 17.7598 3.45703 23.4082C3.45703 24.4746 3.66797 25.3711 4.04297 26.1211C4.17773 26.3906 4.13086 26.7129 3.91992 26.9238L3.65625 27.1875C3.01172 27.832 3.01172 28.875 3.65625 29.5137C4.30078 30.1582 5.34375 30.1582 5.98242 29.5137L6.5918 28.9043C6.72656 28.7754 6.92578 28.7344 7.0957 28.8105C9.28125 29.7598 12.1699 30 15 30C17.8301 30 20.7188 29.7598 22.9043 28.8164C23.0742 28.7402 23.2734 28.7812 23.4082 28.9102L24.0176 29.5195C24.6621 30.1641 25.7051 30.1641 26.3438 29.5195C26.9824 28.875 26.9824 27.832 26.3379 27.1934Z" fill="#CBE7AF"/>
<path d="M26.3145 27.1641L26.0801 26.9297C25.8691 26.7188 25.8223 26.3965 25.957 26.127C26.332 25.3711 26.543 24.4746 26.543 23.4141C26.543 19.7344 24.041 13.9102 20.7363 10.3008C19.2539 8.68359 17.2031 7.06641 15 7.06641C14.748 7.06641 14.4902 7.08984 14.2383 7.13086C14.9883 7.25391 15.7441 7.55273 16.4766 7.99805H11.9941C10.9687 8.61328 9.9668 9.49805 9.03516 10.5527C9.11719 10.5703 9.19922 10.5762 9.28711 10.5762H17.5547C18.8145 10.5762 20.0039 11.1797 20.7363 12.2051C23.25 15.7383 25.0078 20.3262 25.0078 23.4082C25.0078 24.4746 24.7969 25.3711 24.4219 26.1211C24.2871 26.3906 24.334 26.7129 24.5449 26.9238L24.7793 27.1582C25.4238 27.8027 25.4531 28.8516 24.8145 29.502C24.6973 29.625 24.5566 29.7246 24.4043 29.8066C25.0254 30.1348 25.8105 30.0352 26.332 29.5078C26.9883 28.8691 26.959 27.8086 26.3145 27.1641Z" fill="#AAD880"/>
<path d="M14.0097 7.76958C13.7988 7.76958 13.6113 7.62309 13.5702 7.41215L13.037 4.9395C12.9843 4.6934 13.1366 4.45317 13.3827 4.40043C13.6288 4.3477 13.8691 4.50004 13.9218 4.74614L14.455 7.21879C14.5077 7.46489 14.3554 7.70512 14.1093 7.75786C14.0741 7.76958 14.0448 7.76958 14.0097 7.76958ZM15.4628 7.76958C15.2109 7.76958 15.0116 7.5645 15.0116 7.3184C15.0116 7.28325 15.0175 7.25395 15.0234 7.22465L15.5566 4.752C15.6093 4.5059 15.8495 4.35356 16.0956 4.40629C16.3417 4.45903 16.4941 4.69926 16.4413 4.94536L15.9081 7.41801C15.8554 7.62309 15.6737 7.76958 15.4628 7.76958Z" fill="#5EA570"/>
<path d="M12.4805 11.0273C12.2285 11.0273 12.0293 10.8222 12.0293 10.5761C12.0293 10.5 12.0469 10.4296 12.082 10.3652L13.043 8.56636C13.1602 8.3437 13.4355 8.26167 13.6582 8.37886C13.8809 8.49605 13.9629 8.77144 13.8457 8.99409L12.8848 10.7929C12.7969 10.9335 12.6445 11.0273 12.4805 11.0273ZM16.9922 11.0273C16.8223 11.0273 16.6699 10.9335 16.5938 10.7871L15.6328 8.98823C15.5156 8.76558 15.6035 8.49019 15.8262 8.37886C16.043 8.26753 16.3125 8.34956 16.4297 8.5605L17.3906 10.3593C17.5078 10.582 17.4258 10.8515 17.2031 10.9746C17.1387 11.0097 17.0684 11.0273 16.9922 11.0273Z" fill="#8BC852"/>
<path d="M13.6523 8.373C13.4297 8.25581 13.1602 8.33784 13.0371 8.5605L12.0762 10.3593C12.041 10.4238 12.0234 10.5 12.0234 10.5703H12.9902L13.834 8.98237C13.957 8.76558 13.8691 8.49019 13.6523 8.373ZM16.4355 8.5605C16.3184 8.33784 16.043 8.25581 15.8203 8.373C15.5977 8.49019 15.5156 8.76558 15.6328 8.98823L16.4766 10.5761H17.4434C17.4434 10.5 17.4258 10.4296 17.3906 10.3652L16.4355 8.5605Z" fill="#7DBE3B"/>
<path d="M20.3789 9.4043H9.29297C8.57812 9.4043 8.00391 8.82422 8.00391 8.11523C8.00391 7.40039 8.58398 6.82617 9.29297 6.82617H20.3789C21.0937 6.82617 21.668 7.40625 21.668 8.11523C21.668 8.82422 21.0879 9.4043 20.3789 9.4043Z" fill="#544F57"/>
<path d="M20.3789 6.82031H18.7852C19.5 6.82031 20.0742 7.40039 20.0742 8.10937C20.0742 8.82422 19.4941 9.39844 18.7852 9.39844H20.3789C21.0937 9.39844 21.668 8.81836 21.668 8.10937C21.668 7.40039 21.0879 6.82031 20.3789 6.82031Z" fill="#454045"/>
<path d="M15 24.8145C18.1357 24.8145 20.6777 22.2724 20.6777 19.1367C20.6777 16.001 18.1357 13.459 15 13.459C11.8643 13.459 9.32227 16.001 9.32227 19.1367C9.32227 22.2724 11.8643 24.8145 15 24.8145Z" fill="#5EA570"/>
<path d="M15 13.459C14.7363 13.459 14.4668 13.4766 14.209 13.5176C16.9688 13.9043 19.0898 16.2715 19.0898 19.1367C19.0898 22.002 16.9629 24.3691 14.209 24.7559C14.4668 24.791 14.7305 24.8145 15 24.8145C18.1348 24.8145 20.6777 22.2715 20.6777 19.1367C20.6777 16.002 18.1348 13.459 15 13.459Z" fill="#528E61"/>
<path d="M16.8691 16.582V16.2832L16.5234 16.582H13.377L13.1367 17.2852V17.584H14.1328C14.4492 17.5957 14.6602 17.7188 14.7715 17.9531H13.3359L13.1309 18.4336V18.7324H14.8008C14.6953 19.0547 14.4668 19.2246 14.1152 19.2305H13.2363L13.2422 19.9453L14.9473 21.9785H16.3418V21.6797L16.0957 21.6211L14.8359 20.0801C15.2168 19.9629 15.5098 19.7988 15.7148 19.5762C15.9199 19.3594 16.0547 19.0781 16.1074 18.7324H16.6523L16.8574 17.9473V17.6484L16.5703 17.9473H16.1133C16.0781 17.7305 16.0078 17.5313 15.9023 17.3555H16.6582L16.8691 16.582Z" fill="#528E61"/>
<path d="M16.6641 17.0684H15.9082C16.0195 17.2441 16.0898 17.4375 16.1191 17.6602H16.8633L16.6582 18.4453H16.1133C16.0547 18.791 15.9258 19.0723 15.7207 19.2891C15.5156 19.5059 15.2227 19.6758 14.8418 19.793L16.3477 21.6445V21.6973H14.9531L13.2422 19.6523L13.2363 18.9375H14.1152C14.4668 18.9316 14.6953 18.7617 14.8008 18.4395H13.1309L13.3359 17.6543H14.7715C14.6602 17.4199 14.4492 17.2969 14.1328 17.2852H13.1367L13.377 16.2773H16.8691L16.6641 17.0684Z" fill="#FDD835"/>
<path opacity="0.5" d="M13.3359 17.6543H13.623L13.2363 18.041L13.3359 17.6543ZM14.9941 16.2832L13.9863 17.291H13.1309L13.3711 16.2832H14.9941ZM16.6641 17.0684H16.6055L16.6816 16.9922L16.6641 17.0684ZM16.8633 17.6543L16.6582 18.4395H16.1133C16.0547 18.7852 15.9258 19.0664 15.7207 19.2832C15.5156 19.5 15.2227 19.6699 14.8418 19.7871L15.2988 20.3496L14.4961 21.1523L13.5996 20.0801L16.1074 17.5723C16.1133 17.6016 16.1191 17.6309 16.125 17.6602H16.8633V17.6543ZM14.1152 18.9375C14.2266 18.9375 14.3203 18.9199 14.4082 18.8848L13.4238 19.8691L13.2422 19.6523V19.3594L13.6641 18.9375H14.1152ZM16.8691 16.2832L16.8164 16.4766L16.2246 17.0684H15.9082C15.9492 17.1328 15.9844 17.2031 16.0137 17.2793L14.7715 18.5156C14.7832 18.4922 14.7949 18.4629 14.8008 18.4395H14.1621L16.3184 16.2832H16.8691ZM16.0312 21.252L15.5977 21.6855H14.9473L14.9297 21.6621L15.7266 20.8652L16.0312 21.252Z" fill="white"/>
</g>
<defs>
<clipPath id="clip0_428_135">
<rect width="30" height="30" fill="white"/>
</clipPath>
</defs>
</svg>
