<?xml version="1.0" encoding="utf-8"?>
<!-- Generator: Adobe Illustrator 28.0.0, SVG Export Plug-In . SVG Version: 6.00 Build 0)  -->
<svg version="1.1" id="Layer_1" xmlns="http://www.w3.org/2000/svg" xmlns:xlink="http://www.w3.org/1999/xlink" x="0px" y="0px"
	 viewBox="0 0 512 512" style="enable-background:new 0 0 512 512;" xml:space="preserve">
<style type="text/css">
	.st0{fill:#FFD8C2;}
	.st1{fill:#E0B199;}
	.st2{fill:#FFDA2D;}
	.st3{fill:#50CC7A;}
	.st4{fill:#2FAF56;}
	.st5{fill:#FDD835;}
	.st6{opacity:0.5;fill:#FFFFFF;enable-background:new    ;}
	.st7{fill:#F39E09;}
	.st8{fill:#E88102;}
	.st9{fill:#DB6704;}
	.st10{opacity:0.25;fill:#FFFFFF;enable-background:new    ;}
</style>
<g>
	<g>
		<path class="st0" d="M490.6,403.5c-6.9-12.1-21.3-17.8-34.6-13.6l-103.3,32.1c6.5-16.4-1.5-35.1-17.9-41.6
			c-3.8-1.5-7.8-2.3-11.8-2.3H218l-4-4.7c-15.9-19.2-39.6-30.2-64.5-30.2c-19.4,0.3-37.8,8.8-50.7,23.3H87.3v139.6h218.6
			c9.4,0,18.6-1.7,27.3-5.1L475.5,446c15.3-5.9,22.9-23.1,17-38.3C492,406.2,491.4,404.9,490.6,403.5L490.6,403.5z"/>
		<path class="st1" d="M365.9,418c-3.8,20.7-21.9,35.8-42.9,35.8H215.3c-3.2,0-5.8-2.6-5.8-5.8c0-3.2,2.6-5.8,5.8-5.8h107.6
			c13.1,0,24.9-8,29.7-20.1L365.9,418z"/>
		<g>
			<path class="st2" d="M314.2,366.5c-3.2,0-5.8-2.6-5.8-5.8v-64c0-3.2,2.6-5.8,5.8-5.8c3.2,0,5.8,2.6,5.8,5.8v64
				C320,363.9,317.4,366.5,314.2,366.5z M354.9,343.3c-3.2,0-5.8-2.6-5.8-5.8v-52.4c0-3.2,2.6-5.8,5.8-5.8s5.8,2.6,5.8,5.8v52.4
				C360.8,340.7,358.2,343.3,354.9,343.3z M273.5,343.3c-3.2,0-5.8-2.6-5.8-5.8v-52.4c0-3.2,2.6-5.8,5.8-5.8s5.8,2.6,5.8,5.8v52.4
				C279.3,340.7,276.7,343.3,273.5,343.3z"/>
		</g>
		<path class="st3" d="M23.3,366.5c-3.2,0-5.8,2.6-5.8,5.8v128c0,3.2,2.6,5.8,5.8,5.8h75.6V366.5H23.3z"/>
		<circle class="st4" cx="58.2" cy="407.3" r="17.5"/>
		<g>
			<path class="st5" d="M311.3,268.5c70.9,0,128.2-57.4,128.2-128.2S382.2,11.9,311.3,11.9S183.1,69.4,183.1,140.1
				S240.5,268.5,311.3,268.5z"/>
			<path class="st6" d="M311.3,11.8c-70.9,0-128.2,57.4-128.2,128.2s57.4,128.2,128.2,128.2S439.6,210.9,439.6,140
				C439.7,69.2,382.4,11.8,311.3,11.8z M311.3,263c-67.9,0-122.8-54.9-122.8-122.8S243.5,17.5,311.3,17.5s122.8,54.9,122.8,122.8
				C434.2,208.1,379.2,263,311.3,263z"/>
			<path class="st6" d="M362.6,22.3l-168.9,169c-5.7-13.3-9.2-27.5-10.4-41.9L320.8,12C335.5,13.2,349.7,16.7,362.6,22.3z
				 M423.2,77.1L248.4,251.8c-10.8-6.3-20.8-13.7-29.4-22.7L400.6,47.9C409.5,56.3,417.1,66.3,423.2,77.1z M395.3,43L214.2,224.1
				c-2.8-3.4-5.5-6.6-8-10.4L385,35C388.5,37.4,392,40.2,395.3,43z M435.7,108L279.3,264.4c-4.8-1.1-9.4-2.8-13.9-4.5L431.1,94.2
				C433.1,98.8,434.6,103.4,435.7,108z"/>
			<path class="st6" d="M415.7,145.6c0,55.5-45.1,100.6-100.6,100.6c-31.1,0-59.1-14.2-77.5-36.5c18.4,19.8,44.7,32.2,73.9,32.2
				c55.5,0,100.6-45.1,100.6-100.6c0-24.2-8.5-46.7-23.1-63.9C405.5,95.4,415.7,119.4,415.7,145.6z"/>
			<path class="st7" d="M311.3,242c55.5,0,100.6-45.1,100.6-100.6S366.8,40.9,311.3,40.9S210.7,85.9,210.7,141.4
				S255.8,242,311.3,242z"/>
			<path class="st8" d="M387.6,75.8C370,60.7,347,51.6,322,51.6c-55.5,0-100.6,45.1-100.6,100.6c0,25.1,9.2,48,24.2,65.6
				c-21.3-18.5-35-45.8-35-76.2C210.6,86.1,255.7,41,311.2,41C341.8,40.9,369.1,54.4,387.6,75.8z"/>
			<path class="st9" d="M360.9,81.6v-7.9l-9.2,7.9h-83.1l-6.3,18.6v7.9h26.5c8.4,0.3,14,3.6,16.8,9.7h-38l-5.3,12.8v7.9h44.1
				c-2.8,8.5-8.7,13-18.1,13H265l0.1,18.9l45.1,53.7h36.9v-7.9l-6.6-1.7l-33.3-40.8c10.1-3.1,17.9-7.4,23.3-13.3
				c5.5-5.7,9-13.2,10.5-22.2h14.3l5.3-20.7v-7.9l-7.6,7.9h-12c-0.7-5.7-2.8-10.9-5.6-15.6h19.9L360.9,81.6z"/>
			<path class="st5" d="M355.4,94.5h-19.9c2.8,4.8,4.8,9.8,5.6,15.6h19.6l-5.3,20.7h-14.3c-1.5,9.1-5.1,16.5-10.5,22.2
				c-5.5,5.7-13.3,10.2-23.3,13.3l39.7,48.9v1.5h-36.8l-45.1-53.7l-0.1-18.9h23c9.4-0.3,15.3-4.6,18.1-13h-44.1l5.3-20.7h38
				c-2.8-6.3-8.4-9.4-16.8-9.7h-26.5l6.3-26.5h92.5L355.4,94.5z"/>
			<path class="st6" d="M267.4,110h7.6l-10.2,10.2L267.4,110z M311.3,73.7l-26.5,26.5h-22.6l6.3-26.5H311.3z M355.4,94.5h-1.5
				l2.1-2.1L355.4,94.5z M360.7,110l-5.3,20.7h-14.4c-1.5,9.1-5.1,16.5-10.5,22.2c-5.5,5.7-13.2,10.2-23.3,13.3l12.2,15l-21,21.2
				l-23.7-28.3l66.3-66.3c0.1,0.7,0.4,1.7,0.4,2.4L360.7,110z M288,143.9c2.8-0.1,5.3-0.5,7.7-1.4l-26.1,26.1l-4.8-5.7l-0.1-7.8
				l11.1-11.1L288,143.9L288,143.9z M360.9,73.7l-1.4,5.1l-15.6,15.7h-8.4c1.1,1.7,2.1,3.6,2.8,5.5l-32.8,32.8
				c0.4-0.7,0.5-1.4,0.7-2.1h-16.8l57-57L360.9,73.7L360.9,73.7z M338.7,205.1l-11.6,11.7h-17.2l-0.5-0.5l20.9-20.9L338.7,205.1z"/>
			<path class="st10" d="M395.3,85.9c-65.1,22.8-117.4,73-142.9,136.8c-2.3-1.7-4.5-3.4-6.5-5.1C230.6,200,221.6,177,221.6,152
				c0-55.5,45.1-100.6,100.6-100.6c25.1,0,48,9.2,65.6,24.2C390.4,78.9,393,82.4,395.3,85.9z"/>
		</g>
	</g>
</g>
</svg>
