<?xml version="1.0" encoding="utf-8"?>
<!-- Generator: Adobe Illustrator 28.0.0, SVG Export Plug-In . SVG Version: 6.00 Build 0)  -->
<svg version="1.1" id="Layer_1" xmlns="http://www.w3.org/2000/svg" xmlns:xlink="http://www.w3.org/1999/xlink" x="0px" y="0px"
	 viewBox="0 0 512 512" style="enable-background:new 0 0 512 512;" xml:space="preserve">
<style type="text/css">
	.st0{fill-rule:evenodd;clip-rule:evenodd;fill:#FFD6BD;}
	.st1{fill-rule:evenodd;clip-rule:evenodd;fill:#F9C6AA;}
	.st2{fill-rule:evenodd;clip-rule:evenodd;fill:#64B5F6;}
	.st3{fill-rule:evenodd;clip-rule:evenodd;fill:#B4D2D7;}
	.st4{fill-rule:evenodd;clip-rule:evenodd;fill:#DBF4FF;}
	.st5{fill-rule:evenodd;clip-rule:evenodd;fill:#C5EDFF;}
	.st6{fill-rule:evenodd;clip-rule:evenodd;fill:#FFDA2D;}
	.st7{fill:#FDD835;}
	.st8{opacity:0.5;fill:#FFFFFF;enable-background:new    ;}
	.st9{fill:#F39E09;}
	.st10{fill:#E88102;}
	.st11{fill:#DB6704;}
	.st12{opacity:0.25;fill:#FFFFFF;enable-background:new    ;}
</style>
<g>
	<g>
		<path class="st0" d="M76.6,389.2l26.6,99.4c6.4-5.4,12.2-9.7,17.6-13c6.3-4.2,12.7-7.1,19.5-8.5c7.5-1.6,15.2-1.2,22.6,0.6
			l54.1,12.4c12.3,2.8,23.9,1.7,34.8-4.6l135.2-78.1c12.1-7,16.2-22.5,9.3-34.6c-7-12.1-22.5-16.2-34.6-9.3l-94.1,54.4
			c0.1-0.2,0.1-0.5,0.2-0.7c4-14.8-4.8-30.4-19.7-34.4l-94.4-25.7c-12.5-1.7-23.9,1.4-33.9,9.1L76.6,389.2z"/>
		<path class="st1" d="M236.6,414.5c12.8,3.5,26-2.6,32-13.8c-0.1,2.2-0.4,4.4-1,6.5c-4,14.9-19.5,23.7-34.4,19.7
			c-18.4-5-36.8-9.9-55.2-14.8c-3.4-0.9-5.5-4.5-4.6-7.9c0.9-3.4,4.5-5.5,7.9-4.6C199.8,404.5,218.2,409.4,236.6,414.5L236.6,414.5z
			"/>
		<path class="st2" d="M83.4,368.1l32.6,121.5c0.8,3-1,6-3.9,6.8l-22.5,6c-3,0.8-6-1-6.8-3.9L50.1,377c-0.8-3,1-6,3.9-6.8l22.5-6
			C79.5,363.4,82.6,365.2,83.4,368.1z"/>
		<path class="st3" d="M297.6,290.5v29.3c0,14-11.5,25.5-25.5,25.5h-18.1c-14,0-25.5-11.5-25.5-25.5v-24L297.6,290.5z"/>
		<path class="st4" d="M263.1,9.3c69.4,0,125.7,56.3,125.7,125.7c0,46-24.7,86.1-61.5,108.1c-7.9,4.7-12.4,12.7-12.4,21.9v30.7
			c0,9.5-7.8,17.3-17.3,17.3h-69.1c-9.5,0-17.3-7.8-17.3-17.3V265c0-9.2-4.5-17.2-12.4-21.9C162,221.2,137.4,181,137.4,135
			C137.4,65.6,193.7,9.3,263.1,9.3L263.1,9.3z"/>
		<path class="st5" d="M314.9,295.7V283H211.3v12.6c0,9.5,7.8,17.3,17.3,17.3h69.1C307.2,312.9,314.9,305.2,314.9,295.7L314.9,295.7
			z"/>
		<path class="st6" d="M130.4,48.2c3.8,2.2,5.1,7.1,2.8,10.9c-2.2,3.8-7,5-10.8,2.9L94.1,45.7c-3.8-2.2-5.1-7.1-2.8-10.9
			c2.2-3.8,7-5,10.8-2.9L130.4,48.2z M395.8,219.9c-3.8-2.2-5.1-7.1-2.8-10.9c2.2-3.8,7-5,10.8-2.9l28.2,16.3
			c3.8,2.2,5.1,7.1,2.8,10.9c-2.2,3.8-7,5-10.8,2.9L395.8,219.9z M421.5,142.1c-4.4-0.1-7.9-3.7-7.8-8.1c0.1-4.3,3.5-7.8,7.8-7.8
			h32.6c4.4,0.1,7.9,3.7,7.8,8.1c-0.1,4.3-3.5,7.8-7.8,7.8H421.5z M403.8,62c-3.8,2.2-8.7,0.8-10.9-3c-2.2-3.8-0.9-8.6,2.9-10.8
			l28.2-16.3c3.8-2.2,8.7-0.8,10.9,3c2.2,3.8,0.9,8.6-2.9,10.8L403.8,62z M122.4,206.1c3.8-2.2,8.7-0.8,10.9,3
			c2.2,3.8,0.9,8.6-2.9,10.8l-28.2,16.3c-3.8,2.2-8.7,0.8-10.9-3c-2.2-3.8-0.9-8.6,2.9-10.8L122.4,206.1z M105.2,126
			c4.4,0,8,3.6,8,8s-3.6,8-8,8H72.6c-4.4,0-8-3.6-8-8s3.6-8,8-8H105.2z"/>
	</g>
</g>
<g>
	<path class="st7" d="M263.1,259.5c70.9,0,128.2-57.4,128.2-128.2S334,2.9,263.1,2.9S134.9,60.4,134.9,131.1
		S192.3,259.5,263.1,259.5z"/>
	<path class="st8" d="M263.1,2.8c-70.9,0-128.2,57.4-128.2,128.2s57.4,128.2,128.2,128.2S391.4,201.9,391.4,131
		C391.5,60.2,334.1,2.8,263.1,2.8z M263.1,254c-67.9,0-122.8-54.9-122.8-122.8S195.3,8.5,263.1,8.5s122.8,54.9,122.8,122.8
		C386,199.1,331,254,263.1,254z"/>
	<path class="st8" d="M314.4,13.4l-168.9,169c-5.7-13.3-9.2-27.5-10.4-41.9L272.5,3C287.3,4.2,301.5,7.7,314.4,13.4z M375,68.1
		L200.2,242.8c-10.8-6.3-20.8-13.7-29.4-22.7L352.4,38.9C361.3,47.3,368.9,57.3,375,68.1z M347,34L166,215.1
		c-2.8-3.4-5.5-6.6-8-10.4L336.8,26C340.3,28.4,343.8,31.2,347,34z M387.5,99L231.1,255.4c-4.8-1.1-9.4-2.8-13.9-4.5L382.8,85.2
		C384.9,89.8,386.4,94.4,387.5,99z"/>
	<path class="st8" d="M367.5,136.7c0,55.5-45.1,100.6-100.6,100.6c-31.1,0-59.1-14.2-77.5-36.5c18.4,19.8,44.7,32.2,73.9,32.2
		c55.5,0,100.6-45.1,100.6-100.6c0-24.2-8.5-46.7-23.1-63.9C357.3,86.4,367.5,110.4,367.5,136.7z"/>
	<path class="st9" d="M263.1,233c55.5,0,100.6-45.1,100.6-100.6S318.6,31.9,263.1,31.9S162.5,76.9,162.5,132.4S207.6,233,263.1,233z
		"/>
	<path class="st10" d="M339.4,66.8c-17.6-15.1-40.6-24.2-65.6-24.2c-55.5,0-100.6,45.1-100.6,100.6c0,25.1,9.2,48,24.2,65.6
		c-21.3-18.5-35-45.8-35-76.2c0-55.5,45.1-100.6,100.6-100.6C293.6,31.9,320.9,45.4,339.4,66.8z"/>
	<path class="st11" d="M312.6,72.6v-7.9l-9.2,7.9h-83.1l-6.3,18.6v7.9h26.5c8.4,0.3,14,3.6,16.8,9.7h-38l-5.3,12.8v7.9h44.1
		c-2.8,8.5-8.7,13-18.1,13h-23.3l0.1,18.9l45.1,53.7h36.9v-7.9l-6.6-1.7L259,164.8c10.1-3.1,17.9-7.4,23.3-13.3
		c5.5-5.7,9-13.2,10.5-22.2H307l5.3-20.7v-7.9l-7.6,7.9h-12c-0.7-5.7-2.8-10.9-5.6-15.6h19.9L312.6,72.6z"/>
	<path class="st7" d="M307.2,85.5h-19.9c2.8,4.8,4.8,9.8,5.6,15.6h19.6l-5.3,20.7h-14.3c-1.5,9.1-5.1,16.5-10.5,22.2
		c-5.5,5.7-13.3,10.2-23.3,13.3l39.7,48.9v1.5h-36.8L217,153.9l-0.1-18.9h23c9.4-0.3,15.3-4.6,18.1-13h-44.1l5.3-20.7h38
		c-2.8-6.3-8.4-9.4-16.8-9.7h-26.5l6.3-26.5h92.5L307.2,85.5z"/>
	<path class="st8" d="M219.2,101h7.6l-10.2,10.2L219.2,101z M263.1,64.7l-26.5,26.5h-22.6l6.3-26.5H263.1z M307.2,85.5h-1.5l2.1-2.1
		L307.2,85.5z M312.5,101l-5.3,20.7h-14.4c-1.5,9.1-5.1,16.5-10.5,22.2c-5.5,5.7-13.2,10.2-23.3,13.3l12.2,15l-21,21.2l-23.7-28.3
		l66.3-66.3c0.1,0.7,0.4,1.7,0.4,2.4L312.5,101z M239.8,134.9c2.8-0.1,5.3-0.5,7.7-1.4l-26.1,26.1l-4.8-5.7l-0.1-7.8l11.1-11.1
		L239.8,134.9L239.8,134.9z M312.6,64.7l-1.4,5.1l-15.6,15.7h-8.4c1.1,1.7,2.1,3.6,2.8,5.5l-32.8,32.8c0.4-0.7,0.5-1.4,0.7-2.1
		h-16.8l57-57L312.6,64.7L312.6,64.7z M290.5,196.1l-11.6,11.7h-17.2l-0.5-0.5l20.9-20.9L290.5,196.1z"/>
	<path class="st12" d="M347,76.9c-65.1,22.8-117.4,73-142.9,136.8c-2.3-1.7-4.5-3.4-6.5-5.1c-15.1-17.6-24.2-40.6-24.2-65.6
		c0-55.5,45.1-100.6,100.6-100.6c25.1,0,48,9.2,65.6,24.2C342.2,69.9,344.8,73.4,347,76.9z"/>
</g>
</svg>
