<?xml version="1.0" encoding="utf-8"?>
<!-- Generator: Adobe Illustrator 28.0.0, SVG Export Plug-In . SVG Version: 6.00 Build 0)  -->
<svg version="1.1" id="Layer_1" xmlns="http://www.w3.org/2000/svg" xmlns:xlink="http://www.w3.org/1999/xlink" x="0px" y="0px"
	 viewBox="0 0 512 512" style="enable-background:new 0 0 512 512;" xml:space="preserve">
<style type="text/css">
	.st0{fill:#81C784;}
	.st1{fill:#FDD835;}
	.st2{opacity:0.5;fill:#FFFFFF;enable-background:new    ;}
	.st3{fill:#F39E09;}
	.st4{fill:#E88102;}
	.st5{fill:#DB6704;}
	.st6{opacity:0.25;fill:#FFFFFF;enable-background:new    ;}
	.st7{fill:#66BB6A;}
	.st8{fill:#FFB74D;}
	.st9{fill:#FFA726;}
	.st10{fill:#EEEEEE;}
	.st11{fill:#E0E0E0;}
</style>
<g>
	<g>
		<path class="st0" d="M241,158.7H136.3c0,0-97.3,82.3-97.3,187.1c0,45.5,36.9,82.3,82.3,82.3H256c45.5,0,82.3-36.9,82.3-82.3
			C338.3,241,241,158.7,241,158.7z"/>
		<g>
			<path class="st1" d="M188.9,381.4c45.3,0,82.1-36.8,82.1-82.1c0-45.3-36.8-82.1-82.1-82.1s-82.1,36.8-82.1,82.1
				C106.8,344.6,143.6,381.4,188.9,381.4z"/>
			<path class="st2" d="M187.8,220.4c-45.3,0-82.1,36.8-82.1,82.1c0,45.3,36.8,82.1,82.1,82.1s82.1-36.8,82.1-82.1
				C269.9,257.2,233.2,220.4,187.8,220.4z M187.8,381.1c-43.4,0-78.6-35.1-78.6-78.6c0-43.4,35.2-78.5,78.6-78.5
				s78.6,35.1,78.6,78.6C266.4,346,231.2,381.1,187.8,381.1z"/>
			<path class="st2" d="M221.8,224L113.7,332.1c-3.7-8.5-5.9-17.5-6.6-26.8l87.9-87.9C204.4,218.1,213.5,220.4,221.8,224z
				 M260.6,259L148.7,370.8c-7-4-13.3-8.8-18.8-14.5l116.1-116C251.7,245.7,256.6,252,260.6,259z M242.7,237.2L126.8,353
				c-1.8-2.1-3.5-4.3-5.1-6.6L236.1,232C238.3,233.6,240.5,235.3,242.7,237.2z M268.5,278.8l-100,100c-3-0.7-6-1.8-8.9-2.9l106-106
				C266.8,272.8,267.8,275.8,268.5,278.8z"/>
			<path class="st2" d="M255.7,302.9c0,35.5-28.8,64.4-64.4,64.4c-20,0-37.8-9.1-49.6-23.3c11.7,12.7,28.5,20.7,47.3,20.7
				c35.5,0,64.4-28.8,64.4-64.4c0-15.6-5.5-29.9-14.7-40.9C249.2,270.6,255.7,286,255.7,302.9z"/>
			<path class="st3" d="M188.9,364.5c35.5,0,64.4-28.8,64.4-64.4c0-35.5-28.8-64.4-64.4-64.4s-64.4,28.8-64.4,64.4
				C124.6,335.7,153.4,364.5,188.9,364.5z"/>
			<path class="st4" d="M237.7,258.2c-11.3-9.7-26-15.6-42-15.6c-35.5,0-64.4,28.8-64.4,64.4c0,16,5.9,30.7,15.6,42
				c-13.6-11.8-22.4-29.3-22.4-48.7c0-35.5,28.8-64.4,64.4-64.4C208.5,235.8,225.9,244.4,237.7,258.2z"/>
			<path class="st5" d="M220.6,261.8v-5.1l-5.9,5.1h-53.2l-4,12v5.1h16.9c5.4,0.1,9,2.3,10.8,6.2h-24.3l-3.4,8.1v5.1h28.3
				c-1.8,5.5-5.6,8.3-11.6,8.4h-14.8l0.1,12.1l28.8,34.4h23.6v-5.1l-4.3-1L186.2,321c6.5-2,11.4-4.8,14.9-8.5
				c3.5-3.7,5.7-8.4,6.7-14.2h9.2l3.4-13.2V280l-4.8,5.1h-7.7c-0.5-3.7-1.8-7-3.6-10h12.8L220.6,261.8z"/>
			<path class="st1" d="M217.1,270.1h-12.8c1.8,3,3,6.3,3.6,10h12.5l-3.4,13.2h-9.2c-1,5.8-3.2,10.6-6.7,14.2
				c-3.5,3.7-8.5,6.5-14.9,8.5l25.4,31.3v1h-23.6l-28.8-34.4l-0.1-12.1h14.9c6-0.1,9.8-2.9,11.6-8.4h-28.3l3.4-13.2h24.3
				c-1.8-4-5.4-6-10.8-6.2h-16.9l4-17h59.1L217.1,270.1z"/>
			<path class="st2" d="M160.8,280h4.8l-6.5,6.5L160.8,280z M188.9,256.8l-17,17h-14.5l4-17H188.9z M217.1,270.1h-1l1.3-1.3
				L217.1,270.1z M220.5,280l-3.4,13.2h-9.2c-1,5.8-3.2,10.6-6.7,14.2c-3.5,3.7-8.4,6.5-14.9,8.5l7.8,9.5l-13.5,13.6L165.3,321
				l42.4-42.4c0.1,0.5,0.2,1,0.2,1.5L220.5,280z M174.1,301.7c1.8-0.1,3.4-0.4,4.9-0.9l-16.7,16.7l-3-3.7l-0.1-5l7.1-7.1H174.1z
				 M220.6,256.8l-0.9,3.2l-10,10.1h-5.4c0.7,1.1,1.3,2.3,1.8,3.5l-21,21c0.2-0.4,0.4-0.9,0.5-1.3h-10.9l36.5-36.5H220.6z
				 M206.5,340.9l-7.4,7.4h-11l-0.3-0.4l13.4-13.4L206.5,340.9z"/>
			<path class="st6" d="M242.7,264.6c-41.7,14.6-75.1,46.7-91.4,87.5c-1.5-1-2.9-2.1-4.2-3.3c-9.7-11.3-15.6-26-15.6-42
				c0-35.5,28.8-64.4,64.4-64.4c16,0,30.7,5.9,42,15.6C239.5,260.2,241.2,262.4,242.7,264.6z"/>
		</g>
		<path class="st7" d="M338.3,345.8c0,45.4-36.8,82.3-82.2,82.3c0,0-0.1,0-0.1,0H121.3c-30.8,0-59-17.1-73.1-44.4
			c16,14.3,36.7,22.2,58.1,22h112.2c45.5,0,82.3-33.7,82.3-75.4c0-48-24.3-90.9-48.6-121.8c-14.3-18.3-30.7-35-48.6-49.7H241
			c18.1,16.2,34.5,34.4,48.6,54.2C314,246.6,338.3,293.4,338.3,345.8z"/>
		<path class="st0" d="M248.5,39c-15,0-15,7.5-29.9,7.5s-15-7.5-29.9-7.5c-15,0-15,7.5-29.9,7.5s-15-7.5-29.9-7.5
			c-7.5,0-15,7.5-15,29.9c1,19.6,9,38.1,22.4,52.4H241c13.5-14.2,21.4-32.8,22.4-52.4C263.5,46.5,256,39,248.5,39z"/>
		<path class="st7" d="M263.5,68.9c-1,19.6-9,38.1-22.4,52.4H136.3c-6.2-6.7-11.3-14.2-15.2-22.4h63.4c14,0,26.8-7.8,33.2-20.2
			c5.3-9.9,8.1-20.9,8.3-32.2v-0.8c8.1-1.9,10.5-6.7,22.4-6.7C256,39,263.5,46.5,263.5,68.9z"/>
		<path class="st8" d="M132.5,121.3h112.2c10.3,0,18.7,8.4,18.7,18.7l0,0c0,10.3-8.4,18.7-18.7,18.7H132.5
			c-10.3,0-18.7-8.4-18.7-18.7l0,0C113.8,129.7,122.2,121.3,132.5,121.3z"/>
		<path class="st9" d="M263.5,140c0,10.3-8.3,18.7-18.6,18.7c0,0-0.1,0-0.1,0H132.5c-10.3,0-18.7-8.4-18.7-18.7
			c0-1.1,0.1-2.3,0.3-3.4c3.5,4.5,8.9,7.1,14.7,7.1h78.6c10.3,0,18.7-8.3,18.7-18.6c0,0,0-0.1,0-0.1c0-1.3-0.1-2.5-0.4-3.7h19.1
			C255.1,121.3,263.5,129.7,263.5,140z"/>
		<circle class="st8" cx="360.8" cy="360.8" r="112.2"/>
		<path class="st9" d="M473,360.8c0,62-50.2,112.2-112.2,112.2c-27.8,0-54.6-10.3-75.3-29c58.4,20.9,122.6-9.5,143.5-67.9
			c15.3-42.8,3.3-90.6-30.5-121.1C443.2,271,473,313.3,473,360.8z"/>
		<path class="st10" d="M327.1,353.3c-14.5,0-26.2-11.7-26.2-26.2s11.7-26.2,26.2-26.2s26.2,11.7,26.2,26.2
			C353.3,341.5,341.5,353.3,327.1,353.3z M327.1,315.9c-6.2,0-11.2,5-11.2,11.2s5,11.2,11.2,11.2s11.2-5,11.2-11.2
			C338.3,320.9,333.3,315.9,327.1,315.9z M394.4,420.6c-14.5,0-26.2-11.7-26.2-26.2s11.7-26.2,26.2-26.2s26.2,11.7,26.2,26.2
			C420.6,408.9,408.9,420.6,394.4,420.6z M394.4,383.2c-6.2,0-11.2,5-11.2,11.2s5,11.2,11.2,11.2s11.2-5,11.2-11.2
			C405.6,388.2,400.6,383.2,394.4,383.2z"/>
		<path class="st11" d="M420.6,394.4c0-0.1,0-0.2,0-0.3c-5.5,9.5-12.4,18.2-20.4,25.8C412.1,417.2,420.6,406.7,420.6,394.4z"/>
		<path class="st10" d="M315.9,413.1c-4.1,0-7.5-3.4-7.5-7.5c0-2,0.8-3.9,2.2-5.3l89.8-89.8c3-2.9,7.7-2.8,10.6,0.2
			c2.8,2.9,2.8,7.5,0,10.4l-89.8,89.8C319.8,412.4,317.8,413.1,315.9,413.1z"/>
	</g>
</g>
</svg>
