<?xml version="1.0" encoding="utf-8"?>
<!-- Generator: Adobe Illustrator 28.0.0, SVG Export Plug-In . SVG Version: 6.00 Build 0)  -->
<svg version="1.1" id="Layer_1" xmlns="http://www.w3.org/2000/svg" xmlns:xlink="http://www.w3.org/1999/xlink" x="0px" y="0px"
	 viewBox="0 0 512 512" style="enable-background:new 0 0 512 512;" xml:space="preserve">
<style type="text/css">
	.st0{fill-rule:evenodd;clip-rule:evenodd;fill:#AB894D;}
	.st1{fill-rule:evenodd;clip-rule:evenodd;fill:#EABC6B;}
	.st2{fill-rule:evenodd;clip-rule:evenodd;fill:#9A7B45;}
	.st3{fill-rule:evenodd;clip-rule:evenodd;fill:#D3A960;}
	.st4{fill-rule:evenodd;clip-rule:evenodd;fill:#FBC894;}
	.st5{fill-rule:evenodd;clip-rule:evenodd;fill:#FBBD80;}
	.st6{fill-rule:evenodd;clip-rule:evenodd;fill:#E2AA73;}
	.st7{fill-rule:evenodd;clip-rule:evenodd;fill:#0593FC;}
	.st8{fill-rule:evenodd;clip-rule:evenodd;fill:#0584E3;}
	.st9{fill:#FDD835;}
	.st10{opacity:0.5;fill:#FFFFFF;enable-background:new    ;}
	.st11{fill:#F39E09;}
	.st12{fill:#E88102;}
	.st13{fill:#DB6704;}
	.st14{opacity:0.25;fill:#FFFFFF;enable-background:new    ;}
	.st15{fill-rule:evenodd;clip-rule:evenodd;fill:#056BB8;}
	.st16{fill-rule:evenodd;clip-rule:evenodd;fill:#FEA832;}
	.st17{fill:#056BB8;}
	.st18{fill-rule:evenodd;clip-rule:evenodd;fill:#0560A6;}
</style>
<g>
	<g>
		<path class="st0" d="M218.6,268.1c-57.6,0-104.2-44.1-104.2-98.5c0-47,35.3-91.1,81.5-112.2l-16.7-38.7c-2.4-5.5-1-11.6,3.3-15.5
			c3.4-3.1,8.3-3.5,12.2-1l3.7,2.4c3.4,2.2,7.5,2.2,10.9,0l3.8-2.4c3.4-2.2,7.5-2.2,10.9,0l3.8,2.4c3.4,2.2,7.5,2.2,10.9,0l3.7-2.4
			c3.9-2.5,8.8-2.1,12.2,1c4.3,3.8,5.7,10,3.3,15.5l-16.7,38.7c46.2,21.2,81.5,65.3,81.5,112.2C322.8,224,276.2,268.1,218.6,268.1
			L218.6,268.1z"/>
		<path class="st1" d="M180.8,44.7h75.6c7,0,12.6,5.7,12.6,12.6S263.3,70,256.4,70h-75.6c-6.9,0-12.6-5.7-12.6-12.6
			S173.9,44.7,180.8,44.7z"/>
		<path class="st2" d="M218.6,268.1c-57.6,0-104.2-44.1-104.2-98.5c0-39.7,25.2-77.4,61-100.8c1.6,0.8,3.5,1.2,5.4,1.2h3.6
			c-34.8,23.6-59.1,60.6-59.1,99.6c0,52.7,43.8,95.7,98.8,98.4C222.2,268,220.4,268.1,218.6,268.1L218.6,268.1z M190.5,44.7
			l-11.2-26.1c-2.4-5.5-1-11.6,3.3-15.5c3.4-3.1,8.3-3.5,12.2-1l0,0c-0.5,0.3-0.9,0.6-1.3,1c-4.3,3.9-5.7,10-3.3,15.5l11.2,26.1
			H190.5z M209.4,4.5l3.8-2.4c3.4-2.2,7.5-2.2,10.9,0l0,0l-3.8,2.4C216.9,6.7,212.8,6.7,209.4,4.5L209.4,4.5z M238.7,4.5l3.7-2.4
			c3.4-2.2,7.6-2.1,10.9,0l-3.7,2.4C246.2,6.7,242.1,6.7,238.7,4.5L238.7,4.5z"/>
		<path class="st3" d="M180.8,44.7h10.9c-6.9,0-12.6,5.7-12.6,12.6S184.8,70,191.7,70h-10.9c-6.9,0-12.6-5.7-12.6-12.6
			S173.9,44.7,180.8,44.7z"/>
		<path class="st4" d="M303.1,407.1l76.5-41.6c13.3-7.2,18.2-24,11-37.4c-7.2-13.3-24-18.2-37.3-11l-82.9,45.1L303.1,407.1z"/>
		<path class="st5" d="M290.7,456.6l160.1-87.1c13.3-7.2,18.2-24,11-37.3c-7.2-13.3-24-18.2-37.3-11l-82.7,45
			c-1.3-10.2-8.4-19.4-18.9-22.8l-94.6-30.5c-25.3-8.1-50-5.8-73.3,6.9l-97.1,52.8l55.8,102.5l36.2-19.7c16.9-9.2,34.8-10.9,53.1-5
			l34.6,11.1C255.9,467.5,273.8,465.8,290.7,456.6L290.7,456.6z"/>
		<path class="st6" d="M93.2,353.4l-35.4,19.2l55.8,102.5l36.2-19.7c0.6-0.3,1.1-0.6,1.7-0.9L93.2,353.4z"/>
		<path class="st7" d="M21.8,368.4l80.4,139.5c2,3.4,6.4,4.6,9.8,2.7l35.8-20.6c3.4-2,4.6-6.4,2.6-9.8L70,340.7
			c-2-3.5-6.4-4.6-9.8-2.7l-35.7,20.6C21,360.6,19.8,365,21.8,368.4L21.8,368.4z"/>
		<path class="st6" d="M355.5,358.7c2,7.6,2,15.9-0.6,24c-7.2,22.3-31.2,34.6-53.5,27.5l-70.6-22.7c-2.8-0.9-4.7-3.2-5.1-6.2
			c-0.4-2.9,0.9-5.6,3.4-7.2l0.2-0.1c1.9-1.2,4-1.4,6.2-0.7l70.4,22.6c14.4,4.6,30-3.3,34.6-17.7c1.3-3.9,1.6-8,1.1-11.9
			L355.5,358.7z"/>
		<path class="st5" d="M188.1,357.8c12.5,4,25.1,8.1,37.6,12.1c26.8,8.6,53.6,17.2,80.4,25.8c14.4,4.6,30-3.3,34.6-17.7
			c4.6-14.4-3.3-30-17.8-34.6l-73.4-23.6L188.1,357.8z"/>
		<path class="st8" d="M21.8,368.4l5.8,10.1c-2-3.4-0.8-7.8,2.6-9.8L66,348.1c3.3-1.9,7.6-0.9,9.6,2.3l-5.6-9.8
			c-2-3.4-6.4-4.6-9.8-2.6l-35.7,20.6C21,360.6,19.8,365,21.8,368.4L21.8,368.4z"/>
		<g>
			<path class="st9" d="M224,229.3c33.6,0,60.8-27.2,60.8-60.8c0-33.6-27.2-60.8-60.8-60.8s-60.8,27.2-60.8,60.8
				C163.2,202,190.4,229.3,224,229.3z"/>
			<path class="st10" d="M224,107.6c-33.6,0-60.8,27.2-60.8,60.8c0,33.6,27.2,60.8,60.8,60.8s60.8-27.2,60.8-60.8
				C284.9,134.8,257.7,107.6,224,107.6z M224,226.6c-32.2,0-58.2-26-58.2-58.2c0-32.2,26.1-58.2,58.2-58.2s58.2,26,58.2,58.2
				C282.3,200.7,256.2,226.6,224,226.6z"/>
			<path class="st10" d="M248.4,112.6l-80.1,80.1c-2.7-6.3-4.3-13-4.9-19.8l65.1-65.1C235.5,108.3,242.2,110,248.4,112.6z
				 M277.1,138.6l-82.9,82.9c-5.2-2.9-9.8-6.5-13.9-10.8l86-86C270.5,128.7,274.2,133.4,277.1,138.6z M263.9,122.4L178,208.2
				c-1.4-1.6-2.6-3.2-3.8-4.9l84.8-84.7C260.6,119.7,262.3,121.1,263.9,122.4z M283,153.2l-74.1,74.1c-2.2-0.5-4.5-1.3-6.6-2.1
				l78.6-78.6C281.7,148.8,282.4,151,283,153.2z"/>
			<path class="st10" d="M273.5,171.1c0,26.3-21.4,47.7-47.7,47.7c-14.8,0-28-6.7-36.8-17.3c8.7,9.4,21.2,15.3,35,15.3
				c26.3,0,47.7-21.4,47.7-47.7c0-11.5-4.1-22.1-10.9-30.3C268.7,147.2,273.5,158.6,273.5,171.1z"/>
			<path class="st11" d="M224,216.7c26.3,0,47.7-21.3,47.7-47.7c0-26.3-21.3-47.7-47.7-47.7s-47.7,21.3-47.7,47.7
				C176.4,195.4,197.7,216.7,224,216.7z"/>
			<path class="st12" d="M260.2,138c-8.4-7.2-19.2-11.5-31.1-11.5c-26.3,0-47.7,21.4-47.7,47.7c0,11.9,4.3,22.7,11.5,31.1
				c-10.1-8.8-16.6-21.7-16.6-36.1c0-26.3,21.4-47.7,47.7-47.7C238.5,121.4,251.5,127.8,260.2,138z"/>
			<path class="st13" d="M247.5,140.7v-3.8l-4.3,3.8h-39.4l-3,8.9v3.8h12.5c4,0.1,6.6,1.7,8,4.6h-18l-2.6,6v3.8h20.9
				c-1.3,4.1-4.1,6.1-8.6,6.2h-11l0.1,9l21.4,25.5H241v-3.8l-3.2-0.8L222,184.5c4.8-1.5,8.5-3.5,11-6.3c2.6-2.7,4.2-6.3,4.9-10.5
				h6.8l2.6-9.8v-3.8l-3.6,3.8h-5.7c-0.4-2.7-1.3-5.2-2.7-7.4h9.5L247.5,140.7z"/>
			<path class="st9" d="M244.9,146.8h-9.5c1.4,2.2,2.2,4.7,2.7,7.4h9.3l-2.6,9.8h-6.8c-0.7,4.3-2.4,7.8-4.9,10.5
				c-2.6,2.7-6.3,4.8-11,6.3l18.8,23.2v0.7h-17.5L202,179.2l-0.1-9h11c4.5-0.1,7.3-2.2,8.6-6.2h-20.9l2.6-9.8h18
				c-1.4-2.9-4-4.5-8-4.6h-12.5l3-12.6h43.8L244.9,146.8z"/>
			<path class="st10" d="M203.2,154.2h3.6L202,159L203.2,154.2z M224,136.9l-12.6,12.6h-10.7l3-12.6H224z M244.9,146.8h-0.7l1-1
				L244.9,146.8z M247.4,154.2l-2.6,9.8H238c-0.7,4.3-2.4,7.8-4.9,10.5c-2.6,2.7-6.3,4.8-11,6.3l5.8,7.1l-10,10.1l-11.3-13.4
				l31.4-31.4c0.1,0.4,0.2,0.8,0.2,1.1L247.4,154.2z M213,170.2c1.4-0.1,2.6-0.3,3.6-0.7l-12.3,12.3l-2.2-2.7l-0.1-3.7l5.3-5.3H213z
				 M247.5,136.9l-0.7,2.4l-7.4,7.4h-4c0.5,0.8,1,1.7,1.4,2.6l-15.6,15.6c0.2-0.3,0.3-0.7,0.4-1h-8l27-27H247.5z M237,199.2
				l-5.5,5.5h-8.2l-0.2-0.3l9.9-9.9L237,199.2z"/>
			<path class="st14" d="M263.9,142.7c-30.9,10.8-55.7,34.6-67.7,64.9c-1.1-0.8-2.1-1.6-3.1-2.4c-7.2-8.4-11.5-19.2-11.5-31.1
				c0-26.3,21.4-47.7,47.7-47.7c11.9,0,22.7,4.3,31.1,11.5C261.5,139.4,262.8,141.1,263.9,142.7z"/>
		</g>
	</g>
	<path class="st7" d="M293.7,127.7h184.8c6.9,0,12.6,5.7,12.6,12.6v115.2c0,6.9-5.7,12.6-12.6,12.6H293.7c-7,0-12.6-5.7-12.6-12.6
		V140.3C281.1,133.4,286.8,127.7,293.7,127.7z"/>
	<path class="st15" d="M281,151.7h210.1v24H281V151.7z"/>
	<path class="st16" d="M317.6,205.3h23.7c2.7,0,4.8,2.2,4.8,4.8v23.7c0,2.6-2.2,4.8-4.8,4.8h-23.7c-2.7,0-4.8-2.2-4.8-4.8V210
		C312.8,207.4,315,205.3,317.6,205.3z"/>
	<path class="st17" d="M406.3,218.8c-4.5,0-8.2-3.7-8.2-8.2s3.7-8.2,8.2-8.2h53.1c4.6,0,8.2,3.7,8.2,8.2s-3.7,8.2-8.2,8.2H406.3z
		 M406.3,241.5c-4.5,0-8.2-3.7-8.2-8.2s3.7-8.2,8.2-8.2h26.5c4.6,0,8.2,3.7,8.2,8.2s-3.7,8.2-8.2,8.2H406.3z"/>
	<path class="st18" d="M281,151.7h11.1v24H281V151.7z"/>
	<path class="st8" d="M292.1,175.8H281v79.7c0,6.9,5.7,12.6,12.6,12.6h11.1c-7,0-12.6-5.7-12.6-12.6L292.1,175.8L292.1,175.8z
		 M281,151.7h11.1v-11.4c0-6.9,5.7-12.7,12.6-12.7h-11.1c-7,0-12.6,5.7-12.6,12.7L281,151.7z"/>
</g>
</svg>
