<?xml version="1.0" encoding="utf-8"?>
<!-- Generator: Adobe Illustrator 28.0.0, SVG Export Plug-In . SVG Version: 6.00 Build 0)  -->
<svg version="1.1" id="Layer_1" xmlns="http://www.w3.org/2000/svg" xmlns:xlink="http://www.w3.org/1999/xlink" x="0px" y="0px"
	 viewBox="0 0 512 512" style="enable-background:new 0 0 512 512;" xml:space="preserve">
<style type="text/css">
	.st0{fill-rule:evenodd;clip-rule:evenodd;fill:#CAD1D8;}
	.st1{fill-rule:evenodd;clip-rule:evenodd;fill:#E2E5E7;}
	.st2{fill-rule:evenodd;clip-rule:evenodd;fill:#B0B7BD;}
	.st3{fill-rule:evenodd;clip-rule:evenodd;fill:#FFCB5B;}
	.st4{fill-rule:evenodd;clip-rule:evenodd;fill:#F2992C;}
	.st5{fill-rule:evenodd;clip-rule:evenodd;fill:#FAA845;}
	.st6{fill:#676873;}
	.st7{fill:#3CB54B;}
	.st8{fill:#FFCB5B;}
	.st9{fill:#CAD1D8;}
	.st10{fill:#B0B7BD;}
	.st11{fill:#FDD835;}
	.st12{opacity:0.5;fill:#FFFFFF;enable-background:new    ;}
	.st13{fill:#F39E09;}
	.st14{fill:#E88102;}
	.st15{fill:#DB6704;}
	.st16{opacity:0.25;fill:#FFFFFF;enable-background:new    ;}
</style>
<g>
	<g>
		<path class="st0" d="M106.2,453h352.3c0.1-149,0.3-298,0.3-447H106.5L106.2,453L106.2,453z"/>
		<path class="st1" d="M53.2,506h352.3V131.5l-72.6-72.6H53.2V506z"/>
		<path class="st2" d="M405.5,131.5l-72.6-72.6v72.6H405.5z"/>
		<path class="st3" d="M219.5,101.6c2.9-2,6.3-3.1,9.9-3.1c3.7,0,7.1,1.2,9.9,3.1c3.3,2.3,6.9,3.3,10.9,2.9
			c3.4-0.3,6.9,0.4,10.1,2.2c3,1.8,5.5,4.4,7,7.6c1.7,3.7,4.3,6.3,8,8c3.2,1.5,5.9,3.9,7.6,7c1.8,3.1,2.5,6.6,2.2,10.1
			c-0.4,4,0.6,7.6,2.9,10.9c2,2.8,3.1,6.2,3.1,9.9c0,3.7-1.1,7.1-3.1,9.9c-2.3,3.3-3.3,6.9-2.9,10.9c0.3,3.5-0.5,7-2.2,10.1
			c-1.8,3.1-4.4,5.5-7.6,7c-3.6,1.7-6.3,4.3-8,8c-1.5,3.2-3.9,5.9-7,7.6c-3.2,1.8-6.7,2.5-10.1,2.2c-4-0.3-7.6,0.6-10.9,2.9
			c-2.8,2-6.2,3.1-9.9,3.1c-3.7,0-7.1-1.1-9.9-3.1c-3.3-2.3-6.9-3.3-10.9-2.9c-3.4,0.3-6.9-0.4-10.1-2.2c-3.2-1.8-5.6-4.5-7-7.6
			c-1.7-3.7-4.3-6.3-8-8c-3.1-1.4-5.8-3.8-7.6-7c-1.8-3.2-2.6-6.7-2.2-10.1c0.3-4-0.6-7.6-2.9-10.9c-2-2.9-3.1-6.3-3.1-9.9
			c0-3.7,1.2-7.1,3.1-9.9c2.3-3.3,3.3-6.9,2.9-10.9c-0.3-3.4,0.4-6.9,2.2-10.1c1.8-3.2,4.5-5.6,7.6-7c3.7-1.7,6.3-4.3,8-8
			c1.5-3.2,3.9-5.9,7-7.6c3.2-1.8,6.7-2.5,10.1-2.2C212.6,104.8,216.2,103.9,219.5,101.6L219.5,101.6z"/>
		<path class="st4" d="M259.5,160.1c0,16.6-13.5,30.1-30.1,30.1s-30.1-13.5-30.1-30.1s13.5-30.2,30.1-30.2S259.5,143.4,259.5,160.1z
			"/>
		<path class="st5" d="M259.5,160.1c0,14.1-9.8,26-22.9,29.2c-13.1-3.2-22.9-15.1-22.9-29.2s9.8-26,22.9-29.3
			C249.7,134,259.5,145.9,259.5,160.1z"/>
	</g>
	<path class="st6" d="M87.1,293.4c-3.3,0-6.1-2.7-6.1-6.1c0-3.4,2.7-6.1,6.1-6.1h284.6c3.4,0,6.1,2.7,6.1,6.1c0,3.4-2.7,6.1-6.1,6.1
		H87.1z M87.1,324.6c-3.3,0-6.1-2.7-6.1-6.1c0-3.4,2.7-6.1,6.1-6.1h284.6c3.4,0,6.1,2.7,6.1,6.1c0,3.4-2.7,6.1-6.1,6.1H87.1z
		 M180.1,355.9c-3.4,0-6.1-2.7-6.1-6.1s2.7-6.1,6.1-6.1h191.5c3.4,0,6.1,2.7,6.1,6.1s-2.7,6.1-6.1,6.1H180.1L180.1,355.9z
		 M180.1,387.1c-3.4,0-6.1-2.7-6.1-6.1c0-3.4,2.7-6.1,6.1-6.1h191.5c3.4,0,6.1,2.7,6.1,6.1c0,3.4-2.7,6.1-6.1,6.1H180.1L180.1,387.1
		z M180.1,418.4c-3.4,0-6.1-2.7-6.1-6.1c0-3.4,2.7-6.1,6.1-6.1h191.5c3.4,0,6.1,2.7,6.1,6.1c0,3.4-2.7,6.1-6.1,6.1H180.1
		L180.1,418.4z M87.1,262.1c-3.3,0-6.1-2.7-6.1-6.1c0-3.4,2.7-6.1,6.1-6.1h284.6c3.4,0,6.1,2.7,6.1,6.1s-2.7,6.1-6.1,6.1H87.1z"/>
	<path class="st2" d="M102.7,474.8H356c8.6,0,15.6-7.1,15.6-15.6s-7-15.6-15.6-15.6H102.7c-8.6,0-15.6,7-15.6,15.6
		C87.1,467.8,94.1,474.8,102.7,474.8z"/>
	<path class="st7" d="M87.1,349.8h62.5v62.5H87.1V349.8z"/>
	<path class="st8" d="M128,367c2.4-2.4,6.2-2.4,8.6,0s2.4,6.3,0,8.6L117.2,395c-2.4,2.4-6.2,2.4-8.6,0c0,0,0,0,0,0l-8.5-8.5
		c-2.4-2.4-2.4-6.2,0-8.6c0,0,0,0,0,0c2.4-2.4,6.2-2.4,8.6,0l4.2,4.2L128,367L128,367z"/>
	<path class="st9" d="M53.2,58.8h27.5V506H53.2V58.8z"/>
	<path class="st10" d="M106.5,6h27.5v52.8h-27.5L106.5,6z"/>
</g>
<g>
	<path class="st11" d="M415.4,367.6c52.2,0,94.4-42.3,94.4-94.4s-42.3-94.5-94.4-94.5S321,221.1,321,273.1S363.3,367.6,415.4,367.6z
		"/>
	<path class="st12" d="M415.4,178.7c-52.2,0-94.4,42.3-94.4,94.4s42.3,94.4,94.4,94.4s94.4-42.3,94.4-94.4
		C510,220.9,467.7,178.7,415.4,178.7z M415.4,363.6c-50,0-90.4-40.4-90.4-90.4s40.5-90.3,90.4-90.3s90.4,40.4,90.4,90.4
		C505.9,323.2,465.4,363.6,415.4,363.6z"/>
	<path class="st12" d="M453.2,186.4L328.9,310.9c-4.2-9.8-6.7-20.2-7.6-30.8l101.2-101.2C433.3,179.7,443.7,182.3,453.2,186.4z
		 M497.8,226.8L369.1,355.4c-8-4.6-15.3-10.1-21.6-16.7l133.7-133.4C487.7,211.4,493.3,218.8,497.8,226.8z M477.2,201.6L343.9,334.9
		c-2.1-2.5-4.1-4.9-5.9-7.6l131.7-131.6C472.3,197.5,474.8,199.6,477.2,201.6z M507,249.5L391.9,364.6c-3.5-0.8-7-2.1-10.3-3.3
		l122-122C505.1,242.7,506.2,246.1,507,249.5z"/>
	<path class="st12" d="M492.3,277.2c0,40.9-33.2,74.1-74.1,74.1c-22.9,0-43.5-10.5-57.1-26.9c13.6,14.6,32.9,23.7,54.4,23.7
		c40.9,0,74.1-33.2,74.1-74.1c0-17.8-6.3-34.4-17-47.1C484.8,240.2,492.3,257.9,492.3,277.2z"/>
	<path class="st13" d="M415.4,348.2c40.9,0,74.1-33.2,74.1-74.1s-33.2-74.1-74.1-74.1s-74.1,33.2-74.1,74.1S374.6,348.2,415.4,348.2
		z"/>
	<path class="st14" d="M471.6,225.8c-12.9-11.1-29.9-17.8-48.3-17.8c-40.9,0-74.1,33.2-74.1,74.1c0,18.4,6.7,35.3,17.8,48.3
		c-15.7-13.6-25.7-33.7-25.7-56.1c0-40.9,33.2-74.1,74.1-74.1C437.9,200.1,458,210,471.6,225.8z"/>
	<path class="st15" d="M451.9,230.1v-5.8l-6.7,5.8H384l-4.6,13.7v5.8h19.5c6.2,0.2,10.3,2.6,12.4,7.2h-27.9l-3.9,9.4v5.8h32.5
		c-2.1,6.3-6.4,9.6-13.4,9.6h-17.1l0.1,13.9l33.2,39.6h27.2v-5.8l-4.9-1.2l-24.5-30.1c7.4-2.3,13.1-5.4,17.1-9.8
		c4.1-4.2,6.6-9.7,7.7-16.4h10.5l3.9-15.2v-5.8l-5.6,5.8h-8.8c-0.6-4.2-2.1-8.1-4.1-11.5h14.7L451.9,230.1z"/>
	<path class="st11" d="M447.9,239.6h-14.7c2.1,3.5,3.5,7.2,4.1,11.5h14.5l-3.9,15.2h-10.5c-1.1,6.7-3.8,12.1-7.7,16.4
		c-4.1,4.2-9.8,7.5-17.1,9.8l29.2,36v1.1h-27.1l-33.2-39.6l-0.1-13.9h16.9c7-0.2,11.3-3.4,13.4-9.6h-32.5l3.9-15.2h27.9
		c-2.1-4.6-6.2-7-12.4-7.2h-19.5l4.6-19.5H452L447.9,239.6z"/>
	<path class="st12" d="M383.1,251h5.6l-7.5,7.5L383.1,251z M415.4,224.2l-19.5,19.5h-16.7l4.6-19.5H415.4z M447.9,239.6h-1.1
		l1.5-1.5L447.9,239.6z M451.8,251l-3.9,15.2h-10.6c-1.1,6.7-3.8,12.1-7.7,16.4c-4.1,4.2-9.7,7.5-17.1,9.8l8.9,11L405.9,319
		l-17.5-20.9l48.8-48.8c0.1,0.6,0.3,1.2,0.3,1.8L451.8,251z M398.3,275.9c2.1-0.1,3.9-0.3,5.6-1l-19.2,19.2l-3.5-4.2l-0.1-5.7
		l8.2-8.2L398.3,275.9L398.3,275.9z M451.9,224.2l-1,3.8l-11.5,11.6h-6.2c0.8,1.2,1.5,2.6,2.1,4.1l-24.2,24.2c0.3-0.5,0.3-1,0.6-1.5
		h-12.4l42-42L451.9,224.2L451.9,224.2z M435.6,321l-8.5,8.6h-12.7l-0.3-0.3l15.4-15.4L435.6,321z"/>
	<path class="st16" d="M477.2,233.2C429.3,250,390.8,287,372,334c-1.7-1.2-3.3-2.5-4.8-3.8c-11.1-12.9-17.8-29.9-17.8-48.3
		c0-40.9,33.2-74.1,74.1-74.1c18.4,0,35.3,6.7,48.3,17.8C473.7,228.1,475.6,230.6,477.2,233.2z"/>
</g>
</svg>
