<?xml version="1.0" encoding="utf-8"?>
<!-- Generator: Adobe Illustrator 28.0.0, SVG Export Plug-In . SVG Version: 6.00 Build 0)  -->
<svg version="1.1" id="Layer_1" xmlns="http://www.w3.org/2000/svg" xmlns:xlink="http://www.w3.org/1999/xlink" x="0px" y="0px"
	 viewBox="0 0 512 512" style="enable-background:new 0 0 512 512;" xml:space="preserve">
<style type="text/css">
	.st0{fill:#B4B2B4;}
	.st1{fill:#E4E4E3;}
	.st2{fill:#0494B9;}
	.st3{fill:#2EA4C4;}
	.st4{fill:#CACAC9;}
	.st5{fill:#F9BD1F;}
	.st6{fill:#5FB9D3;}
	.st7{fill:#85BC40;}
	.st8{fill:#FDD838;}
	.st9{opacity:0.5;fill:#FFFFFF;enable-background:new    ;}
	.st10{fill:#F29F1F;}
	.st11{fill:#E88324;}
	.st12{fill:#DA6927;}
	.st13{opacity:0.25;fill:#FFFFFF;enable-background:new    ;}
</style>
<g>
	<path class="st0" d="M48.3,147.8V97.5h65.6l35,32.8v17.5H48.3z"/>
	<path class="st1" d="M48.3,314h124.7v174.9H48.3V314z"/>
	<path class="st1" d="M15.4,130.3h249.3v199H15.4V130.3z"/>
	<path class="st2" d="M48.3,163.1h216.5v133.4H48.3V163.1z"/>
	<path class="st3" d="M65.7,180.6H116v100.6H65.7V180.6z M131.4,180.6h115.9v100.6H131.4V180.6z"/>
	<path class="st4" d="M48.3,329.3h124.7v17.5H48.3V329.3z"/>
	<path class="st5" d="M74.5,362.1H92v17.5H74.5V362.1z"/>
	<path class="st4" d="M107.3,329.3h24.1v157.5h-24.1V329.3z"/>
	<path class="st2" d="M231.9,55.9h231.8v433H231.9V55.9z"/>
	<g>
		<path class="st6" d="M273.5,112.8h50.3v50.3h-50.3V112.8z M374.1,112.8h50.3v50.3h-50.3V112.8z M374.1,204.6h50.3v50.3h-50.3
			V204.6z M374.1,296.5h50.3v50.3h-50.3V296.5z"/>
	</g>
	<path class="st5" d="M490,71.2H207.9V38.4L490,14.4C490,14.4,490,71.2,490,71.2z"/>
	<path class="st6" d="M273.5,204.6h50.3v50.3h-50.3V204.6z"/>
	<path class="st1" d="M339.1,314v174.9H124.8V314l107.2-41.5L339.1,314z"/>
	<path class="st4" d="M339.1,314v30.6l-107.2-48.1l-107.2,48.1V314l107.2-41.5L339.1,314z"/>
	<path class="st2" d="M166.3,370.8h48.1v115.9h-50.3V370.8H166.3z M249.4,388.3h50.3v41.5h-50.3
		C249.4,429.9,249.4,388.3,249.4,388.3z"/>
	<path class="st5" d="M181.6,329.3h17.5v17.5h-17.5V329.3z"/>
	<path class="st7" d="M98.5,296.5l133.4-59l133.4,59V338l-133.4-59L98.5,338C98.5,338,98.5,296.5,98.5,296.5z M356.6,397.1
		c-17.5,0-24.1,17.5-24.1,32.8c0,17.5-17.5,17.5-17.5,32.8c0,15.3,17.5,24.1,24.1,24.1h32.8c8.7,0,24.1-8.7,24.1-24.1
		c0-15.3-17.5-17.5-17.5-32.8C380.7,412.4,374.1,397.1,356.6,397.1z"/>
	<path class="st4" d="M6.7,480.2h498.6v17.5H6.7V480.2z"/>
</g>
<path class="st8" d="M345.7,375.2c32.8,0,61.2-28.4,61.2-61.2s-28.4-61.2-61.2-61.2s-61.2,28.4-61.2,61.2S310.7,375.2,345.7,375.2z"
	/>
<path class="st9" d="M345.7,252.7c-32.8,0-61.2,28.4-61.2,61.2s26.2,61.2,61.2,61.2s61.2-28.4,61.2-61.2S378.5,252.7,345.7,252.7z
	 M345.7,370.8c-32.8,0-59-26.2-59-59s26.2-59,59-59s59,26.2,59,59S378.5,370.8,345.7,370.8z"/>
<path class="st9" d="M369.7,257.1L288.8,338c-2.2-6.6-4.4-13.1-4.4-19.7l65.6-65.6C356.6,252.7,363.2,254.9,369.7,257.1z
	 M398.1,283.3L315,366.4c-4.4-2.2-10.9-6.6-13.1-10.9l87.5-87.5C391.6,272.4,396,276.8,398.1,283.3z M385,265.8l-87.5,85.3
	c-2.2-2.2-2.2-2.2-4.4-4.4l85.3-85.3C382.8,263.7,382.8,265.8,385,265.8z M404.7,298.6L330.4,373c-2.2,0-4.4-2.2-6.6-2.2l78.7-78.7
	C402.5,294.3,404.7,296.5,404.7,298.6z"/>
<path class="st9" d="M396,316.1c0,26.2-21.9,48.1-48.1,48.1c-15.3,0-28.4-6.6-37.2-17.5c8.7,8.7,21.9,15.3,35,15.3
	C371.9,362.1,393.8,340.2,396,316.1c-2.2-13.1-6.6-24.1-13.1-32.8C389.4,292.1,396,303,396,316.1z"/>
<path class="st10" d="M345.7,362.1c26.2,0,48.1-21.9,48.1-48.1c0-26.2-21.9-48.1-48.1-48.1s-48.1,21.9-48.1,48.1
	S319.4,362.1,345.7,362.1z"/>
<path class="st11" d="M380.7,283.3c-8.7-6.6-19.7-10.9-30.6-10.9c-26.2,0-48.1,21.9-48.1,48.1c0,10.9,4.4,21.9,10.9,30.6
	c-10.9-8.7-17.5-21.9-17.5-37.2c0-26.2,21.9-48.1,48.1-48.1C358.8,265.8,371.9,272.4,380.7,283.3z"/>
<path class="st12" d="M369.7,285.5v-4.4l-4.4,4.4h-41.5l-2.2,8.7v4.4h13.1c4.4,0,6.6,2.2,8.7,4.4h-19.7l-2.2,6.6v4.4h21.9
	c-2.2,4.4-4.4,6.6-8.7,6.6h-10.9v8.7l21.9,26.2h17.5v-4.4H361l-15.3-19.7c4.4-2.2,8.7-4.4,10.9-6.6c2.2-2.2,4.4-6.6,4.4-10.9h6.6
	l2.2-10.9v-4.4l-4.4,4.4h-6.6c0-2.2-2.2-4.4-2.2-6.6h8.7L369.7,285.5z"/>
<path class="st8" d="M365.3,292.1h-8.7c2.2,2.2,2.2,4.4,2.2,6.6h8.7l-2.2,10.9h-6.6c0,4.4-2.2,8.7-4.4,10.9
	c-2.2,2.2-6.6,4.4-10.9,6.6l19.7,24.1l0,0h-17.5l-21.9-26.2v-8.7h10.9c4.4,0,6.6-2.2,8.7-6.6h-21.9l2.2-10.9h17.5
	c-2.2-2.2-4.4-4.4-8.7-4.4h-13.1l2.2-13.1h43.7V292.1z"/>
<path class="st9" d="M323.8,298.6h4.4l-4.4,4.4V298.6z M345.7,281.1l-13.1,13.1h-10.9l2.2-13.1C323.8,281.1,345.7,281.1,345.7,281.1
	z M365.3,292.1L365.3,292.1L365.3,292.1L365.3,292.1z M369.7,298.6l-4.4,10.9h-6.6c0,4.4-2.2,8.7-4.4,10.9
	c-2.2,2.2-6.6,4.4-10.9,6.6l6.6,6.6l-10.9,10.9l-10.9-13.1l30.6-30.6c0,0,0,0,0,2.2L369.7,298.6z M334.7,314c2.2,0,2.2,0,4.4,0
	L326,327.1l-2.2-2.2v-4.4l4.4-4.4L334.7,314L334.7,314z M369.7,281.1v2.2l-6.6,6.6h-4.4c0,0,0,2.2,2.2,2.2l-17.5,17.5l0,0h-8.7
	l26.2-26.2h8.7V281.1z M358.8,344.6l-6.6,6.6h-6.6l0,0l10.9-10.9L358.8,344.6z"/>
<path class="st13" d="M385,287.7c-30.6,10.9-56.9,35-67.8,65.6c-2.2,0-2.2-2.2-2.2-2.2c-8.7-8.7-13.1-19.7-13.1-32.8
	c0-26.2,21.9-48.1,48.1-48.1c10.9,0,21.9,4.4,30.6,10.9C382.8,283.3,385,285.5,385,287.7z"/>
</svg>
