<svg width="28" height="28" viewBox="0 0 28 28" fill="none" xmlns="http://www.w3.org/2000/svg">
<g clip-path="url(#clip0_428_214)">
<path d="M9.18531 8.54836L6.3379 8.55236L6.33008 3.75402C6.32999 3.68956 6.35551 3.6277 6.40102 3.58205C6.44654 3.53641 6.50832 3.51071 6.57278 3.51061L8.93408 3.50732C8.99854 3.50724 9.0604 3.53276 9.10604 3.57827C9.15169 3.62379 9.17739 3.68557 9.17749 3.75003L9.18531 8.54836Z" fill="#FFB125"/>
<path d="M9.17748 3.75003C9.17745 3.71811 9.17112 3.6865 9.15887 3.65703C9.14661 3.62755 9.12867 3.60078 9.10607 3.57824C9.08346 3.5557 9.05664 3.53784 9.02712 3.52567C8.99761 3.5135 8.96599 3.50727 8.93407 3.50732L7.52625 3.50929C7.6511 3.51936 7.7497 3.62261 7.74987 3.75003L7.75769 8.54831L6.33789 8.55028V8.55225L9.1853 8.54825L9.17748 3.75003Z" fill="#FF901D"/>
<path d="M13.8937 3.42029L6.26636 10.6055L6.28162 21.5287C6.282 21.8169 6.51595 22.0501 6.8041 22.0497L21.0353 22.0299C21.3235 22.0295 21.5567 21.7956 21.5563 21.5074L21.5411 10.5842L13.8937 3.42029Z" fill="#E1EFFB"/>
<path d="M21.541 10.5842L13.8937 3.42029L12.636 4.60509L19.0186 10.5841L19.0338 21.5074C19.034 21.6457 18.9792 21.7785 18.8815 21.8765C18.7838 21.9745 18.6512 22.0296 18.5128 22.0298H21.0353C21.3234 22.0294 21.5567 21.7955 21.5563 21.5074L21.541 10.5842Z" fill="#CCDFED"/>
<path d="M24.2316 12.9912C23.9647 12.9918 23.7077 12.8904 23.5133 12.7077L13.8938 3.69647L4.29958 12.7346C3.87794 13.1318 3.21403 13.112 2.81695 12.6903C2.4197 12.2687 2.43949 11.6049 2.86119 11.2077L13.1726 1.49393C13.5757 1.11413 14.2047 1.11325 14.6089 1.49191L24.9474 11.1768C25.3702 11.5728 25.3918 12.2366 24.9957 12.6593C24.8979 12.764 24.7796 12.8475 24.6481 12.9046C24.5167 12.9617 24.3749 12.9911 24.2316 12.9912Z" fill="#FF4C4C"/>
<path d="M24.9959 11.3978C24.898 11.5025 24.7797 11.586 24.6482 11.6431C24.5168 11.7002 24.375 11.7296 24.2317 11.7296C23.9648 11.7303 23.7079 11.6289 23.5134 11.4462L13.8939 2.43494L4.29974 11.473C3.87809 11.8702 3.21419 11.8504 2.8171 11.4287C2.79094 11.4008 2.76631 11.3715 2.74333 11.341C2.44113 11.7415 2.46136 12.3128 2.8171 12.6903C3.21419 13.112 3.87809 13.1318 4.29974 12.7346L13.8939 3.69652L23.5134 12.7078C23.7079 12.8905 23.9648 12.9919 24.2317 12.9912C24.375 12.9912 24.5168 12.9617 24.6482 12.9047C24.7797 12.8476 24.898 12.7641 24.9959 12.6594C25.3498 12.2816 25.3692 11.7119 25.0678 11.3122C25.0453 11.342 25.0213 11.3706 24.9959 11.3978Z" fill="#F33939"/>
<path d="M15.8669 12.4253L11.9459 12.4308C11.8576 12.4309 11.7729 12.4661 11.7105 12.5287C11.6481 12.5912 11.6132 12.676 11.6133 12.7644L11.6262 22.043L16.2135 22.0366L16.2005 12.758C16.2005 12.7142 16.1918 12.6709 16.175 12.6305C16.1582 12.5901 16.1336 12.5534 16.1026 12.5225C16.0717 12.4916 16.0349 12.4672 15.9945 12.4505C15.954 12.4338 15.9107 12.4252 15.8669 12.4253Z" fill="#2D5871"/>
<path d="M16.2005 12.758C16.2004 12.6696 16.1651 12.5849 16.1026 12.5225C16.04 12.4602 15.9552 12.4252 15.8669 12.4253L13.6516 12.4284C13.7192 12.4496 13.7784 12.4918 13.8204 12.5489C13.8624 12.606 13.8851 12.675 13.8852 12.7459L13.8981 22.0398L16.2134 22.0366L16.2005 12.758Z" fill="#1D4859"/>
<path d="M25.8719 17.3531L20.0926 21.2208L18.3702 21.1242L18.3028 20.4463C18.2025 19.4371 17.4255 18.6272 16.4213 18.4851L11.8066 17.9538C10.7421 17.8032 9.7171 17.4464 8.7891 16.9035C7.52211 16.1624 6.08069 15.7717 4.61283 15.7717H1.28564V23.3664L10.0792 26.6964C10.4115 26.7902 10.7605 26.8183 11.1016 26.7644L11.1077 26.7634L19.9608 25.4873C20.6428 25.3784 21.2839 25.0911 21.8192 24.6546L27.541 19.5085C28.0545 19.0525 28.1497 18.2862 27.7634 17.7184C27.3406 17.0972 26.4955 16.934 25.8719 17.3531Z" fill="#FED9A8"/>
<path d="M27.8388 17.8446L22.1833 22.6053C21.648 23.0418 20.7583 23.3291 20.0763 23.4379L11.1078 24.079L11.1017 24.08C10.7606 24.1339 10.4115 24.1058 10.0792 24.012L1.28564 20.682V23.3665L10.0792 26.6964C10.245 26.7435 10.4152 26.7735 10.5871 26.7858C10.63 26.7889 10.6729 26.7907 10.7158 26.7914C10.845 26.7935 10.974 26.7845 11.1016 26.7645L11.1077 26.7635L19.9608 25.4873C20.4706 25.406 20.9594 25.2246 21.3989 24.9536C21.5454 24.8633 21.6858 24.7634 21.8192 24.6546L27.541 19.5085C28.0174 19.0855 28.1331 18.3955 27.8388 17.8446Z" fill="#F4C892"/>
<path d="M19.0408 21.163L9.2992 20.7732C9.25271 20.7713 9.20746 20.7576 9.16773 20.7334L8.65028 20.4182C8.3986 20.2649 8.53352 19.8768 8.82599 19.9126L19.0408 21.163Z" fill="#F4C892"/>
<path d="M2.40691 25.9461H1.09047C0.488195 25.9461 0 25.4579 0 24.8556V15.1137C0 14.5114 0.48825 14.0232 1.09047 14.0232H2.40691C3.00918 14.0232 3.49738 14.5114 3.49738 15.1137V24.8556C3.49738 25.4579 3.00918 25.9461 2.40691 25.9461Z" fill="#2D5871"/>
<path d="M2.40683 14.0232H1.09039C1.01635 14.0232 0.944158 14.0307 0.874268 14.0448C1.37296 14.1451 1.74861 14.5854 1.74861 15.1137V24.8556C1.74861 25.3839 1.37296 25.8242 0.874268 25.9245C0.944158 25.9386 1.0164 25.9461 1.09039 25.9461H2.40683C3.0091 25.9461 3.4973 25.4579 3.4973 24.8556V15.1137C3.4973 14.5114 3.0091 14.0232 2.40683 14.0232Z" fill="#1D4859"/>
</g>
<defs>
<clipPath id="clip0_428_214">
<rect width="28" height="28" fill="white"/>
</clipPath>
</defs>
</svg>
