<svg width="31" height="31" viewBox="0 0 31 31" fill="none" xmlns="http://www.w3.org/2000/svg">
<path d="M15.6392 16.9289C19.381 16.9289 22.4144 13.8956 22.4144 10.1537C22.4144 6.4119 19.381 3.37854 15.6392 3.37854C11.8974 3.37854 8.86401 6.4119 8.86401 10.1537C8.86401 13.8956 11.8974 16.9289 15.6392 16.9289Z" fill="#FDD835"/>
<path opacity="0.5" d="M15.6392 3.37854C11.8974 3.37854 8.86401 6.41194 8.86401 10.1537C8.86401 13.8955 11.8974 16.9289 15.6392 16.9289C19.381 16.9289 22.4144 13.8955 22.4144 10.1537C22.4144 6.41194 19.3871 3.37854 15.6392 3.37854ZM15.6392 16.6383C12.0548 16.6383 9.15464 13.7381 9.15464 10.1537C9.15464 6.56936 12.0609 3.67522 15.6392 3.67522C19.2175 3.67522 22.1238 6.57541 22.1238 10.1598C22.1238 13.7442 19.2236 16.6383 15.6392 16.6383Z" fill="white"/>
<path opacity="0.5" d="M18.3457 3.94165L9.42712 12.8602C9.12439 12.1579 8.94275 11.4131 8.8822 10.6502L16.1357 3.39673C16.9168 3.45728 17.6615 3.64497 18.3457 3.94165ZM21.5486 6.82974L12.3152 16.0571C11.74 15.7301 11.2193 15.3305 10.7652 14.8583L20.3437 5.28579C20.816 5.73384 21.2217 6.25454 21.5486 6.82974ZM20.0713 5.03149L10.5109 14.5858C10.3595 14.4102 10.2203 14.2346 10.0871 14.0409L19.5263 4.60767C19.714 4.73481 19.8957 4.88013 20.0713 5.03149ZM22.2025 8.4645L13.95 16.717C13.7017 16.6565 13.4535 16.5717 13.2174 16.4809L21.9664 7.73188C22.0633 7.97407 22.142 8.21626 22.2025 8.4645Z" fill="white"/>
<path opacity="0.5" d="M21.149 10.4505C21.149 13.381 18.7695 15.7604 15.8391 15.7604C14.1922 15.7604 12.7209 15.0097 11.7461 13.8351C12.7148 14.8825 14.1014 15.5425 15.6453 15.5425C18.5758 15.5425 20.9553 13.163 20.9553 10.2325C20.9553 8.94893 20.5012 7.76826 19.7383 6.854C20.6102 7.79248 21.149 9.05791 21.149 10.4505Z" fill="white"/>
<path d="M15.6392 15.5363C18.5718 15.5363 20.9491 13.159 20.9491 10.2263C20.9491 7.29373 18.5718 4.91638 15.6392 4.91638C12.7066 4.91638 10.3292 7.29373 10.3292 10.2263C10.3292 13.159 12.7066 15.5363 15.6392 15.5363Z" fill="#F39E09"/>
<path d="M19.6656 6.76315C18.7331 5.96393 17.5222 5.47955 16.2023 5.47955C13.2718 5.47955 10.8923 7.85905 10.8923 10.7895C10.8923 12.1094 11.3767 13.3204 12.1759 14.2528C11.0497 13.278 10.3292 11.837 10.3292 10.2325C10.3292 7.30202 12.7087 4.92252 15.6392 4.92252C17.2497 4.91647 18.6907 5.63092 19.6656 6.76315Z" fill="#E88102"/>
<path d="M18.2487 7.06584V6.64807L17.7644 7.06584H13.3747L13.0417 8.05276V8.47053H14.4343C14.8763 8.48264 15.1729 8.65823 15.3243 8.98518H13.3202L13.0356 9.65725V10.075H15.3667C15.2214 10.5291 14.9065 10.7592 14.4101 10.7653H13.187L13.1931 11.7643L15.5726 14.6039H17.5222V14.1862L17.171 14.1014L15.4151 11.9459C15.9479 11.7824 16.3597 11.5524 16.6442 11.2436C16.9349 10.9408 17.1165 10.5473 17.1952 10.069H17.9521L18.2366 8.97913V8.56135L17.837 8.97913H17.2013C17.1589 8.67639 17.056 8.39788 16.9046 8.15569H17.9581L18.2487 7.06584Z" fill="#DB6704"/>
<path d="M17.9642 7.74402H16.9106C17.062 7.99226 17.1589 8.26472 17.2073 8.56746H18.2427L17.9581 9.6573H17.2013C17.1226 10.1356 16.9349 10.5292 16.6503 10.8319C16.3597 11.1346 15.9479 11.3708 15.4212 11.5343L17.5161 14.1136V14.1923H15.5665L13.187 11.3526L13.181 10.3536H14.4101C14.9065 10.3415 15.2214 10.1114 15.3667 9.66335H13.0356L13.3202 8.57351H15.3243C15.1729 8.24656 14.8763 8.07703 14.4343 8.05886H13.0417L13.3747 6.65417H18.2487L17.9642 7.74402Z" fill="#FDD835"/>
<path opacity="0.5" d="M13.3203 8.56741H13.7199L13.181 9.10627L13.3203 8.56741ZM15.6392 6.64807L14.2345 8.05276H13.0417L13.3748 6.64807H15.6392ZM17.9642 7.74397H17.8855L17.9945 7.63499L17.9642 7.74397ZM18.2427 8.56741L17.9582 9.65725H17.1953C17.1166 10.1356 16.9289 10.5291 16.6443 10.8319C16.3537 11.1346 15.948 11.3707 15.4152 11.5342L16.057 12.3213L14.9429 13.4414L13.6896 11.9459L17.1892 8.44631C17.1953 8.4887 17.2074 8.53108 17.2074 8.57346L18.2427 8.56741ZM14.4101 10.3535C14.5615 10.3475 14.6947 10.3233 14.8158 10.2809L13.4414 11.6553L13.1931 11.3526L13.1871 10.9408L13.7744 10.3535H14.4101ZM18.2488 6.64807L18.1761 6.91448L17.3527 7.74397H16.9107C16.9712 7.83479 17.0197 7.93166 17.0621 8.03459L15.3304 9.76624C15.3486 9.72991 15.3607 9.69358 15.3728 9.65725H14.4767L17.4859 6.64807H18.2488ZM17.0863 13.5867L16.4748 14.1983H15.5666L15.5423 14.168L16.6503 13.06L17.0863 13.5867Z" fill="white"/>
<path opacity="0.25" d="M20.0713 7.29597C16.6322 8.50085 13.8713 11.1528 12.5271 14.5192C12.4061 14.4344 12.291 14.3436 12.182 14.2468C11.3828 13.3143 10.8984 12.1034 10.8984 10.7835C10.8984 7.853 13.2779 5.47351 16.2084 5.47351C17.5283 5.47351 18.7393 5.95789 19.6717 6.7571C19.8109 6.92664 19.9502 7.10828 20.0713 7.29597Z" fill="white"/>
<path d="M24.9453 19.9562L24.8182 19.6838L24.7637 19.0722L13.9742 12.1154L13.3687 11.7219L13.2053 11.6613C12.618 11.4433 12.0004 11.3101 11.3707 11.2738L9.65723 11.1769C9.4332 11.1648 9.20918 11.1588 8.98516 11.1769C8.57949 11.2011 8.17383 11.1345 7.79844 10.9771L6.55723 10.4564L6.21211 10.6986L3.36035 17.7947L3.51777 18.1701L5.92148 19.6838L6.68437 20.2166L7.16875 20.2287L14.6766 25.5265L14.7492 26.0109L15.7846 26.7738C16.3598 27.1976 17.165 27.1492 17.6555 26.6345C18.1338 26.132 18.1641 25.3812 17.7826 24.8484L18.3033 25.2299C18.8967 25.6658 19.7322 25.5992 20.2166 25.0482C20.6889 24.5154 20.6768 23.7344 20.2348 23.2136L20.5254 23.4256C21.0885 23.8433 21.8816 23.801 22.3721 23.3105C22.8988 22.7838 22.9109 21.9603 22.4568 21.4215L22.8928 21.7424C23.5043 22.1904 24.3641 22.0754 24.8303 21.476C25.1754 21.0279 25.1996 20.4285 24.9453 19.9562Z" fill="#F1AFA2"/>
<path d="M3.875 16.5111L3.36035 17.7886L3.51777 18.164L5.92148 19.6777L6.68438 20.2105L7.16875 20.2226L14.6766 25.5205L14.7492 26.0049L15.7846 26.7677C16.3598 27.1916 17.165 27.1431 17.6555 26.6285C17.6979 26.5861 17.7342 26.5377 17.7705 26.4892L3.875 16.5111Z" fill="#E99C8C"/>
<path d="M0.0362722 16.8865L3.23315 8.77927C3.33002 8.53103 3.61459 8.40388 3.86283 8.50681L6.4058 9.51189C6.65405 9.60876 6.78119 9.89333 6.67826 10.1416L3.48744 18.2488C3.39057 18.497 3.106 18.6242 2.85776 18.5213L0.314788 17.5162C0.0604909 17.4193 -0.0666575 17.1347 0.0362722 16.8865Z" fill="#DBEDFF"/>
<path d="M1.70109 17.6612L4.96457 9.39049C5.02511 9.23307 5.16437 9.11803 5.3339 9.08776L3.86867 8.50651C3.62043 8.40963 3.33586 8.53073 3.23898 8.77897L0.0360503 16.8862C-0.0608247 17.1344 0.060269 17.419 0.308511 17.5159L1.72531 18.0729C1.65871 17.9458 1.6466 17.7944 1.70109 17.6612Z" fill="#B5DCFF"/>
<path d="M6.6541 22.1662C6.13339 21.7242 6.06679 20.9432 6.50878 20.4225L7.66523 19.0662C8.10722 18.5455 8.88827 18.4789 9.40898 18.9209C9.92968 19.3629 9.99628 20.1439 9.55429 20.6646L8.39785 22.0209C7.95585 22.5416 7.1748 22.6082 6.6541 22.1662Z" fill="#FFDECF"/>
<path d="M8.53715 23.7646C8.01645 23.3226 7.94985 22.5415 8.39184 22.0208L9.54828 20.6646C9.99028 20.1439 10.7713 20.0773 11.292 20.5193C11.8127 20.9613 11.8793 21.7423 11.4373 22.263L10.2809 23.6193C9.83891 24.14 9.05786 24.2066 8.53715 23.7646Z" fill="#FFDECF"/>
<path d="M10.4262 25.3631C9.90549 24.9211 9.83889 24.1401 10.2809 23.6194L11.4373 22.2631C11.8793 21.7424 12.6604 21.6758 13.1811 22.1178C13.7018 22.5598 13.7684 23.3408 13.3264 23.8615L12.1699 25.2238C11.7279 25.7445 10.9469 25.8051 10.4262 25.3631Z" fill="#FFDECF"/>
<path d="M12.3091 26.9615C11.7884 26.5195 11.7218 25.7384 12.1638 25.2177L13.3203 23.8615C13.7622 23.3408 14.5433 23.2742 15.064 23.7162C15.5847 24.1582 15.6513 24.9392 15.2093 25.4599L14.0529 26.8222C13.6109 27.3429 12.8298 27.4035 12.3091 26.9615Z" fill="#FFDECF"/>
<path d="M7.78632 20.6222L8.94277 19.2659C9.06992 19.1146 9.22734 18.9995 9.40898 18.9269C8.88827 18.4849 8.10722 18.5515 7.66523 19.0722L6.50878 20.4284C6.06679 20.9491 6.13339 21.7302 6.6541 22.1722C7.02343 22.481 7.51386 22.5415 7.93163 22.3659C7.41093 21.9179 7.34433 21.1429 7.78632 20.6222ZM9.67538 22.2206L10.8318 20.8644C10.959 20.713 11.1164 20.598 11.298 20.5253C10.7773 20.0833 9.99628 20.1499 9.55429 20.6706L8.39785 22.0269C7.95585 22.5476 8.02246 23.3286 8.54316 23.7706C8.91249 24.0794 9.40292 24.14 9.8207 23.9644C9.29394 23.5224 9.23339 22.7413 9.67538 22.2206ZM11.5584 23.8191L12.7148 22.4628C12.842 22.3114 12.9994 22.1964 13.181 22.1237C12.6603 21.6818 11.8793 21.7484 11.4373 22.2691L10.2809 23.6253C9.83886 24.146 9.90546 24.9271 10.4262 25.3691C10.7955 25.6779 11.2859 25.7384 11.7037 25.5628C11.183 25.1208 11.1164 24.3398 11.5584 23.8191ZM13.4475 25.4175L14.6039 24.0612C14.731 23.9099 14.8885 23.7948 15.0701 23.7222C14.5494 23.2802 13.7684 23.3468 13.3264 23.8675L12.1699 25.2237C11.7279 25.7445 11.7945 26.5255 12.3152 26.9675C12.6846 27.2763 13.175 27.3368 13.5928 27.1612C13.066 26.7193 13.0055 25.9382 13.4475 25.4175Z" fill="#FFCEBE"/>
<path d="M24.8968 10.7228L24.4488 10.4806L22.6445 11.1467C22.1419 11.3343 21.6031 11.3828 21.0763 11.3041L15.7542 10.4625C15.1548 10.3656 14.5433 10.5654 14.1134 11.0013C13.2294 11.8914 11.5704 13.4656 9.74797 14.6342C9.34231 14.8945 9.28176 15.4697 9.63293 15.8027C10.3595 16.4929 11.8611 17.0924 14.4525 14.7674C14.6886 14.5554 15.0579 14.5615 15.2759 14.7916C16.0327 15.5787 17.8855 17.0984 20.6585 16.6201L24.8241 19.6898L27.4277 18.0187L27.5548 17.7402L24.8968 10.7228Z" fill="#FFDECF"/>
<path d="M10.4564 15.9238C12.2788 14.7552 13.9378 13.181 14.8218 12.2909C15.2517 11.8611 15.8572 11.6613 16.4626 11.7521L21.7847 12.5937C22.3114 12.6784 22.8503 12.6239 23.3529 12.4363L25.1572 11.7702L25.3327 11.8671L24.8968 10.7167L24.4488 10.4745L22.6445 11.1405C22.1419 11.3282 21.6031 11.3767 21.0763 11.298L15.7542 10.4564C15.1548 10.3595 14.5433 10.5593 14.1134 10.9952C13.2294 11.8853 11.5704 13.4595 9.74797 14.628C9.34231 14.8884 9.28176 15.4636 9.63293 15.7966C9.79035 15.9419 9.97805 16.0872 10.2081 16.1962C10.2687 16.0872 10.3534 15.9904 10.4564 15.9238Z" fill="#FFCEBE"/>
<path d="M30.9636 16.8865L27.7667 8.77927C27.6699 8.53103 27.3853 8.40388 27.1371 8.50681L24.5941 9.51189C24.3458 9.60876 24.2187 9.89333 24.3216 10.1416L27.5185 18.2488C27.6154 18.497 27.9 18.6242 28.1482 18.5213L30.6912 17.5162C30.9394 17.4193 31.0666 17.1347 30.9636 16.8865Z" fill="#B16E3D"/>
<path d="M29.3712 17.8008L26.0229 9.31209C25.9745 9.19099 25.9745 9.06384 26.0229 8.94275L24.588 9.50584C24.3397 9.60271 24.2126 9.88728 24.3155 10.1355L27.5124 18.2427C27.6093 18.491 27.8938 18.6181 28.1421 18.5152L29.4983 17.9824C29.4438 17.934 29.4015 17.8734 29.3712 17.8008Z" fill="#985E33"/>
<path d="M20.1439 25.1088L17.3164 22.917C17.0439 22.7051 16.6504 22.7535 16.4384 23.026C16.2265 23.2984 16.275 23.692 16.5474 23.9039L17.7705 24.8484L18.2851 25.2299C18.8603 25.6476 19.6535 25.5992 20.1439 25.1088ZM18.4668 21.0764C18.2549 21.3488 18.3093 21.7424 18.5818 21.9482L20.2468 23.2318L20.5132 23.4316C21.0763 23.8494 21.8695 23.807 22.3599 23.3166C22.366 23.3105 22.366 23.3045 22.372 23.3045L19.3386 20.9674C19.0662 20.7494 18.6726 20.8039 18.4668 21.0764ZM21.3851 19.0238C21.1127 18.8119 20.7191 18.8664 20.5132 19.1389C20.3013 19.4113 20.3558 19.8049 20.6283 20.0107L22.475 21.4336L22.8927 21.7424C23.4619 22.1601 24.2429 22.0875 24.7273 21.5971L21.3851 19.0238Z" fill="#E99C8C"/>
<path d="M21.8514 15.2512C23.4498 15.2512 24.7456 13.9554 24.7456 12.357C24.7456 10.7586 23.4498 9.46289 21.8514 9.46289C20.253 9.46289 18.9573 10.7586 18.9573 12.357C18.9573 13.9554 20.253 15.2512 21.8514 15.2512Z" fill="#FDD835"/>
<path opacity="0.5" d="M21.8514 9.4574C20.253 9.4574 18.9573 10.7531 18.9573 12.3515C18.9573 13.95 20.253 15.2457 21.8514 15.2457C23.4499 15.2457 24.7456 13.95 24.7456 12.3515C24.7456 10.7531 23.4559 9.4574 21.8514 9.4574ZM21.8514 15.1306C20.3196 15.1306 19.0784 13.8894 19.0784 12.3576C19.0784 10.8258 20.3196 9.58455 21.8514 9.58455C23.3833 9.58455 24.6245 10.8258 24.6245 12.3576C24.6245 13.8894 23.3833 15.1306 21.8514 15.1306Z" fill="white"/>
<path opacity="0.5" d="M23.0079 9.69956L19.1934 13.514C19.0602 13.2113 18.9815 12.8964 18.9573 12.5695L22.0573 9.46948C22.3963 9.4937 22.7112 9.57241 23.0079 9.69956ZM24.3762 10.9347L20.4286 14.8824C20.1803 14.7431 19.9624 14.5675 19.7625 14.3677L23.8616 10.2748C24.0614 10.4625 24.237 10.6925 24.3762 10.9347ZM23.7465 10.1658L19.6596 14.2527C19.5991 14.18 19.5385 14.1013 19.478 14.0226L23.5165 9.98413C23.5952 10.0386 23.6739 10.0992 23.7465 10.1658ZM24.6547 11.631L21.1249 15.1609C21.0159 15.1306 20.9129 15.1003 20.81 15.064L24.5518 11.3222C24.6002 11.4251 24.6305 11.5281 24.6547 11.631Z" fill="white"/>
<path opacity="0.5" d="M24.2067 12.4847C24.2067 13.7381 23.1895 14.7552 21.9362 14.7552C21.2339 14.7552 20.6042 14.4344 20.1864 13.9318C20.6042 14.3799 21.1975 14.6584 21.8514 14.6584C23.1048 14.6584 24.1219 13.6412 24.1219 12.3879C24.1219 11.8369 23.9282 11.3344 23.6012 10.9408C23.9766 11.3465 24.2067 11.8853 24.2067 12.4847Z" fill="white"/>
<path d="M21.8514 14.6583C23.1054 14.6583 24.1219 13.6418 24.1219 12.3878C24.1219 11.1339 23.1054 10.1173 21.8514 10.1173C20.5975 10.1173 19.5809 11.1339 19.5809 12.3878C19.5809 13.6418 20.5975 14.6583 21.8514 14.6583Z" fill="#F39E09"/>
<path d="M23.5709 10.9045C23.1773 10.5594 22.6566 10.3535 22.0936 10.3535C20.8402 10.3535 19.823 11.3707 19.823 12.624C19.823 13.1871 20.0289 13.7078 20.374 14.1014C19.8896 13.6836 19.5869 13.066 19.5869 12.3818C19.5869 11.1285 20.6041 10.1113 21.8574 10.1113C22.5416 10.1174 23.1592 10.4201 23.5709 10.9045Z" fill="#E88102"/>
<path d="M22.9654 11.0376V10.8621L22.7596 11.0376H20.8826L20.7373 11.4554V11.631H21.3367C21.5244 11.6371 21.6516 11.7097 21.7182 11.849H20.8584L20.7373 12.1396V12.3152H21.7363C21.6758 12.5089 21.5365 12.6058 21.3246 12.6119H20.8039L20.81 13.0417L21.8271 14.2587H22.6566V14.0832L22.5053 14.0468L21.7545 13.1265C21.9785 13.0539 22.1602 12.957 22.2813 12.8238C22.4023 12.6906 22.4811 12.5271 22.5174 12.3212H22.8443L22.9654 11.855V11.6794L22.7959 11.855H22.5234C22.5053 11.7218 22.4629 11.6068 22.3963 11.5039H22.8504L22.9654 11.0376Z" fill="#DB6704"/>
<path d="M22.8444 11.3222H22.3903C22.4508 11.4252 22.4992 11.5463 22.5174 11.6734H22.9594L22.8383 12.1396H22.5114C22.475 12.3455 22.4024 12.509 22.2752 12.6422C22.1541 12.7754 21.9785 12.8722 21.7485 12.9449L22.6446 14.0469V14.0771H21.8151L20.7979 12.8601L20.7918 12.4302H21.3125C21.5244 12.4242 21.6637 12.3273 21.7242 12.1336H20.7252L20.8463 11.6674H21.7061C21.6455 11.5281 21.5123 11.4554 21.3246 11.4494H20.7252L20.8705 10.85H22.9533L22.8444 11.3222Z" fill="#FDD835"/>
<path opacity="0.5" d="M20.8584 11.6794H21.028L20.7979 11.9095L20.8584 11.6794ZM21.8514 10.856L21.252 11.4554H20.7434L20.8887 10.856H21.8514ZM22.8444 11.3222H22.8081L22.8565 11.2737L22.8444 11.3222ZM22.9655 11.6794L22.8444 12.1456H22.5174C22.4811 12.3515 22.4084 12.5149 22.2813 12.6481C22.1602 12.7813 21.9846 12.8782 21.7545 12.9509L22.027 13.2899L21.5487 13.7683L21.0159 13.1265L22.5114 11.631C22.5174 11.6491 22.5174 11.6673 22.5174 11.6854L22.9655 11.6794ZM21.3247 12.4423C21.3852 12.4423 21.4458 12.4302 21.5002 12.412L20.9129 12.9993L20.804 12.8722V12.6966L21.0583 12.4423H21.3247ZM22.9655 10.856L22.9352 10.971L22.584 11.3222H22.3963C22.4206 11.3646 22.4448 11.4069 22.4569 11.4493L21.7182 12.188C21.7243 12.1698 21.7303 12.1577 21.7364 12.1396H21.3549L22.6385 10.856H22.9655ZM22.469 13.8228L22.2086 14.0831H21.8211L21.809 14.071L22.2813 13.5987L22.469 13.8228Z" fill="white"/>
<path opacity="0.25" d="M23.7466 11.1345C22.2813 11.6491 21.0946 12.7874 20.5194 14.2224C20.471 14.1861 20.4225 14.1497 20.3741 14.1073C20.029 13.7138 19.8231 13.1931 19.8231 12.63C19.8231 11.3767 20.8403 10.3595 22.0936 10.3595C22.6567 10.3595 23.1774 10.5654 23.571 10.9105C23.6376 10.9771 23.6921 11.0558 23.7466 11.1345Z" fill="white"/>
</svg>
