<svg width="26" height="28" viewBox="0 0 26 28" fill="none" xmlns="http://www.w3.org/2000/svg">
<path d="M13.132 24.7623L18.732 25.2818L24.0203 24.7623V10.817L18.5789 10.21L13.1375 10.817L12.6016 17.5326L13.132 24.7623Z" fill="#C0D6F2"/>
<path d="M22.0406 10.8115V24.7568L22.3196 24.9209L24.0149 24.7568V10.8115H22.0406Z" fill="#A6C4E8"/>
<path d="M20.8923 18.0742V24.757L18.7321 25.2766L16.2603 24.757V18.0742C16.2603 17.768 16.5063 17.5273 16.8071 17.5273H20.3399C20.6462 17.5273 20.8923 17.7734 20.8923 18.0742Z" fill="#6C7FD8"/>
<path d="M20.3454 17.5273H18.3657C18.6665 17.5273 18.9126 17.7734 18.9126 18.0742V24.757L19.6782 25.0469L20.8923 24.757V18.0742C20.8923 17.7734 20.6462 17.5273 20.3454 17.5273Z" fill="#4F66D0"/>
<path d="M16.2602 14.8421C16.025 14.8421 15.8391 14.6507 15.8391 14.421V12.8515C15.8391 12.6164 16.0305 12.4304 16.2602 12.4304C16.4954 12.4304 16.6813 12.6218 16.6813 12.8515V14.4156C16.6868 14.6507 16.4954 14.8421 16.2602 14.8421ZM18.579 14.8421C18.3438 14.8421 18.1579 14.6507 18.1579 14.421V12.8515C18.1579 12.6164 18.3493 12.4304 18.579 12.4304C18.8141 12.4304 19 12.6218 19 12.8515V14.4156C19 14.6507 18.8141 14.8421 18.579 14.8421ZM20.8922 14.8421C20.6571 14.8421 20.4711 14.6507 20.4711 14.421V12.8515C20.4711 12.6164 20.6625 12.4304 20.8922 12.4304C21.1274 12.4304 21.3133 12.6218 21.3133 12.8515V14.4156C21.3188 14.6507 21.1274 14.8421 20.8922 14.8421Z" fill="#DEF2FF"/>
<path d="M17.6492 21.4429C17.6492 21.6781 17.4578 21.864 17.2281 21.864H16.2656V21.0164H17.2281C17.4578 21.0218 17.6492 21.2078 17.6492 21.4429Z" fill="#4F66D0"/>
<path d="M22.9102 8.43828L21.1821 8.93594L19.454 8.43828V6.14688C19.454 5.85156 19.6946 5.60547 19.9954 5.60547H22.3743C22.6696 5.60547 22.9157 5.84609 22.9157 6.14688L22.9102 8.43828Z" fill="#DEF2FF"/>
<path d="M22.3742 5.60547H20.3945C20.6898 5.60547 20.9359 5.84609 20.9359 6.14688V8.43828L21.6578 8.79922L22.9156 8.43828V6.14688C22.9102 5.85156 22.6695 5.60547 22.3742 5.60547Z" fill="#CAECFC"/>
<path d="M4.85786 3.76787C4.62271 3.76787 4.43677 3.57646 4.43677 3.34678V0.453809C4.43677 0.218652 4.62817 0.0327148 4.85786 0.0327148C5.08755 0.0327148 5.27896 0.224121 5.27896 0.453809V3.34131C5.27896 3.57646 5.08755 3.7624 4.85786 3.76787Z" fill="#6C7FD8"/>
<path d="M13.1321 24.7624L7.85471 25.2819L2.21643 24.7624V4.57174C2.21643 4.10142 2.52815 3.69127 2.98206 3.56549L12.2953 0.96783C12.7164 0.847517 13.1375 1.1647 13.1375 1.60767V24.7624H13.1321Z" fill="#DEF2FF"/>
<path d="M12.2954 0.967778L10.7368 1.40528C10.9774 1.49825 11.1579 1.7334 11.1579 2.02325V24.7623L11.5134 24.9209L13.1376 24.7623V1.60762C13.1321 1.17012 12.7165 0.852934 12.2954 0.967778Z" fill="#CAECFC"/>
<path d="M12.2953 8.43823H24.8571C25.136 8.43823 25.3656 8.66792 25.3656 8.94683V10.3031C25.3656 10.582 25.136 10.8117 24.8571 10.8117H12.2953C12.0164 10.8117 11.7867 10.582 11.7867 10.3031V8.94683C11.7867 8.66245 12.0164 8.43823 12.2953 8.43823Z" fill="#6C7FD8"/>
<path d="M24.857 8.43823H22.8828C23.1617 8.43823 23.3914 8.66792 23.3914 8.94683V10.3031C23.3914 10.582 23.1617 10.8117 22.8828 10.8117H24.8625C25.1414 10.8117 25.3711 10.582 25.3711 10.3031V8.94683C25.3711 8.66245 25.1414 8.43823 24.857 8.43823Z" fill="#4F66D0"/>
<path d="M8.40159 7.41548H6.95237C6.70627 7.41548 6.5094 7.2186 6.5094 6.97251V5.52329C6.5094 5.2772 6.70627 5.08032 6.95237 5.08032H8.40159C8.64768 5.08032 8.84456 5.2772 8.84456 5.52329V6.97251C8.84456 7.2186 8.64768 7.41548 8.40159 7.41548ZM8.40159 11.9983H6.95237C6.70627 11.9983 6.5094 11.8014 6.5094 11.5553V10.1061C6.5094 9.86001 6.70627 9.66313 6.95237 9.66313H8.40159C8.64768 9.66313 8.84456 9.86001 8.84456 10.1061V11.5553C8.84456 11.7959 8.64768 11.9983 8.40159 11.9983ZM8.40159 16.5756H6.95237C6.70627 16.5756 6.5094 16.3788 6.5094 16.1327V14.6834C6.5094 14.4374 6.70627 14.2405 6.95237 14.2405H8.40159C8.64768 14.2405 8.84456 14.4374 8.84456 14.6834V16.1327C8.84456 16.3788 8.64768 16.5756 8.40159 16.5756ZM8.40159 21.1584H6.95237C6.70627 21.1584 6.5094 20.9616 6.5094 20.7155V19.2663C6.5094 19.0202 6.70627 18.8233 6.95237 18.8233H8.40159C8.64768 18.8233 8.84456 19.0202 8.84456 19.2663V20.7155C8.84456 20.9616 8.64768 21.1584 8.40159 21.1584Z" fill="#6C7FD8"/>
<path d="M8.8446 5.52329V6.97251C8.8446 7.2186 8.64773 7.41548 8.40164 7.41548H7.14929C7.39539 7.41548 7.59226 7.2186 7.59226 6.97251V5.52329C7.59226 5.2772 7.39539 5.08032 7.14929 5.08032H8.40164C8.64773 5.08032 8.8446 5.2772 8.8446 5.52329ZM8.8446 10.1061V11.5553C8.8446 11.8014 8.64773 11.9983 8.40164 11.9983H7.14929C7.39539 11.9983 7.59226 11.8014 7.59226 11.5553V10.1061C7.59226 9.86001 7.39539 9.66313 7.14929 9.66313H8.40164C8.64773 9.65767 8.8446 9.86001 8.8446 10.1061ZM8.8446 14.6834V16.1327C8.8446 16.3788 8.64773 16.5756 8.40164 16.5756H7.14929C7.39539 16.5756 7.59226 16.3788 7.59226 16.1327V14.6834C7.59226 14.4374 7.39539 14.2405 7.14929 14.2405H8.40164C8.64773 14.2405 8.8446 14.4428 8.8446 14.6834ZM8.8446 19.2663V20.7155C8.8446 20.9616 8.64773 21.1584 8.40164 21.1584H7.14929C7.39539 21.1584 7.59226 20.9616 7.59226 20.7155V19.2663C7.59226 19.0202 7.39539 18.8233 7.14929 18.8233H8.40164C8.64773 18.8233 8.8446 19.0202 8.8446 19.2663Z" fill="#4F66D0"/>
<path d="M25.486 27.9671H0.657861C0.373486 27.9671 0.143799 27.7375 0.143799 27.4531V25.2765C0.143799 24.9921 0.373486 24.7625 0.657861 24.7625H25.486C25.7704 24.7625 26 24.9921 26 25.2765V27.4531C26 27.7375 25.7704 27.9671 25.486 27.9671Z" fill="#7CA1B1"/>
<path d="M25.486 24.7625H22.161C22.4454 24.7625 22.6751 24.9921 22.6751 25.2765V27.4531C22.6751 27.7375 22.4454 27.9671 22.161 27.9671H25.486C25.7704 27.9671 26.0001 27.7375 26.0001 27.4531V25.2765C26.0001 24.9921 25.7704 24.7625 25.486 24.7625Z" fill="#678D98"/>
</svg>
