<?xml version="1.0" encoding="utf-8"?>
<!-- Generator: Adobe Illustrator 28.0.0, SVG Export Plug-In . SVG Version: 6.00 Build 0)  -->
<svg version="1.1" id="Layer_1" xmlns="http://www.w3.org/2000/svg" xmlns:xlink="http://www.w3.org/1999/xlink" x="0px" y="0px"
	 viewBox="0 0 512 512" style="enable-background:new 0 0 512 512;" xml:space="preserve">
<style type="text/css">
	.st0{fill:#E8D995;}
	.st1{fill:#7ED8F6;}
	.st2{fill:#6AA9FF;}
	.st3{fill:#2682FF;}
	.st4{fill:#FDD835;}
	.st5{opacity:0.5;fill:#FFFFFF;enable-background:new    ;}
	.st6{fill:#F39E09;}
	.st7{fill:#E88102;}
	.st8{fill:#DB6704;}
	.st9{opacity:0.25;fill:#FFFFFF;enable-background:new    ;}
</style>
<g>
	<path class="st0" d="M318.4,503.6c-82.5,0-156.7-56-180.5-134.9c-1.5-5.1-0.1-10.7,3.7-14.5c3.8-3.8,9.4-5.2,14.5-3.6
		c14.8,4.6,30.4,6.9,46.2,6.9c88,0,159.6-71.6,159.6-159.6c0-15.9-2.3-31.4-6.9-46.2c-1.6-5.1-0.2-10.7,3.6-14.5
		c3.8-3.8,9.4-5.2,14.5-3.7C452,157.3,508,231.5,508,314C508,418,422.4,503.6,318.4,503.6z"/>
	<path class="st1" d="M391,198c0-21.4-3.4-42.1-10.5-62c-19.9-7.2-40.6-10.5-62-10.5c-13.9,0-27.6,1.5-40.6,4.4l5.6,22.6l-36.6-12.8
		c-9.6,3.8-18.6,8.7-27.3,13.9l12.4,32.5L195.9,171c-7.5,6.1-14.5,13.1-20.3,20.6l15.7,37.3l-33.4-13.8c-5.2,8.4-9.9,17.7-13.9,27
		l13.3,37.9l-23.1-6.6c-2.9,13.1-4.4,26.7-4.4,40.6c0,21.4,3.4,42.1,10.5,62c19.9,7.2,40.6,10.5,62,10.5c13.9,0,27.6-1.5,40.6-4.4
		l-8.5-26.4l39.8,16.5c9.3-4.1,18.6-8.7,27-13.9l-15.4-35.5l38.9,17.8c7.5-5.8,14.5-12.8,20.6-20.3l-18.4-40l35.8,16.5
		c5.2-8.7,10.2-17.7,13.9-27.3L360,229.2l26.6,9.4C389.5,225.5,391,211.9,391,198z"/>
	<path class="st2" d="M202.3,386.6c13.9,0,27.6-1.5,40.6-4.4l-8.5-26.4l39.8,16.5c9.3-4.1,18.6-8.7,27-13.9l-15.4-35.5l38.9,17.8
		c7.5-5.8,14.5-12.8,20.6-20.3l-18.4-40l35.8,16.5c5.2-8.7,10.2-17.7,13.9-27.3L360,229.2l26.6,9.4c2.9-13.1,4.4-26.7,4.4-40.6
		c0-21.4-3.4-42.1-10.5-62L140.3,376.1C160.2,383.2,180.9,386.6,202.3,386.6z"/>
	<g>
		<path class="st3" d="M274.3,372.4c-10.2,4.1-20.6,7.5-31.3,9.9L134.1,273.4c2.3-10.7,5.8-21.2,9.9-31.3L274.3,372.4z M324.8,340.7
			c-7.3,6.7-15.1,12.5-23.5,17.7L157.9,215.1c5.2-8.4,11-16.3,17.7-23.5L324.8,340.7z M362.8,296.9c-5.2,8.4-11,16.3-17.4,23.5
			L195.9,171c7.3-6.4,15.1-12.2,23.5-17.4L362.8,296.9z M386.6,238.6c-2.3,10.7-5.8,21.2-9.9,31l-130-130c9.9-4.1,20.3-7.5,31-9.9
			L386.6,238.6z"/>
	</g>
	<g>
		<path class="st3" d="M243,382.2c10.7-2.3,21.2-5.8,31.3-9.9l-65.2-65.2l-20.6,20.6L243,382.2z M301.3,358.4
			c8.4-5.2,16.3-11,23.5-17.7l-74.6-74.6l-20.6,20.6L301.3,358.4z M345.4,320.4c6.4-7.3,12.2-15.1,17.4-23.5l-71.7-71.7l-20.5,20.5
			L345.4,320.4z M311.7,204.6l65,65c4.1-9.9,7.5-20.3,9.9-31l-54.4-54.4L311.7,204.6z"/>
	</g>
</g>
<g>
	<path class="st4" d="M201.4,391.2c106.9,0,193.6-86.7,193.6-193.6S308.3,4,201.4,4S7.8,90.7,7.8,197.6
		C7.8,304.3,94.5,391.2,201.4,391.2z"/>
	<path class="st5" d="M201.4,3.8C94.5,3.8,7.8,90.5,7.8,197.4S94.5,391,201.4,391S395,304.3,395,197.4
		C395.2,90.5,308.7,3.8,201.4,3.8z M201.4,382.9c-102.5,0-185.3-82.8-185.3-185.3s83-185.1,185.3-185.1s185.3,82.8,185.3,185.3
		C386.9,300.1,303.9,382.9,201.4,382.9z"/>
	<path class="st5" d="M278.8,19.8L24,274.8c-8.7-20-13.9-41.4-15.6-63.2L215.6,4.2C238,5.9,259.4,11.3,278.8,19.8z M370.3,102.4
		L106.4,366.2C90,356.7,75,345.4,62.1,331.9L336.1,58.3C349.5,71,361.1,86.1,370.3,102.4z M328.2,51L54.8,324.2
		c-4.2-5-8.3-10-12.1-15.6L312.5,38.9C317.9,42.5,323.1,46.8,328.2,51z M389.2,149.1l-236,236c-7.1-1.7-14.3-4.2-21-6.7l250.1-250.1
		C385.2,135.2,387.5,142.1,389.2,149.1z"/>
	<path class="st5" d="M359,205.9c0,83.8-68,151.8-151.8,151.8c-47,0-89.2-21.4-116.9-55.1c27.7,29.9,67.4,48.7,111.5,48.7
		c83.8,0,151.8-68,151.8-151.8c0-36.6-12.9-70.5-34.9-96.5C343.6,130,359,166.2,359,205.9z"/>
	<path class="st6" d="M201.4,351.3c83.8,0,151.8-68,151.8-151.8s-68-151.8-151.8-151.8s-151.8,68-151.8,151.8
		S117.6,351.3,201.4,351.3z"/>
	<path class="st7" d="M316.6,100.5c-26.6-22.9-61.3-36.6-99-36.6c-83.8,0-151.8,68-151.8,151.8c0,37.8,13.9,72.4,36.6,99
		c-32.2-27.9-52.8-69.2-52.8-115c0-83.8,68-151.8,151.8-151.8C247.4,47.7,288.7,68.1,316.6,100.5z"/>
	<path class="st8" d="M276.1,109.2V97.2l-13.9,11.9H136.9l-9.4,28.1v11.9h39.9c12.7,0.4,21.2,5.4,25.4,14.6h-57.2l-8.1,19.3v11.9
		h66.7c-4.2,12.9-13.1,19.6-27.4,19.6h-35.1l0.2,28.5l68,81.1h55.7v-11.9l-10-2.5l-50.3-61.6c15.2-4.6,27-11.2,35.1-20
		c8.3-8.7,13.5-19.8,15.8-33.5h21.6l8.1-31.2v-11.9l-11.4,11.9h-18.1c-1.2-8.7-4.2-16.6-8.5-23.5h30.1L276.1,109.2z"/>
	<path class="st4" d="M268,128.6H238c4.2,7.1,7.1,14.8,8.5,23.5h29.7l-8.1,31.2h-21.6c-2.3,13.7-7.7,24.9-15.8,33.5
		c-8.3,8.7-20,15.4-35.1,20l59.9,73.8v2.3h-55.7l-68-81.1l-0.2-28.5h34.7c14.3-0.4,23.1-6.9,27.4-19.6H127l8.1-31.2h57.2
		c-4.2-9.4-12.7-14.3-25.4-14.6H127l9.4-40.1h139.7L268,128.6z"/>
	<path class="st5" d="M135.1,152.1h11.4l-15.4,15.4L135.1,152.1z M201.4,97.2l-40.1,40.1h-34.1l9.4-40.1H201.4z M268,128.6h-2.3
		l3.1-3.1L268,128.6z M275.9,152.1l-8.1,31.2h-21.8c-2.3,13.7-7.7,24.9-15.8,33.5c-8.3,8.7-19.8,15.4-35.1,20l18.3,22.5l-31.8,32
		l-35.8-42.8l100-100c0.2,1.2,0.6,2.5,0.6,3.7L275.9,152.1z M166.3,203.2c4.2-0.2,8.1-0.8,11.6-2.1l-39.3,39.3l-7.1-8.7l-0.2-11.8
		l16.8-16.8L166.3,203.2L166.3,203.2z M276.1,97.2l-2.1,7.7l-23.5,23.7h-12.7c1.7,2.5,3.1,5.4,4.2,8.3l-49.5,49.5
		c0.6-1,0.8-2.1,1.2-3.1h-25.4l86.1-86.1H276.1z M242.8,295.7l-17.5,17.5h-26l-0.8-0.8l31.6-31.6L242.8,295.7z"/>
	<path class="st9" d="M328.2,115.7c-98.2,34.5-177.2,110.2-215.8,206.5c-3.5-2.5-6.7-5-9.8-7.7c-22.9-26.6-36.6-61.3-36.6-99
		c0-83.8,68-151.8,151.8-151.8c37.8,0,72.4,13.9,99,36.6C320.8,105.1,324.7,110.3,328.2,115.7z"/>
</g>
</svg>
