<?xml version="1.0" encoding="utf-8"?>
<!-- Generator: Adobe Illustrator 28.0.0, SVG Export Plug-In . SVG Version: 6.00 Build 0)  -->
<svg version="1.1" id="Layer_1" xmlns="http://www.w3.org/2000/svg" xmlns:xlink="http://www.w3.org/1999/xlink" x="0px" y="0px"
	 viewBox="0 0 512 512" style="enable-background:new 0 0 512 512;" xml:space="preserve">
<style type="text/css">
	.st0{fill:#48CE7A;}
	.st1{fill:#32B266;}
	.st2{fill:#FDD835;}
	.st3{opacity:0.5;fill:#FFFFFF;enable-background:new    ;}
	.st4{fill:#F39E09;}
	.st5{fill:#E88102;}
	.st6{fill:#DB6704;}
	.st7{opacity:0.25;fill:#FFFFFF;enable-background:new    ;}
</style>
<g>
	<path class="st0" d="M492.7,215.7l-42.3-24.1c-3.2-9.5-6.9-18.6-11.3-27.4l12.8-47.1c2-7.3-0.1-15.3-5.5-20.7l-30.7-30.7
		c-5.5-5.4-13.4-7.5-20.7-5.5L347.8,73c-8.8-4.4-17.9-8.2-27.4-11.3l-24.1-42.3c-3.8-6.7-10.9-10.8-18.5-10.8h-43.5
		c-7.7,0-14.8,4.1-18.5,10.8l-24.1,42.3c-9.5,3.2-18.6,6.9-27.4,11.3l-47.1-12.8c-7.3-2-15.3,0.1-20.7,5.5L65.6,96.3
		c-5.4,5.5-7.5,13.4-5.5,20.7L73,164.2c-4.4,8.8-8.2,17.9-11.3,27.4l-42.3,24.1c-6.7,3.8-10.8,10.8-10.8,18.5v43.5
		c0,7.7,4.1,14.8,10.8,18.5l42.3,24.1c3.2,9.5,6.9,18.6,11.3,27.4l-12.8,47.1c-2,7.3,0.1,15.3,5.5,20.7l30.7,30.7
		c5.5,5.4,13.4,7.5,20.7,5.5l47.1-12.8c8.8,4.4,17.9,8.2,27.4,11.3l24.1,42.3c3.8,6.7,10.8,10.8,18.5,10.8h43.5
		c7.7,0,14.8-4.1,18.5-10.8l24.1-42.3c9.5-3.2,18.6-6.9,27.4-11.3l47.1,12.8c7.3,2,15.3-0.1,20.7-5.5l30.7-30.7
		c5.4-5.5,7.5-13.4,5.5-20.7L439,347.8c4.4-8.8,8.2-17.9,11.3-27.4l42.3-24.1c6.7-3.8,10.8-10.8,10.8-18.5v-43.5
		C503.5,226.6,499.4,219.5,492.7,215.7L492.7,215.7z M256,409.6c-84.8,0-153.6-68.8-153.6-153.6S171.2,102.4,256,102.4
		S409.6,171.2,409.6,256S340.8,409.6,256,409.6z"/>
	<path class="st1" d="M256,418.1c-89.4,0-162.1-72.7-162.1-162.1S166.6,93.9,256,93.9S418.1,166.6,418.1,256S345.4,418.1,256,418.1z
		 M256,110.9c-80,0-145.1,65.1-145.1,145.1S176,401.1,256,401.1S401.1,336,401.1,256S336,110.9,256,110.9z"/>
</g>
<g>
	<path class="st2" d="M257.2,389.8c73.9,0,133.8-59.9,133.8-133.8c0-73.9-59.9-133.8-133.8-133.8S123.3,182.1,123.3,256
		C123.3,329.9,183.2,389.8,257.2,389.8z"/>
	<path class="st3" d="M257.2,122.2c-73.9,0-133.8,59.9-133.8,133.8c0,73.9,59.9,133.8,133.8,133.8S391,329.9,391,256
		C391,182.1,331.2,122.2,257.2,122.2z M257.2,384.1c-70.8,0-128.1-57.3-128.1-128.1c0-70.8,57.4-128,128.1-128
		s128.1,57.3,128.1,128.1C385.3,326.9,328,384.1,257.2,384.1z"/>
	<path class="st3" d="M310.6,133.3L134.4,309.5c-6-13.9-9.6-28.6-10.8-43.7L267,122.5C282.4,123.7,297.1,127.4,310.6,133.3z
		 M373.9,190.3L191.5,372.6c-11.4-6.5-21.6-14.4-30.6-23.7l189.2-189.1C359.4,168.7,367.4,179,373.9,190.3z M344.7,154.8
		L155.9,343.6c-3-3.5-5.7-6.9-8.4-10.8l186.5-186.3C337.7,149,341.2,151.8,344.7,154.8z M386.8,222.6l-163,163
		c-4.9-1.2-9.8-2.9-14.5-4.7l172.8-172.8C384.1,212.9,385.6,217.7,386.8,222.6z"/>
	<path class="st3" d="M366,261.9c0,57.9-47,104.9-104.9,104.9c-32.5,0-61.6-14.8-80.9-38c19.1,20.7,46.5,33.7,77,33.7
		c57.9,0,104.9-47,104.9-104.9c0-25.4-9-48.7-24-66.7C355.4,209.4,366,234.4,366,261.9z"/>
	<path class="st4" d="M257.2,362.3c57.9,0,104.9-47,104.9-104.9c0-57.9-47-104.9-104.9-104.9s-104.9,47-104.9,104.9
		C152.3,315.4,199.2,362.3,257.2,362.3z"/>
	<path class="st5" d="M336.7,189c-18.4-15.8-42.3-25.4-68.4-25.4c-57.9,0-104.9,47-104.9,104.9c0,26.1,9.6,50,25.4,68.4
		c-22.2-19.3-36.5-47.7-36.5-79.4c0-57.9,47-104.9,104.9-104.9C289,152.5,317.4,166.7,336.7,189z"/>
	<path class="st6" d="M308.7,195v-8.3l-9.6,8.3h-86.7l-6.6,19.5v8.3h27.5c8.7,0.2,14.6,3.7,17.6,10.2h-39.6l-5.6,13.3v8.3h46
		c-2.9,9-9.1,13.5-18.9,13.6h-24.2l0.1,19.7l47,56.1h38.5v-8.3l-6.9-1.7l-34.7-42.6c10.5-3.2,18.7-7.8,24.3-13.9
		c5.7-6,9.3-13.8,10.9-23.2h15l5.6-21.5v-8.3l-7.9,8.3H288c-0.8-6-2.9-11.5-5.9-16.3H303L308.7,195z"/>
	<path class="st2" d="M303.1,208.4h-20.8c3,4.9,4.9,10.3,5.9,16.3h20.5l-5.6,21.5H288c-1.6,9.4-5.3,17.2-10.9,23.2
		c-5.7,6-13.9,10.6-24.3,13.9l41.4,51v1.6h-38.5l-47-56.1l-0.1-19.7h24.3c9.8-0.2,16-4.8,18.9-13.6h-46l5.6-21.5h39.6
		c-3-6.5-8.8-9.8-17.6-10.2h-27.5l6.6-27.7h96.3L303.1,208.4z"/>
	<path class="st3" d="M211.4,224.7h7.9l-10.6,10.6L211.4,224.7z M257.2,186.7l-27.7,27.7h-23.6l6.6-27.7H257.2z M303.1,208.4h-1.6
		l2.2-2.2L303.1,208.4z M308.6,224.7l-5.6,21.5h-15.1c-1.6,9.4-5.3,17.2-10.9,23.2c-5.7,6-13.8,10.6-24.3,13.9l12.7,15.5l-22,22.1
		l-24.8-29.5l69.1-69.1c0.1,0.8,0.4,1.7,0.4,2.5L308.6,224.7z M232.9,259.9c3-0.1,5.6-0.6,8-1.4l-27.2,27.2l-4.9-6l-0.1-8.1
		l11.6-11.6H232.9z M308.7,186.7l-1.4,5.3L291,208.4h-8.7c1.2,1.8,2.2,3.7,3,5.7l-34.2,34.2c0.4-0.7,0.6-1.4,0.8-2.2h-17.7
		l59.4-59.4H308.7z M285.7,323.8l-12.1,12.1h-17.9l-0.5-0.6l21.9-21.9L285.7,323.8z"/>
	<path class="st7" d="M344.7,199.5c-67.9,23.8-122.5,76.2-149,142.7c-2.4-1.7-4.7-3.5-6.8-5.4c-15.8-18.4-25.4-42.3-25.4-68.4
		c0-57.9,47-104.9,104.9-104.9c26.1,0,50,9.6,68.4,25.4C339.6,192.3,342.3,195.8,344.7,199.5z"/>
</g>
</svg>
