<?xml version="1.0" encoding="utf-8"?>
<!-- Generator: Adobe Illustrator 28.0.0, SVG Export Plug-In . SVG Version: 6.00 Build 0)  -->
<svg version="1.1" id="Layer_1" xmlns="http://www.w3.org/2000/svg" xmlns:xlink="http://www.w3.org/1999/xlink" x="0px" y="0px"
	 viewBox="0 0 512 512" style="enable-background:new 0 0 512 512;" xml:space="preserve">
<style type="text/css">
	.st0{fill:#FDD835;}
	.st1{opacity:0.5;fill:#FFFFFF;enable-background:new    ;}
	.st2{fill:#F39E09;}
	.st3{fill:#E88102;}
	.st4{fill:#DB6704;}
	.st5{opacity:0.25;fill:#FFFFFF;enable-background:new    ;}
</style>
<g>
	<path class="st0" d="M278.4,163.3V58h8.5c3.5,0,6.6-2.1,7.9-5.3c1.3-3.2,0.6-6.9-1.9-9.3L267.4,8.7c-3.3-3.3-8.7-3.3-12.1,0
		l-25.6,34.8c-2.4,2.4-3.2,6.1-1.9,9.3c1.3,3.2,4.4,5.3,7.9,5.3h8.5v105.3c-24.6,7.4-42.7,30-42.7,57c0,33,26.8,59.8,59.8,59.8
		s59.8-26.8,59.8-59.8C321.1,193.3,303.1,170.7,278.4,163.3z M204,106.8c3.3,3.3,8.7,3.3,12.1,0c3.3-3.3,3.3-8.7,0-12.1L199,77.6
		c-3.3-3.3-8.7-3.3-12.1,0l-17.1,17.1c-3.3,3.3-3.3,8.7,0,12.1c3.3,3.3,8.7,3.3,12.1,0l2.5-2.5v116.1c0,4.7,3.8,8.5,8.5,8.5
		s8.5-3.8,8.5-8.5V104.3L204,106.8z M352.8,94.7l-17.1-17.1c-3.3-3.3-8.7-3.3-12.1,0l-17.1,17.1c-3.3,3.3-3.3,8.7,0,12.1
		c3.3,3.3,8.7,3.3,12.1,0l2.5-2.5v116.1c0,4.7,3.8,8.5,8.5,8.5s8.5-3.8,8.5-8.5V104.3l2.5,2.5c3.3,3.3,8.7,3.3,12.1,0
		C356.2,103.5,356.2,98,352.8,94.7L352.8,94.7z"/>
</g>
<g>
	<path class="st0" d="M261.3,494.8c105.4,0,190.8-85.4,190.8-190.8c0-105.4-85.4-190.8-190.8-190.8S70.6,198.7,70.6,304
		C70.6,409.4,156,494.8,261.3,494.8z"/>
	<path class="st1" d="M261.3,113.3C156,113.3,70.6,198.7,70.6,304c0,105.4,85.4,190.8,190.8,190.8S452.1,409.4,452.1,304
		C452.1,198.7,366.8,113.3,261.3,113.3z M261.3,486.6C160.4,486.6,78.7,405,78.7,304c0-100.9,81.8-182.4,182.6-182.4
		s182.6,81.7,182.6,182.6C443.9,405.1,362.2,486.6,261.3,486.6z"/>
	<path class="st1" d="M337.5,129.1L86.4,380.2c-8.5-19.8-13.6-40.7-15.3-62.2l204.2-204.2C297.3,115.5,318.3,120.8,337.5,129.1z
		 M427.7,210.4l-260,259.8c-16.2-9.2-30.9-20.5-43.6-33.8L393.8,167C407.1,179.6,418.5,194.3,427.7,210.4z M386.1,159.8l-269.2,269
		c-4.3-4.9-8.2-9.9-11.9-15.3l265.8-265.6C376.1,151.5,381.2,155.6,386.1,159.8z M446.1,256.5L213.8,488.8c-7-1.7-14-4.1-20.6-6.6
		l246.3-246.3C442.2,242.7,444.4,249.5,446.1,256.5z"/>
	<path class="st1" d="M416.5,312.4c0,82.5-67,149.5-149.5,149.5c-46.4,0-87.8-21.1-115.2-54.2c27.3,29.5,66.3,48.1,109.8,48.1
		c82.5,0,149.5-67,149.5-149.5c0-36.1-12.8-69.4-34.3-95.1C401.3,237.6,416.5,273.2,416.5,312.4z"/>
	<path class="st2" d="M261.3,455.6c82.6,0,149.5-66.9,149.5-149.5c0-82.6-66.9-149.5-149.5-149.5s-149.5,66.9-149.5,149.5
		C111.8,388.7,178.8,455.6,261.3,455.6z"/>
	<path class="st3" d="M374.7,208.6c-26.3-22.5-60.3-36.1-97.5-36.1c-82.5,0-149.5,67-149.5,149.5c0,37.2,13.6,71.3,36.1,97.5
		c-31.7-27.4-52-68-52-113.2c0-82.5,67-149.5,149.5-149.5C306.7,156.6,347.2,176.7,374.7,208.6z"/>
	<path class="st4" d="M334.8,217.1v-11.8l-13.6,11.8H197.6l-9.4,27.8v11.8h39.2c12.4,0.3,20.8,5.3,25.1,14.5H196l-8,18.9v11.8h65.6
		c-4.1,12.8-13,19.3-26.9,19.4h-34.4l0.2,28.1l67,80h54.9v-11.8l-9.9-2.4L255,354.5c15-4.6,26.6-11.1,34.6-19.8
		c8.2-8.5,13.3-19.6,15.5-33.1h21.3l8-30.7v-11.8L323.2,271h-17.9c-1.2-8.5-4.1-16.4-8.4-23.2h29.7L334.8,217.1z"/>
	<path class="st0" d="M326.8,236.2h-29.7c4.3,7,7,14.7,8.4,23.2h29.2l-8,30.7h-21.3c-2.2,13.5-7.5,24.5-15.5,33.1
		c-8.2,8.5-19.8,15.2-34.6,19.8l59,72.6v2.2h-54.9l-67-80l-0.2-28.1h34.6c14-0.3,22.8-6.8,26.9-19.4H188l8-30.7h56.4
		c-4.3-9.2-12.6-14-25.1-14.5h-39.2l9.4-39.5h137.2L326.8,236.2z"/>
	<path class="st1" d="M196,259.4h11.3l-15.2,15.2L196,259.4z M261.3,205.3l-39.5,39.5h-33.6l9.4-39.5H261.3z M326.8,236.2h-2.2
		l3.1-3.1L326.8,236.2z M334.6,259.4l-8,30.7h-21.5c-2.2,13.5-7.5,24.5-15.5,33.1c-8.2,8.5-19.6,15.2-34.6,19.8l18.1,22.2
		l-31.4,31.5l-35.3-42.1L305,256c0.2,1.2,0.5,2.4,0.5,3.6L334.6,259.4z M226.7,309.7c4.3-0.2,8-0.9,11.4-2l-38.7,38.7l-7-8.5
		l-0.2-11.6l16.5-16.5H226.7z M334.8,205.3l-2,7.5l-23.2,23.4h-12.4c1.7,2.6,3.1,5.3,4.3,8.2l-48.8,48.8c0.5-1,0.9-2,1.2-3.1h-25.2
		l84.7-84.7H334.8z M302.1,400.7l-17.2,17.2h-25.6l-0.7-0.9l31.2-31.2L302.1,400.7z"/>
	<path class="st5" d="M386.1,223.6c-96.8,33.9-174.6,108.6-212.4,203.4c-3.4-2.4-6.6-4.9-9.7-7.7c-22.5-26.3-36.1-60.3-36.1-97.5
		c0-82.5,67-149.5,149.5-149.5c37.2,0,71.3,13.6,97.5,36.1C378.8,213.2,382.7,218.3,386.1,223.6z"/>
</g>
</svg>
