<?xml version="1.0" encoding="utf-8"?>
<!-- Generator: Adobe Illustrator 28.0.0, SVG Export Plug-In . SVG Version: 6.00 Build 0)  -->
<svg version="1.1" id="Layer_1" xmlns="http://www.w3.org/2000/svg" xmlns:xlink="http://www.w3.org/1999/xlink" x="0px" y="0px"
	 viewBox="0 0 512 512" style="enable-background:new 0 0 512 512;" xml:space="preserve">
<style type="text/css">
	.st0{fill:#C69C6D;}
	.st1{fill:#FDD835;}
	.st2{opacity:0.5;fill:#FFFFFF;enable-background:new    ;}
	.st3{fill:#F39E09;}
	.st4{fill:#E88102;}
	.st5{fill:#DB6704;}
	.st6{opacity:0.25;fill:#FFFFFF;enable-background:new    ;}
	.st7{fill:#8C6239;}
	.st8{fill:#A67C52;}
	.st9{fill:#CCCCCC;}
	.st10{fill:#009245;}
	.st11{fill:#3DBF50;}
	.st12{fill:#C7B299;}
	.st13{fill:#754C24;}
</style>
<g>
	<path class="st0" d="M200,424V273.4c0-31,15-60.1,40.2-78.1L256,184h112l15.8,11.3c25.2,18,40.2,47.1,40.2,78.1V424
		c0,35.3-28.7,64-64,64h-96C228.7,488,200,459.3,200,424z"/>
	<g>
		<path class="st1" d="M312,369c26.5,0,48-21.5,48-48c0-26.5-21.5-48-48-48s-48,21.5-48,48C264,347.5,285.5,369,312,369z"/>
		<path class="st2" d="M312,273c-26.5,0-48,21.5-48,48c0,26.5,21.5,48,48,48s48-21.5,48-48C360,294.5,338.6,273,312,273z M312,366.9
			c-25.4,0-45.9-20.5-45.9-45.9c0-25.4,20.6-45.9,45.9-45.9s45.9,20.5,45.9,45.9C357.9,346.4,337.4,366.9,312,366.9z"/>
		<path class="st2" d="M331.2,277L268,340.2c-2.1-5-3.4-10.3-3.9-15.7l51.4-51.4C321.1,273.5,326.3,274.9,331.2,277z M353.9,297.4
			l-65.4,65.4c-4.1-2.3-7.8-5.1-11-8.5l67.9-67.8C348.7,289.7,351.6,293.4,353.9,297.4z M343.4,284.7l-67.7,67.7
			c-1.1-1.2-2.1-2.5-3-3.9l66.9-66.8C340.9,282.6,342.2,283.6,343.4,284.7z M358.5,309L300,367.5c-1.8-0.4-3.5-1-5.2-1.7l62-62
			C357.5,305.5,358.1,307.3,358.5,309z"/>
		<path class="st2" d="M351,323.1c0,20.8-16.9,37.6-37.6,37.6c-11.7,0-22.1-5.3-29-13.6c6.9,7.4,16.7,12.1,27.6,12.1
			c20.8,0,37.6-16.9,37.6-37.6c0-9.1-3.2-17.5-8.6-23.9C347.2,304.3,351,313.2,351,323.1z"/>
		<path class="st3" d="M312,359.1c20.8,0,37.6-16.8,37.6-37.6c0-20.8-16.8-37.6-37.6-37.6s-37.6,16.8-37.6,37.6
			C274.4,342.3,291.2,359.1,312,359.1z"/>
		<path class="st4" d="M340.5,297c-6.6-5.7-15.2-9.1-24.5-9.1c-20.8,0-37.6,16.9-37.6,37.6c0,9.4,3.4,17.9,9.1,24.5
			c-8-6.9-13.1-17.1-13.1-28.5c0-20.8,16.9-37.6,37.6-37.6C323.4,283.9,333.6,288.9,340.5,297z"/>
		<path class="st5" d="M330.5,299.1v-3l-3.4,3H296l-2.4,7v3h9.9c3.1,0.1,5.2,1.3,6.3,3.6h-14.2l-2,4.8v3h16.5
			c-1,3.2-3.3,4.8-6.8,4.9h-8.7l0,7.1l16.9,20.1h13.8v-3l-2.5-0.6l-12.4-15.3c3.8-1.2,6.7-2.8,8.7-5c2.1-2.1,3.3-4.9,3.9-8.3h5.4
			l2-7.7v-3l-2.8,3h-4.5c-0.3-2.1-1-4.1-2.1-5.8h7.5L330.5,299.1z"/>
		<path class="st1" d="M328.5,303.9H321c1.1,1.8,1.8,3.7,2.1,5.8h7.3l-2,7.7h-5.4c-0.6,3.4-1.9,6.2-3.9,8.3c-2.1,2.1-5,3.8-8.7,5
			l14.8,18.3v0.6h-13.8l-16.9-20.1l0-7.1h8.7c3.5-0.1,5.7-1.7,6.8-4.9h-16.5l2-7.7h14.2c-1.1-2.3-3.2-3.5-6.3-3.6h-9.9l2.4-10h34.5
			L328.5,303.9z"/>
		<path class="st2" d="M295.6,309.7h2.8l-3.8,3.8L295.6,309.7z M312,296.2l-10,10h-8.5l2.4-10H312z M328.5,303.9h-0.6l0.8-0.8
			L328.5,303.9z M330.4,309.7l-2,7.7H323c-0.6,3.4-1.9,6.2-3.9,8.3c-2.1,2.1-4.9,3.8-8.7,5l4.5,5.6l-7.9,7.9l-8.9-10.6l24.8-24.8
			c0,0.3,0.1,0.6,0.1,0.9L330.4,309.7z M303.3,322.4c1.1,0,2-0.2,2.9-0.5l-9.7,9.7l-1.8-2.1l0-2.9l4.2-4.2H303.3z M330.5,296.2
			L330,298l-5.8,5.9H321c0.4,0.6,0.8,1.3,1.1,2.1l-12.3,12.3c0.1-0.3,0.2-0.5,0.3-0.8h-6.3l21.3-21.3H330.5z M322.3,345.3l-4.3,4.3
			h-6.4l-0.2-0.2l7.8-7.8L322.3,345.3z"/>
		<path class="st6" d="M343.4,300.7c-24.4,8.5-43.9,27.3-53.4,51.2c-0.9-0.6-1.7-1.2-2.4-1.9c-5.7-6.6-9.1-15.2-9.1-24.5
			c0-20.8,16.9-37.6,37.6-37.6c9.4,0,17.9,3.4,24.5,9.1C341.6,298.1,342.5,299.4,343.4,300.7z"/>
	</g>
	<path class="st0" d="M272,152l-11.4-45.5c-2-8,2.8-16,10.8-18c1.2-0.3,2.4-0.4,3.6-0.4c3.2,0,6.4,1,8.9,3l28,21l28-21
		c2.6-1.9,5.7-3,9-3c8.2,0,14.9,6.7,14.8,14.9c0,1.2-0.2,2.4-0.4,3.6L352,152H272z"/>
	<path class="st7" d="M256,152h112v32H256V152z"/>
	<path class="st8" d="M56,424V233.4c0-31,15-60.1,40.2-78.1L112,144h112l15.8,11.3c25.2,18,40.2,47.1,40.2,78.1V424
		c0,35.3-28.7,64-64,64h-96C84.7,488,56,459.3,56,424z"/>
	<path class="st0" d="M128,112l-11.4-45.5c-2-8,2.8-16,10.8-18c1.2-0.3,2.4-0.4,3.6-0.4c3.2,0,6.4,1,8.9,3l28,21l28-21
		c2.6-1.9,5.7-3,9-3c8.2,0,14.9,6.7,14.8,14.9c0,1.2-0.2,2.4-0.4,3.6L208,112H128z"/>
	<path class="st7" d="M112,112h112v32H112V112z"/>
	<path class="st9" d="M16,256h16v176H16V256z M16,224h16v16H16V224z M464,288h-16v-11.2c0.1-32.6-12.6-63.9-35.2-87.3l11.5-11.1
		c25.5,26.4,39.8,61.7,39.7,98.4V288z"/>
	<path class="st10" d="M264,328h192v32H264V328z"/>
	<path class="st11" d="M264,360h192v32H264V360z"/>
	<path class="st10" d="M264,392h192v32H264V392z"/>
	<path class="st11" d="M264,424h192v32H264V424z"/>
	<path class="st10" d="M264,456h192v32H264V456z"/>
	<path class="st12" d="M336,328h48v160h-48V328z"/>
	<path class="st13" d="M16,480h472v16H16V480z"/>
</g>
<g>
	<path class="st1" d="M168,378.6c38.7,0,70-31.3,70-70c0-38.7-31.3-70-70-70s-70,31.3-70,70C98,347.3,129.4,378.6,168,378.6z"/>
	<path class="st2" d="M168,238.7c-38.7,0-70,31.3-70,70c0,38.7,31.3,70,70,70s70-31.3,70-70C238,270,206.7,238.7,168,238.7z
		 M168,375.6c-37,0-67-30-67-67c0-37,30-66.9,67-66.9s67,30,67,67C235,345.7,205,375.6,168,375.6z"/>
	<path class="st2" d="M196,244.5l-92.1,92.1c-3.1-7.3-5-14.9-5.6-22.8l74.9-74.9C181.2,239.5,188.9,241.4,196,244.5z M229.1,274.3
		l-95.4,95.3c-5.9-3.4-11.3-7.5-16-12.4l98.9-98.9C221.5,263,225.7,268.4,229.1,274.3z M213.8,255.7L115,354.4
		c-1.6-1.8-3-3.6-4.4-5.6l97.5-97.4C210.1,252.7,212,254.2,213.8,255.7z M235.8,291.2l-85.2,85.2c-2.6-0.6-5.1-1.5-7.6-2.4
		l90.4-90.4C234.4,286.1,235.2,288.6,235.8,291.2z"/>
	<path class="st2" d="M224.9,311.7c0,30.3-24.6,54.8-54.8,54.8c-17,0-32.2-7.8-42.3-19.9c10,10.8,24.3,17.6,40.3,17.6
		c30.3,0,54.9-24.6,54.9-54.9c0-13.3-4.7-25.5-12.6-34.9C219.4,284.3,224.9,297.3,224.9,311.7z"/>
	<path class="st3" d="M168,364.2c30.3,0,54.8-24.6,54.8-54.9c0-30.3-24.6-54.8-54.8-54.8s-54.9,24.6-54.9,54.8
		C113.2,339.7,137.7,364.2,168,364.2z"/>
	<path class="st4" d="M209.6,273.6c-9.6-8.3-22.1-13.3-35.8-13.3c-30.3,0-54.9,24.6-54.9,54.9c0,13.6,5,26.1,13.3,35.8
		c-11.6-10.1-19.1-25-19.1-41.5c0-30.3,24.6-54.9,54.9-54.9C184.7,254.5,199.5,261.9,209.6,273.6z"/>
	<path class="st5" d="M195,276.7v-4.3l-5,4.3h-45.3l-3.4,10.2v4.3h14.4c4.6,0.1,7.6,1.9,9.2,5.3h-20.7l-2.9,6.9v4.3h24.1
		c-1.5,4.7-4.8,7.1-9.9,7.1h-12.6l0.1,10.3l24.6,29.3h20.1v-4.3l-3.6-0.9l-18.1-22.3c5.5-1.7,9.8-4.1,12.7-7.3
		c3-3.1,4.9-7.2,5.7-12.1h7.8l2.9-11.3v-4.3l-4.1,4.3h-6.6c-0.4-3.1-1.5-6-3.1-8.5H192L195,276.7z"/>
	<path class="st1" d="M192,283.8h-10.9c1.6,2.6,2.6,5.4,3.1,8.5h10.7l-2.9,11.3h-7.8c-0.8,4.9-2.8,9-5.7,12.1
		c-3,3.1-7.3,5.6-12.7,7.3l21.6,26.6v0.8h-20.1L142.7,321l-0.1-10.3h12.7c5.1-0.1,8.4-2.5,9.9-7.1h-24.1l2.9-11.3h20.7
		c-1.6-3.4-4.6-5.1-9.2-5.3h-14.4l3.4-14.5H195L192,283.8z"/>
	<path class="st2" d="M144.1,292.3h4.1l-5.6,5.6L144.1,292.3z M168,272.4l-14.5,14.5h-12.3l3.4-14.5H168z M192,283.8h-0.8l1.1-1.1
		L192,283.8z M194.9,292.3l-2.9,11.3h-7.9c-0.8,4.9-2.8,9-5.7,12.1c-3,3.1-7.2,5.6-12.7,7.3l6.6,8.1l-11.5,11.6l-12.9-15.4L184,291
		c0.1,0.4,0.2,0.9,0.2,1.3L194.9,292.3z M155.3,310.7c1.6-0.1,2.9-0.3,4.2-0.7l-14.2,14.2l-2.6-3.1l-0.1-4.3l6.1-6.1H155.3z
		 M195,272.4l-0.8,2.8l-8.5,8.6h-4.6c0.6,0.9,1.1,1.9,1.6,3l-17.9,17.9c0.2-0.4,0.3-0.8,0.4-1.1H156l31.1-31.1H195z M183,344.1
		l-6.3,6.3h-9.4l-0.3-0.3l11.4-11.4L183,344.1z"/>
	<path class="st6" d="M213.8,279.1c-35.5,12.4-64,39.8-77.9,74.6c-1.2-0.9-2.4-1.8-3.6-2.8c-8.3-9.6-13.3-22.1-13.3-35.8
		c0-30.3,24.6-54.9,54.9-54.9c13.6,0,26.1,5,35.8,13.3C211.1,275.3,212.5,277.2,213.8,279.1z"/>
</g>
</svg>
