<?xml version="1.0" encoding="utf-8"?>
<!-- Generator: Adobe Illustrator 28.0.0, SVG Export Plug-In . SVG Version: 6.00 Build 0)  -->
<svg version="1.1" id="Layer_1" xmlns="http://www.w3.org/2000/svg" xmlns:xlink="http://www.w3.org/1999/xlink" x="0px" y="0px"
	 viewBox="0 0 512 512" style="enable-background:new 0 0 512 512;" xml:space="preserve">
<style type="text/css">
	.st0{fill:#3EB798;}
</style>
<g>
	<path class="st0" d="M415.6,8.3H96.4C52.3,8.3,16.6,44,16.6,88.1v239.4c0,44.1,35.7,79.8,79.8,79.8v76.4c0,11,8.9,20,20,20
		c4.8,0,9.4-1.7,13-4.8L236,407.3h179.6c44.1,0,79.8-35.7,79.8-79.8V88.1C495.4,44,459.7,8.3,415.6,8.3z M164.4,235.9
		c-1.8,1.9-3.8,3.6-6,5c-2.1,1.5-4.4,2.7-6.8,3.8c-2.5,0.9-5,1.7-7.6,2.2c-2.6,0.6-5.2,0.8-7.8,0.8c-22,0-39.9-17.9-39.9-39.9
		c-0.4-22,17.1-40.2,39.1-40.7c2.9-0.1,5.7,0.2,8.6,0.8c2.6,0.5,5.1,1.3,7.6,2.2c2.4,1,4.7,2.3,6.8,3.8c2.2,1.4,4.2,3,6,4.8
		c7.7,7.7,12,18.2,11.8,29.1C176.2,218.4,171.9,228.5,164.4,235.9L164.4,235.9z M284.1,235.9c-7.4,7.5-17.6,11.7-28.1,11.8
		c-2.6,0.3-5.2,0.3-7.8,0c-2.6-0.5-5.1-1.3-7.6-2.2c-2.4-1.1-4.6-2.3-6.8-3.8c-2.2-1.4-4.3-3.1-6.2-5c-7.6-7.7-11.8-18.1-11.6-28.9
		c-0.3-2.6-0.3-5.2,0-7.8c0.5-2.6,1.3-5.1,2.2-7.6c1-2.4,2.3-4.7,3.8-6.8c1.4-2.2,3-4.3,4.8-6.2c1.9-1.8,4-3.4,6.2-4.8
		c2.1-1.5,4.4-2.8,6.8-3.8c2.7-1.2,5.5-2.2,8.4-3c21.6-4.3,42.6,9.7,46.9,31.3c0.6,2.8,0.8,5.7,0.8,8.6c0,10.5-4.1,20.7-11.6,28.1
		L284.1,235.9L284.1,235.9z M403.8,235.9c-1.8,1.9-3.8,3.6-6,5c-2.1,1.5-4.4,2.7-6.8,3.8c-2.5,0.9-5,1.7-7.6,2.2
		c-2.6,0.6-5.2,0.8-7.8,0.8c-22,0-39.9-17.9-39.9-39.9c-0.4-22,17.1-40.2,39.1-40.7c2.9-0.1,5.7,0.2,8.6,0.8
		c2.6,0.5,5.1,1.3,7.6,2.2c2.4,1,4.7,2.3,6.8,3.8c2.2,1.4,4.2,3,6,4.8c7.7,7.7,12,18.2,11.8,29.1
		C415.6,218.4,411.3,228.5,403.8,235.9L403.8,235.9z"/>
</g>
</svg>
