<?xml version="1.0" encoding="utf-8"?>
<!-- Generator: Adobe Illustrator 28.0.0, SVG Export Plug-In . SVG Version: 6.00 Build 0)  -->
<svg version="1.1" id="Layer_1" xmlns="http://www.w3.org/2000/svg" xmlns:xlink="http://www.w3.org/1999/xlink" x="0px" y="0px"
	 viewBox="0 0 568.1 152.3" style="enable-background:new 0 0 568.1 152.3;" xml:space="preserve">
<style type="text/css">
	.st0{fill:#D81F36;}
	.st1{fill:#0E3746;}
	.st2{fill:#5A5A5C;}
</style>
<g>
	<g>
		<g>
			<polygon class="st0" points="130.4,15.1 130.4,98.2 88.8,139.8 88.8,98.2 47.2,98.2 47.2,56.6 5.7,56.6 47.2,15.1 			"/>
		</g>
		<g>
			<g>
				<path class="st1" d="M172,90.2V23.5h11.9v63.1l-5.4-6.3h30.6v9.8H172z"/>
				<path class="st1" d="M242.3,91.1c-5.1,0-9.5-1.1-13.4-3.2c-3.9-2.1-6.9-5.1-9.1-8.8c-2.2-3.8-3.3-8.1-3.3-12.9
					c0-4.9,1.1-9.2,3.3-12.9c2.2-3.7,5.2-6.6,9.1-8.7c3.9-2.1,8.3-3.2,13.4-3.2s9.5,1.1,13.4,3.2c3.9,2.1,6.9,5,9.1,8.7
					c2.2,3.7,3.3,8,3.3,12.9c0,4.8-1.1,9.2-3.3,12.9c-2.2,3.8-5.2,6.7-9.1,8.8C251.8,90,247.3,91.1,242.3,91.1z M242.3,81.4
					c2.7,0,5.1-0.6,7.2-1.9c2-1.3,3.6-3,4.8-5.3c1.1-2.3,1.7-4.9,1.7-8c0-3.1-0.6-5.7-1.7-8c-1.1-2.2-2.7-4-4.8-5.2
					c-2-1.2-4.4-1.9-7.2-1.9c-2.7,0-5.1,0.6-7.2,1.9c-2.1,1.2-3.7,3-4.8,5.2c-1.1,2.2-1.7,4.9-1.7,8c0,3.1,0.6,5.7,1.7,8
					c1.1,2.3,2.7,4,4.8,5.3C237.2,80.8,239.6,81.4,242.3,81.4z"/>
				<path class="st1" d="M294.2,91.1c-3.6,0-6.7-0.6-9.4-1.7c-2.7-1.1-4.8-2.8-6.4-4.9c-1.5-2.1-2.3-4.7-2.3-7.7
					c0-3.3,0.9-6,2.7-8.1c1.8-2.1,4.2-3.8,7.3-4.9c3-1.2,6.4-1.9,10.1-2.2c5.5-0.5,9.3-1.1,11.5-1.6c2.2-0.5,3.3-1.3,3.3-2.4
					c0,0,0-0.1,0-0.1c0-2.1-0.9-3.7-2.8-4.9c-1.9-1.1-4.6-1.7-8-1.7c-3.6,0-6.4,0.6-8.4,1.9c-1.9,1.3-2.9,3.3-2.9,6.1H277
					c0-3.8,1-7,3-9.6c2-2.6,4.8-4.6,8.2-5.9c3.5-1.4,7.5-2,11.9-2c4.1,0,7.9,0.6,11.3,1.9c3.4,1.2,6.2,3.1,8.3,5.6
					c2.1,2.5,3.1,5.6,3.1,9.4c0,0.6,0,1.3,0,1.9s0,1.3,0,1.9V80c0,1.1,0,2.3,0.1,3.4c0.1,1.1,0.2,2.1,0.5,3c0.3,1,0.7,1.8,1.1,2.4
					c0.4,0.7,0.8,1.1,1,1.4h-11.7c-0.2-0.2-0.5-0.6-0.9-1.2c-0.4-0.6-0.7-1.3-1-2.1c-0.3-0.9-0.5-1.9-0.7-2.9
					c-0.2-1-0.2-2.2-0.2-3.5l2.3,1.6c-0.9,1.8-2.3,3.4-4.1,4.8c-1.9,1.4-4.1,2.4-6.6,3.2C300,90.8,297.2,91.1,294.2,91.1z
					 M297.1,81.8c2.5,0,4.8-0.4,6.9-1.3c2.1-0.8,3.8-2.1,5.1-3.9c1.3-1.8,1.9-4,1.9-6.8v-6.4l2.9,3.3c-1.9,0.7-4.2,1.3-7,1.8
					c-2.7,0.5-5.5,0.8-8.2,1.1c-3.6,0.3-6.2,0.9-8,1.9c-1.8,0.9-2.7,2.4-2.7,4.4c0,2,0.8,3.5,2.3,4.5
					C291.8,81.3,294.1,81.8,297.1,81.8z"/>
				<path class="st1" d="M333.9,90.2v-48h11.9v48H333.9z M367.9,90.2V68.9c0-1.2,0-2.3,0-3.2c0-0.9,0-1.8,0-2.5
					c0-2.2-0.3-4.1-0.9-5.9c-0.6-1.7-1.7-3.1-3.2-4.1c-1.5-1-3.5-1.5-6.2-1.5c-2.3,0-4.3,0.6-6.1,1.6c-1.8,1.1-3.2,2.6-4.2,4.5
					c-1,1.9-1.5,4.1-1.5,6.6l-4-2.5c0-4,0.9-7.6,2.7-10.7c1.8-3.1,4.3-5.6,7.3-7.3c3.1-1.8,6.5-2.7,10.2-2.7c3.9,0,7.1,0.8,9.7,2.3
					c2.6,1.5,4.6,3.6,6,6.4c1.3,2.8,2,6,2,9.8c0,1.4,0,3.1,0,4.9c0,1.8,0,3.6,0,5.3v20.2H367.9z"/>
				<path class="st1" d="M396.9,33.3c-1.9,0-3.6-0.5-5-1.6c-1.4-1-2.1-2.5-2.1-4.4c0-1.8,0.7-3.3,2.1-4.3c1.4-1,3.1-1.5,5-1.5
					c1.9,0,3.6,0.5,5,1.5c1.4,1,2.1,2.5,2.1,4.3c0,1.9-0.7,3.3-2.1,4.4C400.5,32.8,398.8,33.3,396.9,33.3z M391,90.2v-48h11.7v48
					H391z"/>
				<path class="st1" d="M436.6,91.1c-1.7,0-3.5-0.2-5.2-0.5c-1.8-0.3-3.4-0.9-4.9-1.9c-1.5-0.9-2.7-2.2-3.6-4
					c-0.9-1.7-1.4-4.1-1.4-6.9c0-0.7,0-1.3,0-2s0-1.4,0-2.1v-22h-11.3v-9.5h4.6c1.6,0,2.8-0.1,3.7-0.2c0.9-0.1,1.6-0.5,2-1
					c0.4-0.5,0.7-1.3,0.8-2.4c0.1-1.1,0.2-2.6,0.2-4.6v-7.6h11.9v15.8h14.3v9.5h-14.3v19.2c0,0.6,0,1.1,0,1.7c0,0.6,0,1.1,0,1.6
					c0,2.2,0.3,4,0.8,5.4c0.5,1.4,1.8,2,3.8,2c1,0,1.9-0.1,2.7-0.3c0.9-0.2,1.5-0.4,1.9-0.5v9.3c-0.6,0.2-1.4,0.4-2.5,0.6
					C439.2,91,437.9,91.1,436.6,91.1z"/>
				<path class="st1" d="M478.9,91.1c-5.1,0-9.5-1.1-13.4-3.2c-3.9-2.1-6.9-5.1-9.1-8.8c-2.2-3.8-3.3-8.1-3.3-12.9
					c0-4.9,1.1-9.2,3.3-12.9c2.2-3.7,5.2-6.6,9.1-8.7c3.9-2.1,8.3-3.2,13.4-3.2s9.5,1.1,13.4,3.2c3.9,2.1,6.9,5,9.1,8.7
					c2.2,3.7,3.3,8,3.3,12.9c0,4.8-1.1,9.2-3.3,12.9c-2.2,3.8-5.2,6.7-9.1,8.8C488.5,90,484,91.1,478.9,91.1z M478.9,81.4
					c2.7,0,5.1-0.6,7.2-1.9c2-1.3,3.6-3,4.8-5.3c1.1-2.3,1.7-4.9,1.7-8c0-3.1-0.6-5.7-1.7-8c-1.1-2.2-2.7-4-4.8-5.2
					c-2-1.2-4.4-1.9-7.2-1.9c-2.7,0-5.1,0.6-7.2,1.9c-2.1,1.2-3.7,3-4.8,5.2c-1.1,2.2-1.7,4.9-1.7,8c0,3.1,0.6,5.7,1.7,8
					c1.1,2.3,2.7,4,4.8,5.3C473.8,80.8,476.2,81.4,478.9,81.4z"/>
				<path class="st1" d="M526.8,19.5v70.6h-11.7V19.5H526.8z"/>
			</g>
		</g>
		<g>
			<path class="st2" d="M329.9,113.9l-8.6,25.8h-3.9l-7-20.6l-7,20.6h-3.9l-8.6-25.8h3.8l7,21l7.3-21h3.4l7.1,21.1l7.1-21.1H329.9z"
				/>
			<path class="st2" d="M350,131.1h-15.9c0.4,3.4,3.2,5.7,7.1,5.7c2.3,0,4.2-0.8,5.6-2.4l2,2.3c-1.8,2.1-4.5,3.2-7.7,3.2
				c-6.3,0-10.5-4.2-10.5-10c0-5.8,4.2-10,9.8-10c5.6,0,9.7,4.1,9.7,10.1C350.1,130.4,350.1,130.8,350,131.1z M334.2,128.6h12.5
				c-0.4-3.3-2.8-5.6-6.3-5.6C337.1,123,334.6,125.3,334.2,128.6z"/>
			<path class="st2" d="M364.9,112.4h3.5v27.4h-3.5V112.4z"/>
			<path class="st2" d="M373.4,130c0-5.8,4.3-10,10.2-10s10.1,4.1,10.1,10c0,5.8-4.3,10-10.1,10S373.4,135.8,373.4,130z M390.1,130
				c0-4.2-2.8-6.9-6.6-6.9c-3.8,0-6.6,2.7-6.6,6.9s2.8,6.9,6.6,6.9C387.3,136.9,390.1,134.1,390.1,130z"/>
			<path class="st2" d="M413.9,127.9v11.8h-3.4v-2.6c-1.2,1.8-3.4,2.8-6.4,2.8c-4.4,0-7.2-2.4-7.2-5.8c0-3.1,2-5.7,7.9-5.7h5.6v-0.7
				c0-3-1.7-4.7-5.2-4.7c-2.3,0-4.7,0.8-6.2,2.1l-1.5-2.7c2-1.6,4.9-2.5,8.1-2.5C410.9,120,413.9,122.6,413.9,127.9z M410.4,133.8
				V131h-5.5c-3.5,0-4.5,1.4-4.5,3c0,2,1.6,3.2,4.3,3.2C407.4,137.2,409.5,136,410.4,133.8z"/>
			<path class="st2" d="M439,128.5v11.2h-3.5v-10.8c0-3.8-1.9-5.7-5.3-5.7c-3.8,0-6.2,2.2-6.2,6.5v10.1h-3.5v-19.5h3.4v2.9
				c1.4-2,3.9-3.1,7-3.1C435.7,120,439,122.7,439,128.5z"/>
			<path class="st2" d="M454.9,114.1c0-1.3,1-2.3,2.4-2.3c1.4,0,2.4,1,2.4,2.2c0,1.3-1,2.4-2.4,2.4
				C455.9,116.4,454.9,115.4,454.9,114.1z M455.5,120.2h3.5v19.5h-3.5V120.2z"/>
			<path class="st2" d="M476.8,138.6c-1.1,0.9-2.7,1.4-4.3,1.4c-3.9,0-6.2-2.2-6.2-6.1v-10.7H463v-2.9h3.3v-4.3h3.5v4.3h5.6v2.9
				h-5.6v10.6c0,2.1,1.1,3.3,3.1,3.3c1,0,2-0.3,2.8-0.9L476.8,138.6z"/>
			<path class="st2" d="M506.4,127.9v11.8h-3.4v-2.6c-1.2,1.8-3.4,2.8-6.4,2.8c-4.4,0-7.2-2.4-7.2-5.8c0-3.1,2-5.7,7.9-5.7h5.6v-0.7
				c0-3-1.7-4.7-5.2-4.7c-2.3,0-4.7,0.8-6.2,2.1l-1.5-2.7c2-1.6,4.9-2.5,8.1-2.5C503.4,120,506.4,122.6,506.4,127.9z M502.9,133.8
				V131h-5.5c-3.5,0-4.5,1.4-4.5,3c0,2,1.6,3.2,4.3,3.2C499.9,137.2,502,136,502.9,133.8z"/>
			<path class="st2" d="M513,112.4h3.5v27.4H513V112.4z"/>
			<path class="st2" d="M523.3,112.4h3.5v27.4h-3.5V112.4z"/>
		</g>
	</g>
	<g>
		<path class="st1" d="M540.5,19.7h-4v-1.5h9.7v1.5h-4v10.2h-1.7V19.7z"/>
		<path class="st1" d="M558.8,29.9l0-8.5l-4.2,7.1h-0.8l-4.2-7.1v8.5H548V18.3h1.4l4.9,8.2l4.8-8.2h1.4l0,11.7H558.8z"/>
	</g>
</g>
</svg>
